<svg xmlns="http://www.w3.org/2000/svg" width="32" height="30"><path fill-rule="evenodd" fill="#602C75" d="M23.084 29.916c-.03.002-.056.004-.086.004a1 1 0 0 1-.082-1.996C27.54 27.538 30 25.978 30 25v-1.044c-1.164.742-2.792 1.33-4.826 1.688a1.001 1.001 0 0 1-1.158-.81 1.001 1.001 0 0 1 .81-1.158C28.188 23.082 30 21.854 30 21v-1.044c-1.164.742-2.792 1.33-4.826 1.688a1.001 1.001 0 0 1-1.158-.81 1.001 1.001 0 0 1 .81-1.158C28.188 19.082 30 17.854 30 17v-1.044c-1.164.744-2.792 1.33-4.826 1.688a1.001 1.001 0 0 1-1.158-.81 1.001 1.001 0 0 1 .81-1.158C28.188 15.082 30 13.854 30 13v-1.07c-1.718 1.094-4.312 1.768-6.916 1.986-.03.002-.056.004-.086.004a1 1 0 0 1-.082-1.996C27.54 11.538 30 9.978 30 9V7.958C27.878 9.296 24.374 10 21 10c-3.374 0-6.878-.704-9-2.042V9a1 1 0 0 1-2 0V5c0-3.248 5.668-5 11-5s11 1.752 11 5v20c0 2.882-4.478 4.544-8.916 4.916zM21 2c-5.494 0-9 1.778-9 3s3.506 3 9 3 9-1.778 9-3-3.506-3-9-3zm1 15v8c0 3.248-5.668 5-11 5S0 28.248 0 25v-8c0-3.248 5.668-5 11-5s11 1.752 11 5zM2 25c0 1.222 3.506 3 9 3s9-1.778 9-3v-1.042C17.878 25.296 14.374 26 11 26c-3.374 0-6.878-.704-9-2.042V25zm0-4c0 1.222 3.506 3 9 3s9-1.778 9-3v-1.042C17.878 21.296 14.374 22 11 22c-3.374 0-6.878-.704-9-2.042V21zm0-4c0 1.222 3.506 3 9 3s9-1.778 9-3-3.506-3-9-3-9 1.778-9 3z"/></svg>