<svg xmlns="http://www.w3.org/2000/svg" width="204" height="195"><path fill-rule="evenodd" fill="#0059B5" d="M202.892 47.345l-5.906 7.844-8.847 8.71-7.635 3.482-.191.088-.011.211-.175 3.682-.004.092.043.084 2.338 4.528-3.167 3.681-.07.081-.013.108-.513 4.988-1.937 2.427-7.186.344-.259.011-.059.26-1.018 4.596-2.606 1.694-2.95-3.291-.302-.34-.246.387-4.103 6.526-6.473.682-.14.012-.087.109-5.716 6.784-2.581.675-.997-1.369-.42-2.731-.007-.021-.431-1.952-.046-.209-.209-.051-2.884-.7-.305-3.864-.025-.304-.304-.015-6.79-.309v-5.443l-.354.013-3.096.096.096-6.853 2.767.192.169.008.111-.125 3.237-3.57.043-.051.024-.06 1.917-5.027 2.977-3.2.044-.047.024-.064L142.157 61l2.62-2.955.008.028 3.013-4.046-.239-.207-2.634-2.312v-3.244l9.593-4.054.227-.095-.015-.243-.346-5.524-.006-.106-.061-.082-5.83-7.735 2.441-6.054 8.254.788 6.359 7.198.043.05.057.028 6.916 3.605-.011.071 10.368 1.183.108.012.096-.053 3.775-2.092 10.525 8.666.075.061.094.014 6.411.902-1.106 2.541zm-48.865-3.674l-9.579 4.046-.211.091v4.011l.117.104 2.515 2.208-2.211 3.007-2.842 3.206-1.665-1.301-2.134-2.46-.128-.152-.191.037-2.744.511-3.542-3.347-.093-.089-.128-.002-6.044-.217-.341-.011-.015.339-.108 2.256-.307 2.563-3.719 3.131-3.038-1.426-.061-.027-.058-.005-2.808-.215-.28-.024-.076.275-2.53 9.209-5.39.83-.197.03-.073.187-2.288 5.858-.392-1.243-.107-10.729.004-.004-.004-.155-.216-6.39-.003-.064-.024-.056-1.296-3.143-.022-.056-.039-.043-3.883-4.331-.079-.09-.118-.021-9.734-1.716-2.101-1.709-.911-4.063 4.023-5.657 4.793 3.479.16.115.18-.079 3.669-1.626.069-.032.056-.061 1.726-2.057.177-.214-.167-.218-3.098-4.044-.018-.025-.009-.007-2.784-2.844 4.427-4.524 11.166.211.339.009.008-.345.211-7.153 2.255-2.469.005-.008 4.569-4.735.245-.253-.255-.24-3.717-3.512.737-1.849 5.245.219.11.004.092-.061 5.886-3.861 4.077-.647 3.009 3.665.434 5.028-10.372 11.64-.146.164.083.2 1.071 2.549V31.191l.13.107 2.059 1.651.254.206.216-.245 4.372-4.918 12.951 5.011.134.051.133-.059 4.551-2.088 5.715 7.586.323 5.178zm-55.123-7.34l-1.495 1.78-3.417 1.514-4.911-3.563-.281-.205-.2.283-4.129 5.8-5.228-3.293-.206-.13-.191.153-2.611 2.096-4.851.211-.319.014-.011.32-.252 8.054-5.37 1.525-.227.064-.022.239-.516 5.581-4.142 2.972-1.889-1.083-.293-2.168-.025-.172-.149-.083-1.694-.958-.289-.164-.173.283-.752 1.226-5.007.207-.223.008-.083.209-.534 1.337-2.1-.352-2.539-4.791-.734-7.372-.011-.122-.086-.087-5.937-6.032-.943-2.558-1.359-3.72 4.914-2.949 6.269-.209.091-.005.076-.045 7.151-4.328 2.59-.52.139-.028.079-.116 1.602-2.308 3.817-.294 1.689 1.594.186.175.222-.125 2.886-1.655 12.62.102.108.003.086-.058 1.499-1.003 3.68.098 1.085 3.071.05.142.138.061 3.329 1.46 5.983 6.11 2.91 3.804zm-55.536 9.731l.731 7.322.005.072.031.057 2.649 4.998.079.149.169.028 2.541.426.275.044.103-.255.553-1.39 4.968-.204.184-.007.097-.155.674-1.099 1.257.711.294 2.168.025.168.145.083 2.04 1.175-.088 1.824-1.53 2.561-.941 1.153-.055.068-.017.084-.833 4.185-.877 1.317-7.377-2.571-.453-.16v.117l-2.504-.172-1.926-4.177-.075-.164-.18-.032-4.766-.851-.159-.028-.124.109L37 64.729l-2.5-4.153-.418-5.339-.025-.319h-5.056l-2.039-5.748 6.99-6.259 3.719-2.639 5.697 5.79zm-14.85 9.546H33.42l.4 5.109.005.078.041.069 2.756 4.572.211.351.31-.268 1.465-1.273 4.431.79 1.934 4.197.089.184.202.016 2.753.188v7.523l-1.608 1.818-.158.174.108.213 1.414 2.739-.559 1.589-5.744 5.46-7.717-1.346-7.933-4.653V80.479l-.045-.08-1.272-2.232-.088-.152-.177-.02-3.964-.407-5.679-8.981.877-.451.072-.04.048-.068 1.261-1.75.063-.091.002-.109.095-7.659.854-5.039 3.956-4.709 2.298.798.061.022.064-.003 2.074-.087 2.115 5.956.083.231zm-8.648 22.63l.167.017 3.954.411 1.139 1.996V83.534l.17.1 8.16 4.787.052.028.063.013 7.667 1.333.1 4.289.004.2.177.095 7.84 4.253.021.012.034.012 2.64.883.198 2.643.001.031.008.03 1.164 4.572.019.071.047.06 3.199 4.037-.415 4.968-.008.124.07.104 2.813 4.077.303 2.124-.1 2.52-.173.232-2.858.635-4.253 1.113-5.733.372-1.664-1.302-2.218.187-3.143 2.6-5.733-1.114-2.406 2.595-2.034 4.087-4.069 1.856-2.032-3.714.923-2.972.37-3.708-3.53-3.374-.198-8.415-.007-.275-.27-.057-3.648-.73-1.566-2.272-.186-5.023-.019-.508-.459.2-2.573 1.106-2.228-.159.163-2.959 2.759-3.14.089-.1v-4.832l-.105-.098-6.246-6.079-.071-.071-.097-.021-3.47-.73L.35 85.183l-.356-4.476 1.235-1.111.106-.092.009-.144.343-5.626 4.474-.779.051-.007.046-.025 7.72-3.996 5.805 9.172.087.139zm40.009 47.114l8.002-.628.113-.008.084-.075 5.538-4.824 2.765-.412.025-.005.027-.007 5.403-1.701.132-.04.068-.123 1.965-3.634 7.858-4.417.091-.053.047-.091 1.06-2.016.017-.032.008-.032 1.378-4.573.004-.019.112-.472 2.668 3.016-.932 4.049-.026.111.047.108 2.02 4.481V124.169l.064.093 2.093 2.938-.213 7.571-.004.136.091.105 1.739 1.947-.195 3.211-1.736.679-.249.096.032.267.647 5.416.066.558.467-.311 1.866-1.25 3.835-.191-.286 4.572-2.683.798-.233.069-.013.242-.108 1.95-.007.147.104.108 1.826 1.933-2.908 3.119-.166.175.11.216 1.619 3.143.073.144.155.035 7.456 1.709 4.031 4.046.086.088.125.012 4.424.43.252.024.099-.23 1.768-4.179 3.412-.905 7.331 2.252 1.404 3.055-.686 2.065-2.842 2.231-.191.149.077.23 1.144 3.442.038.113.093.068.469.319 5.232 11.493-2.96 4.268-2.958 2.229-6.841-2.229-1.665-3.342-2.219-.743-2.775 1.673-2.772-.93-3.329-3.71-.74-2.97.74-5.196-3.329-2.04-2.59-2.6-2.403 2.6-2.959-.559-1.295-2.229.186-2.782-5.916-2.597-3.143-.187-3.332 2.228-2.772-2.041-.925-4.828-1.294-2.782-1.849-.556-4.254 2.595-1.664-3.337 1.664-4.086-1.479-6.496-1.48-5.196-3.697-1.298-1.295-1.485 1.11-2.412.185-2.6-3.885-1.857-1.848 1.673-2.59.556-2.217-5.383.197-4.213.211-.283zm42.898-50.241l.003.057.014.047 1.403 4.441.011.036.025.04 2.266 3.682.079.128.145.032 5.396 1.082.121.023.111-.059 4.554-2.496.878.663-1.366 2.444-.064.112.028.128.325 1.516.052.24.244.032 2.341.279-.138.915-2.69 1.973-.299.22.238.283 1.189 1.405.083.1.128.021 1.815.271-.668 4.213-5.12 1.645-6.295-.75-.332-.04-.05.335-.539 3.79-.024.171.121.123 2.406 2.414.607 3.753-.812 1.138-3.394-2.105-.077-.048-.09-.003-2.59-.108-.231-.009-.097.213-1.511 3.357-1.203 2.72h-.85l-1.909-4.24.942-4.11.043-.175-.12-.132-3.106-3.506.225-.943.035-.148-.088-.128-4.025-5.85-.026-.036-.028-.024-1.907-1.701-.201-.179-.223.152-1.954 1.341-1.302.26-3.259-4.705-.203-.291-.023.017-2.789-3.455 1.19-1.378.096-.112-.011-.139-.317-3.619-.029-.295-.294-.019-6.087-.416-3.4-4.859-.097-.141-.169-.008-4.231-.199-.567-1.41 3.481-1.001 4.947-.636.263-.036.033-.26.507-3.766 2.243-1.273 5.045-1.266.231-.056.004-.032 2.813-1.118 7.649-1.066 5.305 1.669 1.875 3.135.218.367.31-.292 2.668-2.495.099 10.15zm-26.4-33.66l.112-.007.087-.07 2.508-2.012 5.174 3.258.941 4.192.026.116.092.076 2.266 1.842.072.058.084.014 9.704 1.712 3.767 4.201 1.248 3.025.209 6.171-2.814 2.635-1.723-2.883-.067-.112-.125-.04-5.504-1.733-.073-.024-.077.011-7.769 1.083-.044.005-.036.015-2.501.994.461-3.781.005-.053-.012-.051-1.375-7.444-.039-.203-.195-.062-9.288-3.005.241-7.727 4.645-.201zM60.778 62.385l.004-.087.097-1.958 4.315-3.095.127-.092.014-.155.508-5.507 5.289-1.504 9.241 2.99 1.331 7.188-.495 4.073-4.856 1.217-.041.013-.045.023-2.437 1.382-.15.085-.022.171-.495 3.669-4.716.604-.034.004-.018.008-3.569 1.03-.678-1.678-.019-.051-.036-.04-4.823-5.769 1.464-2.448.044-.073zm-6.699 44.19l-1.14-4.473-.191-2.595 1.998-.859.173-.075.032-.185.528-3.086.044-.252-.228-.112-1.49-.746.083-1.166 1.871-2.668 4.717-.619 2.832-.304 3.065 2.256 4.539 4.026.064.057.078.019 2.967.743.138.036.122-.072 2.329-1.382.042-.023.033-.037 4.007-4.233.962-.722 3.188 4.596.129.187.22-.047 1.591-.316.066-.016.058-.04 1.793-1.23 1.674 1.498 3.915 5.682-.492 2.077-1.364 4.532-.996 1.897-7.858 4.417-.086.047-.047.089-1.945 3.597-5.247 1.653-2.833.419-.1.017-.074.068-5.528 4.815-7.662.6.088-2.269.003-.036-.004-.028-.318-2.233-.01-.079-.047-.068-2.789-4.044.412-4.985.011-.131-.086-.112-3.237-4.085zm-5.375-36.79l7.171 2.499.254.089.147-.224 1.057-1.594.039-.055.014-.068.831-4.17.635-.782 4.676 5.595 1.57 3.885.085.204.218.011 4.281.204 3.401 4.86.094.136.163.008 5.957.407.278 3.174-1.281 1.486-.187.217.182.226 2.952 3.654-.985.743-.024.02-.018.021-3.992 4.216-2.171 1.286-2.75-.691-4.491-3.981-.017-.017-.008-.003-3.176-2.341-.108-.079-.133.016-2.966.315-.009.004-4.872.636-.15.019-.088.124-2.013 2.871-.057.079-.005.096-.106 1.49-.016.228.206.104 1.465.734-.454 2.648-1.934.831-2.703-.903-7.643-4.145-.096-4.221 5.82-5.53.064-.06.026-.072.636-1.809.05-.145-.069-.13-1.375-2.661 1.538-1.736.087-.096V69.785zm76.76-15.761l5.571.198 3.576 3.379.127.12.171-.032 2.718-.508 2.031 2.346.025.027.022.02 1.741 1.358-3.444 8.9-2.976 3.203-.046.047-.023.064-1.92 5.028-3.083 3.404-2.963-.205-.36-.028-.005.367-.107 7.433-3.243 2.946h-3.191l-2.001-.3-.866-1.026 2.51-1.841.114-.083.023-.141.214-1.409.056-.351-.356-.045-2.453-.294-.243-1.147 1.447-2.595.145-.264-.241-.179-1.295-.975-.177-.131-.192.104-4.638 2.539-5.129-1.03-2.16-3.514-.655-2.069 2.527-6.465 5.415-.839.221-.032.059-.215 2.513-9.149 2.465.192 3.177 1.485.199.096.167-.14 3.993-3.357.105-.089.017-.135.324-2.708v-.027l.094-1.933zm10.105 90.682l-.05.081-3.668 6.281-.034.06-.01.064-.508 3.557-4.408 1.03-.231.053-.032.239-.431 3.251-.504 3.122-3.45.919-.163.044-.07.152-1.734 4.101-4.049-.395-4.014-4.029-.067-.073-.099-.019-7.396-1.698-1.436-2.783 2.963-3.178.223-.24-.223-.232-1.948-2.061.086-1.556 2.68-.796.232-.072.014-.239.325-5.2.023-.383-.384.017-4.315.219-.097.004-.078.052-1.476.987-.549-4.589 1.691-.662.207-.081.014-.219.214-3.575.01-.142-.095-.109-1.745-1.952.213-7.556.004-.116-.067-.091-2.095-2.944v-9.724h1.173l.092-.206 1.293-2.92h.001l1.416-3.147 2.267.096 3.593 2.229.273.168.188-.264 1.079-1.514.082-.115-.024-.14-.647-4.006-.017-.115-.078-.077-2.363-2.367.468-3.287 6.035.72.072.006.073-.023 5.394-1.733.202-.064.033-.208.709-4.475h3.183l.1-.089 3.358-3.055 2.971-.096V94.935l.331.011 6.816.312.3 3.813.02.247.242.062 2.923.706.381 1.716h-.003l.431 2.816.014.084.05.068 1.189 1.626.137.187.226-.057 2.599-.677.98 3.046.032.1.08.064 2.697 2.169.04.028.036.015 6.368 2.82.042.015.045.008 1.818.275-.481 3.391-2.239 4.168-.05.1.014.113.324 2.271.014.089.052.071 2.138 2.859-1.152 2.316-1.625.907-3.486-3.394-.022-.021-.017-.015-1.513-1.081-.072-.057-.094-.007-2.266-.217-.092-.008-.083.04-2.399 1.102-1.867-1.501-.103-4.493-.003-.111-.066-.092-2.052-2.707-.094-.125-.151-.011-2.589-.217-.111-.011-.097.06-4.639 2.816-.108.064-.041.119-1.186 3.466-.041.127.052.124 2.591 5.847.035.079.064.049 2.264 1.844.052.04.056.021 9.819 3.246.138.047.13-.068 2.261-1.19 1.386-.65 2.371 2.476-1.699 1.346-3.068.954-.18.055-.051.185-1.116 3.968h-1.49l-3.057-1.584-.164-.085-.159.089-6.151 3.466-.08.047z"/></svg>