<svg xmlns="http://www.w3.org/2000/svg" width="1130" height="588"><path fill-rule="evenodd" fill="#E6E6E6" d="M1124.378 227.748l-2.886-2.884 6.055-2.307 2.453.578-5.622 4.613zm-14.852 5.479l-2.161-3.317 5.623-1.297 6.055.721 2.018 3.46-3.316 1.73-8.219-1.297zm-58.533-21.05l2.164-6.488 2.739.432 4.47 2.019-1.152 13.263-8.221-9.226zm5.258 91.923l-9.35-10.558v.002l-7.882-8.904-.929-10.563-5.741-6.67 2.221-2.965-1.296-4.262 4.078-4.448-3.52-11.118-2.596-11.12-1.112-17.234-3.337-5.558 2.965-14.825-3.15-.743.185-5.188-3.335-.184-7.228-5.004-1.112-5.559 4.821-7.229-9.083 3.15-2.22 7.414 9.449 11.304-3.481 3.247-5.024-2.838-1.012-5.305-.021-.112-.083-.076-3.645-3.382-.111-.105-.151.012-5.464.499-3.288-8.602-.068-.176-.183-.039-4.809-1.011-7.747-11.26-.968-5.309 5.394-1.716.175-.056.053-.177 1.482-5.198 4.673-.492.223-.022.068-.211 1.488-4.464 8.591-2.021.148-.036.075-.132 2.234-3.967 12.463-.748 3.01 8.278.112.309.311-.097 9.243-2.823 10.01.255.251.009.085-.239 7.87-22.601 4.553 2.396.124.066.135-.041 6.117-1.854 2.567 28.342 5.371 13.159-9.449.184-6.3 6.486-.183 17.792-7.97-6.302 3.707 14.825-5.003 1.112-.742 7.968 12.599 25.202 3.892.371.742-4.261h6.116l3.061 7.203.1-.11 5.917 3.84 3.708-2.038 6.853 6.485-4.444 2.78-2.78-3.891-2.225 1.483 9.079 16.121 8.895 2.596 1.113 4.817-4.446 4.818-.187 8.524 10.561 12.231-3.149 2.595-.555 9.081 6.117 6.114 2.037 8.525 1.484 18.532-51.147-34.283zm2.78-201.065l1.817 20.064-6.116 1.854-4.781-2.517-.355-.186-.131.379-7.922 22.74-9.817-.252-.055-.002-.053.017-8.982 2.745-2.986-8.213-.089-.242-.255.014-12.91.775-.187.013-.091.164-2.249 3.998-8.633 2.031-.187.043-.06.183-1.479 4.436-4.685.494-.231.025-.064.223-1.498 5.245-5.503 1.751-.291.093.055.297 1.001 5.508-5.462 5.713-7.356.508-.119.008-.089.08-4.757 4.257-6.267-2.005-.132-.042-.123.06-6.683 3.216-3.197-5.658-.08-.146-.168-.025-4.982-.749-3.02-6.287-.095-.199h-7.89l-5.738-2.494-2.974-7.677 12-14.044.085-.098V131.607l-.14-.104-15.996-11.998 3.72-7.203 9.636-7.229V93.028l9.45 5.93 4.45-2.594 6.67-.741.741-7.227-7.228-4.077-4.816 1.481-5.376-6.671 7.596-6.857 5.375-1.482-.741-3.891 7.97-12.972 29.647-16.123 19.828-13.157 17.049 4.634 5.746-2.595-10.566-4.262 4.262-5.56.928-7.597L1039.202 0l5.562 7.229-4.449 3.149 4.82 3.522-3.708 4.632 9.449 1.854 2.042 4.447 7.042-1.297.183 6.299-6.487-.926 3.15 3.708-12.971 9.821-7.783-.742-4.445 3.706.553 6.671-2.408 5.56-4.078-4.448-2.779 2.224-4.816-4.262-1.483 7.228 3.891 4.446 5.745-2.223.183 4.818 2.967-1.852 2.408.926 1.301 13.157-2.413 5.002-6.112 2.039v7.228l5.375.37.737-5.189 6.674-.555 2.963-3.893 24.461 2.039 1.853 6.116-13.158 9.081 5.56 3.15zM947.232 35.513l-1.747 1.748-7.994-9.471v-5.097l4.362-6.557 7.269-.582 2.907 3.933-2.616 5.1-2.181 10.926zM934.556 138.88l-12.048 14.104-.136.156.076.191 3.098 8.004.052.134.131.058 5.937 2.582.068.029h7.6l6.017 12.532-3.186 4.658-4.295 1.769-.06.022-.044.042-9.552 8.779-.244.221.216.253 3.919 4.655-3.632 3.391-.216.2.159.244 3.05 4.57.253 5.324.008.144.106.097 4.777 4.273-.749 8.235-4.223 4.721-7.356.761-.115.011-.085.08-8.261 7.746-.191.179.12.231 3.217 6.188-8.532 6.021-.111.082-.029.133-1.291 6.455-.02.111.048.106 12.727 26.402-1.364 4.905-7.648 1.134-.167.025-.083.145-2.257 3.948-6.455 1.403-10.115-3.466-.232-.08-.152.196-2.914 3.791-.115.15.068.18 5.203 13.885-3.756 13.301-.068.236.204.14 5.724 4.01 3.094 10.968-4.106 1.915-.212.1.012.232.287 5.465-1.938 5.264-8.52.566-.294.02-.028.294-.563 6.491-14.369 5.46-.224.087V380.552l-3.413 3.987-.251.287.315.221 7.328 5.071-3.939 7.603-.144.276.26.171 7.487 4.896 1.628 4.067-3.932 4.214-.144.153.072.195 2.927 8.254-11.707 6.087-.223.117.044.247.591 3.552-4.75 1.778-4.369-.937-.111-.023-.104.051-15.131 6.935-3.664-3.055-.151-.127-.189.068-10.995 4.083-5.594-4.351-.089-.068-.115-.004-8.939-.323-.151-.004-.104.108-3.596 3.597-3.909-3.609-.23-.211-.235.207-2.652 2.361-4.881-3.968-.159-.128-.187.076-6.387 2.557-.032.011-.028.019-6.148 4.024-9.773-18.114-7.519-17.052-.04-.089-.079-.056-4.151-2.875-.164-.111-.176.079-6.678 3.039-2.432-7.301-.051-.151-.148-.06-11.176-4.469-.087-.036-.096.015-5.75.958-.179.032-.076.162-8.6 18.478-5.475 6.383-4.206-4.206-.323-.319-.223.394-2.778 4.945-7.788.311-.112.004-.083.063-5.184 3.964-4.792-5.092.945-13.839 4.765-11.125.151-.355-.366-.112-6.236-1.87-2.764-6.136 2.21-9.142.059-.256-.227-.127-4.924-2.772.312-8.727.002-.093-.043-.079-3.831-7.345-.179-.347-.323.224-3.091 2.165-3.708-.287v-3.964l3.349-2.129.296-.192-.192-.291-2.954-4.476.015-.017-.179-.231-2.257-2.819-.199-.247-.264.175-4.022 2.68-3.752-2.946-.096-.076h-8.759l.51-4.59 5.295-6.408.036-.044.019-.06 1.696-4.508.091-.252-.219-.156-3.521-2.436v-4.747l-.088-.097-2.986-3.258 1.375-6.596.045-.212-.172-.131-3.369-2.594 5.107-5.648.1-.112-.012-.144-1.973-24.826-.008-.085-.049-.075-5.809-8.882 2.461-1.269.032-.017.028-.024 7.324-5.966 4.537.534.311.038.068-.311 1.634-7.918 2.169-3.252.044-.068.012-.082.534-4.266 9.254-7.348.276-.22-.227-.271-4.051-4.86V224.574l-.064-.09-7.942-11.233-1.089-5.709-.017-.077-.047-.065-2.401-3.2.284-3.532 5.14-2.567 3.703-3.893 3.154 2.781 1.109 5.745 1.112-3.893 4.45-5.929 16.861.185-.925 3.335 6.3 4.263 16.49-7.042 1.299-14.084 9.08 3.52 8.153-2.779 5.375 2.594 8.336 12.417-5.003 3.52 13.715 12.417 8.892 1.48v-18.53l12.603 2.224 2.224-8.338 7.413 2.223 5.558-.927-1.854-4.446 2.037-2.781 6.858-1.667-4.446-5.189-.37-5.375-3.708 1.853-2.039-3.705 5.188-5.004-3.52-4.262 18.16-9.265 6.117-.372-5.745 5.188.924 4.264 3.892-3.521h3.891v8.338l5.746-5.558-3.15-10.749 5.745-5.003 10.004.742-4.258 4.261 2.962 2.782 2.409-2.597 2.595 2.225 2.966-3.893 5.742-.555 5.932 2.964 4.817-1.482 2.596-9.079 7.225-8.896 10.565-6.857 7.413.741 7.407 7.043 10.195-5.746 1.89-3.664 15.764 11.825v6.93zm-39.723-19.926l.937-2.653 3.118-.622.933 3.275-2.646 1.558-2.342-1.558zm-95.267-4.835l-2.184-4.677 3.743.155.467-3.12h3.118l1.558-2.649 5.77.468 2.961-3.276 2.653 5.769-4.056 7.486-14.03-.156zm2.802 27.286l4.527.624 2.336 5.303-6.863 3.587-7.328 1.558v-6.549l1.404-1.559 2.496-3.743 3.428.779zm-11.379-51.924l.933-3.43 2.963 1.092-1.089 2.962-2.807-.624zm1.715 57.382h-2.963l-1.247-5.768 1.87-1.872 2.962 2.495-.622 5.145zm-15.594 10.605l-2.806.779-3.273-2.028-1.404-3.273 7.173.934.31 3.588zm16.842-41.947l-.156 7.018-6.08-1.248-3.278-4.99-3.583.936 4.365 5.147 5.454 1.558 2.497 2.495-2.497 2.806-3.739-.779-3.118 5.145-4.055-.467.466 5.926-5.613.467-6.081-1.715-1.092-4.211-2.959-3.741-.625-5.457.466-5.302 6.55-.624 5.46 4.523 1.869-2.184-3.429-3.587.467-3.898 5.769.936 3.74-2.65 7.172.466 2.03 3.43zm-32.279 22.454l-3.74-4.366-.937-4.21 4.21 2.495 2.807 5.147-2.34.934zm-84.702 52.528l-4.275-3.394 1.663-4.166 2.851.418 2.377 1.487-.655 2.559-1.961 3.096zm-12.177 5.061l1.662-2.56 2.971.12 1.069 2.856-4.752 2.917-1.364-1.725.414-1.608zm-1.392-3.764l-15.381 15.936-.183 7.412 2.962-5.188 7.599-2.224 5.558-4.261 4.888-2.445-.259 3.245-.013.127.081.105 2.432 3.24 1.085 5.705.015.077.045.058 7.921 11.204v7.451l.081.098 3.907 4.685-9.091 7.218-.108.089-.019.139-.538 4.324-2.162 3.237-.036.054-.012.068-1.586 7.678-4.374-.514-.14-.017-.115.093-7.409 6.036-3.079 1.589 6.15 9.462 1.957 24.59-5.258 5.811-.252.278.295.227 3.496 2.69-1.367 6.556-.036.173.119.131 3.016 3.284v4.846l.147.104 3.445 2.383-1.575 4.208-5.328 6.442-.064.081-.011.102-.563 5.076-.043.387h9.295l3.851 3.026.198.155.208-.138 3.971-2.644 1.874 2.344-2.268 2.521-5.247 1.103-.036.009-.036.016-5.076 2.256-.215.096.009.235.282 5.639.005.055.019.052 1.36 3.532-2.763 6.077-.076.168.095.155 2.78 4.442.546 6.312-4.14 8.002-7.252 4.462-.287.179.172.291 2.704 4.601-2.967 4.047-.104.14.049.164 1.694 5.641.051.172.176.056 6.013 1.913.769 3.581-4.39 4.661-.084.092-.012.12-.283 3.667-.019.285.274.074 2.927.798 1.283 3.852-3.237 3.234-.059.063-.024.092-1.292 4.641-5.726-3.385-3.058-6.667-.143-.315-6.762 3.111.036.175-.822 5.479-12.619 13.743-.104.111.012.153.542 6.236-2.844 1.184-4.939-10.698-.238-.518-.348.454-3.57 4.666-13.094.557-.196.008-.092.172-5.361 9.871-.096.181.108.172 5.846 9.186-1.044 4.704-5.688.814-.174.023-.082.16-3.386 6.487-.033.068-.007.068-1.104 16.571-5.287-.531-.092-.008-.087.04-4.231 1.974-.198.096v4.035l.115.108 9.473 8.485-.849 3.906-16.966 1.492-.247.024-.058.244-1.086 4.529-3.398.893-.288.076.033.294.355 3.194-4.548 2.911-.15.095-.01.176-.173 2.959-2.967.697-.078.021-.063.051-5.562 4.638-12.823-1.675-7.788-5.483 2.611-5.514 4.839-1.815.136-.051.058-.132 1.554-3.417.029-.068v-3.597l4.478-2.383.2-.108-.018-.223-.312-4.039-.002-.04-.015-.044-1.852-5.562-.929-5.263-.012-.068-.04-.06-3.935-6.053 1.783-3.867.129-.271-.257-.164-3.416-2.172-.104-.068-.12.015-5.257.618h-5.332l-2.77-8.174 2.362-1.112.056-.023.038-.045 2.798-2.795.178-.179-.116-.223-5.535-10.763.867-4.058.037-.012.008-.215.302-6.363 6.398-4.876.093-.068.031-.117.931-3.416.088-.319-.315-.1-5.821-1.838-3.896-3.896-.587-4.98 7.008-6.096.107-.091.011-.145.311-4.038.026-.327-.328-.041-4.786-.597-5.199-10.702-.077-.163-.181-.028-17.726-2.752v-4.557l2.41-3.01.112-.14-.049-.168-2.448-8.64 5.655-.706.049-.008.043-.015 6.622-2.84.133-.059.054-.136 1.324-3.405.109-.275-.258-.148-7.394-4.249v-8.956l9.054-11.508.064-.083.009-.104.556-7.237 5.867-8.098.086-.119-.027-.144-1.128-6.766-.022-.14-.109-.079-6.601-4.952 1.656-9.382.024-.144-.086-.119-4.435-6.099 1.397-13.127.014-.137-.084-.11-5.532-7.187 2.202-6.599.038-.122-.049-.119-2.102-4.994 6.951-1.873.169-.046.064-.164 2.684-6.808v.008l.485-1.23-1.662-9.502-.04-.222-.217-.054-7.594-1.898-6.711-8.86 1.297-5.187 10.311-4.613.153-.069.042-.162 1.101-4.406.029-.119-.051-.113-4.36-9.265 1.039-5.712 4.718-.786.448-.073-.193-.414-4.382-9.311-.06-.646 5.029-.295 6.857 12.787h7.968l-2.781-6.486-5.743-5.561.37-12.971 2.779-5.004 9.081.186 15.751 2.594 5.929-1.482-3.891-7.043 2.039-8.338 4.633-4.077 6.3-.187 8.153-6.484 12.046-1.668-.186-5.746 10.008-.184.925 3.15 7.041 1.296 3.152-2.964 6.113 1.298-3.149-4.633-.185-2.225 8.523-.555-1.853-7.042 7.969-11.859 5.003-1.854 5.558 4.632-2.964 4.262 9.081 1.112-3.337 9.452 4.449-.743 3.891-5.558 11.116.37 11.862 13.529-3.892 13.713-8.525 15.381zm-22.395-66.519l.347-1.156 5.088 3.119.231 1.965-5.088-1.155-.578-2.773zm-9.013 2.31l-6.818.463-6.47 5.199-1.504-5.431 3.93-7.164.808-10.403 5.549-3.005-.233 4.97 1.734 1.849 3.236-3.237 3.814 4.855-.463 8.321-3.583 3.583zm-24.962 19.302l-1.965 1.156-2.659-1.966 3.237-2.08 1.387 2.89zm-7.397 6.471l1.041-2.079 1.848 1.963-1.617 1.504-1.272-1.388zm16.181-43.225l2.541 3.006-.692 4.507-3.236 1.734-6.588-4.508-5.895-5.086-3.352-1.503.117-2.541 3.235-7.976 8.899-4.392 1.618 6.128 2.311-.695.347-2.657 4.045 3.929-.346 5.2-3.004 4.854zm-5.779-18.492l-9.477 4.276-4.854-4.392v-3.004l3.814-5.085-.926-4.508 3.699-2.427 3.697-3.698 4.161 3.698 2.312 6.587 1.388 2.891-3.814 2.079v3.583zm-10.517 5.317l-1.041 3.467-3.351 1.85-4.855-3.353-.809-3.235 2.775-1.503 7.281 2.774zm-9.13-25.312l4.853-.114 1.62 5.2-6.936-1.272.463-3.814zm-11.442 70.618l-.23-1.966 1.618-1.386 2.194 2.543-.231 2.657-3.351-1.848zm-19.406-67.012l-.14-1.753.348-2.665 1.679-1.614 2.38 1.895 1.891 4.208-3.221.84-2.937-.911zm-3.845 105.249l-.669-1.816 1.338-.956 2.485 1.816-1.529 2.199-1.625-1.243zm-1.148 4.779l-1.433-.955.096-2.103 2.198 1.433-.861 1.625zm-3.727 7.075l-1.434-1.052.763-2.58 1.624 1.816-.953 1.816zm-.192-30.782l-1.433-2.008.668-1.625 2.39.19-.097 1.819-1.528 1.624zm-5.504-67.248l.419-2.173 2.659-1.192 2.168 2.874.142 2.806-3.15-.069-2.238-2.246zm1.681 91.91l.669 2.679-1.72 1.719-2.582-2.39 1.434-2.58 2.199.572zm1.816-19.309l-2.676 1.626-1.819-1.244-1.528-1.816 2.199-1.91 2.295.668 1.529 2.676zm-19.118 9.846l.383-1.911 2.198-.669.763 2.868-1.719 1.817-1.625-2.105zm-2.338-123.521l2.445-1.581 1.008 3.306-2.589 1.007-.864-2.732zm-1.774 147.037l.671 5.737-2.199.955-3.155-4.11 2.484-3.728 2.199 1.146zm4.219-135.102l-2.445 4.026-6.038.142-.719-3.162.719-1.58 3.881 1.005 2.589-3.739 2.013 3.308zM518.54 46.5l-.861-1.582 1.436-1.151 2.732 2.589-1.868 1.438-1.439-1.294zm1.582 13.228l-1.726 2.011-2.588-1.293 2.157-2.733 2.157 2.015zm-8.914-9.346l-.43-2.157 3.449-1.725 1.581 3.162-1.724 2.589-2.876-1.869zm-6.759 7.331l-3.592-4.167 4.312-3.021 5.465 4.89-.721 4.167-5.464-1.869zm-6.037 9.921l-2.302-2.157 1.583-2.298 2.302-.576 1.58 2.3-3.163 2.731zm-2.446-11.357l.864-1.438 1.293 2.732-1.58 1.149-.577-2.443zm-2.587-13.659l.72-1.726 2.875 2.588-1.725 1.725-1.87-2.587zm-2.444 8.626l-4.744-1.582-3.739.863.718 3.306-.861 1.584-2.733-3.453-2.731-2.731.286-3.019 4.029 1.15 2.01-.862 3.308-.433 2.444-1.869 2.3.863 2.734 3.164-3.021 3.019zm-7.333-8.626l-3.737.286-2.59-2.012-.861-3.451 5.463 3.522 2.588-.79 2.875 2.588-1.436 1.726-2.302-1.869zm-.575 14.953l1.726.575-.144 2.731-2.157-1.295.575-2.011zm5.895 0l3.88-2.014 1.441 3.451-2.877 2.731-2.444-4.168zm2.303 69.583l1.3-2.817 7.584-1.948 3.248 3.899-.865 5.634-7.584 4.115-31.63.652-4.116 4.765-4.984-1.083-2.381 2.165-3.685-2.6-.649 3.901-1.951 2.6-2.599-2.816-.65 3.249-3.468-1.3-.215 3.25-2.815-.217-1.086 3.25-4.332.434-4.766-3.035 1.516 4.55-2.598 3.684-6.502 2.167-5.415 5.849-1.299 6.283-1.734 16.465-2.6-1.299-3.9-.866-.216-3.034-3.467-.434-3.032-6.715 3.898-3.9-.216-6.283-4.115-4.117.215-4.766 4.334-3.25 3.9 1.301 6.283-3.25.216-3.682 4.549.216.866-4.767 6.283 2.6 3.902-3.684-2.818-2.817 2.167-2.598 3.467 1.515 9.748-3.033.432-3.032 3.9-.217 1.735-7.583 3.467 3.682 2.598-2.166h5.2l6.282-4.116 4.984 2.166 4.984-2.816 5.631 4.766 12.999 1.083zm-93.374 42.897l-2.385 1.734-.433-6.283 2.818.651v3.898zm12.133 33.149l.865-4.983 5.199-1.3 1.517 5.633-.217 5.633-4.117.434-3.247-5.417zm-6.38 16.581l-4.076 3.708 3.52 2.778 1.851-2.778 2.781.554 5.005-2.964.185-6.117.925-4.076h7.041l9.267 10.007 3.53 6.501-4.456 3.712-.219.184.14.248 2.48 4.409-2.361 4.192-2.904-.528-.224-.04-.123.189-1.615 2.419H421.256l-.101.093-3.868 3.592-4.684-1.102-.201-.047-.139.158-3.624 4.181-10.317.837-45.94-32.816-.143-.1-.161.052-4.508 1.41-19.797-2.127-2.888-4.223-.087-.13-.156-.02-5.343-.668-5.831-8.748-2.085-11.112 5.313-4.799.925-5.559 11.12-7.226 2.408-8.71 8.153 8.894.186 8.711-2.964 4.816-6.117-4.261-6.671 2.223 1.669 4.819-1.669 4.817 5.561 5.375 10.746-6.301 2.966 2.781 2.595-2.595 20.382 5.003 1.854 3.337 3.706-4.449 7.969 1.854-3.15 6.115-5.931.556 3.52 4.818 10.008-.926 6.485 4.818 13.157.185v4.076zm-46.679-32.934l-3.19-4.196 1.396-4.928 5.715-1.997 3.987 4.328.467 4.195-.866 2.797-7.509-.199zm-44.108 15.943l.036.055 5.96 8.94.087.13.158.021 5.346.67 2.749 4.017-6.951 8.97-.15.192.135.205 2.409 3.725-1.508 2.801-.063.115.03.127 1.086 4.564-3.948 2.288-5.554-3.555-.092-.058-.106.005-5.214.217-.854-3.843-.028-.122-.098-.078-13.982-10.773-.291-.224-.206.308-1.834 2.749-.12.182.114.188 3.824 6.299-1.096 5.038-3.366 3.367-.188.187.136.231 1.563 2.681.195 2.317-5.141.213-.161.009-.1.128-4.353 5.73-.064.085-.007.103-.228 3.667-.017.244.227.094 5.501 2.293.233.097.164-.195 2.228-2.675 4.438-1.48 2.721 5.443-11.012 8.764-.122.097-.008.159-.222 4.88-3.611 2.761-4.861-1.986-.19-.078-.157.129-3.162 2.568-.399-4.623-.011-.105-.07-.085-3.208-3.894-.124-.152-.195.03-3.956.624v-4.165l-.192-.094-3.848-1.924 1.267-3.378.125-.334-.338-.113-4.128-1.374-.127-.045-.122.056-2.192.995-2.845-7.223-.084-.211-.228-.008-7.182-.225-4.487-5.156-.03-.04-.045-.028-4.325-2.731-4.095-3.868-12.027-13.616.88-6.617 4.728-5.402.014-.016 2.189-2.407h3.105l.06-.273 1.124-5.176 5.203-5.43.182-.19-.133-.225-1.374-2.287-1.531-2.626 1.082-3.896 4.979-4.98.078-.078.017-.111.396-2.376 3.072.821.02.005 2.293.458.19.039.131-.145 2.705-2.93.164-.077.927 6.255 5.372 2.965 3.336-4.446-3.52-4.263 2.224-7.782 8.154-.929-.743 9.081 5.002 11.676 3.523 2.038 4.818-12.045 8.709-1.298 7.042 2.409 7.04-1.111 4.634 8.709-3.708.741 2.596 4.819 5.578-5.038 2.019 10.767.014.072zm-4.646-35.822l-6.672 9.081-8.894 1.667-14.456-8.71-.924-6.114-3.892-5.932-.74-9.821-2.78-5.929.928-6.673-2.225-3.15-1.546 9.498-.973-1.662-.052-.089-.091-.044-5.722-2.862 1.093-5.472.032-.15-.093-.124-6.915-9.219 3.148-3.959 9.449-.186 4.818-7.783-.184-5.558 7.041-4.078 2.781-2.038 14.083 1.297 9.821 6.672 2.595 5.002-2.78 1.853-2.781-3.891-2.036 1.297.74 5.745 4.633 7.413 1.852 6.114-.371 16.679 2.964 11.49-1.851 9.636zm-47.723-2.335l.554 2.26-1.934 1.292-1.428-1.57.186-1.522 1.15-1.568 1.472 1.108zm-1.045-28.283l-.053.258.236.119 5.87 2.934 1.348 2.299-1.254 8.329-3.334 5.745-5.746 1.854-6.854 8.524-2.227 4.077 2.411 3.336-.556 2.594.45 3.04-.413.194-.062.029-.044.049-2.618 2.837-2.104-.421-3.416-.912-.366-.097-.064.374-.44 2.639-4.964 4.966-.061.064-.026.089-1.147 4.125-.037.139.07.125 1.606 2.75.002.005 1.24 2.067-5.088 5.31-.069.07-.02.096-1.087 4.998h-2.853l-.102.114-2.142 2.355-2.988-.995V205.285l-.35.006-3.676.043 1.488-5.317 5.521-6.229 3.258-3.146.081-.08.019-.117.699-4.434.019-.115-.056-.102-1.398-2.568-.074-.137-.149-.035-4.425-1.051-.194-.045-.138.149-7.571 8.17-.033.035-.021.042-2.097 4.084-.046.089.007.095.462 5.764-.692 1.904-4.625-6.037-.081-.104-.13-.025-2.936-.545-1.454-4.818-.082-.269-.28.025-2.447.233-.282.028-.03.279-.307 2.765-.991-.228-1.206-2.09-.136-.233-.258.075-1.979.584-.233.068-.017.241-.205 3.217-1.539-.344-1.147-2.401.845-2.222 2.951-2.275.113-.084.019-.137.582-3.97.006-.03-.004-.035-.226-4.533 2.007-2.346.08-.093.003-.122.117-4.086.003-.115-.067-.094-2.329-3.268-.086-.121-.147-.022-5.824-.815-.058-.008-.056.009-4.442.881-.246-5.289 8.197-.304 18.159 2.41 4.077-1.67 1.298-9.821 1.852-6.486 6.858 1.112 2.037-2.038-1.667-3.15 2.966-2.225 1.666-3.15 1.484-3.706 3.704.186 5.19-3.521 4.076.185 7.9-9.937 6.711 8.949-1.116 5.58zm-83.176 51.006l.177.219 1.514 1.869.104.128h5.689l2.341 3.466.107.155.186-.004 5.833-.113 1.187 2.485.074.151.162.037 2.099.466.391.088.028-.401.216-3.379 1.489-.439 1.146 1.984.074.129.147.034 1.514.351.377.086.044-.385.316-2.873 1.886-.18 1.432 4.748.062.201.207.039 3.015.56 4.722 6.164-2.551 2.044-4.886-.114h-.058l-.056.018-3.493 1.166-.052.02-.046.033-5.59 4.202-.071.053-.034.073-3.509 7.373-5.822-.449-.098-.009-.089.05-3.044 1.627-.413-3.927-.006-.062-.03-.058-2.271-4.444.674-3.387.07-.357-.364-.052-2.329-.317-.526-2.107-.064-.256-.262-.005-3.997-.113-.978-1.764.96-1.822.049-.089-.008-.098-.233-2.802-.018-.228-.218-.07-3.495-1.168-.236-.079-.148.199-.929 1.243-1.792-.199-2.131-1.911-.118-.105-.155.019-3.267.438-1.866-3.299-.052-.097-.097-.045-2.446-1.167-.151-.072-.151.075-3.599 1.802-1.011-3.205 2.106-6.526.05-.152-.085-.135-2.732-4.417-.24-5.302 3.88-.441 5.743-3.707 4.633 4.449 2.964.184 1.669 4.263 2.222-1.853-.738-2.78.368-6.115 7.6-2.78 6.123-.226.551 11.723-9.469 11.453-.177.218zm-25.126 1.938l-2.058 1.647-.072.059-.033.086-1.07 2.784-.024.063.002.067.207 8.512-6.388 2.061-.206.066-.028.218-.391 2.935-2.078.188-.239.023-.064.23-.618 2.262-3.571 3.573-.067.067-.023.098-1.27 5.288-2.242 3.466-5.681 1.095-1.545-.818-.116-.061-.129.033-2.94.759-.292-.043 1.402-2.503-.927-4.632-4.445-1.112-.742-3.15 3.15-3.893-2.78-3.52-.37-6.487 6.856-4.447.185-5.002 4.634-.556 3.89-6.487 6.485.371 3.336-4.633 5.745-4.448 3.588-.407.24 5.344.004.09.047.075 2.698 4.359-2.06 6.38zm-31.296 35.303l.614.092.065.01.072-.018 2.881-.744 1.428.755 1.506 3.578.005.013.009.015 4.76 8.938.036.07.067.047 3.593 2.624.067.049.078.014 7.425 1.315.453 3.346.014.096.063.076 3.015 3.676-.169 1.517-4.383 6.286-3.951 2.541-6.614.653-1.246-1.778-.084-.121-.145-.024-2.527-.389-.12-.017-.105.062-1.271.748-1.432-4.919-.067-.234-.244-.014-3.401-.194-.142-.009-.109.102-2.521 2.333-4.624-.096h-.078l-.066.029-2.354 1.036-5.839-.377-.095-.07.15-2.291 2.409-2.964-.926-3.338.371-5.557 3.334-6.856 3.15-5.005 6.116-3.52.832-1.486zm-11.194 34.167l-.049.089.001.097.098 2.235.003.081.035.065 1.263 2.429.048.09.088.05 2.04 1.167.2.114.184-.143 1.257-.987 2.308.165.222 1.537-1.941 1.145-.039.024-.031.028-1.358 1.361-.103.1v2.085l.053.085.902 1.479-11.422 8.361-9.175-.348 4.839-6.366v-2.594l-3.892-.74-3.336.37-1.113-5.189-2.964-2.408-3.89.184-.557-4.077 7.411-6.3 2.041-5.004 3.52.742-.37 3.335 3.706 3.522 5.097.42.451.331.082.061.101.006 5.47.354-1.18 2.044zm-18.918 93.332l2.966-.372 2.225-3.332 5.742.182.075-1.857 4.402 2.348 3.6 2.317.194.123.189-.131 3.246-2.249 4.483.236.974 9.022-5.742 3.745-.177.115.022.208.762 7.367-2.182 4.364-3.765.234-1.95-1.95-.187-.183-.228.128-5.406 3.09-.32.183.205.307 2.486 3.732-2.016 7.313-.043.16.093.131 3.805 5.327.25 3.505.019.287.286.032 4.098.482.218 2.404-4.43 4.92H96.073l-.1.179-1.457 2.676-4.493.472-1.896-3.08V399.779l-.2-.092-3.66-1.711v-4.903l-.213-.088-3.089-1.284-.273-.116-.154.255-1.398 2.329-3.848-1.443-.225-.085-.156.181-2.306 2.651-2.487-3.055.244-4.17.998-1.998.1-.2-.14-.17-4.233-5.228 3.242-6.236.104-.2-.143-.179-4.376-5.403-.105-.127h-3.811l-1.776-3.509 2.974-2.34 5.189 3.149 2.964-2.036-10.007-5.93 4.633-4.82 10.007 1.3 4.263 6.3 5.93-2.225 3.518-6.3zM69.199 174.609L56.659 147.5l5.084.339 3.731-2.373 3.047 8.81 3.728 2.374 1.695-6.778 3.727 5.76-.677 14.913-7.795 4.064zm-7.721 194.397l.094.191h3.91l4.131 5.099-3.244 6.237-.102.199.142.175 4.237 5.235-.93 1.859-.033.068-.006.067-.247 4.227-2.398 1.962-1.858-3.25-.155-.275-.286.131-2.831 1.288-.18.08-.021.195-.242 2.194-2.49 2.491-.261.259.275.243 2.114 1.879-1.931 3.62-.099.184.114.17 1.31 1.962-3.466 1.388-.121.048-.059.12-3.24 6.479-4.502-.475-2.74-3.74-.15-.203-.24.083-8.81 3.055-1.948-3.265-2.964 1.299-1.484-2.041 1.298-11.305.556-6.853-1.668-7.413.185-4.632-2.964-2.225-.928-2.78 2.038-2.408-.372-6.487 4.078-3.705 5.189 8.709 2.594-3.338 7.044-.37 3.704 1.854.928-8.895 6.78 6.168 2.249 4.442zm-6.843 24.653l-.13-.112-2.858-2.381-.241-4.079-.018-.323-.019-.327h-4.647l-2.885-4.569-.064-.099-.065-.104-.113-.04-.109-.04-3.605-1.288-.4-.143-.401-.14-.055.419-.059.427-.514 3.859-.019.152-.021.151.098.116.099.115 4.12 4.889v.004l.036.044.036.039.043.028.043.029h.003l3.258 2.037-5.106 3.772-.14.104-.142.103v.348h.003v2.722l-4.525.455-.331.032-.329.032.017.33.021.331.256 4.374.012.208.014.203.185.087.184.089 4.89 2.317.233.106.227.108.172-.187.175-.191 6.454-7.125.584 4.689.106.837.106.841.511-.674.511-.67 4.119-5.407.067-.087.063-.083.006-.109.005-.108.258-5.664.007-.168.008-.172-.134-.107zm-4.947 11.486l-.679-5.434-.093-.745-.504.558-6.959 7.679-4.891-2.317-.258-4.374 4.836-.482.311-.032v-3.346l.002-.002 5.513-4.076.405-.299-.43-.267-3.687-2.304v-.005h-.001l-4.118-4.888.516-3.86 3.603 1.284 2.988 4.733.1.16H50.719l.248 4.226.008.148.116.1 2.973 2.476-.258 5.66-4.118 5.407zm-23.63-46.641l-6.473-3.817-9.626-12.117-8.631.498L0 335.764l4.979-5.311-.498-10.623 1.66-2.655 13.112 8.963 3.32-2.323 3.817 3.152-5.311 15.105 8.963 11.785-3.984 4.647zm22.58 55.083l.091.119.153.02 4.888.514.238.024.108-.215 1.373-2.747 4.045 7.627-2.831 1.887-.16.107.008.195.241 5.543-5.287-.24-.125-.004-.1.076-4.678 3.62-4.532-5.003v-4.634l-4.547-7.624 8.435-2.922 2.68 3.657zm8.376 13.775l7.629 6.866.1.091H68.74l1.164 3.733-2.625 4.533-8.244-1.997-.094-.024-.091.032-6.436 2.057-.053.021-.027.02-1.183-1.835-.184-5.929-3.902-4.307 4.534-3.507 5.415.246zm1.955 13.92l8.398 2.034.25.064.13-.224 1.215-2.097 3.237 2.612-4.13 1.834-.144.064-.047.147-1.758 5.558-2.442 1.953-3.387 1.129-.059-1.08-7.415-3.522-.278-6.355.141-.104 6.289-2.013zm5.043 12.559l.047-.036 2.574-2.061.086-.064.03-.1 1.741-5.513 1.811-.802 2.146 8.082-10.073 4.718-1.958-1.452-.085-1.543 3.623-1.209.058-.02zm8.038 12.394l.175.015.114-.128 1.835-2.065 3.091 2.612.331.278.197-.382 4.012-7.775 3.121.239.081.005.075-.032 3.092-1.285.277-.115-.078-.292-1.286-4.892-.056-.211-.216-.04-3.982-.746-3.711-5.303 2.921-1.814.266-.163-.138-.283-1.161-2.321 3.282-2.58 6.05.251.128.004.097-.075 2.076-1.615 5.655 5.654 1.266 3.333-4.31 3.245.927 3.892-.741 8.895-8.895 8.525-2.408 13.9v9.82l-3.522 2.226-2.966-.929-2.779-1.48-1.297 2.221-2.224.929-4.633-5.745.929-3.709.37-7.783-5.189-7.412-.372-5.558 1.974-1.978 7.622.667zm-1.111-21.253l1.976-.877 4.129.242 5.307 7.586.083.115.138.023 3.902.733 1.156 4.391-2.733 1.14-3.267-.251-.227-.019-.103.202-3.921 7.596-3.015-2.552-.258-.219-.223.255-1.943 2.185-7.266-.638-.551-2.723-1.315-3.549 10.191-4.772.263-.124-.075-.28-2.248-8.464zm-11.224-47.576l2.315-2.312.086-.083.014-.125.235-2.121 2.365-1.076 1.905 3.333.201.351.318-.255 2.563-2.101 5.444 6.683.128.159.2-.036 2.614-.478 1.675 2.391.072.104.117.032 3.435.984 1.483 3.952.013.033.012.019 3.541 6.073-1.009 6.056-.018.116.057.108 3.836 6.906 1.265 5.314-.246 5.456-2.091 1.626-6.053-.251-.127-.008-.1.08-3.602 2.83-.222.176.125.251 1.148 2.293-2.687 1.666-1.214-1.738-.097-.136-.165-.011-4.266-.252-3.674-2.962 1.267-2.189.075-.132-.043-.144-1.288-4.118-.075-.244h-4.241l-7.515-6.762-.241-5.582 2.925-1.949.26-.172-.146-.275-4.422-8.342 1.535-3.069 3.741-1.496.395-.156-.237-.354-1.431-2.145 1.963-3.681.127-.239-.202-.18-2.043-1.818zm39.173 45.383l-.05-.051-5.812-5.815.25-5.509.001-.049-.01-.043-1.289-5.407-.008-.044-.025-.043-3.805-6.846 1.012-6.057.023-.124-.064-.108-3.591-6.156-1.533-4.087-.061-.163-.169-.047-3.486-.997-1.73-2.472-.127-.185-.216.04-2.632.479-2.52-3.09 2.226-2.56 3.896 1.46.269.098.148-.246 1.389-2.317 2.603 1.084v4.882l.199.091 3.662 1.707v4.513l.049.084 2.059 3.346.114.187.216-.025 4.891-.514.181-.02.087-.159 1.446-2.651H103.895l.103-.112 4.633-5.152.1-.111-.014-.148-.258-2.832-.025-.278-.277-.032-4.091-.483-.21-2.906 9.114.985.269.028.093-.256.939-2.58 2.57.212.976 4.637.05.239.244.032 3.656.491 1.949 5.119-2.037 9.681-.026.124.062.116 2.497 4.497-2.524 7.321-.029.087.02.096.927 4.167-4.157-.463-.089-.012-.086.04-2.215.965-1.736-2.604-.258-.383-.295.355-1.895 2.277-.136.159.082.192 2.367 5.642-2.998 2.468-3.194 1.69-.348.189.227.318 3.653 5.123-5.526 2.549-5.781-.124-1.304-3.437-.029-.072zm12.654-5.641l.028-.013.028-.023 3.224-2.657.197-.163-.097-.234-2.384-5.686 1.467-1.764 1.639 2.465.16.239.265-.115 2.397-1.048 4.54.506.478.051-.102-.47-1.009-4.534 2.544-7.377.049-.142-.076-.136-2.512-4.521 2.034-9.658.022-.1-.036-.091-1.959-5.144 2.85-1.798 10.706 2.213 2.75 4.909-2.722 1.199-2.07 1.077 4.292 5.965-4.818 4.45-.557 3.15 3.892.925 2.596 3.52-2.967 16.678-3.891.742 1.297 6.117-15.564.371-5.817-2.118-3.752-5.263 2.878-1.522zm24.902-40.81l-.157-.032-10.996-2.273-.135-.032-.119.077-3.1 1.957-3.496-.467-.979-4.649-.053-.255-.255-.02-3.089-.26-.263-.019-.089.247-.937 2.58-9.101-.984-3.676-5.148 2.016-7.305.042-.156-.089-.127-2.368-3.552 4.855-2.776 1.872 1.871.111.11.154-.008 4.118-.258.2-.012.087-.179 2.317-4.633.046-.089-.01-.1-.751-7.256 5.742-3.744.18-.116-.025-.211-1.003-9.305 5.065-3.095.139-.084.022-.16.521-3.643 5.35.712.077.009.072-.02 2.753-.861 2.143 4.286.064.124.128.048 5.1 1.821.36 4.519.01.099.063.079 2.463 3.227.078.099.126.028 3.505.738 6.079 5.896v4.279l-2.756 3.122-.081.091-.005.121-.189 3.412-.021.34.34.023 2.655.187.082.008.077-.031 2.195-.942.171 4.618.002.1.059.083 1.706 2.464.079.117.136.027 3.523.706.186 7.879-2.067.629-5.744 1.484-5.375 2.967-.926 4.816-6.262 2.069-2.876-5.132-.076-.135zm18.319-18.201l-.185-5.016-.02-.508-.46.2-2.579 1.105-2.232-.159.164-2.955 2.764-3.134.089-.1v-4.825l-.105-.098-6.258-6.07-.073-.071-.096-.021-3.477-.729-2.327-3.042-.357-4.469 1.237-1.11.107-.091.009-.144.343-5.618 4.484-.778.051-.007.046-.025 7.736-3.99 5.817 9.159.087.138.168.017 3.962.411 1.141 1.993v2.867l.171.1 8.177 4.78.052.028.063.013 7.683 1.331.1 4.282.004.2.177.096 7.857 4.246.021.011.034.013 2.645.881.199 2.639.001.031.008.03 1.166 4.565.02.071.047.06 3.205 4.031-.416 4.961-.008.123.071.104 2.818 4.071.304 2.121-.1 2.516-.173.232-2.865.633-4.261 1.112-5.745.372-1.668-1.301-2.223.187-3.149 2.596-5.745-1.112-2.411 2.591-2.038 4.08-4.078 1.854-2.036-3.709.925-2.967.371-3.703-3.538-3.369-.198-8.401-.007-.275-.27-.057-3.656-.729-1.57-2.268zm44.858 14.685l8.018-.627.114-.008.084-.075 5.55-4.817 2.77-.411.025-.004.028-.007 5.413-1.699.133-.04.068-.123 1.969-3.629 7.875-4.41.091-.052.047-.092 1.062-2.013.017-.032.008-.032 1.381-4.565.004-.02.112-.471 2.673 3.011-.933 4.043-.026.111.047.108 2.024 4.474v10.198l.064.093 2.097 2.934-.213 7.56-.004.136.091.104 1.743 1.945-.195 3.205-1.74.678-.25.096.032.267.649 5.408.066.557.468-.311 1.87-1.247 3.843-.192-.287 4.566-2.688.797-.233.068-.014.242-.108 1.947-.007.147.104.108 1.83 1.93-2.914 3.114-.167.174.111.217 1.622 3.137.074.144.155.035 7.471 1.707 4.04 4.04.086.087.125.012 4.433.43.253.024.099-.23 1.772-4.172 3.419-.904 7.346 2.249 1.407 3.05-.687 2.062-2.848 2.227-.191.149.076.23 1.147 3.437.038.112.093.068.47.319 5.243 11.475-2.966 4.262-2.964 2.225-6.856-2.225-1.668-3.337-2.223-.742-2.781 1.671-2.779-.929-3.335-3.704-.742-2.966.742-5.188-3.336-2.036-2.595-2.597-2.408 2.597-2.966-.559-1.297-2.225.185-2.779-5.928-2.592-3.149-.188-3.339 2.226-2.778-2.038-.926-4.821-1.298-2.778-1.852-.555-4.263 2.591-1.668-3.333 1.668-4.078-1.482-6.487-1.483-5.188-3.705-1.297-1.298-1.482 1.112-2.408.186-2.597-3.893-1.853-1.852 1.67-2.595.555-2.222-5.375.198-4.207.211-.282zm73.079 50.637l-.994-2.982 2.736-2.145.082-.064.033-.1.764-2.293.045-.127-.059-.124-1.527-3.309-.064-.14-.15-.047-7.3-2.234.49-3.058.003-.007.401-3.007 4.418-1.029.23-.051.034-.236.531-3.72 3.592-6.128 5.922-3.326 2.971 1.539.076.036h2.181l.072-.251 1.138-4.035 2.955-.917.062-.021.051-.039 2.054-1.623.299-.236-.263-.274-2.812-2.919-.172-.176-.222.104-1.623.759-.014.003-2.139 1.121-9.645-3.179-2.156-1.745-2.506-5.635 1.106-3.218 4.445-2.686 2.333.195 1.894 2.487.106 4.538v.16l.128.103 2.164 1.73.164.132.192-.087 2.512-1.152 2.086.198 1.419 1.014 3.657 3.547.183.181.222-.124 1.947-1.081.094-.052.047-.095 1.298-2.595.097-.192-.128-.167-2.218-2.959-.297-2.074 2.217-4.115.029-.056.009-.059.508-3.556 1.837-.463 10.559 9.05.062.053.078.019 2.547.638.141.032.122-.075 1.431-.878 2.655 2.54.865 4.57-.124 6.415-9.923 7.413-.128.096-.011.159-.255 3.947-.014.207.182.108 7.35 4.41-2.763 4.931-.032.057-.009.064-.003.028-9.993-.631-4.819-5.187-3.15.925-3.52 3.709 1.482 5.186 3.15 5.192-2.592 2.409-4.262-3.338-3.524-.184-3.334 1.851-.555 5.004-7.044.558-2.114 2.783zm44.012-23.601l-.288-.175-7.458-4.474.232-3.576 9.93-7.421.135-.1.003-.17.126-6.619.002-.04-.006-.032-.388-2.053 7.301-2.233 6.416 2.225 2.993 3.864.176.223.249-.124 3.669-1.834 4.955 2.356-.965 4.701-.022.108.044.1 2.409 5.582 1.012 3.791.05.183.183.057 4.509 1.38 3.909 3.539.122 3.804.006.149.111.098 6.011 5.26.366 3.282-.007.147-6.332 2.891-17.419-3.338-5.189-2.779-3.522 2.779-5.928-3.708-10.438-2.419 2.878-5.133.165-.291zm39.861-.908l-.006-.144-.108-.1-4.075-3.692-.056-.051-.075-.025-4.399-1.344-.969-3.632-.01-.032-.006-.019-2.378-5.503.955-4.653 2.778-.774.263-.076-.009-.266-.173-5.874 2.847-6.024 10.454.342.208.009.101-.179 3.775-6.52 5.866-1.148.163-.032.076-.147 1.78-3.382 4.139 1.803.068.027H381.246l.093-.072 1.61-1.252 2.541.547.122.023.111-.055L389 374.97l.056-.031.041-.048 1.242-1.419 5.232.187.247.008.089-.231.973-2.6 3.286 3.114.047.044.06.024 6.553 2.699.03.011.021.004 3.11.734 3.979 8.903.007.017 5.397 10.602.036.068.066.051 11.18 8.385-6.255 4.291-4.622-.187-4.747-2.657-.103-.059-.115.016-5.067.753-6.635-4.74-.061-.044-.075-.011-2.557-.48 2.005-2.838.166-.24-.205-.202-3.661-3.664-.24-.24-.244.24-6.553 6.359-.09.087-.014.124-.569 5.677-1.86 2.234-.114.14.047.17.58 2.121.047.168.161.064 3.901 1.487 1.261 3.421-.734 3.309-1.191 1.87-4.589-.916-.19-.04-.13.147-3.666 4.047-.061.067-.019.089-.943 4.33-6.087 5.709-.057.053-.031.079-1.132 3.022-.106.117-3.441-.544-4.26-7.229-5.202.096v-.007l-.002-.025-.382-3.437-.015-.135-.1-.088-6.001-5.247-.121-3.799zm21.458 28.026l1.668-1.855-.184-4.816-2.682-.778 1.118-2.982 6.112-5.729.078-.076.022-.104.944-4.347 3.467-3.83 4.63.925.231.047.126-.2 1.349-2.121.035-.051.011-.06.771-3.469.022-.1-.033-.091-1.351-3.665-.052-.148-.149-.055-3.883-1.48-.487-1.777 1.812-2.178.07-.079.011-.104.563-5.658 6.22-6.036 3.218 3.218-2.145 3.037-.309.44.527.098 3.01.563 6.683 4.776.114.081.136-.02 5.091-.754 4.713 2.64.072.04.084.003 4.821.195.113.004.094-.063 6.276-4.307.299 2.564-3.375 4.131-.193.232.208.223 3.183 3.369v18.748l-4.453 2.6-.227.132.066.25 1.23 4.741-5.307-.351-.079-.008-.076.031-4.625 1.928-.11.047-.061.104-2.698 4.82-.047.083.006.096.574 13.422-3.14 7.456-7.983 1.451-2.781 2.409-3.334.741-3.707-2.038-4.262 1.297v-2.967l4.262-3.522-2.964-3.333-2.965-.741-3.891-.187-.37-4.262-7.969-1.851-.742-3.15 3.706-4.262-1.112-3.337zm37.917 16.491l.031-.076-.006-.072-.574-13.397 2.594-4.629 4.441-1.849 5.703.378.477.032-.122-.463-1.284-4.952 4.4-2.568.171-.1v-7.747l23.334 11.105 4.339 5.662 1.334 4.944.071.263.27-.008 6.921-.187 2.406 4.442.093.17.2.009 13.328.374-.556 9.282-.008.129.08.103 1.927 2.508.218.282.276-.23 4.528-3.772h3.191l-.188 24.557-4.018 3.652-7.941-.757-.136-.012-.108.084-2.293 1.762-2.487-1.953-.237-.189-.215.213-6.894 6.706-5.084-4.904-.939-3.947-.015-.068-.047-.06-4.625-6.169-.151-.203-.237.083-18.379 6.317-3.925-1.683-.175-.076-.158.112-1.741 1.22-2.889-1.811-.176-.106-.182.102-3.848 2.257-8.03-13.269 3.893-4.079-9.59-.215 3.032-7.197zm17.618 25.024l.191.119.189-.132 1.77-1.239 3.874 1.662.12.053.126-.045 18.267-6.28 4.43 5.91.949 3.979.021.096.078.072 5.395 5.203.239.234.24-.234 6.916-6.727 2.461 1.934.209.164.214-.164 2.398-1.846 7.961.758.151.015.114-.1 4.16-3.783 3.214-.411.578 4.626.014.111.077.084 4.613 4.916 1.527 4.283.036.102.09.064 4.044 2.887-3.174 3.757-.196.227.201.223 2.673 2.97-1.164 4.661-3.3 2.102-.152.096-.009.178-.296 6.253-4.243.849-4.224-3.318-.503-.398-.053.642-.303 3.637-3.568 5.35-6.626-.602-.072-.008-.068.025-5.593 1.862-.107.034-.063.089-2.487 3.416-.239.331.365.181 3.582 1.794.81 3.505-5.874.678-3.05-6.298-4.262-1.853-7.969 2.967-10.19-5.562-.927-5.004-3.15-1.296-3.337 4.816-4.816.742-8.952-42.966 3.761-2.209 2.909 1.818zm46.701 54.76l-.086-.374-.932-4.039-.036-.157-.147-.07-3.363-1.684 2.182-3.002 5.417-1.806 6.764.613.205.021.114-.172 3.729-5.59.047-.076.008-.087.257-3.091 3.846 3.022.126.1.155-.031 4.661-.934.263-.051.003-.1 7.409.219 2.445 2.787-1.516 6.676-.036.155.099.132 4.351 5.59.208.27.274-.207 4.783-3.66.567 6.213.007.075.036.063 5.438 9.669-3.78 2.616-.177.124.03.211.96 6.552-5.898 4.385-8.896.371-2.037 4.449-6.674-.741-4.261-6.3-1.295-4.633-6.673 3.521-2.408-2.967-5.931-1.295-.185-6.3-5.929-3.338-.648-6.375 6.14-.706.384-.048zm38.632-156.71l-6.444 2.763-5.876.734-5.187-3.707-.183-.128-.191.111-10.024 5.753-8.331-6.112-.089-.064h-.114l-12.004-.191-7.865-5.244-.039-.027-.057-.011-5.866-1.707-.164-.049-.14.108-5.486 4.162-.09.068-.031.104-3.887 12.404-4.448-.533-.122-.017-.105.068-3.786 2.46-.124.084-.027.143-.727 3.817-6.226 3.564-11.314-8.489-5.364-10.534-4.041-9.043-.069-.156-.167-.04-3.255-.765-6.463-2.659-3.616-3.426-.377-.359-.183.486-1.067 2.852-5.151-.184-.163-.007-.107.123-1.309 1.495-3.109 1.647-2.576-.555-.157-.031-.127.099-1.642 1.276h-3.09l-4.363-1.898-.294-.127-.15.284-1.849 3.516-5.631 1.1-2.61-3.911.339-3.708 1.051-7.182.03-.219-.186-.119-7.261-4.67-1.112-2.858 4.074-4.925.106-.123-.032-.164-.876-4.377-1.374-7.381 3.417-4.784.066-.096-.002-.115-.175-5.779-.003-.066-.022-.057-4.029-9.633-.044-.105-.1-.059-6.701-3.952-1.018-4.582-.022-.097-.067-.071-2.068-2.103 9.76-16.716 8.897-7.939.075-.066.028-.1 1.347-4.851 8.424-7.502 1.708 2.684.107.169.201-.011 5.225-.274.121-.007.088-.079 5.781-5.122 4.018-.063-.369 10.705-5.047 7.107-.118.164.086.183 3.407 7.192.085.181.2.016 12.385.938 5.655 4.378.185 5.891.005.145.108.1 2.271 2.082.09.083.122.006 14.039.75 4.185 5.277.373 8.97.006.111.063.084 2.388 3.121-.186 6.125-.011.355H442.588l8.414 7.667.043.036.053.024 11.631 5.064 4.295 7.097.042.072.075.043 7.758 4.733.068.041.078.008 7.947.757.132.013.104-.077 6.205-4.565 5.657 5.294.105.096.14-.003 5.866-.184 4.435 6.468.096.14.165.011 2.33.18 4.35 4.349v9.327l.174.099 7.313 4.207-1.165 2.994zM268.997 267.657l3.015 3.66.434 5.02-10.394 11.622-.145.164.083.2 1.073 2.545v7.936l.13.107 2.063 1.648.255.205.217-.244 4.381-4.91 12.977 5.003.135.051.133-.059 4.561-2.085 5.727 7.575.323 5.17-9.599 4.04-.211.09v4.005l.117.104 2.52 2.205-2.215 3.003-2.848 3.201-1.669-1.299-2.138-2.457-.129-.151-.191.036-2.749.51-3.549-3.341-.095-.089-.127-.002-6.057-.217-.341-.011-.015.338-.109 2.253-.307 2.56-3.727 3.126-3.044-1.424-.061-.028-.059-.004-2.814-.215-.28-.023-.076.274-2.536 9.195-5.401.829-.197.029-.074.187-2.292 5.849-.393-1.24-.108-10.713.004-.004-.004-.156-.216-6.38-.003-.064-.024-.055-1.299-3.139-.022-.055-.039-.043-3.891-4.325-.079-.09-.118-.02-9.754-1.714-2.106-1.707-.913-4.056 4.032-5.648 4.802 3.472.161.115.18-.078 3.677-1.624.069-.032.056-.061 1.73-2.053.177-.214-.167-.217-3.104-4.039-.018-.025-.01-.007-2.789-2.839 4.436-4.517 11.189.211.34.008.008-.344.211-7.143 2.26-2.465.005-.008 4.578-4.728.245-.252-.255-.24-3.725-3.506.739-1.847 5.256.219.111.005.091-.061 5.899-3.856 4.086-.646zm-125.936-26.644l-.033-.25-.25-.044-7.597-1.348-3.465-2.527-4.714-8.852-1.385-3.289 5.526-1.067.142-.028.079-.124 2.356-3.636.032-.049.014-.059 1.258-5.249 2.149-2.149 2.216 2.222.022.023.019.013 4.193 3.035.052.038.064.016 7.958 2.081 2.734 2.396.087.078.112.008 8.154.7.311.027.056-.31.557-3.021 1.209-.93 3.297 2.347.784 3.257.03.115.087.072 4.428 3.619.103.086.134-.009 3.702-.224 6.181 5.506.504.448.037-.363 5.607-.035.751 6.627-5.74 5.585-4.527-.313-.307-.02-.057.304-1.612 8.878-.015.079.023.078.723 2.457-5.242 2.372-3.038-3.59-.104-.124-.163.002-7.183.096-7.614-4.887.183-3.006.013-.227-.204-.101-1.359-.681-.223-.111-.176.175-.89.89-6.44.894.049-.434.015-.141-.094-.114-3.046-3.713-.473-3.499zm3.391 9.305l.01-.088.069-.608 6.73-.934.116-.017.08-.08.796-.797.933.467-.179 2.981-.012.199.169.11 7.87 5.053.086.056.104-.002 7.125-.095 2.992 3.538-.527 2.642-2.346 2.158-.011.011-.017.018-3.79 4.371-.044.053-.022.068-1.165 3.595-.036.105.036.108 1.65 5.051.021.059.036.048 2.039 2.623.017.019.023.021 1.097 1.013-1.173 3.339-1.719 2.62-4.564-.186-.139-.005-.102.091-1.453 1.284-1.531-1.02-1.936-1.356-.214-.15-.201.167-1.012.826-2.916.729-1.834-.826-.208-.095-.169.159-1.267 1.175-3.108.169v-2.115l2.232-2.232.114-.114-.016-.164-.486-4.859-.017-.171-.143-.088-2.732-1.697-1.127-2.338 1.03-1.286.016-.02 1.749-2.526.062-.089v-6.335l-.18-.098-2.741-1.513-1.952-3.067-.552-3.585 4.391-6.299.048-.071zm-22.835 27.187l-.188 5.907-.003.078.035.074 1.554 3.403.03.064.05.047 3.075 2.795-.736 5.806-7.083 5.742-.05.039-.033.06-1.159 2.049-3.74-.183-2.446-.779-.627-1.356V298.565l-.072-.094-1.125-1.469v-5.529l-.073-.095-8.06-10.538 11.314-8.284 9.337 4.949zm-35.96 7.507l1.482-2.964 3.066-1.321 10.096.381 8.107 10.595v5.53l.071.094 1.128 1.47v2.601l.032.072.72 1.561.064.137.145.046 2.417.772.22 3.012.008.099.063.082 2.28 3.085-.571 1.329-1.053.177-.954-1.168-.106-.127h-2.09l-.1.09-2.274 2.061-5.046-5.171-.075-.076-.101-.022-5.094-1.067-3.436-2.297-.925-3.125-.063-.208-.213-.036-2.159-.36-.119-.02-.107.057-1.708.965-3.732-3.211.768-6.926-3.152-1.855.186-3.705 2.225-.557zm53.409 55.613l-3.111-2.338-.23-3.568-.008-.135-.1-.091-2.159-2.047-.022-.019-.01-.008-2.966-2.173.335-5.256 3.074-1.419.12-.056.053-.123.873-2.038.039-.092-.015-.095-.487-3.11-.008-.054-.019-.042-.799-1.687 1.12-1.98 5.146-2.382.049-.023.04-.035 3.205-2.916.109-.098.002-.147.014-.535 3.612.18 2.239 4.105.047.085.083.048 2.526 1.459.127.072.142-.039 1.652-.486.045-.014.041-.027 1.893-1.204 3.2 3.545-3.986 4.727-.059.071-.016.091-.876 5.152-.003.024v.028l-.096 7.568-1.15 1.592-9.11 4.7-4.556.79zm32.374 14.693l-7.949-4.646V348.017l-.046-.08-1.274-2.228-.088-.153-.178-.019-3.972-.406-5.691-8.968.879-.45.072-.04.049-.068 1.263-1.747.063-.092.002-.108.096-7.647.855-5.031 3.965-4.703 2.303.797.061.022.063-.003 2.079-.087 2.119 5.948.083.23h4.912l.401 5.1.005.079.042.068 2.762 4.566.211.351.31-.268 1.468-1.271 4.441.788 1.938 4.192.089.183.202.016 2.759.188v7.511l-1.611 1.815-.158.174.108.213 1.417 2.735-.56 1.586-5.756 5.451-7.734-1.343zm15.946 10.207l-7.658-4.139-.097-4.214 5.833-5.522.063-.06.027-.072.637-1.807.05-.144-.069-.13-1.378-2.656 1.541-1.735.088-.096V337.339l7.185 2.496.255.088.147-.223 1.06-1.591.038-.056.014-.068.833-4.163.637-.781 4.686 5.586 1.573 3.879.085.204.219.011 4.289.204 3.408 4.852.094.136.164.008 5.969.407.279 3.169-1.284 1.484-.187.216.182.226 2.958 3.649-.987.741-.023.02-.018.021-4.001 4.21-2.176 1.284-2.756-.69-4.5-3.975-.016-.017-.009-.003-3.183-2.337-.108-.079-.133.015-2.972.315-.009.004-4.882.635-.15.019-.089.124-2.017 2.867-.057.079-.005.096-.106 1.487-.017.228.207.104 1.468.733-.455 2.644-1.938.829-2.709-.901zm35.634-51.008l.092.075 2.27 1.84.072.058.085.014 9.724 1.71 3.775 4.193 1.25 3.021.21 6.162-2.82 2.631-1.726-2.878-.068-.112-.125-.041-5.515-1.73-.073-.024-.078.012-7.784 1.081-.045.004-.036.015-2.506.993.462-3.775.005-.053-.012-.051-1.378-7.433-.039-.202-.196-.062-9.306-3 .241-7.716 4.654-.201.112-.007.088-.069 2.513-2.009 5.185 3.252.943 4.186.026.116zm13.707-10.581l-1.497 1.778-3.425 1.511-4.921-3.558-.282-.205-.201.283-4.137 5.791-5.239-3.287-.206-.13-.192.152-2.615 2.094-4.863.21-.318.014-.012.319-.252 8.043-5.382 1.522-.227.064-.022.238-.517 5.573-4.151 2.967-1.892-1.081-.294-2.164-.025-.172-.15-.083-1.697-.957-.29-.163-.173.282-.754 1.224-5.017.207-.224.008-.083.208-.535 1.335-2.104-.35-2.544-4.785-.736-7.36-.012-.122-.086-.088-5.948-6.022-.946-2.554-1.361-3.714 4.924-2.945 6.282-.209.091-.005.076-.045 7.166-4.321 2.596-.519.138-.028.079-.116 1.606-2.304 3.825-.294 1.693 1.591.187.175.222-.125 2.891-1.652 12.647.102.108.003.086-.058 1.503-1.001 3.687.097 1.087 3.066.05.142.139.061 3.335 1.458 5.996 6.101 2.916 3.798zm-18.128-42.438l7.976 4.829 5.302 9.757.046.084.082.049 8.771 5.133.123.072.134-.034 5.801-1.45 2.409 2.409-2.131 2.324-.086.097-.004.127-.202 6.932-11-.208-.147-.002-.104.105-4.529 4.614-2.781-2.828-.046-.047-.062-.028-3.258-1.425-1.117-3.153-.081-.222-.238-.005-4.033-.108-.11-.003-.09.061-1.507 1.004-12.261-.103.757-9.04.02-.221-.197-.108-4.112-2.262-.203-3.658-.008-.143-.105-.096-2.139-1.924-.149-.135-.191.064-3.065 1.023-5.947-3.162 5.662-3.443.07-.043.043-.066 1.401-2.202 4.742-.205.099-.005.081-.059 4.181-2.926 12.203.63zm-38.61 7.519l5.917-.657 9.962 5.297.131.07.138-.048 3.018-1.006 1.887 1.697.205 3.707.011.191.168.095 4.08 2.243-.753 9.003-2.594 1.484-1.619-1.522-.111-.106-.149.011-4.14.319-.166.011-.095.136-1.618 2.329-2.228.444-1.454-4.076-.018-.05-.036-.047-6.846-8.769-.051-.071-.082-.033-3.355-1.469-2.323-2.517 1.752-2.338.042-.057.019-.066.854-3.422.049-.191-.138-.137-.457-.455zm18.533 60.934l.004-.087.097-1.955 4.324-3.09.128-.092.013-.155.509-5.499 5.3-1.501 9.261 2.985 1.334 7.177-.497 4.066-4.866 1.216-.041.013-.045.023-2.442 1.38-.15.084-.022.171-.497 3.664-4.726.603-.033.004-.018.007-3.577 1.029-.679-1.675-.02-.051-.036-.04-4.832-5.761 1.466-2.444.045-.072zm-15.298 6.363l-1.929-4.17-.075-.163-.18-.032-4.776-.85-.16-.028-.125.108-1.285 1.112-2.505-4.147-.419-5.33-.025-.319H168.678l-2.043-5.74 7.005-6.249 3.727-2.635 5.709 5.781.732 7.311.005.072.031.057 2.655 4.991.079.148.169.028 2.546.425.276.045.103-.255.555-1.388 4.978-.204.184-.007.097-.155.675-1.097 1.261.71.294 2.164.025.168.145.083 2.045 1.173-.089 1.822-1.533 2.556-.943 1.153-.055.068-.017.083-.834 4.178-.879 1.316-7.392-2.568-.455-.159v.116l-2.51-.172zm-35.076-46.821l.095-.086 1.19-1.107 1.736.78.11.049.115-.03 3.108-.776.075-.02.061-.047.868-.71 1.727 1.209.006.006 1.751 1.167.219.147.199-.177 1.546-1.365 4.436.181 7.273 12.25 1.448 3.951v.002l.879 2.376-3.766 2.663-.019.014-.014.011-7.098 6.332-2.144.089-2.377-.823-3.537-3.921-.194-.216-.247.157-2.096 1.334-1.464.431-2.315-1.334-2.285-4.191-.091-.17-.194-.009-3.817-.191.064-2.372.001-.057-.016-.057-.778-2.429-.032-.1-.082-.065-2.743-2.174-.907-2.451.265-1.669 1.787-2.449 3.679-3.962 3.455-.186.123-.005zm-14.367 28.721l.463 2.957-.784 1.83-2.953 1.364-6.081-4.718-.579-3.71-.028-.183-.164-.078-2.322-1.106V312.294l-.046-.081-1.078-1.921-.092-.165-.188-.012-3.799-.23-2.243-3.034-.202-2.759 3.604.174.211.011.103-.185 1.233-2.177 6.874-5.573 2.501 3.039.091.109.142.014 2.914.293.094.008.086-.038 4.093-1.906 2.606.262.896 2.422.034.089.074.061 2.737 2.171.729 2.272-.092 3.389-3.061 2.781-5.196 2.407-.1.045-.057.098-1.262 2.234-.089.157.076.161.855 1.804zm-10.17-31.602l-1.49-3.258.186-5.851 5.921-3.424 1.375.429 4.913 2.989.254.154.191-.228 1.357-1.632 5.648-.273 1.162 2.418.045.09.086.052 2.672 1.66.452 4.525-2.215 2.219-.1.099v2.632l-3.699 3.981-.014.017-.011.014-1.846 2.526-.047.067-.014.086-.24 1.523-2.591-.259-.097-.01-.083.039-4.093 1.905-2.678-.268-2.537-3.08.757-5.973.024-.177-.133-.122-3.155-2.87zm44.084-6.046l-1.989-2.557-1.597-4.888 1.108-3.42 3.728-4.301 1.891-1.739.25 3.724.008.123.083.091 3.211 3.424.222.233.248-.205 3.392-2.795 1.568 1.566-.791 3.167-1.883 2.509-.172.231.194.21 2.566 2.781.05.053.068.029 3.341 1.463 6.756 8.657 1.443 4.04-6.901 4.162-6.277.209-.091.003-.077.045-4.948 2.96-7.097-11.955 1.729-2.639.022-.031.014-.044 1.263-3.594.073-.215-.165-.154-1.24-1.143zm38.061-20.088l-3.852 2.695-4.82.208-.177.008-.099.153-1.454 2.286-5.943 3.612-3.274-1.74-.091-.05-.107.012-6.574.731-.846-.847-.22-.22-.241.198-3.39 2.791-2.902-3.098-.29-4.273.541-2.699 5.59-2.529.273-.122-.084-.288-.785-2.667 1.544-8.494 4.376.303.151.011.112-.108 5.774-5.621 7.518 4.857.092.059.111-.005 2.893-.153 3.329 4.085-1.728 6.286-.055.199.148.142 4.48 4.278zm57.586 61.124l5.583.198 3.584 3.373.127.121.171-.032 2.724-.507 2.035 2.341.025.028.022.019 1.744 1.356-3.45 8.887-2.982 3.199-.046.047-.024.064-1.924 5.02-3.089 3.398-2.969-.204-.361-.028-.005.366-.107 7.422-3.25 2.942h-3.198l-2.005-.3-.867-1.024 2.514-1.839.116-.083.022-.14.215-1.407.055-.351-.356-.044-2.458-.294-.244-1.145 1.45-2.592.145-.263-.241-.179-1.297-.973-.178-.132-.193.104-4.647 2.536-5.14-1.029-2.165-3.509-.655-2.066 2.531-6.455 5.427-.837.221-.032.06-.215 2.518-9.135 2.47.191 3.183 1.484.2.096.168-.14 4.001-3.353.105-.089.017-.134.324-2.703v-.028l.094-1.93zm57.678-16.693l.097-.052 3.782-2.089 10.548 8.652.075.061.094.014 6.424.901-1.107 2.537-5.919 7.832-8.866 8.697-7.651 3.477-.191.088-.011.21-.175 3.677-.004.091.043.085 2.343 4.521-3.173 3.675-.071.081-.013.108-.514 4.98-1.941 2.423-7.201.344-.26.011-.059.26-1.02 4.589-2.612 1.691-2.955-3.286-.303-.339-.246.386-4.112 6.517-6.487.68-.14.013-.088.108-5.727 6.774-2.587.674-.999-1.367-.42-2.728-.007-.02-.433-1.95-.045-.208-.21-.051-2.89-.698-.305-3.859-.025-.303-.305-.016-6.805-.308v-5.434l-.354.012-3.103.096.097-6.842 2.773.191.169.009.111-.125 3.244-3.565.043-.051.023-.059 1.922-5.021 2.983-3.194.045-.047.023-.064 3.545-9.131 2.626-2.95.008.028 3.02-4.04-.24-.207-2.64-2.308v-3.239l9.613-4.048.227-.094-.015-.243-.346-5.517-.006-.105-.061-.082-5.842-7.723 2.446-6.045 8.271.787 6.373 7.188.043.049.057.028 6.93 3.599-.011.071 10.389 1.181.108.012zm24.761 93.478l-2.598.726-5.231-2.493-.151-.07-.153.075-3.565 1.782-2.884-3.719-.061-.085-.097-.032-6.624-2.291-.106-.037-.105.032-7.336 2.245-.372-1.978-.022-.107-.081-.081-2.927-2.799-.194-.183-.225.136-1.533.944-2.327-.581-10.633-9.115-.133-.115-.175.043-2.165.546-2.049-.307-6.3-2.775-2.583-2.066-.991-3.074 5.584-6.606 6.516-.686.166-.015.09-.144 3.959-6.268 2.847 3.162.197.219.247-.159 2.978-1.926.119-.076.03-.14.993-4.47 7.093-.338.155-.009.096-.119 2.103-2.627.063-.081.012-.099.513-4.972 3.255-3.772.154-.175-.107-.208-2.41-4.645.161-3.373 7.513-3.417.054-.024.046-.044 8.931-8.755.02-.021.014-.02 5.953-7.88.022-.03.02-.041 1.297-2.969 1.808-3.099 1.866 1.899 1.032 4.63.03.148.128.075 6.732 3.972 3.96 9.468.169 5.598-3.434 4.808-.086.119.027.144 1.399 7.533v.003l.846 4.218-4.098 4.953-.128.155.072.187 1.226 3.154.041.104.095.06 7.166 4.61-1.019 6.961v.016l-.349 3.856-.012.119.067.1 2.683 4.028-3.642 6.287-10.476-.342-.227-.005-.097.203-2.975 6.304-.036.072.001.083.168 5.686zm-108.915-6.966v-9.709h1.175l.092-.206 1.296-2.916h.001l1.419-3.141 2.272.095 3.6 2.225.273.168.189-.263 1.081-1.511.082-.115-.024-.14-.648-4-.017-.115-.078-.077-2.367-2.363.468-3.282 6.047.718.072.007.074-.024 5.405-1.73.203-.063.033-.208.71-4.469h3.19l.1-.089 3.364-3.05 2.978-.095v5.383l.332.011 6.83.312.301 3.807.02.247.242.061 2.929.706.382 1.713h-.003l.432 2.812.014.083.05.068 1.191 1.623.137.188.228-.057 2.603-.677.983 3.042.032.1.081.064 2.702 2.165.04.028.036.015 6.381 2.816.042.015.046.008 1.821.275-.482 3.386-2.243 4.162-.05.099.014.113.324 2.268.014.089.053.07 2.142 2.855-1.155 2.312-1.628.906-3.493-3.389-.023-.02-.016-.016-1.517-1.08-.072-.057-.094-.006-2.271-.217-.092-.008-.083.04-2.404 1.101-1.871-1.499-.103-4.486-.003-.111-.066-.091-2.056-2.704-.095-.125-.151-.011-2.595-.216-.111-.011-.097.059-4.648 2.812-.109.064-.041.119-1.188 3.46-.042.128.053.123 2.596 5.838.035.08.064.048 2.269 1.841.052.041.057.02 9.838 3.242.139.047.131-.068 2.265-1.188 1.389-.649 2.376 2.472-1.702 1.343-3.075.953-.181.055-.051.185-1.119 3.962h-1.493l-3.062-1.582-.165-.084-.16.088-6.163 3.461-.081.047-.05.08-3.675 6.272-.034.06-.01.064-.509 3.552-4.417 1.028-.231.053-.032.238-.433 3.246-.505 3.118-3.457.918-.164.043-.069.152-1.738 4.094-4.057-.393-4.023-4.024-.067-.072-.1-.019-7.411-1.696-1.439-2.778 2.969-3.174.224-.239-.224-.232-1.952-2.057.086-1.554 2.686-.795.233-.072.014-.238.325-5.193.024-.382-.385.016-4.325.219-.097.005-.077.051-1.48.986-.55-4.583 1.694-.661.208-.08.014-.219.215-3.569.01-.143-.096-.108-1.748-1.949.213-7.545.005-.115-.068-.091-2.099-2.94zm-8.143-29.601l-.026-.036-.028-.023-1.91-1.699-.202-.179-.224.152-1.957 1.339-1.305.259-3.266-4.697-.204-.291-.022.016-2.795-3.449 1.192-1.375.096-.113-.011-.138-.317-3.613-.03-.296-.294-.019-6.1-.414-3.407-4.853-.097-.14-.169-.008-4.24-.198-.568-1.409 3.488-1 4.957-.635.264-.036.033-.259.508-3.76 2.248-1.271 5.055-1.265.231-.055.005-.032 2.818-1.116 7.665-1.065 5.317 1.667 1.878 3.13.219.366.311-.291 2.673-2.491.1 10.134.003.057.013.047 1.406 4.434.011.036.025.04 2.271 3.677.079.128.146.032 5.407 1.079.121.024.111-.06 4.564-2.491.879.661-1.368 2.44-.064.113.028.127.326 1.514.051.24.245.032 2.346.279-.139.913-2.695 1.97-.299.219.238.283 1.191 1.403.083.1.129.021 1.819.27-.669 4.207-5.131 1.643-6.308-.749-.333-.04-.05.334-.541 3.785-.023.17.12.123 2.411 2.41.609 3.748-.814 1.136-3.401-2.101-.077-.049-.09-.003-2.596-.108-.231-.008-.097.212-1.514 3.352-1.206 2.716h-.851l-1.914-4.234.944-4.104.044-.174-.121-.132-3.112-3.501.225-.941.035-.148-.089-.128-4.033-5.841zm-36.914 12.253l-1.142-4.465-.192-2.592 2.002-.858.173-.075.032-.184.53-3.082.044-.251-.228-.112-1.494-.745.084-1.164 1.874-2.664 4.727-.618 2.838-.304 3.071 2.253 4.549 4.02.064.056.078.02 2.973.742.138.036.123-.072 2.334-1.38.042-.024.033-.036 4.015-4.227.965-.721 3.194 4.589.129.188.22-.048 1.595-.316.066-.015.058-.04 1.797-1.229 1.678 1.496 3.923 5.674-.493 2.074-1.367 4.525-.999 1.894-7.874 4.41-.086.047-.047.089-1.949 3.592-5.258 1.65-2.839.418-.1.017-.074.068-5.54 4.808-7.678.599.089-2.266.002-.035-.004-.028-.319-2.23-.009-.079-.047-.068-2.795-4.038.413-4.977.011-.131-.086-.112-3.244-4.079zm-86.408-45.941l.128-.13-.036-.181-.695-3.477 1.027-1.749 2.553.111.382.016-.022-.382-.122-1.923-.008-.16-.129-.096-1.169-.879 1.362-1.889.066-.092V313.254l2.304-2.088h1.506l.976 1.193.126.158.198-.035 1.439-.241.188-.029.073-.174.624-1.459 3.527.213.942 1.68v2.532l.197.094 2.357 1.125.571 3.664.021.136.108.087 6.213 4.812-.35 5.471-.011.187.152.113 3.109 2.276 2.038 1.926.23 3.592.011.159.129.096 3.207 2.412-.339 5.567-1.106.984-4.988-1.777-2.213-4.43-.132-.259-.278.083-2.963.929-5.613-.75-.338-.043-.047.334-.547 3.824-5.021 3.067-4.784-.251-.118-.009-.097.068-3.157 2.185-3.411-2.193-.023-.011-4.717-2.521.267-6.826-1.548-2.942 7.951-8.051zM83.395 304.1l1.296-2.039 2.676-3.324 3.731 3.21.184.157.208-.118 1.815-1.022 1.825.305.899 3.037.035.121.103.069 3.6 2.405.056.036.064.013 5.056 1.061 5.105 5.231v3.84l-1.492 2.071-.198.275.269.204 1.313.984.084 1.384-2.375-.104-.206-.011-.106.179-1.199 2.046-.066.115.023.128.687 3.424-7.668 7.768-5.528-10.506-.186-8.152-7.041-4.448.37-4.263-2.778-1.298-.556-2.778zm33.335-40.256l-.037-.277-.279-.019-2.72-.194-.133-.012-.106.084-1.175.926-1.751-1.001-1.183-2.273-.088-2.057 1.348-2.339 2.259-.995 4.683.097.139.002.102-.095 2.516-2.328 3.013.172 1.485 5.109.126.426.38-.225 1.543-.91 2.262.35 1.277 1.82.115.165.198-.019 6.902-.68.083-.008.068-.044 3.634-2.338.501 3.264.012.07.038.064 2.042 3.207.049.075.075.042 2.637 1.455v5.715l-1.683 2.434-1.055 1.318-5.869.285-.152.006-.097.117-1.269 1.521-4.701-2.857-.039-.025-.036-.011-1.555-.485-.145-.044-.13.076-6.053 3.498-9.466-5.016-.966-1.585V268.7l1.23-1.232 2.097-1.239.2-.117-.035-.228-.291-2.04zm65.547-48.607l.447 4.252-2.499 3.867-.144.224.18.196 2.628 2.86 1.005 3.244-.274 2.644-5.788-5.155-.105-.094-.144.007-3.71.226-4.231-3.462-.788-3.268-.033-.127-.102-.074-3.611-2.569-.207-.148-.203.157-1.514 1.166-.105.083-.025.129-.524 2.842-7.731-.664-2.708-2.375-.061-.054-.081-.021-7.971-2.084-4.122-2.983-2.195-2.201.932-.934.065-.062.024-.092.579-2.121 2.113-.194.276-.025.036-.273.398-2.992 6.426-2.073.245-.079-.008-.256-.211-8.704 1.011-2.629 1.673-1.339 1.015 3.214.119.388.363-.18 3.807-1.908 2.199 1.048 1.926 3.405.115.202.23-.03 3.337-.447 2.095 1.88.081.073.11.012 2.097.234.196.021.118-.158.899-1.202 3.042 1.018.205 2.476-1.001 1.894-.086.163.091.164 1.165 2.102.095.171.197.006 3.931.108.519 2.081.057.228.231.031 2.196.3-.625 3.142-.024.116.056.108 2.301 4.495zm82.159 48.595v3.955l-5.709 3.735-5.388-.226-.244-.01-.091.228-.918 2.292-.086.217.17.161 3.642 3.429-4.096 4.232-2.533-2.534-.136-.136-.191.046-5.854 1.463-8.564-5.012-5.303-9.756-.046-.085-.08-.046-8.127-4.922-.072-.043-.088-.005-12.28-.635-4.542-4.337 1.721-6.259.047-.169-.111-.139-3.552-4.358-.111-.137-.172.01-2.957.155-7.515-4.854-.791-6.94-.033-.308-.31.002-5.84.037.308-3.003.008-.069-.019-.067-1.048-3.385-.025-.075-.051-.059-2.497-2.72 2.368-3.671 3.324-1.777 5.959.46.235.02.103-.216 3.575-7.513 5.475-4.114 3.387-1.132 2.3.056 2.404 2.52.098.1.138.009 5.125.232.146.006.105-.103 2.465-2.355 3.649-.044v4.941l.24.079 2.944.981-4.471 5.112-.069.079-.014.103-.916 6.876-.021.154.105.118 12.146 13.753.014.017.008.005 4.125 3.897.025.021.028.02 4.311 2.723 4.55 5.232.098.114.152.005 7.107.222 2.895 7.351.133.341.332-.151 2.399-1.092 3.656 1.22-1.249 3.333-.108.289.276.138 3.932 1.968zm56.462-38.011l6.836-8.823 19.836 2.131.071.008.065-.021 4.414-1.379 45.905 32.789.103.075.125-.011 10.58-.857.142-.011.094-.108 3.58-4.131 4.658 1.095.18.041.133-.124 3.907-3.626h3.194l.102-.154 1.591-2.386 2.447.446-2.338 4.153-.072.128.043.143 1.956 6.425-2.993 4.625-5.031 1.678-.091.031-.063.072-3.335 3.89-12.72.566-.117.005-.088.072-6.486 5.36-8.888.14-.126.001-.094.086-5.788 5.125-4.907.257-1.816-2.854-.216-.343-.304.269-8.802 7.839-.073.067-.028.098-1.347 4.854-8.863 7.908-.041.036-.027.047-11.848 20.29-6.551-.918-10.65-8.737-.181-.149-.204.113-3.894 2.148-9.864-1.082-7.038-3.654-6.418-7.24-.093-.103-.133-.011-8.664-.826-.255-.025-.098.241-2.561 6.336-4.555 2.081-13.067-5.037-.223-.086-.158.178-4.321 4.847-1.677-1.344v-7.674l.002-.066-.029-.067-1.015-2.412 10.331-11.551 3.49-2.834 4.852 1.985.183.075.156-.119 3.895-2.981.129-.097.007-.161.223-4.886 11.107-8.839.218-.175-.126-.25-2.978-5.959-.133-.266-.283.093-4.813 1.604-.095.032-.063.075-2.127 2.555-5.039-2.099.208-3.32 4.192-5.517 5.336-.221.363-.016-.032-.357-.229-2.75-.005-.076-.042-.069-1.468-2.521 3.248-3.25.073-.072.022-.101 1.145-5.271.029-.132-.071-.118-3.782-6.229 1.506-2.262 13.592 10.471.886 4.002.065.282.285-.012 5.393-.225 5.64 3.609.175.114.183-.106 4.353-2.52.223-.13-.059-.248-1.115-4.688 1.541-2.863.095-.179-.111-.172-2.386-3.69zm183.849-30.116l-2.583-.285-.764-2.678 2.102-.669 1.722 1.913-.477 1.719zm-3.603-128.356l3.305-4.315 2.303.574-.862 3.597-3.021 1.58-1.725-1.436zm4.313 8.338l-1.582-2.3 1.582-2.012 1.439 2.443-1.439 1.869zm11.144 133.594l-3.156.574-3.058-1.148 1.05-2.008 3.824-2.102 1.34 4.684zm-7.118-144.809l3.593-3.018 4.171 1.725 1.149 3.449-6.038 3.021-3.019-2.733.144-2.444zm17.611 271.607l1.08 6.491-5.839 8.066-.056.076-.008.1-.555 7.229-8.824 11.212-4.266-4.266-.09-.092-.129-.012-2.296-.176-4.447-6.483-.105-.16-.188.009-5.917.183-5.76-5.391-.211-.195-.228.172-6.328 4.653-7.737-.738-7.617-4.646-4.311-7.12-.056-.092-.101-.044-11.677-5.088-8.476-7.718-.097-.093h-9.43l.18-5.888.003-.121-.075-.1-2.394-3.129-.373-8.973-.003-.114-.072-.088-4.354-5.486-.094-.122-.155-.01-14.072-.75-2.071-1.899-.183-5.909-.005-.164-.128-.1-5.867-4.542-.083-.063-.103-.009-12.288-.929-3.233-6.826 4.991-7.026.06-.087.003-.103.375-10.843 4.175-.067.122-.001.092-.077 6.491-5.36 12.751-.568.15-.007.097-.112 3.371-3.932 5.056-1.686.115-.039.065-.101 3.147-4.862.087-.133-.048-.153-1.958-6.437 5.077-9.024.094-.169-.094-.169-2.435-4.329 4.144-3.452 7.237 11.613 1.854 7.969 2.223 3.52 6.856-6.3-2.037-2.965-.929-3.336 1.856-5.188-5.376-5.559.186-2.78 6.116-1.854 4.446-7.969-4.078-5.374 4.078-3.89 7.783-1.855 5.189-5.002 6.671-8.524 5.559-4.263 3.707 1.482 5.745 7.599-1.483 9.821-7.411 7.042 1.294 6.115-1.294 4.632-11.305 26.872 1.112 7.226-6.671 13.344-9.821 6.301-6.117 2.407-11.673-5.374v5.189l17.418 10.749 5.188-5.559 7.597-2.781 8.341-8.524.554-10.933 5.005-4.819 9.081 1.297 2.592 7.784-5.928 10.377 2.224 8.339 7.967-1.852-4.263-2.41-1.483-2.964 5.376-6.487v-8.709l-7.597-9.081h-9.267l-.557-8.709 9.081-14.27-.185-14.639 3.706-5.559 3.892-1.112 3.705-3.336 2.41-6.671 2.038-.926-.742 9.821-5.001 6.114.369 6.672 11.862 10.562-.372-6.115-6.488-7.041 1.669-5.744 6.114 5.559 1.855-6.671 3.734-.221.068.731.005.064.025.052 4.215 8.952-4.51.752-.237.04-.047.239-1.1 6.06-.021.109.048.097 4.356 9.254-1.035 4.125-10.309 4.614-.155.069-.042.161-1.376 5.51-.04.16.099.131 6.886 9.089.074.097.118.029 7.493 1.873 1.589 9.081-3.032 7.702-7.166 1.928-.381.103.153.366 2.205 5.24-2.216 6.647-.056.172.112.147 5.555 7.223-1.396 13.122-.014.132.078.105 4.428 6.09-1.67 9.445-.036.208.171.128 6.66 4.995zm-42.586-156.711l5.852.434.865 7.149-5.901.771-1.249-3.154.433-5.2zm43.148 257.995l.013.119.085.085 4.038 4.038.061.06.081.027 5.587 1.763-.814 2.982-6.434 4.905-.125.096-.008.159-.301 6.308-6.187 2.655-7.631-3.356-.088-.041-.096.011-9.01 1.245-.13.016-.087.104-3.313 3.915-8.871-.043v-.004h-4.13l-.099.083-4.351 3.624-1.631-2.117.571-9.513.021-.355-.356-.009-13.485-.378-2.412-4.453-.1-.185-.211.004-6.862.185-1.277-4.75-.02-.064-.041-.055-4.434-5.781-.05-.068-.075-.037-23.705-11.279v-10.905l-.093-.099-3.069-3.25 3.277-4.004.094-.115-.016-.144-.358-3.05 6.358-3.64.139-.08.03-.159.729-3.828 3.555-2.313 4.608.555.283.036.086-.276 3.941-12.576 5.261-3.99 5.644 1.638 7.908 5.274.082.053.105.004 11.998.187 8.429 6.181.18.132.194-.113 10.028-5.757 5.017 3.589 2.479 8.736-2.374 2.965-.077.096V407.794l.294.042 17.839 2.768 5.202 10.714.083.168.186.023 4.643.583-.275 3.568-7.037 6.12-.137.12.019.179.622 5.284zm6.757 35.933l-2.58 2.576-5.223 2.459-.152.072-.038.164-.933 4.038-.023.104.041.104 2.099 5.1-3.919 5.124-.105.138.049.168.934 3.11.049.167.165.056 4.964 1.755-1.737 5.212-3.385 4.302-.102.131.041.167 1.22 4.884-.909 3.645-.025.104.036.1 1.167 3.209-5.091 5.091-3.027 1.511-4.109 1.473-2.513-2.863-.099-.113-.15-.004-7.543-.227.276-5.824 3.269-2.083.115-.075.034-.131 1.241-4.969.045-.179-.122-.136-2.596-2.882 3.224-3.812.241-.284-.305-.219-4.26-3.042-1.517-4.25-.024-.064-.05-.055-4.583-4.889-.607-4.857-.043-.346-.343.043-3.275.423.187-24.322 9.033.044h.161l.102-.123 3.333-3.936 8.782-1.212 7.677 3.378.138.059.137-.059 5.911-2.533-.791 3.696-.027.12.058.111 5.477 10.651zm12.502 45.661l-1.461 3.222-4.837 1.813-.132.049-.06.127-2.696 5.686-3.802-.291-.256-.02-.092.239-2.406 6.321-9.074.582-.026-.288-.497.379-5.01 3.831-4.038-5.191 1.475-6.491 4.17-1.492.012-.004.027-.011 3.108-1.555.052-.024.037-.04 5.28-5.28.157-.155-.078-.206-1.206-3.318.908-3.628.021-.085-.021-.083-1.202-4.804 3.314-4.219.036-.044.016-.06 1.866-5.594.107-.319-.32-.112-5.115-1.805-.831-2.772 3.931-5.143.12-.155-.074-.185-2.132-5.178.868-3.768 2.14-1.01 2.828 8.334.081.236h5.853l.022-.005 5.164-.605 3.058 1.945-1.739 3.768-.079.172.104.159 4.001 6.152.919 5.216.004.015.01.032 1.848 5.551.291 3.775-4.46 2.38-.184.096V518.957zm-18.72 35.155l.259-.179-.154-.276-5.558-9.875-.582-6.408 9.277-.598.222-.016.081-.207 2.391-6.284 3.691.282 8.017 5.647.068.048.086.012 13.055 1.702.15.02.116-.1 5.612-4.676 3.139-.738.252-.059.014-.256.179-3.043 4.582-2.933.18-.117-.023-.211-.345-3.111 3.307-.868.2-.052.047-.204 1.076-4.485 16.975-1.495.252-.02.054-.251.837-3.848 13.957 9.733.1.072.117-.008 5.576-.36.459 1.986-1.948 1.951-.137.134.047.191.714 2.852-2.72 3.082-.155.175.108.212 2.504 4.848-1.088 4.179-3.892.183-.186 3.891-2.965.929-.555 8.525 4.631 5.559-2.779 6.854-3.891 3.337-4.263 1.484-2.778-2.596-5.375-.742-13.527-1.483-4.817-2.408-.928-5.746-12.786-2.779-1.482-2.221-8.524.554-23.847 8.968-.888-6.081 3.861-2.676zm86.979-25.729l.119-.136-.045-.176-.709-2.834 1.946-1.946.133-.136-.044-.183-.183-.801 3.627.083.113.004.092-.068 6.346-4.53 3.963 5.399.025.036.04.032 12.675 10.028.096.076h6.196l4.565 5.846.559 4.824.027.251.251.049 6.595 1.284.893 3.572.087.358.355-.115 6.245-2.081.17-.06.053-.172 1.279-4.386 9.692-4.29.068-.028.053-.055 3.026-3.409.064-.072.02-.096 1.075-6.125 4.04.355.192.016.115-.159 3.528-4.829 5.379-1.666.123-.04.068-.111 3.597-5.866.044-.076.008-.084.175-3.154 2.78-.693.17-.044.064-.164 1.137-2.838.048-.116-.036-.116-.905-2.886.848-1.528 2.608-2.421.06-.055.029-.072 1.702-4.353.043-.108-.036-.111-1.311-4.502-.562-8.253 1.507-8.474.008-.051-.008-.06-.571-3.596-.039-.259-.259-.033-3.218-.379-.223-.024-.116.2-2.46 4.35-.032.056-.008.059-1.507 9.431-.395 1.156-2.46-5.79.71-6.85 3.815-4.533.224-.264-.264-.223-4.517-3.804-.646-3.648 7.412-.929.244-.028.051-.244.89-4.23 3.76 1.329.111.038.112-.038 7.288-2.429.147-.048.06-.144 1.798-4.27 3.309 1.766.081.045h3.551l2.57 3.501.138.191.228-.064 15.302-4.127.196-.052.047-.195 1.623-6.257 2.851.44.184.027.128-.14 3.36-3.783.395 3.943-2.839 4.027-.175.247.223.204 2.851 2.612 4.584 13.76.068.198.204.036 5.486.954 4.924 4.453.455 6.404-8.01 2.827-.14.047-.06.14-3.122 7.205-9.158 6.989-.136.104v5.454l.152.104 4.202 2.804-.459 5.279-4.006 4.948-5.259 2.153-.108.043-.059.093-1.851 3.01-6.14.47-.156.012-.091.124-9.597 12.714-5.143-.701-.148-.02-.119.096-5.73 4.776h-9.828l.151.455 1.866 5.607-4.916 3.979-.283.227.247.27 5.041 5.503-4.701 2.461-.136.071-.04.148-1.607 5.945-4.904-.212-2.225-3.891-8.521.558-8.153-2.595-10.565 6.299-7.413.187-10.561-5.558-2.963-11.49-14.456-3.339-15.709-6.331-2.403-4.653 2.684-3.042zm85.962-104.681l.212.228.247-.187 5.343-4.088 7.871-.314.195-.008.096-.168 2.646-4.708 4.147 4.146.267.262.244-.283 5.745-6.706.032-.035.02-.041 8.544-18.357 5.471-.908 10.941 4.374 2.503 7.507.12.368.346-.161 6.85-3.114 3.908 2.707 7.28 16.508-7.747.226-.111.005-.088.068-3.157 2.429-.144.11.008.181.487 8.744.007.166.139.096 5.678 4.023-.23 6.927-5.335 3.711-9.071-1.395-.459-4.593-.079-.782-.523.587-3.759 4.23-2.976-.455-.306-.047-.08.302-1.646 6.364-14.884 4.015-2.533-3.453-.102-.144h-3.733l-3.568-1.898-.331-.179-.147.347-1.883 4.474-7.025 2.34-4.019-1.42-.371-.131-.079.387-.921 4.374-7.528.941-.363.043.064.359.729 4.132.021.119.095.083 4.354 3.664-3.665 4.351-.07.084-.009.103-.729 7.046-.008.087.032.085 2.799 6.578-2.676 7.867-3.577 9.8-4.142 6.4-.008.012-3.405 5.869-.02.028-.012.036-1.295 3.887-5.798 5.235-.036.032-.023.036-2.799 4.295-7.824 5.403-3.894.557-.068.009-.06.036-2.839 1.707-.267.159.131.279 1.324 2.839.096.2h6.191l-1.143 3.926-5.722 1.906-.857-3.424-.052-.212-.215-.043-6.563-1.277-.542-4.665-.009-.099-.059-.076-4.733-6.057-.103-.132h-6.297l-12.541-9.924-4.137-5.641-.201-.276-.277.199-6.531 4.666-3.684-.088-.223-.964-.065-.287-.294.015-5.746.374-14.263-9.947-9.495-8.505v-3.298l3.945-1.838 5.548.554.355.036.024-.354 1.123-16.858 3.269-6.265 5.749-.821.236-.032.051-.235 1.129-5.076.031-.139-.077-.12-5.816-9.138 5.17-9.522 13.062-.559.162-.004.099-.13 3.319-4.338 4.838 10.481.14.3.305-.128 3.384-1.411.234-.096-.02-.251-.552-6.336 12.591-13.713.072-.075.012-.108.821-5.454 5.722-2.6 2.958 6.456.049.099.091.056 6.204 3.668.387.228.119-.436 1.388-4.987 3.32-3.321.153-.152-.068-.199-1.411-4.234-.06-.176-.176-.047-2.827-.77.251-3.266 4.429-4.704.124-.132-.039-.176-.846-3.951-.044-.196-.191-.059-6.028-1.918-1.592-5.303 2.999-4.095.136-.183-.117-.196-2.646-4.501 7.045-4.339.079-.048.045-.087 4.233-8.182.045-.088-.008-.1-.563-6.487-.007-.079-.045-.072-2.722-4.358 2.742-6.037.061-.131-.053-.136-1.392-3.613-.266-5.354 4.825-2.146 5.326-1.12.111-.024.076-.083 2.24-2.489 2.665 4.036-3.218 2.049-.163.1v4.98l.323.024 4.151.318.119.009.099-.072 2.874-2.009 3.609 6.914-.319 8.851-.008.21.183.104 4.884 2.744-2.177 9.008-.023.115.047.108 2.871 6.383.064.144.151.047 6.017 1.802-4.636 10.821-.025.057-.004.056-.957 14.051-.011.147.103.112 5.111 5.426zm-23.532 92.328l-2.036-3.229-.104-.163h-4.347l-.063.023-2.966 1.112-2.273-2.081-.005-.004-2.65-3.711-.183-.255-.272.159-7.675 4.569-3.078-6.156-.14-.279-.291.111-3.951 1.483-.299.113.088.302 1.427 4.992-3.305 1.044-.291.093.055.302.65 3.414.052.259.259.019 4.282.359 4.16 3.027.019.012 3.481 2.196.1.064.115-.011 5.936-.559 4.846 3.41.266.187.199-.259 7.975-10.148.151-.191-.132-.204zm-12.905 6.643l-.104-.071-.103-.077-.129.013-.128.011-5.819.546-3.366-2.125-4.158-3.022-.076-.056-.079-.059-.098-.009-.095-.007-4.019-.335-.542-2.855 3.011-.949.319-.103.323-.1-.092-.323-.095-.323-1.341-4.689 3.366-1.26 2.938 5.877.168.331.163.33.319-.187.319-.191 7.404-4.406 2.468 3.457.019.028.021.032.028.024.028.027h.004l2.268 2.083.155.138.156.144.195-.076.2-.072 2.907-1.088h3.851l1.807 2.859-7.62 9.7-4.573-3.217zm42.864 31.556l.396-.213-.3-.327-5.099-5.562 4.82-3.899.183-.148-.074-.227-1.792-5.374H714.813l.1-.085 5.709-4.757 5.194.706.2.028.123-.159 9.622-12.751 6.159-.474.176-.013.092-.151 1.885-3.062 5.239-2.145.085-.032.051-.068 4.131-5.099.067-.085.008-.102.487-5.591.017-.203-.168-.113-4.219-2.81v-4.748l9.095-6.939.068-.056.036-.083 3.097-7.15 8.118-2.863.247-.087-.015-.263-.487-6.802-.012-.136-.1-.096-5.103-4.612-.076-.068-.096-.017-5.382-.937-4.553-13.648-.029-.087-.064-.06-2.691-2.465 2.616-3.707 9.266 1.423.131.02.117-.076 5.585-3.887.14-.1.007-.172.244-7.289.004-.182-.152-.109-5.69-4.034-.466-8.398 2.923-2.248 7.934-.236 9.86 18.274.04.079.072.045 7.719 5.147-2.225 3.11-.167.24.207.207 3.884 3.883.183.184.227-.124 6.264-3.48 2.986 5.29.127.228.251-.06 4.71-1.12.697 9.309.017.183.155.093 4.772 2.727-2.695 3.82-.136.191.132.196 7.987 11.981-8.827 6.125-5.005 9.266 7.041.741 3.337 8.895-5.003 5.005-2.967 18.533 2.779 6.854-6.671 4.633-2.778 7.599-19.645-3.154-4.633 4.263-3.333-3.15-11.12.558-7.966 7.413-1.666 5.374-5.192.184-16.306 9.82-24.274-2.221-3.15-5.933-3.103-.131 1.528-5.65 4.967-2.599zm35.426-12.748l.243.152 11.659 7.288.159.1.16.1.17-.085.172-.083 20.164-9.713.454-.223.458-.219-.375-.344-.37-.342h-.004l-4.869-4.466 2.863-.67.215-.051.22-.053.043-.223.041-.219.729-3.887.044-.232.045-.232-.2-.123-.204-.128-5.83-3.644v.004l-.115-.075-.115-.072-.136.028-.131.027v-.004l-4.857.974-.179.035-.18.037-.072.167-.071.171-2.288 5.415-2.198-2.01-.342-.315-.343-.315-.199.419-.2.419-2.751 5.73-9.585 1.171-.204.024-.206.025-.076.195-.077.192-1.698 4.372-.104.264-.102.267.242.152zm12.077-5.997l.187-.023.084-.172 2.831-5.901 2.555 2.341.359.329.192-.45 2.484-5.865 4.857-.973 5.828 3.645-.729 3.887-3.493.821-.637.153.482.438 5.35 4.904-20.163 9.717-11.658-7.289 1.698-4.369 9.773-1.193zm59.982-69.78l.215-.311-.327-.187-4.944-2.828-.714-9.529-.032-.406-.39.095-4.852 1.152-3.026-5.358-.172-.3-.3.168-6.327 3.516-3.496-3.496 2.261-3.163.202-.291-.294-.198-7.58-5.052 5.997-3.928 6.164-2.464 4.952 4.02.227.187.219-.196 2.64-2.344 3.923 3.616.243.227.231-.234 3.728-3.726 8.676.308 5.662 4.402.147.119.184-.067 10.989-4.084 3.679 3.067.164.14.199-.093 15.218-6.973 4.363.933.096.021.096-.037 5.107-1.914.268-.099-.049-.28-.597-3.583 23.492-12.217 3.496 3.787-5.65 12.245-.04.083.009.096.618 5.842-4.278 2.444-.185.103.013.216.319 5.426.019.328h10.04l4.366 6.551.112.167.195-.012 5.112-.323.119-.009.092-.079 7.982-7.345.079-.07.024-.104 1.217-5.161H920.953l.096-.195 1.802-3.603 3.692.569 3.7 11.408-2.329 2.328-9.785 1.579-.453.072.198.414 2.453 5.216-3.673 3.983-.066.072-.021.104-.941 5.335-5.686 6.63-.183.216.176.223 2.388 2.987-3.672 4.895-.068.092V487.538l.192.1 10.142 5.067 8.111 11.236-6.683 10.176-3.812.498-7.041-2.226-3.708 1.855-5.187-2.408-8.341 3.333-21.124-21.866-17.049-16.862-11.673 1.85-9.638-3.333-12.627 6.491-7.875-11.809 2.78-3.936zm117.863 33.516l10.573.187 4.849 3.917.142.119.181-.064 14.038-4.737-1.352 5.454-5.156 2.365-9.453 10.562-1.667 5.192-12.599 6.113-5.928-5.188-5.543-8.759 6.714-10.224 5.201-4.937zm38.471 56.718l-3.891-6.67.71-21.631 5.693-1.256.43-.096-.199-.395-2.185-4.365 2.819-3.697 11.244-.748.091-.009.075-.048 6.843-4.561.171-.115-.02-.208-.722-6.662 4.761-.18.287-.009.04-.287 1.524-10.45.051-.362-.366-.028-6.707-.563-4.211-4.561 7.093-5.318 6.331 4.525.926 4.617.039.208.208.055 3.807 1.08 2.589 19.299-3.892 16.491-2.778 31.506-5.747 11.488-9.636 7.783-13.341-.183-7.783 7.412-.37-5.375-14.083-14.453 5.003-10.934 15.196-1.3zm-28.141-385.253l4.354.654 3.273 5.788.16.283.291-.138 6.846-3.299 6.323 2.023.187.061.148-.132 4.817-4.309 7.368-.509.13-.008.097-.098 5.386-5.632 7.628 11.084.079.114.136.029 4.757 1 3.313 8.67.096.244.259-.024 5.569-.505 3.445 3.2 1.022 5.351.028.157.142.079 5.352 3.018 1.407 5.873 1.299 8.339-.37 4.078-5.562.927-7.966-10.934-1.854 5.559-3.891.184-6.859 9.822-1.107 8.34 3.52 11.304 1.111 19.086 4.076 3.893 3.892-4.819 4.444 3.336-4.261 5.559-5.371 2.04-1.483 10.561-5.928 6.673-4.079-3.521 4.262-6.117-5.746.186-6.299 5.559-8.155 2.596 1.484 9.449-4.634 1.112-3.337 2.781-4.958 3.271-3.307-5.779-.096-.173h-7.016l-.093.067-5.21 3.837-2.357-4.716 3.118-5.674.06-.11-.024-.123-1.455-7.286-.041-.195-.191-.063-13.118-4.373-.159-.055-.139.094-5.793 3.86-12.555-26.055 1.239-6.21 8.665-6.115.247-.175-.14-.268-3.233-6.222 7.985-7.486 7.373-.763.132-.014.087-.1 4.391-4.905.074-.084.009-.115.777-8.52.016-.173-.132-.114-4.795-4.292-.253-5.28-.003-.097-.052-.077-2.939-4.403 3.661-3.415.239-.223-.211-.251-3.92-4.653 9.266-8.514 4.331-1.784.095-.039.06-.085 3.356-4.906.113-.163-.088-.18-2.815-5.868zm56.864 262.021l-3.521-9.263-10.932-5.932-5.934-13.53-5.928-4.445.925-4.263 2.967.742 1.853-2.409-3.337-5.003-6.112-4.262.742-3.521 3.332-1.484 4.817 6.117 10.378 7.224 7.6 14.271 16.491 14.825 23.347 15.753-10.378.554-5.558 3.149 2.595 7.601 4.634 11.858 7.224 5.192 6.3 2.778h5.933l4.075 8.525-5.003-2.595-2.039.924-5.374.371.93 5.746-.559 7.599-6.854-8.712-.929-6.67-6.67-3.15-1.483-4.263-1.666-4.817-5.375-4.078-4.634-7.596-6.482-10.379-5.375-6.857zm-12.045-9.45l3.15 15.382 3.52 4.264 10.75 21.864 2.408 6.855-1.687 21.858-3.393-.961-.909-4.542-.028-.136-.112-.079-6.651-4.749-.202-.147-.204.151-7.598 5.702-.308.227.259.283 4.561 4.94.092.096.131.012 6.476.542-1.428 9.801-4.84.18-.371.015.04.368.738 6.821-6.591 4.395-11.307.753-.156.008-.095.127-3.039 3.992-.132.168.096.195 2.082 4.162-5.215 1.148-3.014-8.628 1.849-5.934-4.935-8.066 1.513-6.128.153-.609-.595.199-14.453 4.88-4.792-3.872-.092-.071-.119-.004-10.829-.187-.14-.004-.104.095-5.048 4.789-8.069-11.176-.048-.068-.076-.04-10.027-5.012v-6.061l3.759-5.016.16-.211-.164-.206-2.376-2.971 5.562-6.492.06-.072.016-.091.942-5.331 3.764-4.075.155-.171-.096-.211-2.361-5.013 9.446-1.523.112-.021.079-.074 2.552-2.557.151-.147-.068-.2-3.832-11.813-.063-.208-.211-.032-4.151-.638-.247-.036-.112.223-1.822 3.641h-6.127l-.06.268-1.256 5.326-7.811 7.189-4.788.299-4.363-6.544-.104-.151h-9.756l-.287-4.888 4.287-2.449.191-.11-.021-.224-.629-5.972 5.705-12.368.1-.212-.156-.168-3.832-4.151-.183-.194-.231.123-11.622 6.045-2.827-7.968 3.939-4.217.148-.16-.08-.204-1.75-4.374-.04-.099-.091-.06-7.318-4.784 3.94-7.597.139-.266-.251-.176-7.265-5.028 3.25-3.791.085-.097v-16.793l14.349-5.455.203-.076.02-.215.559-6.412 8.448-.561.223-.017.076-.211 2.041-5.538.024-.064-.005-.072-.278-5.307 4.163-1.941.263-.124-.08-.28-3.205-11.371-.032-.115-.104-.072-5.626-3.939 3.724-13.176.028-.106-.039-.108-5.18-13.813 2.647-3.438 9.968 3.416.091.03.092-.019 6.707-1.459.151-.03.076-.133 2.249-3.938 7.703-1.139.219-.033.064-.217 1.419-5.124 5.877-3.916 12.763 4.254 1.396 6.971-3.146 5.718-.089.158.085.161 2.623 5.249.183.364.327-.241 5.447-4.013h6.391l3.225 5.642-2.611 1.722 1.667 2.594-.559 2.222-5.928-1.109-18.716 18.347 1.297 8.525-2.963 7.966 2.221 8.895-2.593 10.75-2.223 22.237-8.897 22.236-.37 6.488 6.859 1.109 8.153-5.001 3.891 11.305 4.633-5.934 4.075 5.192 3.337-14.642 9.636-5.003 12.417 2.225 5.928 2.408-2.413 4.82 2.784 3.333 8.034 3.322.491.2.262.629 2.146 5.116zm106.578 60.099l2.72-1.279 1.758 1.12-.319 2.512-1.654 1.922-.531 9.613-1.335.589L1094 494.2l.48-5.45-1.332-4.219 1.49-1.176zm2.688-136.825l3.065-1.982 1.532 2.524-1.351 3.425-2.795-1.802-.451-2.165zm7.958 110.111l-.247-2.827 2.704.123.86 3.565-1.965 3.077-2.583 3.69-.248 4.058-.738 5.044-.491 3.816-1.231-.614-.984-6.642-.244-8.247 3.322-3.445 1.845-1.598zm1.666 27.675l1.492 2.085.586 2.883-2.716.96-.908-2.081.056-2.404 1.49-1.443zm2.991-125.98l-3.062 1.444-3.334-4.328.719-8.559 2.615.721 2.432 2.253.63 8.469zm-2.524-17.122l2.974 2.612-1.622 1.802-3.062-1.168.45-2.073 1.26-1.173zm1.622 24.689l5.499 2.436-.542 2.07-3.964 1.802-1.443-3.154.45-3.154zm5.962 70.319l.49 6.272-2.212 6.4h-2.708l-.123-2.585-.125-5.661-.119-5.411 2.58-2.584 2.217 3.569zm-2.336-42.444l1.475-2.827 1.722.243 1.723 3.202-2.708 2.579-2.212-3.197zm5.286 14.765l-2.089.738-1.475-2.461 1.351-2.831 2.708.614-.495 3.94zm-1.722 4.673l2.954.861 1.722 4.797-5.167 1.355-1.721-4.677 2.212-2.336z"/></svg>