<svg xmlns="http://www.w3.org/2000/svg" width="990" height="588"><path fill-rule="evenodd" fill="#B3B3B3" d="M984.371 227.748l-2.889-2.884 6.061-2.307 2.455.578-5.627 4.613zm-14.865 5.479l-2.164-3.317 5.629-1.297 6.061.721 2.019 3.46-3.319 1.73-8.226-1.297zm-58.588-21.05l2.166-6.488 2.742.432 4.474 2.019-1.153 13.263-8.229-9.226zm5.263 91.923l-9.358-10.558v.002l-7.89-8.904-.929-10.563-5.747-6.67 2.223-2.965-1.297-4.262 4.082-4.448-3.523-11.119-2.599-11.119-1.113-17.234-3.34-5.558 2.968-14.825-3.152-.743.184-5.188-3.337-.185-7.235-5.003-1.113-5.56 4.825-7.228-9.091 3.15-2.223 7.414 9.459 11.303-3.485 3.247-5.029-2.837-1.013-5.305-.021-.112-.083-.076-3.648-3.382-.111-.105-.151.012-5.469.499-3.291-8.602-.068-.176-.183-.039-4.814-1.011-7.754-11.26-.969-5.309 5.399-1.716.175-.056.053-.177 1.483-5.198 4.678-.492.223-.022.069-.211 1.488-4.464 8.6-2.022.148-.035.075-.132 2.236-3.967 12.474-.748 3.013 8.278.112.309.311-.097 9.252-2.823 10.02.255.251.009.084-.239 7.878-22.601 4.557 2.396.124.066.136-.041 6.122-1.854 2.57 28.342 5.375 13.159-9.458.184-6.305 6.486-.183 17.791-7.978-6.3 3.711 14.824-5.008 1.112-.743 7.968 12.611 25.202 3.895.371.743-4.261h6.122l3.064 7.203.1-.11 5.922 3.84 3.712-2.038 6.859 6.485-4.449 2.78-2.782-3.892-2.227 1.484 9.088 16.121 8.903 2.596 1.114 4.817-4.45 4.818-.187 8.524 10.57 12.23-3.152 2.596-.555 9.081 6.122 6.114 2.04 8.525 1.485 18.532-51.195-34.283zm2.783-201.065l1.819 20.064-6.122 1.854-4.785-2.517-.355-.186-.132.379-7.929 22.74-9.826-.252-.055-.002-.053.017-8.991 2.745-2.988-8.213-.089-.242-.256.014-12.921.775-.188.013-.091.163-2.251 3.999-8.641 2.031-.187.043-.06.183-1.48 4.436-4.689.494-.232.025-.064.223-1.5 5.245-5.507 1.751-.292.093.056.297 1.002 5.508-5.468 5.713-7.362.507-.12.009-.088.08-4.762 4.257-6.273-2.005-.132-.042-.123.06-6.689 3.216-3.2-5.658-.08-.146-.168-.025-4.987-.749-3.022-6.288-.096-.198h-7.897l-5.744-2.494-2.976-7.677 12.011-14.044.085-.098V131.607l-.14-.104-16.011-11.998 3.723-7.203 9.646-7.229V93.028l9.458 5.929 4.454-2.594 6.676-.74.742-7.227-7.235-4.077-4.82 1.481-5.38-6.671 7.603-6.857 5.38-1.482-.743-3.891 7.978-12.972 29.674-16.123 19.846-13.157 17.065 4.634 5.751-2.595-10.575-4.262 4.265-5.56.93-7.597L899.116 0l5.568 7.229-4.453 3.149 4.825 3.522-3.712 4.632 9.458 1.854 2.044 4.447 7.048-1.297.183 6.299-6.493-.926 3.153 3.707-12.983 9.822-7.79-.742-4.449 3.706.554 6.671-2.411 5.56-4.082-4.448-2.781 2.224-4.82-4.262-1.485 7.227 3.895 4.447 5.75-2.223.183 4.818 2.97-1.852 2.41.926L893 77.647l-2.415 5.002-6.118 2.039v7.228l5.38.37.738-5.189 6.68-.555 2.966-3.893 24.483 2.039 1.855 6.116-13.17 9.081 5.565 3.15zM807.062 35.513l-1.748 1.748-8.001-9.471v-5.097l4.365-6.557 7.276-.582 2.909 3.933-2.618 5.1-2.183 10.926zM794.375 138.88l-12.06 14.104-.136.155.076.192 3.102 8.004.051.134.132.058 5.942 2.582.068.029h7.607l6.022 12.532-3.189 4.658-4.299 1.769-.059.022-.045.042-9.56 8.778-.245.222.217.253 3.923 4.655-3.636 3.391-.216.2.159.244 3.053 4.57.252 5.324.009.144.107.097 4.78 4.273-.749 8.235-4.227 4.721-7.363.761-.115.011-.085.08-8.269 7.746-.191.179.121.231 3.219 6.188-8.539 6.021-.111.082-.03.133-1.291 6.455-.021.111.048.106 12.739 26.402-1.366 4.905-7.654 1.134-.168.025-.083.145-2.259 3.948-6.461 1.403-10.124-3.466-.232-.08-.153.196-2.916 3.791-.116.15.069.18 5.207 13.885-3.759 13.301-.068.236.204.14 5.73 4.01 3.097 10.968-4.11 1.915-.213.1.013.231.287 5.466-1.94 5.264-8.528.565-.294.021-.028.294-.564 6.491-14.382 5.46-.224.087V380.552l-3.416 3.987-.251.287.315.221 7.335 5.071-3.943 7.603-.144.276.26.171 7.494 4.896 1.629 4.067-3.935 4.214-.144.153.072.195 2.929 8.254-11.717 6.087-.223.117.044.247.591 3.552-4.754 1.778-4.374-.937-.111-.023-.104.051-15.144 6.935-3.668-3.055-.151-.127-.189.068-11.005 4.083-5.599-4.351-.089-.068-.115-.004-8.948-.323-.151-.004-.104.108-3.6 3.597-3.912-3.61-.23-.21-.236.206-2.654 2.361-4.885-3.967-.159-.128-.188.076-6.392 2.557-.032.011-.028.019-6.154 4.024-9.782-18.114-7.526-17.053-.04-.088-.08-.056-4.154-2.875-.164-.111-.176.079-6.684 3.039-2.434-7.301-.052-.151-.148-.06-11.186-4.469-.087-.036-.096.015-5.756.958-.179.032-.076.162-8.608 18.478-5.48 6.383-4.21-4.206-.323-.319-.223.393-2.781 4.946-7.795.311-.112.003-.083.064-5.188 3.964-4.798-5.092.947-13.839 4.769-11.125.151-.355-.366-.112-6.242-1.87-2.767-6.136 2.212-9.142.06-.256-.227-.127-4.929-2.772.312-8.727.003-.093-.043-.079-3.836-7.345-.179-.347-.323.223-3.093 2.166-3.712-.287v-3.964l3.352-2.129.296-.192-.192-.291-2.956-4.476.015-.017-.179-.232-2.259-2.818-.2-.247-.264.175-4.025 2.68-3.757-2.946-.096-.077h-8.767l.511-4.589 5.3-6.408.036-.044.019-.06 1.697-4.508.092-.252-.22-.156-3.524-2.436v-4.747l-.088-.097-2.988-3.258 1.376-6.596.044-.213-.172-.13-3.372-2.594 5.112-5.648.1-.112-.012-.144-1.975-24.826-.008-.085-.049-.075-5.814-8.882 2.463-1.27.032-.016.028-.024 7.331-5.966 4.542.534.31.038.068-.311 1.636-7.918 2.171-3.252.044-.068.012-.082.535-4.266 9.262-7.348.276-.22-.227-.271-4.055-4.86V224.574l-.064-.09-7.95-11.233-1.089-5.709-.017-.077-.047-.066-2.403-3.199.284-3.532 5.144-2.567 3.707-3.893 3.157 2.781 1.11 5.745 1.113-3.893 4.454-5.929 16.876.186-.925 3.334 6.305 4.263 16.506-7.042 1.3-14.084 9.088 3.52 8.161-2.779 5.38 2.594 8.343 12.417-5.008 3.52 13.728 12.417 8.9 1.48v-18.53l12.616 2.224 2.225-8.338 7.42 2.223 5.563-.927-1.855-4.446 2.038-2.781 6.865-1.667-4.45-5.189-.371-5.375-3.712 1.853-2.04-3.705 5.193-5.004-3.523-4.262 18.176-9.265 6.123-.372-5.751 5.188.926 4.264 3.895-3.521h3.895v8.338l5.75-5.558-3.152-10.749 5.75-5.003 10.013.741-4.261 4.262 2.964 2.781 2.411-2.596 2.598 2.225 2.968-3.893 5.748-.555 5.937 2.964 4.821-1.482 2.599-9.079 7.231-8.896 10.575-6.857 7.42.741 7.414 7.043 10.205-5.746 1.891-3.664 15.779 11.825v6.93zm-39.76-19.926l.938-2.653 3.121-.622.934 3.275-2.649 1.558-2.344-1.558zm-95.354-4.835l-2.187-4.678 3.747.156.467-3.12h3.121l1.56-2.649 5.775.469 2.964-3.277 2.655 5.769-4.059 7.486-14.043-.156zm2.804 27.286l4.531.624 2.338 5.303-6.869 3.587-7.335 1.558v-6.55l1.406-1.558 2.498-3.743 3.431.779zm-11.389-51.924l.933-3.43 2.966 1.091-1.089 2.963-2.81-.624zm1.716 57.382h-2.965l-1.249-5.768 1.872-1.872 2.965 2.495-.623 5.145zm-15.608 10.605l-2.808.779-3.277-2.028-1.405-3.273 7.179.934.311 3.588zm16.857-41.947l-.155 7.018-6.087-1.248-3.28-4.99-3.587.936 4.37 5.146 5.459 1.559 2.499 2.495-2.499 2.806-3.743-.779-3.121 5.145-4.058-.467.466 5.925-5.619.468-6.086-1.715-1.093-4.211-2.961-3.742-.626-5.456.466-5.302 6.557-.624 5.464 4.522 1.871-2.183-3.432-3.587.467-3.898 5.774.936 3.744-2.65 7.178.466 2.032 3.43zm-32.308 22.454l-3.744-4.366-.938-4.21 4.214 2.495 2.81 5.147-2.342.934zm-84.781 52.528l-4.278-3.394 1.664-4.166 2.854.418 2.379 1.487-.655 2.559-1.964 3.096zm-12.187 5.061l1.663-2.56 2.974.12 1.07 2.856-4.757 2.916-1.365-1.724.415-1.608zm-1.473-3.387l-15.378 15.945-.182 7.415 2.962-5.19 7.596-2.225 5.557-4.264 4.887-2.446-.259 3.246-.013.128.081.105 2.431 3.242 1.085 5.708.015.076.044.058 7.92 11.209v7.456l.08.097 3.906 4.688-9.088 7.222-.108.088-.019.139-.538 4.327-2.161 3.238-.036.054-.012.068-1.586 7.682-4.373-.514-.14-.017-.115.093-7.407 6.039-3.078 1.59 6.148 9.467 1.957 24.601-5.257 5.815-.252.277.295.228 3.496 2.691-1.367 6.559-.036.174.119.13 3.015 3.286v4.848l.147.104 3.444 2.384-1.574 4.21-5.327 6.446-.064.08-.011.103-.563 5.078-.043.387h9.292l3.851 3.028.198.156.208-.139 3.969-2.645 1.874 2.345-2.267 2.522-5.246 1.104-.036.009-.036.016-5.075 2.257-.215.096.009.235.283 5.642.004.055.019.052 1.36 3.534-2.763 6.08-.076.167.096.156 2.779 4.444.546 6.315-4.139 8.007-7.25 4.463-.287.179.172.292 2.703 4.603-2.966 4.049-.104.14.048.164 1.694 5.644.051.172.176.055 6.011 1.915.77 3.583-4.39 4.663-.083.091-.013.121-.282 3.669-.02.284.275.075 2.926.798 1.283 3.855-3.236 3.234-.06.064-.024.092-1.291 4.644-5.724-3.388-3.058-6.67-.143-.315-6.761 3.113.036.174-.822 5.482-12.615 13.75-.104.111.012.153.542 6.239-2.844 1.185-4.937-10.703-.238-.519-.348.455-3.569 4.667-13.091.558-.195.009-.093.172-5.36 9.876-.095.18.108.172 5.844 9.191-1.043 4.706-5.687.814-.175.024-.081.16-3.385 6.49-.033.068-.007.068-1.103 16.58-5.287-.532-.091-.008-.087.04-4.231 1.975-.198.096v4.037l.115.108 9.471 8.489-.848 3.909-16.962 1.492-.247.024-.058.244-1.086 4.532-3.397.893-.288.076.033.294.355 3.196-4.547 2.911-.15.096-.01.176-.173 2.96-2.966.698-.078.021-.064.051-5.56 4.64-12.819-1.676-7.787-5.486 2.611-5.516 4.837-1.816.136-.051.058-.132 1.554-3.419.029-.068v-3.598l4.477-2.384.2-.109-.018-.223-.312-4.041-.002-.04-.015-.044-1.851-5.565-.929-5.266-.013-.068-.04-.059-3.933-6.056 1.782-3.869.129-.272-.256-.163-3.416-2.174-.104-.068-.12.015-5.256.619h-5.33l-2.77-8.178 2.362-1.113.055-.023.039-.045 2.797-2.796.178-.179-.115-.223-5.535-10.768.868-4.06.036-.013.008-.215.302-6.367 6.397-4.878.093-.068.03-.116.932-3.418.087-.319-.315-.1-5.82-1.839-3.894-3.898-.587-4.983 7.007-6.099.107-.091.011-.144.31-4.041.026-.327-.328-.041-4.785-.597-5.197-10.707-.078-.164-.18-.028-17.722-2.753v-4.56l2.409-3.011.113-.14-.049-.168-2.448-8.644 5.654-.706.049-.009.043-.015 6.621-2.841.133-.059.054-.136 1.323-3.407.108-.275-.257-.148-7.392-4.251v-8.961l9.052-11.513.064-.083.008-.104.556-7.241 5.865-8.102.086-.119-.026-.144-1.128-6.769-.022-.14-.108-.079-6.601-4.955 1.657-9.387.023-.144-.086-.119-4.434-6.102 1.398-13.133.013-.137-.084-.11-5.53-7.191 2.201-6.602.038-.122-.049-.12-2.102-4.996 6.95-1.874.169-.046.064-.163 2.683-6.812v.008l.485-1.23-1.662-9.507-.04-.222-.216-.054-7.593-1.899-6.709-8.865 1.297-5.189 10.308-4.615.154-.07.041-.162 1.101-4.408.029-.119-.052-.113-4.358-9.27 1.039-5.714 4.716-.787.448-.073-.193-.414-4.381-9.315-.059-.647 5.027-.295 6.855 12.793h7.967l-2.78-6.489-5.743-5.564.37-12.977 2.779-5.006 9.079.186 15.746 2.595 5.928-1.483-3.89-7.046 2.038-8.342 4.632-4.08 6.298-.187 8.152-6.487 12.043-1.669-.186-5.748 10.006-.185.924 3.152 7.04 1.297 3.15-2.966 6.112 1.298-3.149-4.635-.184-2.225 8.521-.556-1.853-7.045 7.967-11.865L495.66 136l5.557 4.634-2.964 4.264 9.079 1.113-3.337 9.457 4.448-.744 3.891-5.56 11.113.37 11.858 13.535-3.89 13.72-8.523 15.388zM377.22 222.205l-.238.04-.047.239-1.1 6.058-.02.109.047.097 4.357 9.251-1.034 4.123-10.313 4.613-.155.069-.042.161-1.377 5.508-.04.16.1.131 6.888 9.086.074.097.118.029 7.495 1.872 1.59 9.078-3.033 7.699-7.169 1.928-.381.102.154.366 2.205 5.239-2.216 6.644-.057.172.112.147 5.557 7.221-1.396 13.118-.014.131.077.106 4.43 6.087-1.67 9.442-.036.208.171.128 6.662 4.993 1.081 6.489-5.842 8.063-.055.076-.009.1-.554 7.227-8.828 11.208-4.267-4.265-.09-.091-.129-.013-2.297-.176-4.449-6.48-.105-.16-.187.008-5.919.183-5.763-5.388-.21-.196-.229.172-6.33 4.652-7.74-.738-7.619-4.644-4.313-7.118-.056-.092-.101-.044-11.681-5.086-8.479-7.716-.098-.093h-9.433l.181-5.886.002-.12-.075-.1-2.395-3.128-.373-8.97-.003-.114-.072-.088-4.354-5.484-.095-.122-.155-.01-14.076-.75-2.072-1.899-.183-5.907-.006-.163-.128-.1-5.869-4.54-.083-.064-.103-.008-12.292-.929-3.235-6.824 4.993-7.024.061-.086.003-.104.374-10.839 4.178-.067.121-.001.092-.076 6.493-5.359 12.756-.568.15-.007.097-.112 3.372-3.93 5.057-1.686.116-.038.065-.102 3.148-4.86.087-.133-.048-.153-1.958-6.435 5.078-9.02.095-.169-.095-.17-2.435-4.327 4.145-3.45 7.239 11.608 1.855 7.966 2.224 3.519 6.858-6.297-2.037-2.965-.929-3.335 1.855-5.186-5.377-5.557.186-2.779 6.118-1.853 4.447-7.966-4.079-5.372 4.079-3.889 7.786-1.855 5.191-5 6.673-8.521 5.562-4.261 3.708 1.481 5.747 7.596-1.484 9.818-7.414 7.039 1.295 6.114-1.295 4.63-11.308 26.862 1.112 7.224-6.673 13.34-9.825 6.299-6.119 2.406-11.677-5.372v5.187l17.424 10.745 5.19-5.557 7.6-2.78 8.343-8.521.555-10.93 5.006-4.817 9.084 1.297 2.594 7.781-5.93 10.373 2.224 8.337 7.97-1.852-4.264-2.409-1.484-2.963 5.378-6.484v-8.707l-7.6-9.078h-9.27l-.557-8.706 9.084-14.264-.185-14.634 3.707-5.558 3.893-1.111 3.707-3.335 2.41-6.669 2.039-.926-.742 9.818-5.002 6.112.369 6.669 11.865 10.56-.371-6.114-6.491-7.039 1.67-5.742 6.116 5.558 1.856-6.669 3.734-.221.068.731.006.064.025.052 4.216 8.949-4.511.751zM344.318 180l5.854.433.865 7.147-5.902.771-1.25-3.153.433-5.198zm-97.165 107.093l-.118.164.086.183 3.409 7.19.085.18.2.017 12.389.937 5.657 4.376.185 5.889.005.146.109.1 2.271 2.081.09.083.122.006 14.044.75 4.186 5.275.374 8.967.005.11.064.085 2.388 3.12-.186 6.123-.011.355h9.877l8.417 7.664.043.036.053.023 11.635 5.063 4.297 7.095.041.072.075.043 7.761 4.731.068.041.078.008 7.95.757.132.012.104-.076 6.207-4.564 5.659 5.293.105.095.14-.002 5.868-.185 4.437 6.466.095.14.165.011 2.332.18 4.352 4.348V379.804l.173.1 7.315 4.205-1.164 2.993-6.447 2.762-5.878.734-5.188-3.707-.184-.127-.191.111-10.027 5.751-8.335-6.11-.089-.064h-.113l-12.009-.191-7.867-5.242-.039-.027-.057-.011-5.868-1.707-.165-.048-.14.108-5.488 4.161-.09.068-.03.103-3.889 12.4-4.449-.533-.122-.017-.105.068-3.788 2.459-.123.084-.028.143-.727 3.816-6.228 3.563-11.318-8.486-5.366-10.531-4.043-9.04-.069-.155-.166-.04-3.257-.766-6.465-2.658-3.617-3.424-.377-.359-.183.486-1.068 2.851-5.152-.184-.164-.007-.107.123-1.309 1.494-3.111 1.646-2.576-.554-.157-.032-.128.1-1.641 1.275h-3.092l-4.364-1.897-.294-.128-.15.284-1.85 3.515-5.633 1.101-2.61-3.91.338-3.707 1.051-7.18.031-.219-.186-.119-7.264-4.668-1.113-2.857 4.076-4.923.106-.124-.032-.163-.877-4.375-1.374-7.379 3.419-4.783.066-.096-.003-.115-.175-5.776-.002-.067-.022-.057-4.031-9.629-.044-.106-.1-.058-6.704-3.951-1.018-4.58-.022-.097-.066-.071-2.07-2.103 9.764-16.71 8.901-7.936.074-.066.028-.1 1.348-4.849 8.426-7.5 1.709 2.684.107.169.201-.011 5.227-.275.121-.007.088-.079 5.783-5.119 4.02-.064-.369 10.702-5.05 7.104zm-37.84 29.202l.031.148.127.075 6.735 3.971 3.961 9.464.169 5.596-3.435 4.807-.086.119.027.144 1.4 7.53v.003l.846 4.217-4.1 4.951-.127.155.072.187 1.226 3.153.041.104.095.06 7.168 4.608-1.019 6.959v.016l-.35 3.855-.011.119.067.1 2.683 4.026-3.643 6.285-10.479-.342-.227-.004-.097.202-2.976 6.302-.037.072.002.083.168 5.684-2.599.726-5.233-2.492-.151-.071-.152.075-3.567 1.782-2.885-3.718-.061-.085-.097-.031-6.627-2.291-.105-.037-.105.032-7.339 2.244-.372-1.978-.022-.106-.081-.081-2.929-2.798-.194-.183-.225.136-1.533.944-2.328-.581-10.637-9.112-.133-.115-.175.043-2.166.546-2.05-.307-6.301-2.774-2.584-2.065-.992-3.073 5.586-6.604 6.519-.686.166-.015.09-.144 3.96-6.266 2.848 3.161.197.219.247-.159 2.979-1.925.119-.077.031-.139.993-4.469 7.095-.338.155-.008.096-.119 2.104-2.627.063-.08.012-.1.513-4.97 3.256-3.771.154-.175-.107-.207-2.41-4.643.161-3.372 7.515-3.417.054-.023.046-.045 8.934-8.752.021-.02.014-.02 5.955-7.878.022-.03.019-.04 1.298-2.969 1.809-3.098 1.867 1.899 1.031 4.628zm-12.327 6.894l-8.847 8.71-7.635 3.482-.191.088-.011.211-.175 3.682-.004.092.043.084 2.338 4.528-3.167 3.681-.07.081-.013.108-.513 4.988-1.937 2.427-7.186.344-.259.011-.059.26-1.018 4.596-2.606 1.694-2.95-3.291-.302-.34-.246.387-4.103 6.526-6.473.682-.14.012-.087.109-5.716 6.784-2.581.675-.997-1.369-.42-2.731-.007-.021-.431-1.952-.046-.209-.209-.051-2.884-.7-.305-3.864-.025-.304-.304-.015-6.79-.309v-5.443l-.354.013-3.096.096.096-6.853 2.767.192.169.008.111-.125 3.237-3.57.043-.051.024-.06 1.917-5.027 2.977-3.2.044-.047.024-.064 3.538-9.144 2.62-2.955.008.028 3.013-4.046-.239-.207-2.634-2.312v-3.244l9.593-4.054.227-.095-.015-.243-.346-5.524-.006-.106-.061-.082-5.83-7.735 2.441-6.054 8.254.788 6.359 7.198.043.05.057.028 6.916 3.605-.011.071 10.368 1.183.108.012.096-.053 3.775-2.092 10.525 8.666.075.061.094.014 6.411.902-1.106 2.541-5.906 7.844zm-42.959-11.518l-9.579 4.046-.211.091v4.011l.117.104 2.515 2.208-2.211 3.007-2.842 3.206-1.665-1.301-2.134-2.46-.128-.152-.191.037-2.744.511-3.542-3.347-.093-.089-.128-.002-6.044-.217-.341-.011-.015.339-.108 2.256-.307 2.563-3.719 3.131-3.038-1.426-.061-.027-.058-.005-2.808-.215-.28-.024-.076.275-2.53 9.209-5.39.83-.197.03-.073.187-2.288 5.858-.392-1.243-.107-10.729.004-.004-.004-.155-.216-6.39-.003-.064-.024-.056-1.296-3.143-.022-.056-.039-.043-3.883-4.331-.079-.09-.118-.021-9.734-1.716-2.101-1.709-.911-4.063 4.023-5.657 4.793 3.479.16.115.18-.079 3.669-1.626.069-.032.056-.061 1.726-2.057.177-.214-.167-.218-3.098-4.044-.018-.025-.009-.007-2.784-2.844 4.427-4.524 11.166.211.339.009.008-.345.211-7.153 2.255-2.469.005-.008 4.569-4.735.245-.253-.255-.24-3.717-3.512.737-1.849 5.245.219.11.004.092-.061 5.886-3.861 4.077-.647 3.009 3.665.434 5.028-10.372 11.64-.146.164.083.2 1.071 2.549V299.191l.13.107 2.059 1.651.254.206.216-.245 4.372-4.918 12.951 5.011.134.051.133-.059 4.551-2.088 5.715 7.586.323 5.178zm-55.123-7.34l-1.495 1.78-3.417 1.514-4.911-3.563-.281-.205-.2.283-4.129 5.8-5.228-3.293-.206-.13-.191.153-2.611 2.096-4.851.211-.319.014-.011.32-.252 8.054-5.37 1.525-.227.064-.022.239-.516 5.581-4.142 2.972-1.889-1.083-.293-2.168-.025-.172-.149-.083-1.694-.958-.289-.164-.173.283-.752 1.226-5.007.207-.223.008-.083.209-.534 1.337-2.1-.352-2.539-4.791-.734-7.372-.011-.122-.086-.087-5.937-6.032-.943-2.558-1.359-3.72 4.914-2.949 6.269-.209.091-.005.076-.045 7.151-4.328 2.59-.52.139-.028.079-.116 1.602-2.308 3.817-.294 1.689 1.594.186.175.222-.125 2.886-1.655 12.62.102.108.003.086-.058 1.499-1.003 3.68.098 1.085 3.071.05.142.138.061 3.329 1.46 5.983 6.11 2.91 3.804zm-55.536 9.731l.731 7.322.005.072.031.057 2.649 4.998.079.149.169.028 2.541.426.275.044.103-.255.553-1.39 4.968-.204.184-.007.097-.155.674-1.099 1.257.711.294 2.168.025.168.145.083 2.04 1.175-.088 1.824-1.53 2.561-.941 1.153-.055.068-.017.084-.833 4.185-.877 1.317-7.377-2.571-.453-.16v.117l-2.504-.172-1.926-4.177-.075-.164-.18-.032-4.766-.851-.159-.028-.124.109L37 332.729l-2.5-4.153-.418-5.339-.025-.319h-5.056l-2.039-5.748 6.99-6.259 3.719-2.639 5.697 5.79zm-14.85 9.546H33.42l.4 5.109.005.078.041.069 2.756 4.572.211.351.31-.268 1.465-1.273 4.431.79 1.934 4.197.089.184.202.016 2.753.188v7.523l-1.608 1.818-.158.174.108.213 1.414 2.739-.559 1.589-5.744 5.46-7.717-1.346-7.933-4.653V348.479l-.045-.08-1.272-2.232-.088-.152-.177-.02-3.964-.407-5.679-8.981.877-.451.072-.04.048-.068 1.261-1.75.063-.091.002-.109.095-7.659.854-5.039 3.956-4.709 2.298.798.061.022.064-.003 2.074-.087 2.115 5.956.083.231zm-8.648 22.63l.167.017 3.954.411 1.139 1.996V351.534l.17.1 8.16 4.787.052.028.063.013 7.667 1.333.1 4.289.004.2.177.095 7.84 4.253.021.012.034.012 2.64.883.198 2.643.001.031.008.03 1.164 4.572.019.071.047.06 3.199 4.037-.415 4.968-.008.124.07.104 2.813 4.077.303 2.124-.1 2.52-.173.232-2.858.635-4.253 1.113-5.733.372-1.664-1.302-2.218.187-3.143 2.6-5.733-1.114-2.406 2.595-2.034 4.087-4.069 1.856-2.032-3.714.923-2.972.37-3.708-3.53-3.374-.198-8.415-.007-.275-.27-.057-3.648-.73-1.566-2.272-.186-5.023-.019-.508-.459.2-2.573 1.106-2.228-.159.163-2.959 2.759-3.14.089-.1v-4.832l-.105-.098-6.246-6.079-.071-.071-.097-.021-3.47-.73-2.322-3.047-.356-4.476 1.235-1.111.106-.092.009-.144.343-5.626 4.474-.779.051-.007.046-.025 7.72-3.996 5.805 9.172.087.139zm40.009 47.114l8.002-.628.113-.008.084-.075 5.538-4.824 2.765-.412.025-.005.027-.007 5.403-1.701.132-.04.068-.123 1.965-3.634 7.858-4.417.091-.053.047-.091 1.06-2.016.017-.032.008-.032 1.378-4.573.004-.019.112-.472 2.668 3.016-.932 4.049-.026.111.047.108 2.02 4.481V392.169l.064.093 2.093 2.938-.213 7.571-.004.136.091.105 1.739 1.947-.195 3.211-1.736.679-.249.096.032.267.647 5.416.066.558.467-.311 1.866-1.25 3.835-.191-.286 4.572-2.683.798-.233.069-.013.242-.108 1.95-.007.147.104.108 1.826 1.933-2.908 3.119-.166.175.11.216 1.619 3.143.073.144.155.035 7.456 1.709 4.031 4.046.086.088.125.012 4.424.43.252.024.099-.23 1.768-4.179 3.412-.905 7.331 2.252 1.404 3.055-.686 2.065-2.842 2.231-.191.149.077.23 1.144 3.442.038.113.093.068.469.319 5.232 11.493-2.96 4.268-2.958 2.229-6.841-2.229-1.665-3.342-2.219-.743-2.775 1.673-2.772-.93-3.329-3.71-.74-2.97.74-5.196-3.329-2.04-2.59-2.6-2.403 2.6-2.959-.559-1.295-2.229.186-2.782-5.916-2.597-3.143-.187-3.332 2.228-2.772-2.041-.925-4.828-1.294-2.782-1.849-.556-4.254 2.595-1.664-3.337 1.664-4.086-1.479-6.496-1.48-5.196-3.697-1.298-1.295-1.485 1.11-2.412.185-2.6-3.885-1.857-1.848 1.673-2.59.556-2.217-5.383.197-4.213.211-.283zm42.898-50.241l.003.057.014.047 1.403 4.441.011.036.025.04 2.266 3.682.079.128.145.032 5.396 1.082.121.023.111-.059 4.554-2.496.878.663-1.366 2.444-.064.112.028.128.325 1.516.052.24.244.032 2.341.279-.138.915-2.69 1.973-.299.22.238.283 1.189 1.405.083.1.128.021 1.815.271-.668 4.213-5.12 1.645-6.295-.75-.332-.04-.05.335-.539 3.79-.024.171.121.123 2.406 2.414.607 3.753-.812 1.138-3.394-2.105-.077-.048-.09-.003-2.59-.108-.231-.009-.097.213-1.511 3.357-1.203 2.72h-.85l-1.909-4.24.942-4.11.043-.175-.12-.132-3.106-3.506.225-.943.035-.148-.088-.128-4.025-5.85-.026-.036-.028-.024-1.907-1.701-.201-.179-.223.152-1.954 1.341-1.302.26-3.259-4.705-.203-.291-.023.017-2.789-3.455 1.19-1.378.096-.112-.011-.139-.317-3.619-.029-.295-.294-.019-6.087-.416-3.4-4.859-.097-.141-.169-.008-4.231-.199-.567-1.41 3.481-1.001 4.947-.636.263-.036.033-.26.507-3.766 2.243-1.273 5.045-1.266.231-.056.004-.032 2.813-1.118 7.649-1.066 5.305 1.669 1.875 3.135.218.367.31-.292 2.668-2.495.099 10.15zm-26.4-33.66l.112-.007.087-.07 2.508-2.012 5.174 3.258.941 4.192.026.116.092.076 2.266 1.842.072.058.084.014 9.704 1.712 3.767 4.201 1.248 3.025.209 6.171-2.814 2.635-1.723-2.883-.067-.112-.125-.04-5.504-1.733-.073-.024-.077.011-7.769 1.083-.044.005-.036.015-2.501.994.461-3.781.005-.053-.012-.051-1.375-7.444-.039-.203-.195-.062-9.288-3.005.241-7.727 4.645-.201zm-15.599 20.934l.004-.087.097-1.958 4.315-3.095.127-.092.014-.155.508-5.507 5.289-1.504 9.241 2.99 1.331 7.188-.495 4.073-4.856 1.217-.041.013-.045.023-2.437 1.382-.15.085-.022.171-.495 3.669-4.716.604-.034.004-.018.008-3.569 1.03-.678-1.678-.019-.051-.036-.04-4.823-5.769 1.464-2.448.044-.073zm-6.699 44.19l-1.14-4.473-.191-2.595 1.998-.859.173-.075.032-.185.528-3.086.044-.252-.228-.112-1.49-.746.083-1.166 1.871-2.668 4.717-.619 2.832-.304 3.065 2.256 4.539 4.026.064.057.078.019 2.967.743.138.036.122-.072 2.329-1.382.042-.023.033-.037 4.007-4.233.962-.722 3.188 4.596.129.187.22-.047 1.591-.316.066-.016.058-.04 1.793-1.23 1.674 1.498 3.915 5.682-.492 2.077-1.364 4.532-.996 1.897-7.858 4.417-.086.047-.047.089-1.945 3.597-5.247 1.653-2.833.419-.1.017-.074.068-5.528 4.815-7.662.6.088-2.269.003-.036-.004-.028-.318-2.233-.01-.079-.047-.068-2.789-4.044.412-4.985.011-.131-.086-.112-3.237-4.085zm-5.375-36.79l7.171 2.499.254.089.147-.224 1.057-1.594.039-.055.014-.068.831-4.17.635-.782 4.676 5.595 1.57 3.885.085.204.218.011 4.281.204 3.401 4.86.094.136.163.008 5.957.407.278 3.174-1.281 1.486-.187.217.182.226 2.952 3.654-.985.743-.024.02-.018.021-3.992 4.216-2.171 1.286-2.75-.691-4.491-3.981-.017-.017-.008-.003-3.176-2.341-.108-.079-.133.016-2.966.315-.009.004-4.872.636-.15.019-.088.124-2.013 2.871-.057.079-.005.096-.106 1.49-.016.228.206.104 1.465.734-.454 2.648-1.934.831-2.703-.903-7.643-4.145-.096-4.221 5.82-5.53.064-.06.026-.072.636-1.809.05-.145-.069-.13-1.375-2.661 1.538-1.736.087-.096V337.785zm76.76-15.761l5.571.198 3.576 3.379.127.12.171-.032 2.718-.508 2.031 2.346.025.027.022.02 1.741 1.358-3.444 8.9-2.976 3.203-.046.047-.023.064-1.92 5.028-3.083 3.404-2.963-.205-.36-.028-.005.367-.107 7.433-3.243 2.946h-3.191l-2.001-.3-.866-1.026 2.51-1.841.114-.083.023-.141.214-1.409.056-.351-.356-.045-2.453-.294-.243-1.147 1.447-2.595.145-.264-.241-.179-1.295-.975-.177-.131-.192.104-4.638 2.539-5.129-1.03-2.16-3.514-.655-2.069 2.527-6.465 5.415-.839.221-.032.059-.215 2.513-9.149 2.465.192 3.177 1.485.199.096.167-.14 3.993-3.357.105-.089.017-.135.324-2.708v-.027l.094-1.933zm15.959 50.678l.05.068 1.189 1.626.137.187.226-.057 2.599-.677.98 3.046.032.1.08.064 2.697 2.169.04.028.036.015 6.368 2.82.042.015.045.008 1.818.275-.481 3.391-2.239 4.168-.05.1.014.113.324 2.271.014.089.052.071 2.138 2.859-1.152 2.316-1.625.907-3.486-3.394-.022-.021-.017-.015-1.513-1.081-.072-.057-.094-.007-2.266-.217-.092-.008-.083.04-2.399 1.102-1.867-1.501-.103-4.493-.003-.111-.066-.092-2.052-2.707-.094-.125-.151-.011-2.589-.217-.111-.011-.097.06-4.639 2.816-.108.064-.041.119-1.186 3.466-.041.127.052.124 2.591 5.847.035.079.064.049 2.264 1.844.052.04.056.021 9.819 3.246.138.047.13-.068 2.261-1.19 1.386-.65 2.371 2.476-1.699 1.346-3.068.954-.18.055-.051.185-1.116 3.968h-1.49l-3.057-1.584-.164-.085-.159.089-6.151 3.466-.08.047-.05.081-3.668 6.281-.034.06-.01.064-.508 3.557-4.408 1.03-.231.053-.032.239-.431 3.251-.504 3.122-3.45.919-.163.044-.07.152-1.734 4.101-4.049-.395-4.014-4.029-.067-.073-.099-.019-7.396-1.698-1.436-2.783 2.963-3.178.223-.24-.223-.232-1.948-2.061.086-1.556 2.68-.796.232-.072.014-.239.325-5.2.023-.383-.384.017-4.315.219-.097.004-.078.052-1.476.987-.549-4.589 1.691-.662.207-.081.014-.219.214-3.575.01-.142-.095-.109-1.745-1.952.213-7.556.004-.116-.067-.091-2.095-2.944v-9.724h1.173l.092-.206 1.293-2.92h.001l1.416-3.147 2.267.096 3.593 2.229.273.168.188-.264 1.079-1.514.082-.115-.024-.14-.647-4.006-.017-.115-.078-.077-2.363-2.367.468-3.287 6.035.72.072.006.073-.023 5.394-1.733.202-.064.033-.208.709-4.475h3.183l.1-.089 3.358-3.055 2.971-.096V362.935l.331.011 6.816.312.3 3.813.02.247.242.062 2.923.706.381 1.716h-.003l.431 2.816.014.084zM132.436 444l-.994-2.981 2.738-2.144.082-.064.033-.1.764-2.292.044-.127-.058-.124-1.528-3.308-.064-.14-.15-.047L126 430.44l.491-3.057.003-.007.401-3.006 4.42-1.028.23-.052.033-.235.531-3.719 3.594-6.126 5.924-3.324 2.972 1.538.076.036H146.857l.072-.251 1.139-4.034 2.955-.916.062-.021.052-.039 2.054-1.623.299-.236-.263-.274-2.813-2.917-.172-.176-.222.104-1.624.758-.014.002-2.139 1.122-9.649-3.178-2.156-1.745-2.508-5.633 1.107-3.216 4.446-2.686 2.334.195 1.895 2.487.106 4.535v.16l.128.104 2.165 1.729.163.132.193-.087 2.513-1.152 2.086.199 1.42 1.013 3.659 3.546.183.18.222-.123 1.947-1.081.094-.051.047-.096 1.298-2.595.097-.191-.127-.167-2.219-2.958-.297-2.073 2.218-4.114.029-.055.008-.06.509-3.555 1.838-.463 10.562 9.048.062.052.078.02 2.548.637.141.032.122-.075 1.431-.877 2.656 2.539.865 4.568-.123 6.413-9.927 7.41-.128.096-.011.159-.255 3.946-.014.207.182.108 7.353 4.409-2.764 4.929-.032.057-.009.064-.003.028-9.997-.631-4.82-5.185-3.151.925-3.522 3.707 1.483 5.185 3.151 5.19-2.593 2.407-4.264-3.335-3.525-.185-3.335 1.85-.555 5.002-7.046.559-2.116 2.781zm44.029-23.593l-.289-.174-7.461-4.472.233-3.576 9.932-7.418.136-.099.003-.171.126-6.616.002-.041-.006-.031-.388-2.053 7.303-2.233 6.418 2.225 2.994 3.862.177.223.249-.123 3.67-1.834 4.956 2.355-.965 4.7-.022.108.044.1 2.411 5.58 1.012 3.79.05.183.183.057 4.51 1.379 3.911 3.538.122 3.803.006.148.11.099 6.014 5.258.366 3.281-.007.146-6.334 2.89-17.425-3.336-5.191-2.779-3.523 2.779-5.93-3.707-10.441-2.419 2.879-5.13.165-.292zm39.874-.907l-.006-.144-.108-.1-4.077-3.691-.056-.051-.074-.025-4.401-1.343-.969-3.631-.01-.032-.007-.019-2.378-5.501.955-4.651 2.78-.774.262-.076-.009-.266-.173-5.872 2.849-6.022 10.456.342.208.008.101-.178 3.777-6.518 5.868-1.148.163-.032.077-.147 1.78-3.38 4.14 1.802.068.027h3.466l.093-.072 1.61-1.251 2.542.546.122.023.111-.055 3.278-1.734.056-.032.041-.047 1.243-1.419 5.234.187.247.008.089-.231.973-2.599 3.287 3.113.047.044.06.024 6.555 2.698.031.011.02.005 3.111.733 3.981 8.9.007.017 5.398 10.598.036.068.067.051 11.184 8.383-6.258 4.289-4.624-.187-4.748-2.656-.103-.059-.115.016-5.069.753-6.637-4.738-.061-.045-.075-.011-2.558-.479 2.006-2.837.166-.24-.205-.203-3.663-3.663-.24-.239-.244.239-6.555 6.358-.09.087-.014.123-.569 5.676-1.861 2.233-.114.14.047.17.58 2.12.047.168.161.064 3.903 1.487 1.262 3.419-.735 3.308-1.192 1.87-4.59-.916-.19-.04-.13.146-3.667 4.046-.061.068-.02.089-.943 4.328-6.089 5.707-.057.053-.031.079-1.133 3.021-.105.117-3.442-.544-4.262-7.226-5.203.096v-.007l-.003-.025-.382-3.436-.015-.136-.1-.087-6.003-5.246-.121-3.797zm21.254 27.98l1.667-1.856-.184-4.819-2.681-.778 1.117-2.984 6.112-5.731.077-.077.022-.104.944-4.348 3.467-3.833 4.627.925.232.048.126-.2 1.349-2.122.034-.052.011-.059.771-3.471.022-.1-.033-.091-1.35-3.666-.053-.149-.148-.055-3.882-1.48-.487-1.779 1.812-2.179.069-.079.011-.104.563-5.66 6.219-6.04 3.217 3.22-2.144 3.039-.309.439.526.099 3.009.563 6.682 4.779.114.08.136-.019 5.089-.755 4.713 2.641.072.04.083.003 4.82.196.113.004.094-.064 6.274-4.308.3 2.565-3.375 4.133-.193.232.208.223 3.182 3.371v18.757l-4.451 2.601-.228.132.067.251 1.229 4.742-5.306-.351-.079-.008-.076.032-4.624 1.928-.109.047-.061.104-2.697 4.823-.047.083.005.096.574 13.428-3.139 7.46-7.981 1.453-2.78 2.409-3.334.742-3.706-2.039-4.26 1.297v-2.968l4.26-3.524-2.963-3.334-2.963-.742-3.891-.188-.37-4.263-7.967-1.852-.741-3.152 3.704-4.264-1.111-3.338zm37.907 16.499l.031-.076-.006-.072-.574-13.404 2.594-4.631 4.439-1.851 5.702.379.477.032-.122-.463-1.283-4.955 4.399-2.569.17-.1v-7.751l23.328 11.111 4.338 5.665 1.334 4.946.07.263.271-.008 6.919-.187 2.406 4.444.093.171.199.008 13.325.375-.555 9.286-.009.129.081.103 1.926 2.509.218.283.276-.23 4.526-3.774h3.191l-.189 24.569-4.016 3.654-7.94-.758-.135-.012-.108.085-2.293 1.763-2.486-1.955-.237-.189-.215.213-6.893 6.709-5.082-4.906-.939-3.949-.015-.068-.047-.06-4.624-6.173-.151-.202-.237.084-18.374 6.319-3.924-1.684-.175-.076-.158.112-1.74 1.221-2.889-1.812-.176-.107-.181.103-3.848 2.258-8.028-13.276 3.892-4.081-9.587-.215 3.031-7.2zm17.614 25.036l.191.119.189-.132 1.77-1.24 3.872 1.663.12.053.127-.045 18.262-6.283 4.428 5.913.95 3.981.02.096.078.072 5.394 5.206.239.234.239-.234 6.915-6.73 2.461 1.935.209.163.213-.163 2.398-1.848 7.958.759.151.015.114-.1 4.16-3.785 3.213-.411.577 4.627.014.112.078.084 4.611 4.919 1.527 4.284.036.103.091.064 4.043 2.888-3.174 3.759-.196.227.201.224 2.672 2.971-1.164 4.663-3.298 2.103-.153.096-.008.179-.297 6.255-4.241.849-4.223-3.319-.503-.398-.053.642-.304 3.639-3.566 5.352-6.625-.602-.072-.008-.068.025-5.591 1.863-.107.034-.064.089-2.486 3.418-.239.332.365.18 3.582 1.795.809 3.506-5.873.679-3.049-6.3-4.26-1.855-7.967 2.968-10.187-5.565-.928-5.006-3.149-1.296-3.336 4.818-4.815.742-8.949-42.987 3.76-2.21 2.908 1.819zm46.689 54.787l-.086-.374-.931-4.041-.036-.157-.147-.071-3.363-1.684 2.182-3.004 5.415-1.806 6.762.613.205.021.114-.172 3.728-5.593.047-.076.009-.087.256-3.092 3.845 3.023.126.1.155-.031 4.66-.934.264-.051.002-.1 7.407.219 2.445 2.788-1.516 6.679-.036.155.099.132 4.35 5.593.208.27.274-.206 4.782-3.662.567 6.215.007.075.036.064 5.436 9.674-3.779 2.617-.177.123.03.211.96 6.556-5.896 4.387-8.894.372-2.037 4.451-6.672-.742-4.26-6.303-1.295-4.636-6.671 3.523-2.407-2.968-5.93-1.295-.185-6.303-5.927-3.341-.649-6.377 6.139-.706.384-.049zm47.377-105.94l.013.119.085.084 4.037 4.041.061.06.081.027 5.585 1.763-.813 2.984-6.433 4.908-.124.095-.009.16-.3 6.311-6.186 2.656-7.629-3.358-.089-.04-.095.011-9.008 1.246-.13.015-.086.104-3.313 3.917-8.869-.043v-.004h-4.129l-.098.083-4.351 3.626-1.63-2.118.571-9.518.021-.355-.356-.009-13.482-.378-2.412-4.456-.099-.184-.211.004-6.861.184-1.276-4.752-.02-.063-.041-.056-4.433-5.784-.05-.068-.074-.036-23.7-11.286V416.843l-.093-.1-3.068-3.251 3.276-4.006.094-.115-.016-.145-.358-3.051 6.356-3.641.139-.081.031-.159.729-3.83 3.554-2.314 4.607.555.282.036.086-.276 3.941-12.582 5.259-3.992 5.643 1.639 7.906 5.277.082.053.105.004 11.994.187 8.427 6.184.181.131.194-.112 10.025-5.76 5.016 3.591 2.478 8.74-2.373 2.967-.078.095V408.278l.294.043 17.835 2.768 5.201 10.72.083.168.186.023 4.641.583-.274 3.57-7.036 6.123-.137.12.02.179.621 5.287zm6.755 35.95l-2.579 2.577-5.222 2.461-.152.072-.037.164-.933 4.041-.024.104.042.103 2.098 5.102-3.918 5.127-.105.139.05.167.932 3.112.05.168.165.055 4.962 1.756-1.737 5.214-3.383 4.304-.102.132.041.167 1.22 4.886-.909 3.647-.025.104.036.1 1.167 3.211-5.09 5.093-3.027 1.512-4.108 1.474-2.511-2.865-.1-.112-.15-.004-7.541-.228.276-5.827 3.268-2.084.115-.074.035-.132 1.24-4.972.045-.179-.122-.135-2.595-2.884 3.222-3.813.242-.285-.305-.219-4.26-3.043-1.516-4.253-.023-.064-.05-.055-4.583-4.891-.606-4.859-.044-.347-.342.043-3.275.423.187-24.333 9.031.044h.161l.103-.124 3.332-3.937 8.779-1.213 7.675 3.379.138.06.137-.06 5.91-2.534-.792 3.698-.026.121.058.111 5.475 10.655zm12.499 45.684l-1.461 3.224-4.836 1.814-.131.049-.06.127-2.696 5.689-3.8-.292-.256-.019-.092.238-2.406 6.324-9.072.583-.026-.289-.496.38-5.009 3.833-4.038-5.193 1.475-6.495 4.169-1.492.013-.004.026-.012 3.107-1.556.053-.023.036-.041 5.28-5.282.156-.155-.077-.207-1.206-3.319.908-3.63.02-.085-.02-.083-1.202-4.806 3.312-4.221.037-.044.016-.06 1.866-5.597.107-.319-.321-.113-5.113-1.805-.831-2.773 3.93-5.146.12-.156-.074-.184-2.132-5.181.868-3.77 2.14-1.01 2.827 8.338.081.236h5.852l.022-.004 5.163-.607 3.056 1.947-1.738 3.77-.079.172.104.159 4 6.155.919 5.218.004.015.01.032 1.847 5.554.291 3.777-4.459 2.382-.184.095v3.862zm-18.715 35.172l.259-.179-.154-.276-5.556-9.88-.583-6.411 9.276-.598.221-.016.081-.207 2.391-6.288 3.689.283 8.016 5.65.067.047.086.013 13.052 1.703.15.019.116-.1 5.611-4.678 3.138-.738.252-.06.014-.255.179-3.045 4.581-2.935.18-.116-.024-.211-.345-3.113 3.307-.868.2-.053.047-.204 1.075-4.487 16.971-1.495.252-.021.054-.251.837-3.849 13.953 9.737.1.072.118-.008 5.574-.359.459 1.986-1.947 1.952-.137.134.047.192.714 2.853-2.72 3.083-.155.175.108.212 2.503 4.851-1.088 4.181-3.89.183-.186 3.893-2.965.93-.554 8.529 4.629 5.561-2.778 6.858-3.89 3.338-4.262 1.485-2.777-2.597-5.374-.742-13.523-1.484-4.817-2.41-.927-5.748-12.783-2.781-1.482-2.222-8.521.555-23.841 8.971-.888-6.083 3.86-2.678zm86.957-25.741l.119-.136-.044-.176-.71-2.835 1.946-1.948.133-.136-.044-.183-.183-.802 3.625.083.114.005.091-.068 6.346-4.532 3.961 5.402.025.036.04.031 12.673 10.033.095.076h6.194l4.564 5.848.559 4.828.027.251.251.048 6.594 1.285.892 3.574.087.358.355-.115 6.243-2.082.171-.06.052-.172 1.279-4.388 9.69-4.292.068-.028.053-.055 3.025-3.411.064-.072.019-.096 1.076-6.128 4.039.355.191.016.115-.159 3.528-4.831 5.377-1.668.123-.04.069-.111 3.595-5.869.044-.076.008-.083.175-3.156 2.779-.693.171-.045.063-.163 1.137-2.84.048-.116-.036-.115-.905-2.888.848-1.529 2.608-2.422.059-.055.029-.072 1.702-4.356.043-.108-.036-.111-1.311-4.504-.561-8.257 1.506-8.478.009-.051-.009-.06-.571-3.598-.038-.259-.26-.032-3.217-.38-.223-.024-.116.2-2.459 4.352-.032.056-.008.06-1.507 9.434-.395 1.157-2.458-5.792.709-6.854 3.814-4.536.224-.263-.264-.223-4.516-3.807-.645-3.649 7.409-.929.244-.028.051-.244.89-4.232 3.759 1.329.111.038.112-.038 7.287-2.431.147-.047.059-.144 1.798-4.272 3.308 1.767.081.044h3.551l2.568 3.503.138.191.228-.064 15.299-4.129.195-.052.047-.195 1.623-6.26 2.85.44.184.027.128-.14 3.359-3.785.395 3.945-2.838 4.029-.175.247.223.204 2.85 2.614 4.583 13.766.068.199.204.036 5.484.954 4.924 4.456.454 6.406-8.008 2.829-.14.047-.06.14-3.121 7.209-9.156 6.992-.136.104v5.457l.153.104 4.201 2.805-.459 5.282-4.006 4.95-5.257 2.154-.108.043-.06.093-1.85 3.012-6.138.47-.156.012-.091.124-9.594 12.721-5.142-.702-.149-.02-.119.096-5.728 4.779h-9.826l.151.455 1.866 5.609-4.915 3.981-.283.228.247.27 5.04 5.505-4.7 2.462-.136.071-.04.149-1.607 5.947-4.902-.212-2.225-3.892-8.518.558-8.151-2.597-10.563 6.303-7.411.187-10.559-5.561-2.961-11.496-14.452-3.34-15.705-6.335-2.404-4.655 2.684-3.043zm85.941-104.733l.212.228.247-.187 5.341-4.089 7.869-.315.195-.009.096-.167 2.646-4.711 4.145 4.149.268.262.244-.283 5.743-6.709.032-.036.02-.041 8.541-18.366 5.47-.909 10.938 4.377 2.503 7.511.119.367.347-.161 6.848-3.115 3.907 2.709 7.278 16.516-7.745.226-.111.004-.088.068-3.156 2.43-.144.111.008.181.486 8.748.007.167.14.095 5.676 4.026-.23 6.93-5.334 3.713-9.068-1.396-.459-4.595-.079-.782-.522.586-3.759 4.232-2.975-.454-.306-.048-.08.302-1.646 6.367-14.88 4.017-2.532-3.454-.103-.144h-3.731l-3.567-1.899-.332-.179-.147.347-1.882 4.476-7.023 2.342-4.018-1.421-.371-.131-.079.387-.92 4.376-7.527.942-.363.043.064.359.729 4.133.021.12.096.083 4.352 3.666-3.663 4.353-.071.084-.009.103-.729 7.049-.008.088.032.084 2.798 6.582-2.675 7.87-3.576 9.806-4.141 6.403-.008.012-3.404 5.872-.02.027-.012.036-1.295 3.89-5.796 5.237-.036.032-.024.036-2.798 4.298-7.821 5.405-3.893.558-.068.008-.06.036-2.839 1.708-.267.159.132.279 1.323 2.841.096.2H529.386l-1.144 3.928-5.72 1.907-.856-3.426-.053-.212-.215-.043-6.561-1.278-.542-4.667-.008-.099-.06-.076-4.732-6.06-.102-.132h-6.296l-12.538-9.929-4.135-5.644-.201-.276-.278.2-6.529 4.667-3.683-.087-.223-.966-.065-.287-.294.015-5.745.375-14.259-9.952-9.493-8.509v-3.3l3.945-1.839 5.546.555.355.036.024-.355 1.122-16.866 3.269-6.268 5.747-.821.236-.032.051-.236 1.129-5.078.031-.139-.077-.12-5.814-9.143 5.168-9.526 13.059-.559.162-.004.099-.131 3.318-4.34 4.837 10.486.14.3.305-.128 3.383-1.412.234-.096-.02-.25-.552-6.34 12.588-13.719.072-.075.012-.108.821-5.457 5.72-2.601 2.957 6.458.049.1.091.056 6.203 3.67.386.227.12-.435 1.387-4.99 3.32-3.323.152-.151-.068-.2-1.411-4.236-.059-.176-.176-.047-2.826-.77.25-3.268 4.429-4.707.123-.131-.039-.177-.845-3.953-.045-.195-.191-.06-6.026-1.918-1.591-5.306 2.998-4.097.135-.184-.116-.195-2.646-4.504 7.044-4.34.079-.049.044-.087 4.233-8.185.044-.089-.008-.1-.563-6.49-.007-.079-.044-.072-2.722-4.36 2.741-6.041.061-.13-.052-.136-1.392-3.615-.266-5.357 4.824-2.147 5.324-1.121.111-.023.077-.084 2.239-2.489 2.664 4.037-3.217 2.05-.163.1V358.792l.323.023 4.15.319.119.009.1-.072 2.873-2.01 3.607 6.917-.318 8.855-.009.211.183.104 4.883 2.745-2.176 9.012-.023.115.047.108 2.87 6.387.064.144.151.047 6.015 1.803-4.635 10.827-.024.056-.005.056-.956 14.058-.011.147.103.112 5.11 5.429zm-23.526 92.374l-2.036-3.231-.104-.163h-4.345l-.064.023-2.965 1.113-2.273-2.082-.004-.004-2.65-3.714-.183-.255-.272.16-7.673 4.571-3.077-6.16-.14-.278-.291.11-3.95 1.485-.299.112.088.303 1.427 4.994-3.305 1.045-.291.093.056.302.65 3.415.051.259.259.02 4.282.359 4.158 3.028.019.013 3.48 2.197.1.064.115-.011 5.935-.559 4.844 3.41.266.188.2-.26 7.972-10.152.151-.191-.131-.204zm-12.903 6.645l-.104-.07-.102-.076-.129.012-.128.011-5.818.547-3.365-2.127-4.157-3.024-.076-.055-.079-.06-.097-.008-.096-.007-4.018-.336-.542-2.856 3.01-.95.319-.103.323-.099-.091-.324-.096-.323-1.34-4.691 3.365-1.261 2.937 5.88.168.331.163.331.319-.188.319-.191 7.403-4.408 2.467 3.459.019.028.021.032.028.023.027.028h.004l2.268 2.084.155.138.155.145.196-.077.199-.072 2.907-1.089h3.85l1.806 2.86-7.617 9.706-4.573-3.22zm42.854 31.572l.395-.212-.299-.327-5.098-5.566 4.819-3.9.183-.148-.075-.228-1.79-5.376H574.29l.1-.085 5.707-4.759 5.194.706.199.028.123-.16 9.619-12.757 6.158-.474.177-.013.091-.151 1.885-3.064 5.238-2.146.084-.032.052-.068 4.13-5.101.066-.085.009-.103.486-5.592.017-.204-.168-.113-4.218-2.811v-4.751l9.093-6.942.067-.056.037-.083 3.096-7.154 8.116-2.864.247-.087-.015-.264-.487-6.805-.012-.136-.1-.095-5.102-4.615-.076-.068-.096-.017-5.38-.938-4.552-13.654-.029-.087-.064-.06-2.69-2.466 2.616-3.71 9.262 1.424.132.02.116-.076 5.584-3.889.141-.1.006-.172.244-7.292.005-.183-.153-.108-5.688-4.037-.466-8.401 2.922-2.25 7.932-.236 9.857 18.283.041.079.072.045 7.717 5.15-2.225 3.111-.167.24.208.207 3.882 3.885.183.185.227-.125 6.262-3.482 2.985 5.293.128.228.251-.06 4.708-1.121.697 9.315.017.183.155.093 4.771 2.728-2.695 3.822-.135.191.131.195L679 482.325l-8.825 6.128-5.003 9.27 7.039.742 3.337 8.9-5.003 5.007-2.966 18.541 2.779 6.858-6.669 4.636-2.778 7.602-19.639-3.155-4.633 4.265-3.332-3.152-11.117.558-7.964 7.417-1.666 5.376-5.191.185-16.301 9.824-24.268-2.222-3.149-5.935-3.102-.132 1.527-5.652 4.966-2.601zm35.417-12.754l.243.152 11.656 7.292.159.1.16.1.17-.085.172-.083 20.158-9.718.455-.223.457-.219-.374-.344-.37-.343h-.004l-4.868-4.468 2.862-.67.215-.051.22-.053.043-.223.041-.219.729-3.89.044-.231.044-.232-.199-.123-.204-.128-5.828-3.647v.005l-.115-.075-.115-.072-.136.027-.132.028v-.004l-4.855.974-.179.036-.18.036-.072.168-.071.17-2.288 5.418-2.197-2.011-.342-.315-.342-.315-.2.419-.2.419-2.75 5.733-9.582 1.172-.204.023-.207.026-.076.195-.076.191-1.698 4.375-.104.264-.102.267.242.152zm12.074-6l.187-.023.084-.172 2.831-5.903 2.554 2.341.359.33.191-.451 2.484-5.867 4.855-.974 5.827 3.647-.729 3.889-3.492.821-.637.153.482.438 5.349 4.906-20.158 9.723-11.655-7.292 1.698-4.373 9.77-1.193zm60.224-70.327l.215-.311-.328-.187-4.948-2.828-.715-9.529-.032-.406-.39.095-4.856 1.152-3.029-5.358-.173-.3-.299.168-6.333 3.516-3.5-3.496 2.263-3.163.203-.291-.294-.198-7.588-5.052 6.003-3.928 6.169-2.464 4.957 4.02.228.187.219-.196 2.642-2.344 3.927 3.616.243.227.231-.234 3.732-3.726 8.684.308 5.667 4.402.147.119.184-.068 10.999-4.083 3.683 3.067.163.14.2-.093 15.232-6.973 4.367.933.096.021.096-.037 5.112-1.914.267-.099-.048-.28-.598-3.584 23.513-12.216 3.5 3.787-5.655 12.245-.04.083.008.096.619 5.842-4.282 2.444-.185.103.013.216.319 5.426.019.328H755.434l4.369 6.55.113.168.196-.012 5.116-.323.119-.009.091-.079 7.991-7.345.079-.07.023-.104 1.219-5.161h6.01l.095-.195 1.804-3.604 3.695.57 3.704 11.408-2.331 2.328-9.794 1.579-.454.072.198.414 2.455 5.216-3.676 3.983-.066.072-.021.104-.942 5.335-5.691 6.63-.183.216.176.223 2.39 2.987-3.675 4.895-.068.092V487.538l.192.1 10.152 5.067 8.117 11.236-6.688 10.176-3.816.498-7.048-2.226-3.71 1.855-5.193-2.408-8.348 3.333-21.143-21.866-17.065-16.862-11.684 1.85-9.647-3.333-12.639 6.491-7.882-11.809 2.783-3.936zm117.971 33.516l10.583.187 4.853 3.917.143.119.18-.064 14.051-4.737-1.352 5.454-5.161 2.365-9.462 10.562-1.668 5.192-12.611 6.113-5.934-5.188-5.548-8.76 6.721-10.223 5.205-4.937zm38.507 56.718l-3.895-6.67.71-21.631 5.699-1.256.43-.096-.2-.395-2.186-4.365 2.822-3.697 11.254-.748.091-.009.075-.048 6.849-4.561.171-.115-.019-.208-.723-6.662 4.765-.18.287-.009.041-.287 1.525-10.45.051-.362-.366-.028-6.714-.563-4.214-4.561 7.099-5.318 6.337 4.525.927 4.617.039.208.208.055 3.811 1.08 2.59 19.299-3.895 16.491-2.78 31.506-5.752 11.488-9.646 7.783-13.353-.183-7.79 7.412-.371-5.375-14.095-14.453 5.008-10.934 15.21-1.3zm-28.168-385.253l4.359.654 3.276 5.788.159.283.292-.139 6.852-3.298 6.329 2.023.187.061.149-.132 4.821-4.309 7.375-.509.13-.008.097-.098 5.391-5.632 7.635 11.084.079.114.136.029 4.761 1 3.317 8.67.095.244.26-.025 5.574-.504 3.448 3.2 1.023 5.351.028.157.142.079 5.357 3.018 1.408 5.873 1.3 8.339-.37 4.078-5.567.927-7.974-10.935-1.855 5.56-3.895.184-6.865 9.822-1.108 8.34 3.523 11.304 1.113 19.086 4.08 3.893 3.895-4.819 4.448 3.336-4.265 5.559-5.376 2.04-1.485 10.561-5.933 6.673-4.083-3.521 4.266-6.117-5.751.186-6.305 5.559-8.162 2.596 1.485 9.449-4.638 1.112-3.34 2.781-4.963 3.271-3.31-5.779-.096-.173H807.494l-.093.067-5.215 3.837-2.359-4.716 3.121-5.674.059-.11-.023-.123-1.457-7.286-.04-.195-.192-.063-13.13-4.373-.159-.056-.139.095-5.799 3.86-12.567-26.055 1.241-6.21 8.673-6.115.247-.175-.14-.268-3.236-6.222 7.992-7.486 7.38-.763.132-.014.087-.1 4.395-4.905.075-.084.008-.115.779-8.52.015-.173-.132-.114-4.8-4.292-.252-5.28-.003-.097-.053-.077-2.942-4.404 3.665-3.414.239-.224-.211-.25-3.923-4.653 9.274-8.514 4.335-1.784.095-.039.06-.085 3.359-4.906.113-.163-.088-.18-2.818-5.868zm56.917 262.021l-3.525-9.263-10.941-5.932-5.939-13.53-5.934-4.445.926-4.263 2.969.742 1.855-2.409-3.34-5.003-6.118-4.262.743-3.521 3.336-1.484 4.82 6.117 10.388 7.224 7.607 14.271 16.506 14.824 23.369 15.754-10.388.553-5.563 3.15 2.598 7.601 4.637 11.858 7.231 5.192 6.306 2.778h5.939l4.078 8.525-5.008-2.595-2.04.924-5.38.371.932 5.746-.56 7.599-6.86-8.712-.93-6.67-6.676-3.15-1.485-4.263-1.667-4.816-5.38-4.079-4.638-7.596-6.488-10.379-5.38-6.857zm-12.056-9.45l3.153 15.382 3.523 4.263 10.76 21.865 2.41 6.855-1.689 21.858-3.395-.961-.911-4.542-.027-.136-.113-.079-6.656-4.75-.203-.146-.204.151-7.606 5.702-.308.227.26.283 4.565 4.94.092.096.132.012 6.481.542-1.429 9.801-4.844.18-.372.015.04.368.738 6.821-6.597 4.395-11.317.752-.156.009-.095.127-3.042 3.992-.132.168.096.195 2.084 4.162-5.22 1.148-3.017-8.628 1.851-5.934-4.94-8.066 1.516-6.128.152-.61-.595.2-14.466 4.88-4.797-3.872-.092-.071-.119-.004-10.839-.187-.14-.004-.104.095-5.053 4.789-8.077-11.176-.047-.068-.076-.04-10.037-5.012v-6.061l3.763-5.016.16-.211-.164-.206-2.378-2.971 5.567-6.492.059-.072.017-.091.942-5.331 3.768-4.075.155-.172-.095-.21-2.364-5.013 9.454-1.523.113-.021.079-.074 2.554-2.557.152-.147-.068-.2-3.836-11.813-.064-.208-.211-.032-4.154-.638-.247-.036-.113.223-1.823 3.641h-6.133l-.06.268-1.257 5.326-7.818 7.189-4.793.299-4.367-6.544-.104-.151h-9.765l-.287-4.888 4.291-2.449.191-.11-.021-.224-.63-5.972 5.711-12.368.099-.213-.155-.167-3.835-4.151-.184-.194-.231.123-11.633 6.045-2.829-7.968 3.942-4.217.148-.16-.08-.204-1.751-4.374-.04-.1-.092-.059-7.324-4.785 3.944-7.596.138-.266-.251-.176-7.271-5.028 3.253-3.791.084-.097v-16.793l14.362-5.455.204-.076.02-.215.559-6.412 8.456-.561.224-.017.076-.211 2.043-5.538.023-.064-.004-.072-.279-5.308 4.167-1.94.264-.124-.081-.28-3.208-11.371-.032-.115-.104-.072-5.631-3.939 3.727-13.176.028-.106-.039-.108-5.184-13.813 2.649-3.438 9.977 3.416.092.03.091-.019 6.714-1.459.151-.03.076-.133 2.251-3.938 7.709-1.139.22-.033.064-.217 1.421-5.124 5.882-3.916 12.774 4.254 1.398 6.971-3.149 5.718-.089.158.085.161 2.625 5.249.184.364.327-.241 5.452-4.013h6.397l3.228 5.642-2.613 1.722 1.668 2.594-.56 2.222-5.933-1.109-18.733 18.347 1.297 8.525-2.965 7.966 2.223 8.895-2.595 10.75-2.226 22.237-8.904 22.236-.371 6.488 6.865 1.109 8.161-5.001 3.895 11.305 4.637-5.934 4.078 5.192 3.341-14.642 9.645-5.004 12.428 2.226 5.933 2.408-2.414 4.82 2.786 3.333 8.041 3.322.492.2.262.629 2.148 5.116zm106.676 60.099l2.722-1.279 1.76 1.12-.319 2.512-1.656 1.922-.531 9.613-1.337.589-1.278-3.632.481-5.45-1.334-4.219 1.492-1.176zm2.69-136.826l3.068-1.981 1.534 2.524-1.353 3.425-2.798-1.802-.451-2.166zm7.965 110.112l-.247-2.827 2.706.123.862 3.565-1.968 3.077-2.585 3.69-.248 4.058-.738 5.044-.492 3.816-1.232-.614-.985-6.642-.244-8.247 3.324-3.445 1.847-1.598zm1.668 27.675l1.494 2.085.586 2.883-2.718.96-.909-2.081.056-2.404 1.491-1.443zm2.994-125.98l-3.064 1.444-3.338-4.328.719-8.559 2.619.721 2.434 2.253.63 8.469zm-2.526-17.122l2.977 2.612-1.624 1.802-3.065-1.168.451-2.073 1.261-1.173zm1.624 24.689l5.503 2.436-.543 2.07-3.967 1.802-1.445-3.154.452-3.154zm5.966 70.319l.491 6.272-2.214 6.4h-2.71l-.124-2.585-.125-5.661-.119-5.411 2.583-2.584 2.218 3.569zm-2.338-42.444l1.477-2.827 1.723.243 1.725 3.202-2.71 2.579-2.215-3.197zm5.291 14.765l-2.091.738-1.476-2.461 1.353-2.831 2.71.614-.496 3.94zm-1.723 4.673l2.957.861 1.723 4.797-5.171 1.355-1.724-4.677 2.215-2.336z"/></svg>