<svg xmlns="http://www.w3.org/2000/svg" width="444" height="437"><path fill-rule="evenodd" fill="#008D44" d="M435.884 334.142l.131.195L444 346.325l-8.825 6.128-5.003 9.27 7.039.742 3.337 8.9-5.003 5.007-2.966 18.541 2.779 6.858-6.669 4.636-2.778 7.602-19.639-3.155-4.633 4.265-3.332-3.152-11.117.558-7.964 7.417-1.666 5.376-5.191.185-16.301 9.824-24.268-2.222-3.149-5.935-3.102-.132 1.527-5.652 4.966-2.601.395-.212-.299-.327-5.098-5.566 4.819-3.9.183-.148-.075-.228-1.79-5.376H339.29l.1-.085 5.707-4.759 5.194.706.199.028.123-.16 9.619-12.757 6.158-.474.177-.013.091-.151 1.885-3.064 5.238-2.146.084-.032.052-.068 4.13-5.101.066-.085.009-.103.486-5.592.017-.204-.168-.113-4.218-2.811v-4.751l9.093-6.942.067-.056.037-.083 3.096-7.154 8.116-2.864.247-.087-.015-.264-.487-6.805-.012-.136-.1-.095-5.102-4.615-.076-.068-.096-.017-5.38-.938-4.552-13.654-.029-.087-.064-.06-2.69-2.466 2.616-3.71 9.262 1.424.132.02.116-.076 5.584-3.889.141-.1.006-.172.244-7.292.005-.183-.153-.108-5.688-4.037-.466-8.401 2.922-2.25 7.932-.236 9.857 18.283.041.079.072.045 7.717 5.15-2.225 3.111-.167.24.208.207 3.882 3.885.183.184.227-.124 6.262-3.482 2.985 5.293.128.228.251-.06 4.708-1.121.697 9.315.017.183.155.093 4.771 2.728-2.695 3.822-.135.191zm-35.169 68.861l-.37-.343h-.004l-4.868-4.468 2.862-.67.215-.051.22-.053.043-.223.041-.219.729-3.89.044-.231.044-.232-.199-.123-.204-.128-5.828-3.647v.005l-.115-.075-.115-.072-.136.027-.132.028v-.004l-4.855.974-.179.036-.18.036-.072.168-.071.17-2.288 5.418-2.197-2.011-.342-.315-.342-.315-.2.419-.2.419-2.75 5.733-9.582 1.172-.204.023-.207.026-.076.195-.076.191-1.698 4.375-.104.264-.102.267.242.152.243.152 11.656 7.292.159.1.16.1.17-.085.172-.083 20.158-9.718.455-.223.457-.219-.374-.344zm-32.65 2.594l1.698-4.373 9.77-1.193.187-.023.084-.172 2.831-5.903 2.554 2.341.359.33.191-.451 2.484-5.867 4.855-.974 5.827 3.647-.729 3.889-3.492.821-.637.153.482.438 5.349 4.906-20.158 9.723-11.655-7.292zm22.705-120.152l-.088.068-3.156 2.43-.144.111.008.181.486 8.748.007.167.14.095 5.676 4.026-.23 6.93-5.334 3.713-9.068-1.396-.459-4.595-.079-.782-.522.586-3.759 4.232-2.975-.454-.306-.048-.08.302-1.646 6.367-14.88 4.017-2.532-3.454-.103-.144h-3.731l-3.567-1.899-.332-.179-.147.347-1.882 4.476-7.023 2.342-4.018-1.421-.371-.131-.079.387-.92 4.376-7.527.942-.363.043.064.359.729 4.133.021.12.096.083 4.352 3.666-3.663 4.353-.071.084-.009.103-.729 7.049-.008.088.032.084 2.798 6.582-2.675 7.87-3.576 9.806-4.141 6.403-.008.012-3.404 5.872-.02.027-.012.036-1.295 3.89-5.796 5.237-.036.032-.024.036-2.798 4.298-7.821 5.405-3.893.558-.068.008-.06.036-2.839 1.708-.267.159.132.279 1.323 2.841.096.2H294.386l-1.144 3.928-5.72 1.907-.856-3.426-.053-.212-.215-.043-6.561-1.278-.542-4.667-.008-.099-.06-.076-4.732-6.06-.102-.132h-6.296l-12.538-9.929-4.135-5.644-.201-.276-.278.2-6.529 4.667-3.683-.087-.223-.966-.065-.287-.294.015-5.745.375-14.259-9.952-9.493-8.509v-3.3l3.945-1.839 5.546.555.355.036.024-.355 1.122-16.866 3.269-6.268 5.747-.821.236-.032.051-.236 1.129-5.078.031-.139-.077-.12-5.814-9.143 5.168-9.526 13.059-.559.162-.004.099-.131 3.318-4.34 4.837 10.486.14.3.305-.128 3.383-1.412.234-.096-.02-.25-.552-6.34 12.588-13.719.072-.075.012-.108.821-5.457 5.72-2.601 2.957 6.458.049.1.091.056 6.203 3.67.386.227.12-.435 1.387-4.99 3.32-3.323.152-.151-.068-.2-1.411-4.236-.059-.176-.176-.047-2.826-.77.25-3.268 4.429-4.707.123-.131-.039-.177-.845-3.953-.045-.195-.191-.06-6.026-1.918-1.591-5.306 2.998-4.097.135-.184-.116-.195-2.646-4.504 7.044-4.34.079-.049.044-.087 4.233-8.185.044-.089-.008-.1-.563-6.49-.007-.079-.044-.072-2.722-4.36 2.741-6.041.061-.13-.052-.136-1.392-3.615-.266-5.357 4.824-2.147 5.324-1.121.111-.023.077-.084 2.239-2.489 2.664 4.037-3.217 2.05-.163.1V222.792l.323.023 4.15.319.119.009.1-.072 2.873-2.01 3.607 6.917-.318 8.855-.009.211.183.104 4.883 2.745-2.176 9.012-.023.115.047.108 2.87 6.387.064.144.151.047 6.015 1.803-4.635 10.827-.024.056-.005.056-.956 14.058-.011.147.103.112 5.11 5.429.212.228.247-.187 5.341-4.089 7.869-.315.195-.009.096-.167 2.646-4.711 4.145 4.149.268.262.244-.283 5.743-6.709.032-.036.02-.041 8.541-18.366 5.47-.909 10.938 4.377 2.503 7.511.119.367.347-.161 6.848-3.115 3.907 2.709 7.278 16.516-7.745.226-.111.004zm-88.679 95.123l-2.036-3.231-.104-.163h-4.345l-.064.023-2.965 1.113-2.273-2.082-.004-.004-2.65-3.714-.183-.255-.272.16-7.673 4.571-3.077-6.16-.14-.278-.291.11-3.95 1.485-.299.112.088.303 1.427 4.994-3.305 1.045-.291.093.056.302.65 3.415.051.259.259.02 4.282.359 4.158 3.028.019.013 3.48 2.197.1.064.115-.011 5.935-.559 4.844 3.41.266.188.2-.26 7.972-10.152.151-.191-.131-.204zm-12.903 6.645l-.104-.07-.102-.076-.129.012-.128.011-5.818.547-3.365-2.127-4.157-3.024-.076-.055-.079-.06-.097-.008-.096-.007-4.018-.336-.542-2.856 3.01-.95.319-.103.323-.099-.091-.324-.096-.323-1.34-4.691 3.365-1.261 2.937 5.88.168.331.163.331.319-.188.319-.191 7.403-4.408 2.467 3.459.019.028.021.032.028.023.027.028h.004l2.268 2.084.155.138.155.145.196-.077.199-.072 2.907-1.089h3.85l1.806 2.86-7.617 9.706-4.573-3.22zm10.24-278.478l-.019.139-.538 4.327-2.161 3.238-.036.054-.012.068-1.586 7.682-4.373-.514-.14-.017-.115.093-7.407 6.039-3.078 1.59 6.148 9.467 1.957 24.601-5.257 5.815-.252.277.295.228 3.496 2.691-1.367 6.559-.036.174.119.13 3.015 3.286v4.848l.147.104 3.444 2.384-1.574 4.21-5.327 6.446-.064.08-.011.103-.563 5.078-.043.387h9.292l3.851 3.028.198.156.208-.139 3.969-2.645 1.874 2.345-2.267 2.522-5.246 1.104-.036.009-.036.016-5.075 2.257-.215.096.009.235.283 5.642.004.055.019.052 1.36 3.534-2.763 6.08-.076.167.096.156 2.779 4.444.546 6.315-4.139 8.007-7.25 4.463-.287.179.172.292 2.703 4.603-2.966 4.049-.104.14.048.164 1.694 5.644.051.172.176.055 6.011 1.915.77 3.583-4.39 4.663-.083.091-.013.121-.282 3.669-.02.284.275.075 2.926.798 1.283 3.855-3.236 3.234-.06.064-.024.092-1.291 4.644-5.724-3.388-3.058-6.67-.143-.315-6.761 3.113.036.174-.822 5.482-12.615 13.75-.104.111.012.153.542 6.239-2.844 1.185-4.937-10.703-.238-.519-.348.455-3.569 4.667-13.091.558-.195.009-.093.172-5.36 9.876-.095.18.108.172 5.844 9.191-1.043 4.706-5.687.814-.175.024-.081.16-3.385 6.49-.033.068-.007.068-1.103 16.58-5.287-.532-.091-.008-.087.04-4.231 1.975-.198.096v4.037l.115.108 9.471 8.489-.848 3.909-16.962 1.492-.247.024-.058.244-1.086 4.532-3.397.893-.288.076.033.294.355 3.196-4.547 2.911-.15.096-.01.176-.173 2.96-2.966.698-.078.021-.064.051-5.56 4.64-12.819-1.676-7.787-5.486 2.611-5.516 4.837-1.816.136-.051.058-.132 1.554-3.419.029-.068v-3.598l4.477-2.384.2-.109-.018-.223-.312-4.041-.002-.04-.015-.044-1.851-5.565-.929-5.266-.013-.068-.04-.059-3.933-6.056 1.782-3.869.129-.272-.256-.163-3.416-2.174-.104-.068-.12.015-5.256.619h-5.33l-2.77-8.178 2.362-1.113.055-.023.039-.045 2.797-2.796.178-.179-.115-.223-5.535-10.768.868-4.06.036-.013.008-.215.302-6.367 6.397-4.878.093-.068.03-.116.932-3.418.087-.319-.315-.1-5.82-1.839-3.894-3.898-.587-4.983 7.007-6.099.107-.091.011-.144.31-4.041.026-.327-.328-.041-4.785-.597-5.197-10.707-.078-.164-.18-.028-17.722-2.753v-4.56l2.409-3.011.113-.14-.049-.168-2.448-8.644 5.654-.706.049-.009.043-.015 6.621-2.841.133-.059.054-.136 1.323-3.407.108-.275-.257-.148-7.392-4.251v-8.961l9.052-11.513.064-.083.008-.104.556-7.241 5.865-8.102.086-.119-.026-.144-1.128-6.769-.022-.14-.108-.079-6.601-4.955 1.657-9.387.023-.144-.086-.119-4.434-6.102 1.398-13.133.013-.137-.084-.11-5.53-7.191 2.201-6.602.038-.122-.049-.12-2.102-4.996 6.95-1.874.169-.046.064-.163 2.683-6.812v.008l.485-1.23-1.662-9.507-.04-.222-.216-.054-7.593-1.899-6.709-8.865 1.297-5.189 10.308-4.615.154-.07.041-.162 1.101-4.408.029-.119-.052-.113-4.358-9.27 1.039-5.714 4.716-.787.448-.073-.193-.414-4.381-9.315-.059-.647 5.027-.295 6.855 12.793h7.967l-2.78-6.489-5.743-5.564.37-12.977 2.779-5.006 9.079.186 15.746 2.595 5.928-1.483-3.89-7.046 2.038-8.342 4.632-4.08 6.298-.187 8.152-6.487 12.043-1.669-.186-5.748 10.006-.185.924 3.152 7.04 1.297 3.15-2.966 6.112 1.298-3.149-4.635-.184-2.225 8.521-.556-1.853-7.045 7.967-11.865L260.66 0l5.557 4.634-2.964 4.264 9.079 1.113-3.337 9.457 4.448-.744 3.891-5.56 11.113.37 11.858 13.535-3.89 13.72-8.523 15.388-15.378 15.945-.182 7.415 2.962-5.19 7.596-2.225 5.557-4.264 4.887-2.446-.259 3.246-.013.128.081.105 2.431 3.242 1.085 5.708.015.076.044.058 7.92 11.209v7.456l.08.097 3.906 4.688-9.088 7.222-.108.088zM130.824 266.792l-.078.095V272.278l.294.043 17.835 2.768 5.201 10.72.083.168.186.023 4.641.583-.274 3.57-7.036 6.123-.137.12.02.179.621 5.287.013.119.085.084 4.037 4.041.061.06.081.027 5.585 1.763-.813 2.984-6.433 4.908-.124.095-.009.16-.3 6.311-6.186 2.656-7.629-3.358-.089-.04-.095.011-9.008 1.246-.13.015-.086.104-3.313 3.917-8.869-.043v-.004h-4.129l-.098.083-4.351 3.626-1.63-2.118.571-9.518.021-.355-.356-.009-13.482-.378-2.412-4.456-.099-.184-.211.004-6.861.184-1.276-4.752-.02-.063-.041-.056-4.433-5.784-.05-.068-.074-.036-23.7-11.286V280.843l-.093-.1-3.068-3.251 3.276-4.006.094-.115-.016-.145-.358-3.051 6.356-3.641.139-.081.031-.159.729-3.83 3.554-2.314 4.607.555.282.036.086-.276 3.941-12.582 5.259-3.992 5.643 1.639 7.906 5.277.082.053.105.004 11.994.187 8.427 6.184.181.131.194-.112 10.025-5.76 5.016 3.591 2.478 8.74-2.373 2.967zm-78.576 10.732l.208.223 3.182 3.371v18.757l-4.451 2.601-.228.132.067.251 1.229 4.742-5.306-.351-.079-.008-.076.032-4.624 1.928-.109.047-.061.104-2.697 4.823-.047.083.005.096.574 13.428-3.139 7.46-7.981 1.452-2.78 2.41-3.334.742-3.706-2.039-4.26 1.297v-2.968l4.26-3.524-2.963-3.334-2.963-.742-3.891-.188-.37-4.263-7.967-1.852L0 319.082l3.704-4.264-1.111-3.338 1.667-1.856-.184-4.819-2.681-.778 1.117-2.984 6.112-5.731.077-.077.022-.104.944-4.348 3.467-3.833 4.627.925.232.048.126-.2 1.349-2.122.034-.052.011-.059.771-3.471.022-.1-.033-.091-1.35-3.666-.053-.149-.148-.055-3.882-1.48-.487-1.779 1.812-2.179.069-.079.011-.104.563-5.66 6.219-6.04 3.217 3.22-2.144 3.039-.309.439.526.099 3.009.563 6.682 4.779.114.08.136-.019 5.089-.755 4.713 2.641.072.04.083.003 4.82.196.113.004.094-.064 6.274-4.308.3 2.565-3.375 4.133-.193.232zM40.5 327.979l.031-.076-.006-.072-.574-13.404 2.594-4.631 4.439-1.851 5.702.379.477.032-.122-.463-1.283-4.955 4.399-2.569.17-.1v-7.751l23.328 11.111 4.338 5.665 1.334 4.946.07.263.271-.008 6.919-.187 2.406 4.444.093.171.199.008 13.325.375-.555 9.286-.009.129.081.103 1.926 2.509.218.283.276-.23 4.526-3.774h3.191l-.189 24.569-4.016 3.654-7.94-.758-.135-.012-.108.085-2.293 1.763-2.486-1.955-.237-.189-.215.213-6.893 6.709-5.082-4.906-.939-3.949-.015-.068-.047-.06-4.624-6.173-.151-.202-.237.084-18.374 6.319-3.924-1.684-.175-.076-.158.112-1.74 1.221-2.889-1.812-.176-.107-.181.103-3.848 2.258-8.028-13.276 3.892-4.081-9.587-.215 3.031-7.2zm17.614 25.036l.191.119.189-.132 1.77-1.24 3.872 1.663.12.053.127-.045 18.262-6.283 4.428 5.913.95 3.981.02.096.078.072 5.394 5.206.239.234.239-.234 6.915-6.73 2.461 1.935.209.163.213-.163 2.398-1.848 7.958.759.151.015.114-.1 4.16-3.785 3.213-.411.577 4.627.014.112.078.084 4.611 4.919 1.527 4.284.036.103.091.064 4.043 2.888-3.174 3.759-.196.227.201.224 2.672 2.971-1.164 4.663-3.298 2.103-.153.096-.008.179-.297 6.255-4.241.849-4.223-3.319-.503-.398-.053.642-.304 3.639-3.566 5.352-6.625-.602-.072-.008-.068.025-5.591 1.863-.107.034-.064.089-2.486 3.418-.239.332.365.18 3.582 1.795.809 3.506-5.873.679-3.049-6.3-4.26-1.855-7.967 2.968-10.187-5.565-.928-5.006-3.149-1.296-3.336 4.818-4.815.742-8.949-42.987 3.76-2.21 2.908 1.819zm46.689 54.787l-.086-.374-.931-4.041-.036-.157-.147-.071-3.363-1.684 2.182-3.004 5.415-1.806 6.762.613.205.021.114-.172 3.728-5.593.047-.076.009-.087.256-3.092 3.845 3.023.126.1.155-.031 4.66-.934.264-.051.002-.1 7.407.219 2.445 2.788-1.516 6.679-.036.155.099.132 4.35 5.593.208.27.274-.206 4.782-3.662.567 6.215.007.075.036.064 5.436 9.674-3.779 2.617-.177.123.03.211.96 6.556-5.896 4.387-8.894.372-2.037 4.451-6.672-.742-4.26-6.303-1.295-4.636-6.671 3.523-2.407-2.968-5.93-1.295-.185-6.303-5.927-3.341-.649-6.377 6.139-.706.384-.049zm54.132-69.99l-2.579 2.577-5.222 2.461-.152.072-.037.164-.933 4.041-.024.104.042.103 2.098 5.102-3.918 5.127-.105.139.05.167.932 3.112.05.168.165.055 4.962 1.756-1.737 5.214-3.383 4.304-.102.132.041.167 1.22 4.886-.909 3.647-.025.104.036.1 1.167 3.211-5.09 5.093-3.027 1.512-4.108 1.474-2.511-2.865-.1-.112-.15-.004-7.541-.228.276-5.827 3.268-2.084.115-.074.035-.132 1.24-4.972.045-.179-.122-.135-2.595-2.884 3.222-3.813.242-.285-.305-.219-4.26-3.043-1.516-4.253-.023-.064-.05-.055-4.583-4.891-.606-4.859-.044-.347-.342.043-3.275.423.187-24.333 9.031.044h.161l.103-.124 3.332-3.937 8.779-1.213 7.675 3.379.138.06.137-.06 5.91-2.534-.792 3.698-.026.121.058.111 5.475 10.655zm12.499 45.684l-1.461 3.224-4.836 1.814-.131.049-.06.127-2.696 5.689-3.8-.292-.256-.019-.092.238-2.406 6.324-9.072.583-.026-.289-.496.38-5.009 3.833-4.038-5.193 1.475-6.495 4.169-1.492.013-.004.026-.012 3.107-1.556.053-.023.036-.041 5.28-5.282.156-.155-.077-.207-1.206-3.319.908-3.63.02-.085-.02-.083-1.202-4.806 3.312-4.221.037-.044.016-.06 1.866-5.597.107-.319-.321-.113-5.113-1.805-.831-2.773 3.93-5.146.12-.156-.074-.184-2.132-5.181.868-3.77 2.14-1.01 2.827 8.338.081.236h5.852l.022-.004 5.163-.607 3.056 1.947-1.738 3.77-.079.172.104.159 4 6.155.919 5.218.004.015.01.032 1.847 5.554.291 3.777-4.459 2.382-.184.095v3.862zm-18.715 35.172l.259-.179-.154-.276-5.556-9.88-.583-6.411 9.276-.598.221-.016.081-.207 2.391-6.288 3.689.283 8.016 5.65.067.047.086.013 13.052 1.703.15.019.116-.1 5.611-4.678 3.138-.738.252-.06.014-.255.179-3.045 4.581-2.935.18-.116-.024-.211-.345-3.113 3.307-.868.2-.053.047-.204 1.075-4.487 16.971-1.495.252-.021.054-.251.837-3.849 13.953 9.737.1.072.118-.008 5.574-.359.459 1.986-1.947 1.952-.137.134.047.192.714 2.853-2.72 3.083-.155.175.108.212 2.503 4.851-1.088 4.181-3.89.183-.186 3.893-2.965.93-.554 8.529 4.629 5.561-2.778 6.858-3.89 3.338-4.262 1.485-2.777-2.597-5.374-.742-13.523-1.484-4.817-2.41-.927-5.748-12.783-2.781-1.482-2.222-8.521.555-23.841 8.971-.888-6.083 3.86-2.678zm86.957-25.741l.119-.136-.044-.176-.71-2.835 1.946-1.948.133-.136-.044-.183-.183-.802 3.625.083.114.005.091-.068 6.346-4.532 3.961 5.402.025.036.04.031 12.673 10.033.095.076h6.194l4.564 5.848.559 4.828.027.251.251.048 6.594 1.285.892 3.574.087.358.355-.115 6.243-2.082.171-.06.052-.172 1.279-4.388 9.69-4.292.068-.028.053-.055 3.025-3.411.064-.072.019-.096 1.076-6.128 4.039.355.191.016.115-.159 3.528-4.831 5.377-1.668.123-.04.069-.111 3.595-5.869.044-.076.008-.083.175-3.156 2.779-.693.171-.045.063-.163 1.137-2.84.048-.116-.036-.115-.905-2.888.848-1.529 2.608-2.422.059-.055.029-.072 1.702-4.356.043-.108-.036-.111-1.311-4.504-.561-8.257 1.506-8.478.009-.051-.009-.06-.571-3.598-.038-.259-.26-.033-3.217-.379-.223-.024-.116.2-2.459 4.352-.032.056-.008.06-1.507 9.434-.395 1.157-2.458-5.792.709-6.854 3.814-4.536.224-.263-.264-.223-4.516-3.807-.645-3.649 7.409-.929.244-.028.051-.244.89-4.232 3.759 1.329.111.038.112-.038 7.287-2.431.147-.047.059-.144 1.798-4.272 3.308 1.767.081.044h3.551l2.568 3.503.138.191.228-.064 15.299-4.129.195-.052.047-.195 1.623-6.26 2.85.44.184.027.128-.14 3.359-3.785.395 3.945-2.838 4.029-.175.247.223.204 2.85 2.614 4.583 13.766.068.199.204.036 5.484.954 4.924 4.456.454 6.406-8.008 2.829-.14.047-.06.14-3.121 7.209-9.156 6.992-.136.104v5.457l.153.104 4.201 2.805-.459 5.282-4.006 4.95-5.257 2.154-.108.043-.06.093-1.85 3.012-6.138.47-.156.012-.091.124-9.594 12.721-5.142-.702-.149-.02-.119.096-5.728 4.779h-9.826l.151.455 1.866 5.609-4.915 3.981-.283.228.247.27 5.04 5.505-4.7 2.462-.136.071-.04.149-1.607 5.947-4.902-.212-2.225-3.892-8.518.558-8.151-2.597-10.563 6.303-7.411.187-10.559-5.561-2.961-11.496-14.452-3.34-15.705-6.335-2.404-4.655 2.684-3.043z"/></svg>