<svg xmlns="http://www.w3.org/2000/svg" width="262" height="264"><path fill-rule="evenodd" fill="#E39600" d="M260.919 156.657l1.081 6.489-5.842 8.063-.055.076-.009.1-.554 7.227-8.828 11.208-4.267-4.265-.09-.091-.129-.013-2.297-.176-4.449-6.48-.105-.16-.187.008-5.919.183-5.763-5.388-.21-.196-.229.172-6.33 4.652-7.74-.738-7.619-4.644-4.313-7.118-.056-.092-.101-.044-11.681-5.086-8.479-7.716-.098-.093h-9.433l.181-5.886.002-.12-.075-.1-2.395-3.128-.373-8.97-.003-.114-.072-.088-4.354-5.484-.095-.122-.155-.01-14.076-.75-2.072-1.899-.183-5.907-.006-.163-.128-.1-5.869-4.54-.083-.064-.103-.008-12.292-.929-3.235-6.824 4.993-7.024.061-.086.003-.104.374-10.839 4.178-.067.121-.001.092-.076 6.493-5.359 12.756-.568.15-.007.097-.112 3.372-3.93 5.057-1.686.116-.038.065-.102 3.148-4.86.087-.133-.048-.153-1.958-6.435 5.078-9.02.095-.169-.095-.17-2.435-4.327 4.145-3.45 7.239 11.608 1.855 7.966 2.224 3.519 6.858-6.297-2.037-2.965-.929-3.335 1.855-5.186-5.377-5.557.186-2.779 6.118-1.853 4.447-7.966-4.079-5.372 4.079-3.889 7.786-1.855 5.191-5 6.673-8.521 5.562-4.261 3.708 1.481 5.747 7.596-1.484 9.818-7.414 7.039 1.295 6.114-1.295 4.63-11.308 26.862 1.112 7.224-6.673 13.34-9.825 6.299-6.119 2.406-11.677-5.372v5.187l17.424 10.745 5.19-5.557 7.6-2.78 8.343-8.521.555-10.93 5.006-4.817 9.084 1.297 2.594 7.781-5.93 10.373 2.224 8.337 7.97-1.852-4.264-2.409-1.484-2.963 5.378-6.484v-8.707l-7.6-9.078h-9.27l-.557-8.706 9.084-14.264-.185-14.634 3.707-5.558 3.893-1.111 3.707-3.335 2.41-6.669 2.039-.926-.742 9.818-5.002 6.112.369 6.669 11.865 10.56-.371-6.114-6.491-7.039 1.67-5.742 6.116 5.558 1.856-6.669 3.734-.221.068.731.006.064.025.052 4.216 8.949-4.511.751-.238.04-.047.239-1.1 6.058-.02.109.047.097 4.357 9.251-1.034 4.123-10.313 4.613-.155.069-.042.161-1.377 5.508-.04.16.1.131 6.888 9.086.074.097.118.029 7.495 1.872 1.59 9.078-3.033 7.699-7.169 1.928-.381.102.154.366 2.205 5.239-2.216 6.644-.057.172.112.147 5.557 7.221-1.396 13.118-.014.131.077.106 4.43 6.087-1.67 9.442-.036.208.171.128 6.662 4.993zM218.318 0l5.854.433.865 7.147-5.902.771-1.25-3.153.433-5.198zm-97.165 107.093l-.118.164.086.183 3.409 7.19.085.18.2.017 12.389.937 5.657 4.376.185 5.889.005.146.109.1 2.271 2.081.09.083.122.006 14.044.75 4.186 5.275.374 8.967.005.11.064.085 2.388 3.12-.186 6.123-.011.355h9.877l8.417 7.664.043.036.053.023 11.635 5.063 4.297 7.095.041.072.075.043 7.761 4.731.068.041.078.008 7.95.757.132.012.104-.076 6.207-4.564 5.659 5.293.105.095.14-.002 5.868-.185 4.437 6.466.095.14.165.011 2.332.18 4.352 4.348V199.804l.173.1 7.315 4.205-1.164 2.993-6.447 2.762-5.878.734-5.188-3.707-.184-.127-.191.111-10.027 5.751-8.335-6.11-.089-.064h-.113l-12.009-.191-7.867-5.242-.039-.027-.057-.011-5.868-1.707-.165-.048-.14.108-5.488 4.161-.09.068-.03.103-3.889 12.4-4.449-.533-.122-.017-.105.068-3.788 2.459-.123.084-.028.143-.727 3.816-6.228 3.563-11.318-8.486-5.366-10.531-4.043-9.04-.069-.155-.166-.04-3.257-.766-6.465-2.658-3.617-3.424-.377-.359-.183.486-1.068 2.851-5.152-.184-.164-.007-.107.123-1.309 1.494-3.111 1.647-2.576-.555-.157-.032-.128.1-1.641 1.275h-3.092l-4.364-1.897-.294-.128-.15.284-1.85 3.515-5.633 1.101-2.61-3.91.338-3.707 1.051-7.18.031-.219-.186-.119-7.264-4.668-1.113-2.857 4.076-4.923.106-.124-.032-.163-.877-4.375-1.374-7.379 3.419-4.783.066-.096-.003-.115-.175-5.776-.002-.067-.022-.057-4.031-9.629-.044-.106-.1-.058-6.704-3.951-1.018-4.58-.022-.097-.066-.071-2.07-2.103 9.764-16.71 8.901-7.936.074-.066.028-.1 1.348-4.849 8.426-7.5 1.709 2.684.107.169.201-.011 5.227-.275.121-.007.088-.079 5.783-5.119 4.02-.064-.369 10.702-5.05 7.104zm-37.84 29.202l.031.148.127.075 6.735 3.971 3.961 9.464.169 5.596-3.435 4.807-.086.119.027.144 1.4 7.53v.003l.846 4.217-4.1 4.951-.127.155.072.187 1.226 3.153.041.104.095.06 7.168 4.608-1.019 6.959v.016l-.35 3.855-.011.119.067.1 2.683 4.026-3.643 6.285-10.479-.342-.227-.004-.097.202-2.976 6.302-.037.072.002.083.168 5.684-2.599.726-5.233-2.492-.151-.071-.152.075-3.567 1.782-2.885-3.718-.061-.085-.097-.031-6.627-2.291-.105-.037-.105.032-7.339 2.244-.372-1.978-.022-.106-.081-.081-2.929-2.798-.194-.183-.225.136-1.533.944-2.328-.581-10.637-9.112-.133-.115-.175.043-2.166.546-2.05-.307-6.301-2.774-2.584-2.065-.992-3.073 5.586-6.604 6.519-.686.166-.015.09-.144 3.96-6.266 2.848 3.161.197.219.247-.159 2.979-1.925.119-.077.031-.139.993-4.469 7.095-.338.155-.008.096-.119 2.104-2.627.063-.08.012-.1.513-4.97 3.256-3.771.154-.175-.107-.207-2.41-4.643.161-3.372 7.515-3.417.054-.023.046-.045 8.934-8.752.021-.02.014-.02 5.955-7.878.022-.03.019-.04 1.298-2.969 1.809-3.098 1.867 1.899 1.031 4.628zm-60.247 78.508l1.42 1.013 3.659 3.546.183.18.222-.123 1.947-1.081.094-.051.047-.096 1.298-2.595.097-.191-.127-.167-2.219-2.958-.297-2.073 2.218-4.114.029-.055.008-.06.509-3.555 1.838-.463 10.562 9.048.062.052.078.02 2.548.637.141.032.122-.075 1.431-.877 2.656 2.539.865 4.568-.123 6.413-9.927 7.41-.128.096-.011.159-.255 3.946-.014.207.182.108 7.353 4.409-2.764 4.929-.032.057-.009.064-.003.028-9.997-.631-4.82-5.185-3.151.925-3.522 3.707 1.483 5.185 3.151 5.19-2.593 2.407-4.264-3.335-3.525-.185-3.335 1.85-.555 5.002-7.046.559L6.436 264l-.994-2.981 2.738-2.144.082-.064.033-.1.764-2.292.044-.127-.058-.124-1.528-3.308-.064-.14-.15-.047L0 250.44l.491-3.057.003-.007.401-3.006 4.42-1.028.23-.052.033-.235.531-3.719 3.594-6.126 5.924-3.324 2.972 1.538.076.036H20.857l.072-.251 1.139-4.034 2.955-.916.062-.021.052-.039 2.054-1.623.299-.236-.263-.274-2.813-2.917-.172-.176-.222.104-1.624.758-.014.002-2.139 1.122-9.649-3.178-2.156-1.745-2.508-5.633 1.107-3.216 4.446-2.686 2.334.195 1.895 2.487.106 4.535v.16l.128.104 2.165 1.729.163.132.193-.087 2.513-1.152 2.086.199zm27.399 25.604l-.289-.174-7.461-4.472.233-3.576 9.932-7.418.136-.099.003-.171.126-6.616.002-.041-.006-.031-.388-2.053 7.303-2.233 6.418 2.225 2.994 3.862.177.223.249-.123 3.67-1.834 4.956 2.355-.965 4.7-.022.108.044.1 2.411 5.58 1.012 3.79.05.183.183.057 4.51 1.379 3.911 3.538.122 3.803.006.148.11.099 6.014 5.258.366 3.281-.007.146-6.334 2.89-17.425-3.336-5.191-2.779-3.523 2.779-5.93-3.707-10.441-2.419 2.879-5.13.165-.292zm39.874-.907l-.006-.144-.108-.1-4.077-3.691-.056-.051-.074-.025-4.401-1.343-.969-3.631-.01-.032-.007-.019-2.378-5.501.955-4.651 2.78-.774.262-.076-.009-.266-.173-5.872 2.849-6.022 10.456.342.208.008.101-.178 3.777-6.518 5.868-1.148.163-.032.077-.147 1.78-3.38 4.14 1.802.068.027h3.466l.093-.072 1.61-1.251 2.542.546.122.023.111-.055 3.278-1.734.056-.032.041-.047 1.243-1.419 5.234.187.247.008.089-.231.973-2.599 3.287 3.113.047.044.06.024 6.555 2.698.031.011.02.005 3.111.733 3.981 8.9.007.017 5.398 10.598.036.068.067.051 11.184 8.383-6.258 4.289-4.624-.187-4.748-2.656-.103-.059-.115.016-5.069.753-6.637-4.738-.061-.045-.075-.011-2.558-.479 2.006-2.837.166-.24-.205-.203-3.663-3.663-.24-.239-.244.239-6.555 6.358-.09.087-.014.123-.569 5.676-1.861 2.233-.114.14.047.17.58 2.12.047.168.161.064 3.903 1.487 1.262 3.419-.735 3.308-1.192 1.87-4.59-.916-.19-.04-.13.146-3.667 4.046-.061.068-.02.089-.943 4.328-6.089 5.707-.057.053-.031.079-1.133 3.021-.105.117-3.442-.544-4.262-7.226-5.203.096v-.007l-.003-.025-.382-3.436-.015-.136-.1-.087-6.003-5.246-.121-3.797z"/></svg>