<svg xmlns="http://www.w3.org/2000/svg" width="474" height="588"><path fill-rule="evenodd" fill="#805691" d="M468.371 227.748l-2.889-2.884 6.061-2.307 2.455.578-5.627 4.613zm-14.865 5.479l-2.164-3.317 5.629-1.297 6.061.721 2.019 3.46-3.319 1.73-8.226-1.297zm-58.588-21.05l2.166-6.488 2.742.432 4.474 2.019-1.153 13.263-8.229-9.226zm5.263 91.923l-9.358-10.558v.002l-7.89-8.904-.929-10.563-5.747-6.67 2.223-2.965-1.297-4.262 4.082-4.448-3.523-11.119-2.599-11.119-1.113-17.234-3.34-5.558 2.968-14.825-3.152-.743.184-5.188-3.337-.185-7.235-5.003-1.113-5.56 4.825-7.228-9.091 3.15-2.223 7.414 9.459 11.303-3.485 3.247-5.029-2.837-1.013-5.305-.021-.112-.083-.076-3.648-3.382-.111-.105-.151.012-5.469.499-3.291-8.602-.068-.176-.183-.039-4.814-1.011-7.754-11.26-.969-5.309 5.399-1.716.175-.056.053-.177 1.483-5.198 4.678-.492.223-.022.069-.211 1.488-4.464 8.6-2.022.148-.035.075-.132 2.236-3.967 12.474-.748 3.013 8.278.112.309.311-.097 9.252-2.823 10.02.255.251.009.084-.239 7.878-22.601 4.557 2.396.124.066.136-.041 6.122-1.854 2.57 28.342 5.375 13.159-9.458.184-6.305 6.486-.183 17.791-7.978-6.3 3.711 14.824-5.008 1.112-.743 7.968 12.611 25.202 3.895.371.743-4.261h6.122l3.064 7.203.1-.11 5.922 3.84 3.712-2.038 6.859 6.485-4.449 2.78-2.782-3.892-2.227 1.484 9.088 16.121 8.903 2.596 1.114 4.817-4.45 4.818-.187 8.524 10.57 12.23-3.152 2.596-.555 9.081 6.122 6.114 2.04 8.525 1.485 18.532-51.195-34.283zm2.783-201.065l1.819 20.064-6.122 1.854-4.785-2.517-.355-.186-.132.379-7.929 22.74-9.826-.252-.055-.002-.053.017-8.991 2.745-2.988-8.213-.089-.242-.256.014-12.921.775-.188.013-.091.163-2.251 3.999-8.641 2.031-.187.043-.06.183-1.48 4.436-4.689.494-.232.025-.064.223-1.5 5.245-5.507 1.751-.292.093.056.297 1.002 5.508-5.468 5.713-7.362.507-.12.009-.088.08-4.762 4.257-6.273-2.005-.132-.042-.123.06-6.689 3.216-3.2-5.658-.08-.146-.168-.025-4.987-.749-3.022-6.288-.096-.198h-7.897l-5.744-2.494-2.976-7.677 12.011-14.044.085-.098V131.607l-.14-.104-16.011-11.998 3.723-7.203 9.646-7.229V93.028l9.458 5.929 4.454-2.594 6.676-.74.742-7.227-7.235-4.077-4.82 1.481-5.38-6.671 7.603-6.857 5.38-1.482-.743-3.891 7.978-12.972 29.674-16.123 19.846-13.157 17.065 4.634 5.751-2.595-10.575-4.262 4.265-5.56.93-7.597L383.116 0l5.568 7.229-4.453 3.149 4.825 3.522-3.712 4.632 9.458 1.854 2.044 4.447 7.048-1.297.183 6.299-6.493-.926 3.153 3.707-12.983 9.822-7.79-.742-4.449 3.706.554 6.671-2.411 5.56-4.082-4.448-2.781 2.224-4.82-4.262-1.485 7.227 3.895 4.447 5.75-2.223.183 4.818 2.97-1.852 2.41.926L377 77.647l-2.415 5.002-6.118 2.039v7.228l5.38.37.738-5.189 6.68-.555 2.966-3.893 24.483 2.039 1.855 6.116-13.17 9.081 5.565 3.15zM291.062 35.513l-1.748 1.748-8.001-9.471v-5.097l4.365-6.557 7.276-.582 2.909 3.933-2.618 5.1-2.183 10.926zM278.375 138.88l-12.06 14.104-.136.155.076.192 3.102 8.004.051.134.132.058 5.942 2.582.068.029h7.607l6.022 12.532-3.189 4.658-4.299 1.769-.059.022-.045.042-9.56 8.778-.245.222.217.253 3.923 4.655-3.636 3.391-.216.2.159.244 3.053 4.57.252 5.324.009.144.107.097 4.78 4.273-.749 8.235-4.227 4.721-7.363.761-.115.011-.085.08-8.269 7.746-.191.179.121.231 3.219 6.188-8.539 6.021-.111.082-.03.133-1.291 6.455-.021.111.048.106 12.739 26.402-1.366 4.905-7.654 1.134-.168.025-.083.145-2.259 3.948-6.461 1.403-10.124-3.466-.232-.08-.153.196-2.916 3.791-.116.15.069.18 5.207 13.885-3.759 13.301-.068.236.204.14 5.73 4.01 3.097 10.968-4.11 1.915-.213.1.013.231.287 5.466-1.94 5.264-8.528.565-.294.021-.028.294-.564 6.491-14.382 5.46-.224.087V380.552l-3.416 3.987-.251.287.315.221 7.335 5.071-3.943 7.603-.144.276.26.171 7.494 4.896 1.629 4.067-3.935 4.214-.144.153.072.195 2.929 8.254-11.717 6.087-.223.117.044.247.591 3.552-4.754 1.778-4.374-.937-.111-.023-.104.051-15.144 6.935-3.668-3.055-.151-.127-.189.068-11.005 4.083-5.599-4.351-.089-.068-.115-.004-8.948-.323-.151-.004-.104.108-3.6 3.597-3.912-3.61-.23-.21-.236.206-2.654 2.361-4.885-3.967-.159-.128-.188.076-6.392 2.557-.032.011-.028.019-6.154 4.024-9.782-18.114-7.526-17.053-.04-.088-.08-.056-4.154-2.875-.164-.111-.176.079-6.684 3.039-2.434-7.301-.052-.151-.148-.06-11.186-4.469-.087-.036-.096.015-5.756.958-.179.032-.076.162-8.608 18.478-5.48 6.383-4.21-4.206-.323-.319-.223.393-2.781 4.946-7.795.311-.112.003-.083.064-5.188 3.964-4.798-5.092.947-13.839 4.769-11.125.151-.355-.366-.112-6.242-1.87-2.767-6.136 2.212-9.142.06-.256-.227-.127-4.929-2.772.312-8.727.003-.093-.043-.079-3.836-7.345-.179-.347-.323.223-3.093 2.166-3.712-.287v-3.964l3.352-2.129.296-.192-.192-.291-2.956-4.476.015-.017-.179-.232-2.259-2.818-.2-.247-.264.175-4.025 2.68-3.757-2.946-.096-.077H3.935l.511-4.589 5.3-6.408.036-.044.019-.06 1.697-4.508.092-.252-.22-.156-3.524-2.436v-4.747l-.088-.097-2.988-3.258 1.376-6.596.044-.213-.172-.13-3.372-2.594 5.112-5.648.1-.112-.012-.144-1.975-24.826-.008-.085-.049-.075L0 267.296l2.463-1.27.032-.016.028-.024 7.331-5.966 4.542.534.31.038.068-.311 1.636-7.918 2.171-3.252.044-.068.012-.082.535-4.266 9.262-7.348.276-.22-.227-.271-4.055-4.86V224.574l-.064-.09-7.95-11.233-1.089-5.709-.017-.077-.047-.066-2.403-3.199.284-3.532 5.144-2.567 3.707-3.893 3.157 2.781 1.11 5.745 1.113-3.893 4.454-5.929 16.876.186-.925 3.334 6.305 4.263 16.506-7.042 1.3-14.084 9.088 3.52 8.161-2.779 5.38 2.594 8.343 12.417-5.008 3.52 13.728 12.417 8.9 1.48v-18.53l12.616 2.224 2.225-8.338 7.42 2.223 5.563-.927-1.855-4.446 2.038-2.781 6.865-1.667-4.45-5.189-.371-5.375-3.712 1.853-2.04-3.705 5.193-5.004-3.523-4.262 18.176-9.265 6.123-.372-5.751 5.188.926 4.264 3.895-3.521h3.895v8.338l5.75-5.558-3.152-10.749 5.75-5.003 10.013.741-4.261 4.262 2.964 2.781 2.411-2.596 2.598 2.225 2.968-3.893 5.748-.555 5.937 2.964 4.821-1.482 2.599-9.079 7.231-8.896 10.575-6.857 7.42.741 7.414 7.043 10.205-5.746 1.891-3.664 15.779 11.825v6.93zm-39.76-19.926l.938-2.653 3.121-.622.934 3.275-2.649 1.558-2.344-1.558zm-95.354-4.835l-2.187-4.678 3.747.156.467-3.12h3.121l1.56-2.649 5.775.469 2.964-3.277 2.655 5.769-4.059 7.486-14.043-.156zm2.804 27.286l4.531.624 2.338 5.303-6.869 3.587-7.335 1.558v-6.55l1.406-1.558 2.498-3.743 3.431.779zm-11.389-51.924l.933-3.43 2.966 1.091-1.089 2.963-2.81-.624zm1.716 57.382h-2.965l-1.249-5.768 1.872-1.872 2.965 2.495-.623 5.145zm-15.608 10.605l-2.808.779-3.277-2.028-1.405-3.273 7.179.934.311 3.588zm16.857-41.947l-.155 7.018-6.087-1.248-3.28-4.99-3.587.936 4.37 5.146 5.459 1.559 2.499 2.495-2.499 2.806-3.743-.779-3.121 5.145-4.058-.467.466 5.925-5.619.468-6.086-1.715-1.093-4.211-2.961-3.742-.626-5.456.466-5.302 6.557-.624 5.464 4.522 1.871-2.183-3.432-3.587.467-3.898 5.774.936 3.744-2.65 7.178.466 2.032 3.43zm-32.308 22.454l-3.744-4.366-.938-4.21 4.214 2.495 2.81 5.147-2.342.934zm-84.781 52.528l-4.278-3.394 1.664-4.166 2.854.418 2.379 1.487-.655 2.559-1.964 3.096zM7.95 197.172l.415-1.608 1.663-2.56 2.974.12 1.07 2.856-4.757 2.916-1.365-1.724zm121.003 242.344l6.003-3.928 6.169-2.464 4.957 4.02.228.187.219-.196 2.642-2.344 3.927 3.616.243.227.231-.234 3.732-3.726 8.684.308 5.667 4.402.147.119.184-.068 10.999-4.083 3.683 3.067.163.14.2-.093 15.232-6.973 4.367.933.096.021.096-.037 5.112-1.914.267-.099-.048-.28-.598-3.584 23.513-12.216 3.5 3.787-5.655 12.245-.04.083.008.096.619 5.842-4.282 2.444-.185.103.013.216.319 5.426.019.328H239.434l4.369 6.55.113.168.196-.012 5.116-.323.119-.009.091-.079 7.991-7.345.079-.07.023-.104 1.219-5.161h6.01l.095-.195 1.804-3.604 3.695.57 3.704 11.408-2.331 2.328-9.794 1.579-.454.072.198.414 2.455 5.216-3.676 3.983-.066.072-.021.104-.942 5.335-5.691 6.63-.183.216.176.223 2.39 2.987-3.675 4.895-.068.092V487.538l.192.1 10.152 5.067 8.117 11.236-6.688 10.176-3.816.498-7.048-2.226-3.71 1.855-5.193-2.408-8.348 3.333-21.143-21.866-17.065-16.862-11.684 1.85-9.647-3.333-12.639 6.491-7.882-11.809 2.783-3.936.215-.311-.328-.187-4.948-2.828-.715-9.529-.032-.406-.39.095-4.856 1.152-3.029-5.358-.173-.3-.299.168-6.333 3.516-3.5-3.496 2.263-3.163.203-.291-.294-.198-7.588-5.052zm147.775 59.704l10.583.187 4.853 3.917.143.119.18-.064 14.051-4.737-1.352 5.454-5.161 2.365-9.463 10.562-1.667 5.192-12.611 6.113-5.934-5.188-5.548-8.76 6.721-10.223 5.205-4.937zm38.507 56.718l-3.895-6.67.71-21.631 5.699-1.256.43-.096-.2-.395-2.186-4.365 2.822-3.697 11.254-.748.091-.009.075-.048 6.849-4.561.171-.115-.019-.208-.723-6.662 4.765-.18.287-.009.041-.287 1.525-10.45.051-.362-.366-.028-6.714-.563-4.214-4.561 7.099-5.318 6.337 4.525.927 4.617.039.208.208.055 3.811 1.08 2.59 19.299-3.895 16.491-2.78 31.506-5.752 11.488-9.646 7.783-13.353-.183-7.79 7.412-.371-5.375-14.095-14.453 5.008-10.934 15.21-1.3zm-28.168-385.253l4.359.654 3.276 5.788.159.283.292-.139 6.852-3.298 6.329 2.023.187.061.149-.132 4.821-4.309 7.375-.509.13-.008.097-.098 5.391-5.632 7.635 11.084.079.114.136.029 4.761 1 3.317 8.67.095.244.26-.025 5.574-.504 3.448 3.2 1.023 5.351.028.157.142.079 5.357 3.018 1.408 5.873 1.3 8.339-.37 4.078-5.567.927-7.974-10.935-1.855 5.56-3.895.184-6.865 9.822-1.108 8.34 3.523 11.304 1.113 19.086 4.08 3.893 3.895-4.819 4.448 3.336-4.265 5.559-5.376 2.04-1.485 10.561-5.933 6.673-4.083-3.521 4.266-6.117-5.751.186-6.305 5.559-8.162 2.596 1.485 9.449-4.638 1.112-3.34 2.781-4.963 3.271-3.31-5.779-.096-.173H291.494l-.093.067-5.215 3.837-2.359-4.716 3.121-5.674.059-.11-.023-.123-1.457-7.286-.04-.195-.192-.063-13.13-4.373-.159-.056-.139.095-5.799 3.86-12.567-26.055 1.241-6.21 8.673-6.115.247-.175-.14-.268-3.236-6.222 7.992-7.486 7.38-.763.132-.014.087-.1 4.395-4.905.075-.084.008-.115.779-8.52.015-.173-.132-.114-4.8-4.292-.252-5.28-.003-.097-.053-.077-2.942-4.404 3.665-3.414.239-.224-.211-.25-3.923-4.653 9.274-8.514 4.335-1.784.095-.039.06-.085 3.359-4.906.113-.163-.088-.18-2.818-5.868zm56.917 262.021l-3.525-9.263-10.941-5.932-5.939-13.53-5.934-4.445.926-4.263 2.969.742 1.855-2.409-3.34-5.003-6.118-4.262.743-3.521 3.336-1.484 4.82 6.117 10.388 7.224 7.607 14.271 16.506 14.824 23.369 15.754-10.388.553-5.563 3.15 2.598 7.601 4.637 11.858 7.231 5.192 6.306 2.778h5.939l4.078 8.525-5.008-2.595-2.04.924-5.38.371.932 5.746-.56 7.599-6.86-8.712-.93-6.67-6.676-3.15-1.485-4.263-1.667-4.816-5.38-4.079-4.638-7.596-6.488-10.379-5.38-6.857zm-12.056-9.45l3.153 15.382 3.523 4.263 10.76 21.865 2.41 6.855-1.689 21.858-3.395-.961-.911-4.542-.027-.136-.113-.079-6.656-4.75-.203-.146-.204.151-7.606 5.702-.308.227.26.283 4.565 4.94.092.096.132.012 6.481.542-1.429 9.801-4.844.18-.372.015.04.368.738 6.821-6.597 4.395-11.317.752-.156.009-.095.127-3.042 3.992-.132.168.096.195 2.084 4.162-5.22 1.148-3.017-8.628 1.851-5.934-4.94-8.066 1.516-6.128.152-.61-.595.2-14.466 4.88-4.797-3.872-.092-.071-.119-.004-10.839-.187-.14-.004-.104.095-5.053 4.789-8.077-11.176-.047-.068-.076-.04-10.037-5.012v-6.061l3.763-5.016.16-.211-.164-.206-2.378-2.971 5.567-6.492.059-.072.017-.091.942-5.331 3.768-4.075.155-.172-.095-.21-2.364-5.013 9.454-1.523.113-.021.079-.074 2.554-2.557.152-.147-.068-.2-3.836-11.813-.064-.208-.211-.032-4.154-.638-.247-.036-.113.223-1.823 3.641h-6.133l-.06.268-1.257 5.326-7.818 7.189-4.793.299-4.367-6.544-.104-.151h-9.765l-.287-4.888 4.291-2.449.191-.11-.021-.224-.63-5.972 5.711-12.368.099-.213-.155-.167-3.835-4.151-.184-.194-.231.123-11.633 6.045-2.829-7.968 3.942-4.217.148-.16-.08-.204-1.751-4.374-.04-.1-.092-.059-7.324-4.785 3.944-7.596.138-.266-.251-.176-7.271-5.028 3.253-3.791.084-.097v-16.793l14.362-5.455.204-.076.02-.215.559-6.412 8.456-.561.224-.017.076-.211 2.043-5.538.023-.064-.004-.072-.279-5.308 4.167-1.94.264-.124-.081-.28-3.208-11.371-.032-.115-.104-.072-5.631-3.939 3.727-13.176.028-.106-.039-.108-5.184-13.813 2.649-3.438 9.977 3.416.092.03.091-.019 6.714-1.459.151-.03.076-.133 2.251-3.938 7.709-1.139.22-.033.064-.217 1.421-5.124 5.882-3.916 12.774 4.254 1.398 6.971-3.149 5.718-.089.158.085.161 2.625 5.249.184.364.327-.241 5.452-4.013h6.397l3.228 5.642-2.613 1.722 1.668 2.594-.56 2.222-5.933-1.109-18.733 18.347 1.297 8.525-2.965 7.966 2.223 8.895-2.595 10.75-2.226 22.237-8.904 22.236-.371 6.488 6.865 1.109 8.161-5.001 3.895 11.305 4.637-5.934 4.078 5.192 3.341-14.642 9.645-5.004 12.428 2.226 5.933 2.408-2.414 4.82 2.786 3.333 8.041 3.322.492.2.262.629 2.148 5.116zm106.676 60.099l2.722-1.279 1.76 1.12-.319 2.512-1.656 1.922-.531 9.613-1.337.589-1.278-3.632.481-5.45-1.334-4.219 1.492-1.176zm2.69-136.826l3.068-1.981 1.534 2.524-1.353 3.425-2.798-1.802-.451-2.166zm7.965 110.112l-.247-2.827 2.706.123.862 3.565-1.968 3.077-2.585 3.69-.248 4.058-.738 5.044-.492 3.816-1.232-.614-.985-6.642-.244-8.247 3.324-3.445 1.847-1.598zm1.668 27.675l1.494 2.085.586 2.883-2.718.96-.909-2.081.056-2.404 1.491-1.443zm2.994-125.98l-3.064 1.444-3.338-4.328.719-8.559 2.619.721 2.434 2.253.63 8.469zm-2.526-17.122l2.977 2.612-1.624 1.802-3.065-1.168.451-2.073 1.261-1.173zm1.624 24.689l5.503 2.436-.543 2.07-3.967 1.802-1.445-3.154.452-3.154zm5.966 70.319l.491 6.272-2.214 6.4h-2.71l-.124-2.585-.125-5.661-.119-5.411 2.583-2.584 2.218 3.569zm-2.338-42.444l1.477-2.827 1.723.243 1.725 3.202-2.71 2.579-2.215-3.197zm5.291 14.765l-2.091.738-1.476-2.461 1.353-2.831 2.71.614-.496 3.94zm-1.723 4.673l2.957.861 1.723 4.797-5.171 1.355-1.724-4.677 2.215-2.336z"/></svg>