<svg xmlns="http://www.w3.org/2000/svg" width="120" height="120"><path fill-rule="evenodd" opacity=".702" fill="#FFF" d="M109.999 114.997h-7.5a2.5 2.5 0 0 1-2.5-2.502V99.987H77.818l1.448 1.448a2.504 2.504 0 0 1 0 3.538L64.98 119.267a2.501 2.501 0 0 1-3.535 0l-19.269-19.28H17.495c-4.142 0-7.5-3.36-7.5-7.505V67.786L.727 58.513a2.502 2.502 0 0 1 0-3.537l9.268-9.274V27.441a7.503 7.503 0 0 1 7.5-7.505h58.6L93.931 2.09a7.561 7.561 0 0 1 10.448 0l3.455 3.457a7.391 7.391 0 0 1 0 10.454l-3.932 3.935h6.097c5.524 0 10.001 4.48 10.001 10.006v75.048c0 5.527-4.477 10.007-10.001 10.007zM14.995 92.482a2.5 2.5 0 0 0 2.5 2.502h19.681L14.995 72.79v19.692zM6.03 56.744l57.182 57.217 10.751-10.757-6.82-6.824-5.377 5.381-3.536-3.537 5.378-5.381-6.47-6.474-5.378 5.381-3.535-3.538 5.377-5.381-6.462-6.465-5.375 5.378-3.535-3.538 5.374-5.378-6.464-6.469-5.375 5.378-3.536-3.538 5.375-5.377-6.468-6.473-5.378 5.382-3.536-3.538 5.378-5.381-6.82-6.824L6.03 56.744zm55.187-14.847l6.833 6.837 27.57-27.586-6.832-6.836-27.571 27.585zm-2.437 4.636l-2.323 6.972 6.965-2.327-4.642-4.645zm45.522-34.072a2.39 2.39 0 0 0 .001-3.378l-.001-.002-3.458-3.454a2.441 2.441 0 0 0-3.375 0l-5.145 5.147 6.832 6.836 5.146-5.149zM115 29.942a5.002 5.002 0 0 0-5.001-5.003H98.901L69.818 54.04c-.28.28-.624.477-.993.598l.005.015-.915.305h22.084v5.003H52.497a2.5 2.5 0 0 1-2.373-3.292l5.185-15.562.011.003c.118-.358.31-.696.594-.981l15.181-15.19h-53.6a2.5 2.5 0 0 0-2.5 2.502v13.258l.018-.017a2.498 2.498 0 0 1 3.535 0l54.27 54.302h37.181A9.94 9.94 0 0 1 115 96.333V29.942zm-5.001 70.045h-5v10.006h5A5.002 5.002 0 0 0 115 104.99a5.002 5.002 0 0 0-5.001-5.003zm-5-45.029h5v5.003h-5v-5.003zm-10 0h5v5.003h-5v-5.003z"/></svg>