<svg xmlns="http://www.w3.org/2000/svg" width="66" height="90"><path fill-rule="evenodd" fill="#563072" d="M63.516 24.586c-.181.181-.38.342-.576.498.196.156.395.317.576.498a6.36 6.36 0 0 1 0 8.991c-.181.181-.38.342-.576.498.196.156.395.318.576.498a6.362 6.362 0 0 1 0 8.992c-.181.18-.38.342-.576.498.196.156.395.317.576.498a6.36 6.36 0 0 1 0 8.991 6.348 6.348 0 0 1-4.885 1.834l.006 1.117a4.636 4.636 0 0 1-1.368 3.286 4.632 4.632 0 0 1-3.292 1.367h-1.143a11.987 11.987 0 0 1-3.321 6.377 11.917 11.917 0 0 1-9.471 3.468l-3.033 3.028 1.997 1.994L26.004 90 0 64.038l13.002-12.981 1.997 1.994 1.798-1.795-.044-21.442a2.072 2.072 0 0 1 .019-.468 6.342 6.342 0 0 1 1.734-5.759c1.671-1.668 4.044-2.185 6.174-1.609l.001-17.322a4.66 4.66 0 0 1 4.66-4.652h24.636a4.663 4.663 0 0 1 4.66 4.652l-.006 7.515.001 1.589a6.34 6.34 0 0 1 4.884 1.835 6.36 6.36 0 0 1 0 8.991zM26.009 86.008l9.002-8.988-8.471-8.456c.128 2.896-.902 5.827-3.111 8.032l-3.423 3.418 6.003 5.994zM13.001 55.046l-9.002 8.987 14.004 13.981 3.423-3.418c3.077-3.072 3.077-8.066.005-11.133l-8.43-8.417zm4.001.005l18.004 17.974 4.01-4.003.704.098c2.896.405 5.739-.532 7.796-2.585a9.129 9.129 0 0 0 2.436-4.385H29.34a4.667 4.667 0 0 1-3.292-1.364 4.631 4.631 0 0 1-1.367-3.287V38.743l-5.089-5.081.032 17.697c.025.15.034.239.04.322l.059.653-2.721 2.717zm8.367-29.576l-.464-.366c-1.368-.869-3.21-.718-4.402.472a3.532 3.532 0 0 0 0 4.994l10.004 9.987a3.538 3.538 0 0 0 5.001 0 3.529 3.529 0 0 0 0-4.994l-10.003-9.987c-.039-.039-.093-.072-.136-.106zM55.804 4.657a1.98 1.98 0 0 0-.142-.708c-.045-.103-.127-.175-.181-.269a1.983 1.983 0 0 0-.531-.53c-.094-.054-.168-.138-.269-.181a1.99 1.99 0 0 0-.709-.141l-24.632.003a1.825 1.825 0 0 0-1.832 1.829v4.692l28.296-.004V4.657zm-28.296 7.514v11.42l9.998 9.982c2.482 2.478 2.488 6.511.005 8.989-2.48 2.477-6.524 2.477-9.006-.001l-.996-.994-.001 15.926c0 1.016.82 1.835 1.832 1.829h23.758l.874.006a1.839 1.839 0 0 0 1.832-1.829l.001-45.323-28.297-.005zm31.129 41.388a3.536 3.536 0 0 0 2.882-1.005 3.532 3.532 0 0 0-2.882-6.008v7.013zm0-9.987a3.536 3.536 0 0 0 2.882-1.005 3.532 3.532 0 0 0-2.882-6.009v7.014zm0-9.987a3.536 3.536 0 0 0 2.882-1.005 3.532 3.532 0 0 0-2.882-6.009v7.014zm2.882-15.986a3.519 3.519 0 0 0-2.882-1.015v7.013a3.533 3.533 0 0 0 2.882-1.005 3.53 3.53 0 0 0 0-4.993zM46.015 56.046c-2.207 2.203-5.803 2.203-8.005.005a5.659 5.659 0 0 1-.001-7.999c2.203-2.199 5.798-2.198 8.007.007a5.652 5.652 0 0 1-.001 7.987zm-2.001-5.989a2.836 2.836 0 0 0-4.002-.005 2.827 2.827 0 0 0 .002 3.999 2.836 2.836 0 0 0 3.998-.005 2.822 2.822 0 0 0 .002-3.989zM40.012 4.7l4.002-.005c.78 0 1.415.634 1.415 1.413 0 .782-.635 1.416-1.417 1.415l-4.005.001a1.435 1.435 0 0 1-1.001-.416 1.413 1.413 0 0 1-.41-.993A1.405 1.405 0 0 1 40.012 4.7zM20.505 71.529a4.969 4.969 0 0 1-7.005 0 4.948 4.948 0 0 1 0-6.994 4.964 4.964 0 0 1 7.005 0 4.945 4.945 0 0 1 0 6.994zm-2.004-4.994a2.122 2.122 0 0 0-2.998 0 2.12 2.12 0 0 0 0 2.994 2.127 2.127 0 0 0 2.998 0 2.114 2.114 0 0 0 0-2.994z"/></svg>