<svg xmlns="http://www.w3.org/2000/svg" width="64" height="64" viewBox="0 0 64 64"><g transform="translate(-402 -1480)"><g transform="translate(402 1480)" fill="none" opacity="0.3"><path d="M32,0A32,32,0,1,1,0,32,32,32,0,0,1,32,0Z" stroke="none"/><path d="M 32 2 C 27.94915008544922 2 24.0205192565918 2.792919158935547 20.32326126098633 4.356731414794922 C 16.75112152099609 5.867618560791016 13.5425910949707 8.030998229980469 10.78680038452148 10.78680038452148 C 8.030998229980469 13.5425910949707 5.867618560791016 16.75112152099609 4.356731414794922 20.32326126098633 C 2.792919158935547 24.0205192565918 2 27.94915008544922 2 32 C 2 36.05084991455078 2.792919158935547 39.9794807434082 4.356731414794922 43.67674255371094 C 5.867618560791016 47.24887847900391 8.030998229980469 50.4574089050293 10.78680038452148 53.21319961547852 C 13.5425910949707 55.96900177001953 16.75112152099609 58.13238143920898 20.32326126098633 59.64326858520508 C 24.0205192565918 61.20708084106445 27.94915008544922 62 32 62 C 36.05084991455078 62 39.9794807434082 61.20708084106445 43.67674255371094 59.64326858520508 C 47.24887847900391 58.13238143920898 50.4574089050293 55.96900177001953 53.21319961547852 53.21319961547852 C 55.96900177001953 50.4574089050293 58.13238143920898 47.24887847900391 59.64326858520508 43.67674255371094 C 61.20708084106445 39.9794807434082 62 36.05084991455078 62 32 C 62 27.94915008544922 61.20708084106445 24.0205192565918 59.64326858520508 20.32326126098633 C 58.13238143920898 16.75112152099609 55.96900177001953 13.5425910949707 53.21319961547852 10.78680038452148 C 50.4574089050293 8.030998229980469 47.24887847900391 5.867618560791016 43.67674255371094 4.356731414794922 C 39.9794807434082 2.792919158935547 36.05084991455078 2 32 2 M 32 0 C 49.67311096191406 0 64 14.32688903808594 64 32 C 64 49.67311096191406 49.67311096191406 64 32 64 C 14.32688903808594 64 0 49.67311096191406 0 32 C 0 14.32688903808594 14.32688903808594 0 32 0 Z" stroke="none" fill="#602c75"/></g><path d="M221.9,285.89H221.5a13.121,13.121,0,0,0-1.111-2.68l.291-.291a2.087,2.087,0,0,0,0-2.945l-2.2-2.2a2.083,2.083,0,0,0-2.948,0l-.29.292a13.021,13.021,0,0,0-2.679-1.114v-.408a2.087,2.087,0,0,0-2.084-2.084h-3.114a2.087,2.087,0,0,0-2.084,2.084v.408a13.092,13.092,0,0,0-2.682,1.114l-.289-.29a2.082,2.082,0,0,0-2.948,0l-2.2,2.2a2.086,2.086,0,0,0,0,2.944l.291.291a13.093,13.093,0,0,0-1.112,2.68h-.41a2.086,2.086,0,0,0-2.084,2.084v3.116a2.087,2.087,0,0,0,2.084,2.084h.41a13.093,13.093,0,0,0,1.112,2.68l-.291.291a2.087,2.087,0,0,0,0,2.945l2.2,2.2a2.085,2.085,0,0,0,2.949,0l.29-.291a12.93,12.93,0,0,0,2.682,1.112v.41a2.085,2.085,0,0,0,2.083,2.084h3.115a2.086,2.086,0,0,0,2.084-2.084v-.41A12.934,12.934,0,0,0,215.236,301l.288.288a2.083,2.083,0,0,0,2.948,0l2.205-2.2a2.087,2.087,0,0,0,0-2.945l-.291-.291a13.1,13.1,0,0,0,1.111-2.68h.408a2.087,2.087,0,0,0,2.084-2.084v-3.116A2.086,2.086,0,0,0,221.9,285.89Zm-3.425,10.8.824.825a.137.137,0,0,1,.039.1.141.141,0,0,1-.039.1l-2.207,2.2a.141.141,0,0,1-.2,0l-.823-.823a.966.966,0,0,0-1.206-.134,11.1,11.1,0,0,1-2.314,1.112v-3.72a8,8,0,0,0,1.095-13.871c-.343-.236-1.387-.949-2.316-.415-.912.526-.822,1.736-.784,2.251l0,.044c0,.023,0,.041,0,.052v4.229a1.652,1.652,0,1,1-3.287,0v-4.22l0-.058,0-.047c.039-.516.13-1.724-.782-2.251a2.27,2.27,0,0,0-2.318.415,8,8,0,0,0,1.1,13.871v3.72a11.126,11.126,0,0,1-2.317-1.112.973.973,0,0,0-1.206.134l-.825.825a.14.14,0,0,1-.2,0l-2.2-2.2a.146.146,0,0,1,0-.2l.823-.824a.966.966,0,0,0,.134-1.2,11.033,11.033,0,0,1-1.45-3.5.968.968,0,0,0-.948-.759h-1.163a.147.147,0,0,1-.142-.141v-3.116a.145.145,0,0,1,.142-.142h1.163a.967.967,0,0,0,.948-.759,11.043,11.043,0,0,1,1.45-3.5.966.966,0,0,0-.134-1.205l-.824-.824a.147.147,0,0,1,0-.2l2.2-2.2a.14.14,0,0,1,.2,0l.823.823a.963.963,0,0,0,1.206.134,11.128,11.128,0,0,1,3.5-1.454.965.965,0,0,0,.758-.947v-1.16a.143.143,0,0,1,.141-.142h3.114a.143.143,0,0,1,.141.142v1.16a.965.965,0,0,0,.758.947,11.128,11.128,0,0,1,3.5,1.454.966.966,0,0,0,1.206-.134l.825-.825a.137.137,0,0,1,.2,0l2.205,2.2a.146.146,0,0,1,.039.1.144.144,0,0,1-.039.1l-.824.823a.966.966,0,0,0-.133,1.205,11.138,11.138,0,0,1,1.451,3.5.965.965,0,0,0,.947.757h1.161a.145.145,0,0,1,.141.142v3.116a.147.147,0,0,1-.142.141h-1.16a.968.968,0,0,0-.948.757,11.126,11.126,0,0,1-1.451,3.5A.966.966,0,0,0,218.48,296.694Zm-7.866-.983v6.824a.144.144,0,0,1-.141.129h-3.114a.143.143,0,0,1-.142-.141v-6.812a.976.976,0,0,0-.634-.911,6.063,6.063,0,0,1-1.311-10.714c.027-.019.053-.035.078-.052,0,.059-.007.109-.009.141-.007.093-.013.167-.013.24v4.229a3.785,3.785,0,0,0,3.525,3.766c.042,0,.084,0,.127,0a3.783,3.783,0,0,0,3.52-3.766v-4.229c0-.068,0-.138-.012-.238,0-.033-.006-.083-.009-.143l.077.052a6.063,6.063,0,0,1-1.309,10.714A.978.978,0,0,0,210.614,295.711Z" transform="translate(225.161 1222.543)" fill="#602c75"/></g></svg>