<svg xmlns="http://www.w3.org/2000/svg" width="22" height="22"><path fill-rule="evenodd" fill="#FFF" d="M15.928 21.999H6.07a6.077 6.077 0 0 1-6.071-6.071V6.07A6.077 6.077 0 0 1 6.07-.001h9.858A6.078 6.078 0 0 1 22 6.07v9.858a6.079 6.079 0 0 1-6.072 6.071zm4.12-15.929a4.124 4.124 0 0 0-4.12-4.119H6.07A4.123 4.123 0 0 0 1.951 6.07v9.858a4.123 4.123 0 0 0 4.119 4.119h9.858a4.124 4.124 0 0 0 4.12-4.119V6.07zm-3.142.468c-.376 0-.746-.154-1.011-.419a1.442 1.442 0 0 1-.42-1.012c0-.378.153-.748.42-1.013a1.434 1.434 0 0 1 2.443 1.013c0 .375-.153.745-.42 1.012a1.444 1.444 0 0 1-1.012.419zm-5.907 10.13a5.675 5.675 0 0 1-5.669-5.669 5.675 5.675 0 0 1 5.669-5.669 5.676 5.676 0 0 1 5.67 5.669 5.676 5.676 0 0 1-5.67 5.669zm0-9.386a3.722 3.722 0 0 0-3.717 3.717 3.72 3.72 0 0 0 3.717 3.716 3.72 3.72 0 0 0 3.718-3.716 3.722 3.722 0 0 0-3.718-3.717z"/></svg>