<svg xmlns="http://www.w3.org/2000/svg" width="64" height="64" viewBox="0 0 64 64"><g transform="translate(-402 -1480)"><g transform="translate(402 1480)" fill="none" stroke="#602c75" stroke-width="2" opacity="0.3"><circle cx="32" cy="32" r="32" stroke="none"/><circle cx="32" cy="32" r="31" fill="none"/></g><g transform="translate(177.9 1256.123)"><path d="M268.867,249.137v-.027c-.012-.287-.021-.59-.026-.928a3.306,3.306,0,0,0-3.112-3.238,12.244,12.244,0,0,1-8.34-3.526,2.052,2.052,0,0,0-2.8.022,12.223,12.223,0,0,1-8.317,3.5,3.306,3.306,0,0,0-3.112,3.238c0,.336-.014.639-.027.93l0,.058c-.067,3.527-.15,7.916,1.322,11.911a15.246,15.246,0,0,0,3.654,5.692,19.1,19.1,0,0,0,7.14,4.224,2.52,2.52,0,0,0,.307.084,2.4,2.4,0,0,0,.446.043,2.275,2.275,0,0,0,.755-.128,19.1,19.1,0,0,0,7.131-4.225,15.261,15.261,0,0,0,3.655-5.694C269.019,257.067,268.935,252.67,268.867,249.137Zm-3.214,11.245c-1.53,4.15-4.658,7-9.566,8.718a.212.212,0,0,1-.034.008.258.258,0,0,1-.107,0,.357.357,0,0,1-.039-.011c-4.909-1.711-8.039-4.561-9.569-8.711-1.341-3.64-1.265-7.645-1.2-11.2.014-.3.023-.626.028-.977a1.287,1.287,0,0,1,1.214-1.26,15.6,15.6,0,0,0,5.284-1.163,13.8,13.8,0,0,0,4.3-2.89.049.049,0,0,1,.031-.013.034.034,0,0,1,.02.007,13.842,13.842,0,0,0,4.31,2.9,15.6,15.6,0,0,0,5.285,1.163,1.286,1.286,0,0,1,1.213,1.26c.006.354.015.674.028.975C266.925,252.721,267,256.728,265.653,260.382Z" fill="#602c75"/><path d="M256,248.4a7.6,7.6,0,1,0,7.6,7.6A7.611,7.611,0,0,0,256,248.4Zm5.591,7.6A5.591,5.591,0,1,1,256,250.409,5.6,5.6,0,0,1,261.59,256Z" fill="#602c75"/><path d="M258.059,253.59l-3.384,3.385-.854-.854a1.006,1.006,0,0,0-1.422,1.422l1.565,1.564a1.007,1.007,0,0,0,1.422,0l4.095-4.1a1.006,1.006,0,0,0-1.422-1.422Z" fill="#602c75"/></g></g></svg>