<svg xmlns="http://www.w3.org/2000/svg" width="64" height="64" viewBox="0 0 64 64"><g transform="translate(-402 -1480)"><g transform="translate(402 1480)" fill="none" opacity="0.3"><path d="M32,0A32,32,0,1,1,0,32,32,32,0,0,1,32,0Z" stroke="none"/><path d="M 32 2 C 27.94915008544922 2 24.0205192565918 2.792919158935547 20.32326126098633 4.356731414794922 C 16.75112152099609 5.867618560791016 13.5425910949707 8.030998229980469 10.78680038452148 10.78680038452148 C 8.030998229980469 13.5425910949707 5.867618560791016 16.75112152099609 4.356731414794922 20.32326126098633 C 2.792919158935547 24.0205192565918 2 27.94915008544922 2 32 C 2 36.05084991455078 2.792919158935547 39.9794807434082 4.356731414794922 43.67674255371094 C 5.867618560791016 47.24887847900391 8.030998229980469 50.4574089050293 10.78680038452148 53.21319961547852 C 13.5425910949707 55.96900177001953 16.75112152099609 58.13238143920898 20.32326126098633 59.64326858520508 C 24.0205192565918 61.20708084106445 27.94915008544922 62 32 62 C 36.05084991455078 62 39.9794807434082 61.20708084106445 43.67674255371094 59.64326858520508 C 47.24887847900391 58.13238143920898 50.4574089050293 55.96900177001953 53.21319961547852 53.21319961547852 C 55.96900177001953 50.4574089050293 58.13238143920898 47.24887847900391 59.64326858520508 43.67674255371094 C 61.20708084106445 39.9794807434082 62 36.05084991455078 62 32 C 62 27.94915008544922 61.20708084106445 24.0205192565918 59.64326858520508 20.32326126098633 C 58.13238143920898 16.75112152099609 55.96900177001953 13.5425910949707 53.21319961547852 10.78680038452148 C 50.4574089050293 8.030998229980469 47.24887847900391 5.867618560791016 43.67674255371094 4.356731414794922 C 39.9794807434082 2.792919158935547 36.05084991455078 2 32 2 M 32 0 C 49.67311096191406 0 64 14.32688903808594 64 32 C 64 49.67311096191406 49.67311096191406 64 32 64 C 14.32688903808594 64 0 49.67311096191406 0 32 C 0 14.32688903808594 14.32688903808594 0 32 0 Z" stroke="none" fill="#602c75"/></g><g transform="translate(177.75 1257.75)"><circle cx="1.25" cy="1.25" r="1.25" transform="translate(262.875 249.875)" fill="#602c75"/><path d="M266,242.75h-.875v-1.5a1,1,0,0,0-2,0v1.5h-6.188v-1.5a1,1,0,0,0-2,0v1.5h-6.125v-1.5a1,1,0,0,0-2,0v1.5H246a4.756,4.756,0,0,0-4.75,4.75V264a4.756,4.756,0,0,0,4.75,4.75h8.562a1,1,0,1,0,0-2H246a2.752,2.752,0,0,1-2.75-2.75V247.5a2.752,2.752,0,0,1,2.75-2.75h.812v1.5a1,1,0,0,0,2,0v-1.5h6.125v1.5a1,1,0,0,0,2,0v-1.5h6.188v1.5a1,1,0,0,0,2,0v-1.5H266a2.752,2.752,0,0,1,2.75,2.75v7.125a1,1,0,0,0,2,0V247.5A4.756,4.756,0,0,0,266,242.75Z" fill="#602c75"/><path d="M264.437,257.125a7.313,7.313,0,1,0,7.313,7.313A7.32,7.32,0,0,0,264.437,257.125Zm0,12.625a5.313,5.313,0,1,1,5.313-5.312A5.318,5.318,0,0,1,264.437,269.75Z" transform="translate(-1 -3)" fill="#602c75"/><path d="M266.25,263.438h-.813v-1.563a1,1,0,0,0-2,0v2.563a1,1,0,0,0,1,1h1.813a1,1,0,0,0,0-2Z" transform="translate(-1 -3)" fill="#602c75"/><circle cx="1.25" cy="1.25" r="1.25" transform="translate(257.438 249.875)" fill="#602c75"/><circle cx="1.25" cy="1.25" r="1.25" transform="translate(252 255.313)" fill="#602c75"/><circle cx="1.25" cy="1.25" r="1.25" transform="translate(246.563 249.875)" fill="#602c75"/><circle cx="1.25" cy="1.25" r="1.25" transform="translate(246.563 255.313)" fill="#602c75"/><circle cx="1.25" cy="1.25" r="1.25" transform="translate(246.563 260.75)" fill="#602c75"/><circle cx="1.25" cy="1.25" r="1.25" transform="translate(252 260.75)" fill="#602c75"/><circle cx="1.25" cy="1.25" r="1.25" transform="translate(252 249.875)" fill="#602c75"/></g></g></svg>