<svg xmlns="http://www.w3.org/2000/svg" width="64" height="64" viewBox="0 0 64 64"><g transform="translate(-402 -1480)"><g transform="translate(402 1480)" fill="none" opacity="0.3"><path d="M32,0A32,32,0,1,1,0,32,32,32,0,0,1,32,0Z" stroke="none"/><path d="M 32 2 C 27.94915008544922 2 24.0205192565918 2.792919158935547 20.32326126098633 4.356731414794922 C 16.75112152099609 5.867618560791016 13.5425910949707 8.030998229980469 10.78680038452148 10.78680038452148 C 8.030998229980469 13.5425910949707 5.867618560791016 16.75112152099609 4.356731414794922 20.32326126098633 C 2.792919158935547 24.0205192565918 2 27.94915008544922 2 32 C 2 36.05084991455078 2.792919158935547 39.9794807434082 4.356731414794922 43.67674255371094 C 5.867618560791016 47.24887847900391 8.030998229980469 50.4574089050293 10.78680038452148 53.21319961547852 C 13.5425910949707 55.96900177001953 16.75112152099609 58.13238143920898 20.32326126098633 59.64326858520508 C 24.0205192565918 61.20708084106445 27.94915008544922 62 32 62 C 36.05084991455078 62 39.9794807434082 61.20708084106445 43.67674255371094 59.64326858520508 C 47.24887847900391 58.13238143920898 50.4574089050293 55.96900177001953 53.21319961547852 53.21319961547852 C 55.96900177001953 50.4574089050293 58.13238143920898 47.24887847900391 59.64326858520508 43.67674255371094 C 61.20708084106445 39.9794807434082 62 36.05084991455078 62 32 C 62 27.94915008544922 61.20708084106445 24.0205192565918 59.64326858520508 20.32326126098633 C 58.13238143920898 16.75112152099609 55.96900177001953 13.5425910949707 53.21319961547852 10.78680038452148 C 50.4574089050293 8.030998229980469 47.24887847900391 5.867618560791016 43.67674255371094 4.356731414794922 C 39.9794807434082 2.792919158935547 36.05084991455078 2 32 2 M 32 0 C 49.67311096191406 0 64 14.32688903808594 64 32 C 64 49.67311096191406 49.67311096191406 64 32 64 C 14.32688903808594 64 0 49.67311096191406 0 32 C 0 14.32688903808594 14.32688903808594 0 32 0 Z" stroke="none" fill="#602c75"/></g><g transform="translate(462.715 1499.915)"><path d="M-33.211,12.426a1,1,0,0,0,.01,1.391,1,1,0,0,0,1.367-.008l2.179-2.226a.89.89,0,0,0,.1-.111.933.933,0,0,0,.17-.313l.034-.117a.7.7,0,0,0,.036-.2.936.936,0,0,0-.173-.534l-2.243-2.349a.868.868,0,0,0-.668-.278,1,1,0,0,0-.7.283.99.99,0,0,0,0,1.385l.47.48h-11.1a.982.982,0,0,0-.981.981.983.983,0,0,0,.981.982h11.108Z" fill="#602c75"/><path d="M-14.3,6.621a5.082,5.082,0,0,0-3.738-1.664l-.133,0h-3.508V3.069a.979.979,0,0,0-.968-.984H-39.85a.975.975,0,0,0-.963.981V6.03h-1.035a.982.982,0,0,0-.946,1.012.99.99,0,0,0,.96.951h2a.977.977,0,0,0,.964-.98V4.049H-23.6V17.641h-8.05l-.034-.078a2.983,2.983,0,0,0-3.859-1.543,2.948,2.948,0,0,0-1.575,1.542l-.034.079h-1.72V14.673a.963.963,0,0,0-.278-.693.971.971,0,0,0-.689-.293h-2.006a.984.984,0,0,0-.947,1.013.986.986,0,0,0,.959.951h1.023v2.96a.968.968,0,0,0,.28.692.965.965,0,0,0,.687.292h2.536l.027.094A3.06,3.06,0,0,0-34.4,21.9a3.016,3.016,0,0,0,2.873-2.207l.027-.1h10.161l.027.1A3.022,3.022,0,0,0-18.429,21.9a2.98,2.98,0,0,0,2.878-2.2l.026-.1h1.838a.974.974,0,0,0,.964-.98v-7.3A6.841,6.841,0,0,0-14.288,6.63ZM-33.338,18.846a1.084,1.084,0,0,1-1.07,1.093h-.01a1.1,1.1,0,0,1-.771-.3,1.089,1.089,0,0,1-.337-.767,1.084,1.084,0,0,1,.305-.78,1.086,1.086,0,0,1,.767-.337,1.1,1.1,0,0,1,.779.3,1.1,1.1,0,0,1,.337.789Zm15.97,0a1.077,1.077,0,0,1-1.067,1.046,1.08,1.08,0,0,1-.774-.33,1.061,1.061,0,0,1-.3-.762,1.073,1.073,0,0,1,1.063-1.045,1.094,1.094,0,0,1,1.073,1.088Zm2.712-1.2h-1.032l-.035-.077a3.065,3.065,0,0,0-2.719-1.772,3,3,0,0,0-2.712,1.771l-.034.078h-.487V6.923h3.509c2.2,0,3.51,1.639,3.51,4.385Z" fill="#602c75"/></g></g></svg>