<svg xmlns="http://www.w3.org/2000/svg" width="64" height="64" viewBox="0 0 64 64"><g transform="translate(-402 -1480)"><g transform="translate(402 1480)" fill="none" stroke="#602c75" stroke-width="2" opacity="0.3"><circle cx="32" cy="32" r="32" stroke="none"/><circle cx="32" cy="32" r="31" fill="none"/></g><g transform="translate(177.622 1175.763)"><path d="M241.335,348.741a.926.926,0,1,1-.061-1.851c.02,0,.041,0,.061,0h.175V329.357a.927.927,0,0,1,.928-.925h4.9a.929.929,0,0,1,.928.925V346.89h.84v-13.5a.928.928,0,0,1,.928-.926h4.9a.928.928,0,0,1,.928.926v13.5h1.085v-9.709a.928.928,0,0,1,.928-.926h4.9a.928.928,0,0,1,.927.926v9.709h.841v-5.8a.928.928,0,0,1,.928-.926h4.9a.928.928,0,0,1,.928.926v5.8h.175a.926.926,0,0,1,.06,1.851.6.6,0,0,1-.06,0ZM266.4,346.89h3.046v-4.868H266.4Zm-7.6,0h3.047v-8.784H258.8Zm-7.843,0h3.046V334.322h-3.046Zm-7.6,0h3.047V330.283h-3.047Z" fill="#602c75"/><path d="M270.777,332.879l-1.833-3.961a1,1,0,1,0-1.814.84l.747,1.614-16.7-7.057a1,1,0,0,0-.778,1.842l16.7,7.057-1.678.59a1,1,0,1,0,.664,1.886l4.117-1.448a1,1,0,0,0,.575-1.363Z" fill="#602c75"/></g></g></svg>