<svg xmlns="http://www.w3.org/2000/svg" width="64" height="64" viewBox="0 0 64 64"><g transform="translate(-402 -1480)"><g transform="translate(402 1480)" fill="none" stroke="#602c75" stroke-width="2" opacity="0.3"><circle cx="32" cy="32" r="32" stroke="none"/><circle cx="32" cy="32" r="31" fill="none"/></g><g transform="translate(177.95 1256.126)"><path d="M270.609,253.43l-4.052-3.576v-5.691a1,1,0,0,0-1-1h-3.516a1,1,0,0,0-1,1v.818l-4.369-3.856a1,1,0,0,0-1.329,0l-13.945,12.3a1,1,0,0,0,1.328,1.506l1.673-1.477v15.657h-.7a1,1,0,1,0,0,2.008H268.3a1,1,0,1,0,0-2.008h-.7V253.459l1.673,1.477a1.035,1.035,0,0,0,1.417-.089,1,1,0,0,0-.088-1.417Zm-7.568-6.678v-1.585h1.508v2.916ZM246.4,269.116V251.688l9.6-8.471,9.611,8.482c-.005.72-.008,6.572-.011,17.417Z" fill="#602c75"/><path d="M258.924,253.413A4.213,4.213,0,0,0,256,254.572a4.219,4.219,0,0,0-2.925-1.159,4.261,4.261,0,0,0-4.256,4.256c0,2.176,1.756,4.373,2.8,5.49,1.224,1.306,3.106,2.83,4.378,2.83,1.219,0,3.071-1.353,4.366-2.7,1.051-1.086,2.813-3.261,2.813-5.625a4.259,4.259,0,0,0-4.255-4.256Zm-2.022,3.273a2.248,2.248,0,0,1,4.269.983,6.82,6.82,0,0,1-2.237,4.219,7.323,7.323,0,0,1-2.926,2.093,7.787,7.787,0,0,1-2.955-2.231c-1.394-1.5-2.226-3.021-2.226-4.081a2.248,2.248,0,0,1,4.27-.983,1,1,0,0,0,1.805,0Z" fill="#602c75"/></g></g></svg>