<svg xmlns="http://www.w3.org/2000/svg" width="64" height="64" viewBox="0 0 64 64"><g transform="translate(-402 -1480)"><g transform="translate(402 1480)" fill="none" stroke="#602c75" stroke-width="2" opacity="0.3"><circle cx="32" cy="32" r="32" stroke="none"/><circle cx="32" cy="32" r="31" fill="none"/></g><g transform="translate(178.375 1254.155)"><path d="M270.4,261.891l-1.383-1.383,0-2.372a9.92,9.92,0,0,0-1.685-5.552l-2.751-4.1a2.866,2.866,0,0,0-5.234,1.337l-.835-.836h0L254.2,244.67a2.822,2.822,0,0,0-4.561.812,2.881,2.881,0,0,0-3.23.546,2.813,2.813,0,0,0-.546,3.229,2.824,2.824,0,0,0-1.275,3.948,2.8,2.8,0,0,0-.764.543,2.828,2.828,0,0,0,0,4l.042.041a7.326,7.326,0,0,0-1.5,4.488l0,.879-2.455,2.454a1,1,0,0,0,0,1.415,1.025,1.025,0,0,0,1.414,0l2.748-2.748a.994.994,0,0,0,.293-.709l0-1.294a5.393,5.393,0,0,1,1.59-3.846l3.4-3.4a.318.318,0,0,1,.442,0,.308.308,0,0,1,.091.221.336.336,0,0,1-.04.163l-.826.826a1,1,0,0,0,0,1.417,1.023,1.023,0,0,0,1.414,0l2.945-2.95a.317.317,0,0,1,.441,0,.312.312,0,0,1,.051.384l-3,3.006a1,1,0,0,0,0,1.414,1.024,1.024,0,0,0,1.415,0l3.863-3.87a.312.312,0,0,1,.441.441l-3.87,3.864a1,1,0,0,0,1.414,1.416l2.974-2.973a.312.312,0,0,1,.415.465l-4.219,4.219a1.194,1.194,0,0,0,1.462,1.865l1.275-.773a.342.342,0,0,1,.456.1.335.335,0,0,1,.056.258.33.33,0,0,1-.146.22l-2.949,1.979a5.414,5.414,0,0,1-3.031.92l-2.005,0a1,1,0,0,0-.707.292l-2.748,2.749a1,1,0,0,0,1.415,1.414l2.454-2.455,1.6,0a7.409,7.409,0,0,0,4.138-1.259l.456-.306a10.015,10.015,0,0,0,4.14.9l1.385,0,3.066,3.065a1.026,1.026,0,0,0,1.413,0,1,1,0,0,0,0-1.416l-3.356-3.356a1,1,0,0,0-.71-.293l-1.812,0a7.959,7.959,0,0,1-2.071-.275l.438-.295a2.335,2.335,0,0,0-.557-4.159l1.974-1.974a2.316,2.316,0,0,0-.4-3.592,2.319,2.319,0,0,0-.529-2.449,2.353,2.353,0,0,0-2.45-.53,2.3,2.3,0,0,0-.322-.4,2.367,2.367,0,0,0-3.27,0l-.556.555a2.331,2.331,0,0,0-.2-.231,2.3,2.3,0,0,0-1.169-.631,1,1,0,0,0,.471-1.679l-2.691-2.691a.824.824,0,0,1,.583-1.408h0a.821.821,0,0,1,.583.241l4.715,4.724a1.023,1.023,0,0,0,1.414,0,1,1,0,0,0,0-1.414l-3.559-3.564a.825.825,0,0,1,1.224-1.1l4.26,4.26v0l3.51,3.508a1.268,1.268,0,0,0,1.981-1.554l-1.074-1.774a.867.867,0,0,1,.243-1.157.867.867,0,0,1,1.215.227l2.751,4.1a7.9,7.9,0,0,1,1.345,4.434l0,2.787a1.012,1.012,0,0,0,.293.709l1.675,1.676a1,1,0,0,0,1.416-1.414Zm-25.168-5.569a.826.826,0,0,1,.008-1.159.841.841,0,0,1,.594-.247.761.761,0,0,1,.48.164l.08.08Zm3.87-3.608a1,1,0,0,0,.337.223,2.292,2.292,0,0,0-1.495.673l-.132.132L246.47,252.4a.827.827,0,0,1,0-1.167.84.84,0,0,1,.594-.246.762.762,0,0,1,.48.163Z" fill="#602c75"/><path d="M263.9,258.521a1,1,0,0,0,0-1.415,1,1,0,0,0-1.415,0l-.272.274a3.373,3.373,0,0,0,0,4.764,1,1,0,0,0,1.415-1.415,1.369,1.369,0,0,1,0-1.935Z" fill="#602c75"/></g></g></svg>