<svg xmlns="http://www.w3.org/2000/svg" width="28" height="16"><path fill-rule="evenodd" fill="#FFF" d="M27.85 14.454a1.86 1.86 0 0 0-.096-.183c-.485-.876-1.414-1.952-2.784-3.228l-.029-.03-.015-.014-.014-.015h-.014c-.622-.594-1.017-.994-1.182-1.198-.301-.389-.369-.784-.204-1.184.117-.302.554-.939 1.312-1.914.398-.516.715-.93.947-1.241 1.682-2.241 2.411-3.673 2.187-4.296l-.087-.146c-.058-.087-.208-.168-.451-.241-.243-.073-.554-.085-.933-.036l-4.199.029a.545.545 0 0 0-.291.007l-.19.044-.073.037-.057.044a.618.618 0 0 0-.161.153.992.992 0 0 0-.145.256 23.935 23.935 0 0 1-1.561 3.287 31.08 31.08 0 0 1-.991 1.571c-.302.443-.554.77-.758.979a5.267 5.267 0 0 1-.553.503c-.167.127-.292.181-.38.161l-.248-.058a.967.967 0 0 1-.327-.358 1.599 1.599 0 0 1-.168-.57 6.738 6.738 0 0 1-.052-.591c-.004-.166-.001-.401.008-.702.01-.302.015-.507.015-.614 0-.37.007-.772.021-1.205l.037-1.03c.009-.253.015-.521.015-.804 0-.282-.018-.503-.052-.665a2.239 2.239 0 0 0-.153-.467.779.779 0 0 0-.299-.35 1.644 1.644 0 0 0-.487-.198c-.516-.117-1.172-.18-1.968-.191-1.808-.019-2.969.099-3.485.352a1.941 1.941 0 0 0-.553.438c-.175.214-.2.331-.074.351.584.087.996.297 1.24.627l.087.177c.068.126.137.35.204.671.068.322.112.677.131 1.067a11.28 11.28 0 0 1 0 1.826c-.048.506-.094.901-.138 1.183a2.371 2.371 0 0 1-.197.688 2.86 2.86 0 0 1-.175.321.257.257 0 0 1-.073.073 1.076 1.076 0 0 1-.394.073c-.135 0-.3-.068-.495-.205a3.486 3.486 0 0 1-.605-.563 7.561 7.561 0 0 1-.707-1 17.331 17.331 0 0 1-.816-1.52l-.234-.423c-.146-.273-.345-.67-.597-1.191a22.708 22.708 0 0 1-.67-1.513.964.964 0 0 0-.351-.467L5.496.917a1.056 1.056 0 0 0-.233-.125 1.594 1.594 0 0 0-.336-.094L.933.727c-.408 0-.685.093-.831.277l-.058.088A.477.477 0 0 0 0 1.326c0 .108.029.239.087.395A48.18 48.18 0 0 0 1.99 5.694c.685 1.277 1.28 2.304 1.785 3.084.506.779 1.02 1.514 1.545 2.205.525.692.873 1.135 1.042 1.331.171.195.305.34.401.437l.365.351c.233.234.576.514 1.028.84.452.327.952.648 1.501.965.55.316 1.188.574 1.918.774.728.2 1.438.28 2.128.241h1.677c.339-.029.597-.137.772-.321l.057-.073a.96.96 0 0 0 .11-.271c.033-.121.051-.255.051-.401-.01-.419.022-.796.094-1.133.073-.335.156-.588.249-.759.092-.171.196-.314.313-.431.116-.117.199-.187.248-.212a.947.947 0 0 1 .117-.051c.233-.078.507-.002.823.226.316.23.612.512.89.848.276.336.61.714.997 1.132.39.419.73.731 1.021.936l.292.175c.194.117.447.224.758.321.311.098.583.123.816.074l3.732-.059c.369 0 .656-.061.86-.183.204-.122.325-.256.364-.401.039-.146.041-.312.008-.498a1.948 1.948 0 0 0-.102-.387z"/></svg>