<svg xmlns="http://www.w3.org/2000/svg" width="24.97" height="24.033" viewBox="0 0 24.97 24.033"><path d="M1191.56,802.03h-5.22a1.456,1.456,0,0,0-1.46,1.3,2.8,2.8,0,0,1-5.55,0,1.459,1.459,0,0,0-1.47-1.3h-5.21a3,3,0,0,0-3.03,2.958v4.048a3,3,0,0,0,3.03,2.957h18.91a3,3,0,0,0,3.03-2.957v-4.048a3,3,0,0,0-3.03-2.958Zm-19.85,2.958a.928.928,0,0,1,.94-.915h4.69a4.9,4.9,0,0,0,9.53,0h4.69a.926.926,0,0,1,.93.915v4.048a.925.925,0,0,1-.93.914h-18.91a.927.927,0,0,1-.94-.914v-4.048Zm9.65-3.748a1.056,1.056,0,0,0,.74.3,1.08,1.08,0,0,0,.75-.3l3.94-3.856a1,1,0,0,0,0-1.444,1.06,1.06,0,0,0-.73-.293h-.01a1.077,1.077,0,0,0-.74.293l-2.16,2.112V789a1.045,1.045,0,0,0-2.09.011v9.043l-2.17-2.112a1.02,1.02,0,0,0-.73-.292h0a1.062,1.062,0,0,0-.74.292,1,1,0,0,0,0,1.443Z" transform="translate(-1169.62 -787.961)" fill="#b3b3b3" fill-rule="evenodd"/></svg>