<svg xmlns="http://www.w3.org/2000/svg" width="14" height="24"><path fill-rule="evenodd" fill="#FFF" d="M13.629 14.535c-.723.763-1.591 1.315-2.555 1.701-.912.363-1.911.546-2.9.669.15.167.219.249.313.345 1.343 1.39 2.692 2.772 4.03 4.166.455.475.55 1.063.3 1.615-.275.603-.889 1.001-1.492.958-.381-.027-.679-.222-.944-.497-1.014-1.05-2.045-2.08-3.039-3.149-.288-.312-.427-.253-.681.017a208.057 208.057 0 0 1-3.098 3.202c-.468.475-1.025.561-1.567.289-.577-.287-.945-.893-.916-1.502.019-.413.216-.728.491-1.011 1.329-1.365 2.653-2.735 3.979-4.103.089-.091.17-.187.297-.329-1.806-.194-3.436-.652-4.833-1.775-.173-.14-.351-.275-.509-.431-.61-.604-.672-1.295-.189-2.009.413-.61 1.107-.773 1.829-.423.139.069.273.154.4.244 2.601 1.839 6.172 1.891 8.784.083.259-.204.534-.371.855-.456.624-.164 1.204.071 1.538.632.383.641.377 1.267-.093 1.764zm-6.68-2.386c-3.224-.011-5.869-2.764-5.85-6.089C1.117 2.697 3.763-.013 7.02-.003c3.263.009 5.882 2.757 5.866 6.155-.016 3.318-2.679 6.008-5.937 5.997zm.048-9.048c-1.615-.003-2.902 1.336-2.891 3.003.012 1.644 1.3 2.95 2.905 2.944 1.601-.006 2.874-1.33 2.869-2.98-.006-1.651-1.283-2.966-2.883-2.967z"/></svg>