<svg xmlns="http://www.w3.org/2000/svg" width="26" height="18"><path fill-rule="evenodd" fill="#FFF" d="M24.986 1.545C24.048.447 22.315 0 19.006 0H6.993C3.609 0 1.847.476.912 1.644 0 2.784 0 4.462 0 6.786v4.427c0 4.501 1.081 6.786 6.993 6.786h12.013c2.87 0 4.46-.395 5.489-1.363C25.55 15.642 26 14.021 26 11.213V6.786c0-2.451-.071-4.139-1.014-5.241zm-8.294 8.066l-5.455 2.804a.844.844 0 0 1-.823-.025.824.824 0 0 1-.404-.706V6.093c0-.288.153-.555.403-.705a.85.85 0 0 1 .822-.027l5.455 2.786a.824.824 0 0 1 .452.731.823.823 0 0 1-.45.733z"/></svg>