<svg xmlns="http://www.w3.org/2000/svg" width="35" height="29"><path fill-rule="evenodd" fill="#602C75" d="M33.978 29.009H1.002c-.56 0-1.015-.454-1.015-1.012s.455-1.013 1.015-1.013h.192v-6.342c0-.558.455-1.012 1.015-1.012H7.57c.56 0 1.015.454 1.015 1.012v6.342h.92V16.363c0-.558.455-1.012 1.014-1.012h5.362c.56 0 1.015.454 1.015 1.012v10.621h1.188V12.218c0-.558.455-1.012 1.015-1.012h5.362c.559 0 1.015.454 1.015 1.012v14.766h.919V7.806c0-.559.455-1.013 1.015-1.013h5.361c.559 0 1.015.454 1.015 1.013v19.178h.192a1.014 1.014 0 0 1 0 2.025zM6.556 21.655H3.224v5.329h3.332v-5.329zm8.311-4.279h-3.332v9.608h3.332v-9.608zm8.578-4.145h-3.332v13.753h3.332V13.231zm8.312-4.413h-3.332v18.166h3.332V8.818zm-7.565-4.177a1.016 1.016 0 0 1-1.015-1.013v-.172l-7.052 7.033a1.015 1.015 0 0 1-1.435 0L11.293 7.1l-6.571 6.555a1.008 1.008 0 0 1-.718.297 1.01 1.01 0 0 1-.718-1.728l7.29-7.271a1.016 1.016 0 0 1 1.435 0l3.397 3.389 6.334-6.319h-.174a1.013 1.013 0 1 1 0-2.024h2.624c.56 0 1.015.454 1.015 1.012v2.617c0 .558-.455 1.013-1.015 1.013z"/></svg>