<svg xmlns="http://www.w3.org/2000/svg" width="47" height="48"><path fill-rule="evenodd" fill="#602C74" d="M33.925 17.751a.826.826 0 0 1 1.05.086.78.78 0 0 1 .088 1.03l-7.634 10.356a2.9 2.9 0 0 1-2.125 1.168c-.076.006-.151.006-.227.006a2.914 2.914 0 0 1-2.049-.831 2.806 2.806 0 0 1-.844-2.238 2.84 2.84 0 0 1 1.186-2.086l10.555-7.491zm-9.747 10.683a1.3 1.3 0 0 0 .998.363c.374-.031.713-.215.936-.512l4.652-6.316-6.435 4.569a1.267 1.267 0 0 0-.522.915c-.028.363.108.722.371.981zm19.331-17.308l-1.154-1.129-1.746 1.715a21.918 21.918 0 0 1 2.905 3.848c.008.015.024.027.035.043.009.015.009.031.017.05a21.126 21.126 0 0 1 2.929 10.745c0 3.914-1.067 7.581-2.929 10.749-.008.016-.008.036-.021.051-.011.024-.031.043-.046.063a21.97 21.97 0 0 1-7.965 7.808c-.016.012-.024.028-.045.035-.023.015-.048.019-.075.031a22.202 22.202 0 0 1-10.775 2.86c-.008 0-.012.003-.02.003-.004 0-.008-.003-.011-.003-.044 0-.081.003-.12.003a22.44 22.44 0 0 1-4.939-.555.8.8 0 0 1-.614-.957.82.82 0 0 1 .979-.601c1.287.289 2.592.45 3.893.493V44.8c0-.442.363-.801.816-.801.45 0 .812.359.812.801v1.573a20.513 20.513 0 0 0 8.526-2.276l-.804-1.364a.79.79 0 0 1 .298-1.093.82.82 0 0 1 1.115.293l.8 1.363a20.39 20.39 0 0 0 6.337-6.219l-1.39-.785a.794.794 0 0 1-.299-1.094.822.822 0 0 1 1.115-.293l1.39.79a19.592 19.592 0 0 0 2.325-8.496h-1.613a.81.81 0 0 1-.816-.801c0-.441.366-.8.816-.8h1.613a19.579 19.579 0 0 0-2.325-8.492l-1.39.789a.864.864 0 0 1-.409.105.826.826 0 0 1-.706-.397.795.795 0 0 1 .296-1.094l1.389-.786a20.311 20.311 0 0 0-6.337-6.218l-.8 1.363a.823.823 0 0 1-.704.399.873.873 0 0 1-.411-.106.798.798 0 0 1-.298-1.094l.804-1.367a20.508 20.508 0 0 0-8.522-2.273v1.574a.81.81 0 0 1-.816.801.81.81 0 0 1-.816-.801V6.419c-.239.012-.485.027-.752.047l-.875.066a21.68 21.68 0 0 0-2.266.379.81.81 0 0 1-.975-.598.797.797 0 0 1 .614-.96 22.143 22.143 0 0 1 2.627-.426v-.925h-1.222c-1.127 0-2.038-.898-2.038-2 0-1.102.911-2 2.038-2h7.335c1.122 0 2.038.898 2.038 2 0 1.102-.916 2-2.038 2h-1.221v.952a22.156 22.156 0 0 1 8.373 2.723c.017.008.036.008.053.019.016.008.024.025.04.035a22.157 22.157 0 0 1 3.92 2.852l1.751-1.719-1.154-1.133 3.458-3.389 3.46 3.389-3.46 3.395zm-15.22-8.727a.403.403 0 0 0 .406-.397.404.404 0 0 0-.406-.399h-7.335a.406.406 0 0 0-.411.399c0 .219.184.397.411.397h2.849v2.418c.1-.004.188-.004.283-.004.136-.003.267-.011.402-.011h.131c.263 0 .534.004.816.015V2.399h2.854zm14.066 5.332l1.154 1.133 1.151-1.133-1.151-1.128-1.154 1.128zM17.283 40.8h-5.707a.806.806 0 0 1-.812-.801c0-.441.362-.801.812-.801h5.707c.45 0 .817.36.817.801a.81.81 0 0 1-.817.801zm0-5.602H6.689a.804.804 0 0 1-.817-.8c0-.442.362-.797.817-.797h10.594c.45 0 .817.355.817.797 0 .445-.367.8-.817.8zm0-5.596H1.797a.81.81 0 0 1-.817-.801.81.81 0 0 1 .817-.801h15.486a.81.81 0 0 1 .817.801.81.81 0 0 1-.817.801zm0-5.602H5.056a.81.81 0 0 1-.816-.801.81.81 0 0 1 .816-.801h12.227c.45 0 .817.36.817.801a.81.81 0 0 1-.817.801zm0-5.601H9.132a.806.806 0 0 1-.816-.796c0-.446.366-.801.816-.801h8.151c.45 0 .817.355.817.801a.807.807 0 0 1-.817.796zm0-5.597h-4.075a.81.81 0 0 1-.816-.801.81.81 0 0 1 .816-.801h4.075c.45 0 .817.36.817.801a.81.81 0 0 1-.817.801z"/></svg>