<svg xmlns="http://www.w3.org/2000/svg" width="48" height="55"><path fill-rule="evenodd" fill="#602C74" d="M45.133 38.105h-9.594v10.843c0 2.793-2.287 5.068-5.094 5.068H5.089c-2.806 0-5.093-2.275-5.093-5.068V6.039c0-2.793 2.287-5.067 5.093-5.067h25.356c2.807 0 5.094 2.274 5.094 5.067v2.003h9.594a2.843 2.843 0 0 1 2.846 2.832v24.399a2.843 2.843 0 0 1-2.846 2.832zM33.76 6.039c0-1.817-1.487-3.297-3.315-3.297H5.089c-1.827 0-3.314 1.48-3.314 3.297v42.909c0 1.818 1.487 3.298 3.314 3.298h25.356c1.828 0 3.315-1.48 3.315-3.298V6.039zm3.559 3.773h-1.78v26.523h1.78V9.812zm3.553 0h-1.779v26.523h1.779V9.812zm5.333 1.062a1.07 1.07 0 0 0-1.072-1.062h-2.487v26.523h2.487c.59 0 1.072-.48 1.072-1.062V10.874zm-1.78 7.779a.889.889 0 0 1-.889-.886.89.89 0 0 1 1.779 0 .89.89 0 0 1-.89.886zm0-4.421a.888.888 0 0 1-.889-.885.89.89 0 0 1 1.779 0c0 .489-.4.885-.89.885zM4.438 8.927h26.659v11.496H4.438V8.927zm1.78 9.726h23.099v-7.956H6.218v7.956zm20.435-.886a.886.886 0 0 1-.889-.885v-2.65a.882.882 0 0 1-.629-1.511l.89-.88a.96.96 0 0 1 .29-.195.923.923 0 0 1 .678 0 .904.904 0 0 1 .481.48.917.917 0 0 1 .069.336v4.42c0 .493-.4.885-.89.885zm-3.553 0a.885.885 0 0 1-.889-.885v-2.65a.882.882 0 0 1-.629-1.511l.889-.88a.918.918 0 0 1 .291-.195.918.918 0 0 1 .676 0 .899.899 0 0 1 .552.816v4.42c0 .493-.4.885-.89.885zm-3.814-.258a.895.895 0 0 1-1.259 0 .88.88 0 0 1 0-1.248l.89-.885a.89.89 0 0 1 1.255 0 .878.878 0 0 1 0 1.248l-.886.885zm-4.182.258a.885.885 0 0 1-.89-.885v-2.65a.884.884 0 0 1-.629-1.511l.889-.88a.935.935 0 0 1 .287-.195.928.928 0 0 1 .68 0 .89.89 0 0 1 .482.48.893.893 0 0 1 .065.336v4.42a.88.88 0 0 1-.884.885zM9.771 7.162H4.438a.89.89 0 0 1-.889-.885c0-.488.4-.885.889-.885h5.333c.49 0 .89.397.89.885a.89.89 0 0 1-.89.885zm2.664 21.217H5.329v-6.191h7.106v6.191zm-1.774-4.421H7.102v2.651h3.559v-2.651zm1.774 11.491H5.329v-6.185h7.106v6.185zm-1.774-4.42H7.102v2.656h3.559v-2.656zm1.774 11.496H5.329v-6.19h7.106v6.19zm-1.774-4.42H7.102v2.65h3.559v-2.65zm1.774 12.376H5.329V44.29h7.106v6.191zm-1.774-4.421H7.102v2.65h3.559v-2.65zm10.66-17.681h-7.107v-6.191h7.107v6.191zm-1.774-4.421h-3.559v2.651h3.559v-2.651zm1.774 11.491h-7.107v-6.185h7.107v6.185zm-1.774-4.42h-3.559v2.656h3.559v-2.656zm1.774 11.496h-7.107v-6.19h7.107v6.19zm-1.774-4.42h-3.559v2.65h3.559v-2.65zm1.774 12.376h-7.107V44.29h7.107v6.191zm-1.774-4.421h-3.559v2.65h3.559v-2.65zm10.66-17.681H23.1v-6.191h7.107v6.191zm-1.774-4.421h-3.559v2.651h3.559v-2.651zm1.774 11.491H23.1v-6.185h7.107v6.185zm-1.774-4.42h-3.559v2.656h3.559v-2.656zm1.774 19.452H23.1V36.335h7.107v14.146zm-1.774-12.376h-3.559V48.71h3.559V38.105z"/></svg>