<svg xmlns="http://www.w3.org/2000/svg" width="60" height="42"><path fill-rule="evenodd" fill="#602C74" d="M58.565 40.583A4.846 4.846 0 0 1 55.136 42H4.848a4.85 4.85 0 0 1-4.853-4.832c0-1.332.545-2.541 1.423-3.416a4.851 4.851 0 0 1 3.43-1.418h2.481V20.751a3.808 3.808 0 0 1 2.759-3.644l3.526-1.003v-1.886l-.11-.095a2.755 2.755 0 0 1-.693-.93 2.756 2.756 0 0 1-.244-1.134v-3.44h-1.433a.662.662 0 0 1-.469-1.127.668.668 0 0 1 .469-.192h.385v-.384c0-1.451.531-2.781 1.409-3.806a5.914 5.914 0 0 1 3.559-1.997l.27-.043V.657a.66.66 0 0 1 .663-.66.665.665 0 0 1 .662.66v.413l.27.043a5.912 5.912 0 0 1 3.559 1.996 5.833 5.833 0 0 1 1.409 3.806V7.3h.386a.66.66 0 0 1 .468 1.126.664.664 0 0 1-.468.193h-1.433v3.44c0 .398-.086.784-.244 1.134-.16.352-.397.671-.693.93l-.11.095v1.886l3.526 1.003a3.804 3.804 0 0 1 1.989 1.365c.487.642.77 1.438.77 2.279v5.325h2.481a.66.66 0 0 1 .662.66v5.598h1.818V20.751a3.81 3.81 0 0 1 2.76-3.644l3.526-1.003v-1.886l-.11-.095a2.749 2.749 0 0 1-.938-2.064v-3.44h-1.432a.664.664 0 0 1-.662-.659.657.657 0 0 1 .662-.66h.385v-.384c0-1.451.531-2.782 1.409-3.806a5.913 5.913 0 0 1 3.56-1.997l.269-.043V.657a.66.66 0 0 1 .663-.66.663.663 0 0 1 .662.66v.413l.27.043a5.917 5.917 0 0 1 3.56 1.996 5.833 5.833 0 0 1 1.409 3.806V7.3h.384a.663.663 0 0 1 .663.66.665.665 0 0 1-.663.659h-1.432v3.44c0 .398-.086.785-.244 1.133a2.751 2.751 0 0 1-.694.931l-.11.095v1.886l3.527 1.003a3.815 3.815 0 0 1 1.99 1.365c.486.642.77 1.438.77 2.279v7.412h1.432a.66.66 0 0 1 .663.66v3.511h.385c1.337 0 2.551.543 3.429 1.418a4.809 4.809 0 0 1 0 6.831zM12.567 17.775l-2.114.602a2.48 2.48 0 0 0-1.799 2.374v11.583h2.865v-9.771c0-.314.086-.61.235-.861.156-.263.381-.482.648-.629l.165-.092v-3.206zm4.19-15.384l-.393.093a4.602 4.602 0 0 0-2.535 1.613 4.52 4.52 0 0 0-.985 2.818V7.3h3.913V2.391zm-2.865 6.228v3.44c0 .236.061.468.171.672.11.206.27.384.469.515l1.681 1.116c.117.079.246.139.381.178.134.041.274.062.413.062h.827a1.45 1.45 0 0 0 .793-.241l1.683-1.115a1.433 1.433 0 0 0 .638-1.187v-3.44h-7.056zm5.265 10.233a7.131 7.131 0 0 1-1.737.199c-.641 0-1.227-.07-1.737-.199-.514-.13-.952-.319-1.289-.553l-.502-.349v2.91h7.056v-2.911l-.502.349c-.34.236-.777.425-1.289.554zm.744-1.82v-1.929l-.537.358a2.78 2.78 0 0 1-1.53.461h-.826a2.786 2.786 0 0 1-1.531-.46l-.537-.361v1.931l.105.095c.136.123.491.323 1.039.455.357.086.805.149 1.336.149.532 0 .979-.062 1.336-.149.548-.132.903-.332 1.039-.454l.106-.096zM21.995 7.3v-.385a4.526 4.526 0 0 0-.985-2.819 4.597 4.597 0 0 0-2.535-1.612l-.393-.093V7.3h3.913zm0 15.263a.379.379 0 0 0-.108-.265l-.011-.011a.383.383 0 0 0-.266-.107h-8.381a.382.382 0 0 0-.385.383V32.334h3.913v-5.598a.663.663 0 0 1 .663-.66h4.575v-3.513zm4.191-1.812a2.48 2.48 0 0 0-1.799-2.374l-2.114-.602v3.206l.165.092a1.69 1.69 0 0 1 .882 1.49v3.513h2.866v-5.325zm3.143 6.645H18.082v4.938H29.329v-4.938zm8.381-9.621l-2.113.602a2.48 2.48 0 0 0-1.8 2.374v11.583h2.866v-9.771c0-.314.086-.61.235-.861.156-.263.381-.482.647-.629l.165-.092v-3.206zm4.191-15.384l-.393.093a4.6 4.6 0 0 0-2.534 1.613 4.521 4.521 0 0 0-.986 2.818V7.3h3.913V2.391zm-2.866 6.228v3.44a1.433 1.433 0 0 0 .64 1.186l1.681 1.117c.118.079.247.139.381.178.135.041.274.062.414.062h.826a1.456 1.456 0 0 0 .795-.24l1.681-1.116a1.421 1.421 0 0 0 .639-1.187v-3.44h-7.057zm5.266 10.234a7.177 7.177 0 0 1-1.737.198c-.642 0-1.228-.07-1.737-.198-.512-.13-.95-.319-1.29-.555l-.502-.349v2.911h7.057v-2.911l-.501.349c-.34.236-.778.425-1.29.555zm.744-1.821v-1.924l-.538.353a2.791 2.791 0 0 1-1.53.461h-.826a2.79 2.79 0 0 1-1.53-.46l-.537-.361v1.931l.105.095c.137.123.491.323 1.039.455.357.086.806.149 1.336.149.531 0 .979-.062 1.337-.149.547-.132.902-.332 1.038-.454l.106-.096zM47.139 7.3v-.385a4.52 4.52 0 0 0-.985-2.818 4.602 4.602 0 0 0-2.535-1.613l-.393-.093V7.3h3.913zm0 15.263a.385.385 0 0 0-.108-.265l-.01-.011a.394.394 0 0 0-.266-.107h-8.382a.39.39 0 0 0-.272.112.377.377 0 0 0-.113.271V32.334h2.866v-3.511a.66.66 0 0 1 .663-.66h5.622v-5.6zm4.191-1.812a2.477 2.477 0 0 0-1.799-2.374l-2.114-.602v3.206l.165.092a1.713 1.713 0 0 1 .883 1.49v5.6h2.865v-7.412zm2.095 8.731H42.179v2.852h11.246v-2.852zm4.205 5.202a3.53 3.53 0 0 0-2.494-1.03H4.848a3.528 3.528 0 0 0-3.528 3.514c0 .967.395 1.845 1.036 2.483a3.521 3.521 0 0 0 2.492 1.03h50.288a3.53 3.53 0 0 0 2.494-1.03 3.499 3.499 0 0 0 0-4.967zm-2.494 4.374a1.897 1.897 0 0 1-1.899-1.89c0-1.043.852-1.892 1.899-1.892 1.047 0 1.898.849 1.898 1.892 0 1.042-.851 1.89-1.898 1.89zm-6.287 0a1.897 1.897 0 0 1-1.898-1.89c0-1.043.852-1.892 1.898-1.892 1.048 0 1.9.849 1.9 1.892 0 1.042-.852 1.89-1.9 1.89zm-6.285 0a1.897 1.897 0 0 1-1.899-1.89 1.899 1.899 0 1 1 3.798 0c0 1.042-.853 1.89-1.899 1.89zm-6.286 0a1.897 1.897 0 0 1-1.899-1.89c0-1.043.852-1.892 1.899-1.892 1.047 0 1.899.849 1.899 1.892 0 1.042-.852 1.89-1.899 1.89zm-6.286 0a1.897 1.897 0 0 1-1.899-1.89c0-1.043.852-1.892 1.899-1.892 1.047 0 1.899.849 1.899 1.892 0 1.042-.852 1.89-1.899 1.89zm-6.286 0a1.896 1.896 0 0 1-1.899-1.89c0-1.043.851-1.892 1.899-1.892 1.047 0 1.899.849 1.899 1.892 0 1.042-.852 1.89-1.899 1.89zm-6.286 0a1.897 1.897 0 0 1-1.899-1.89c0-1.043.852-1.892 1.899-1.892 1.047 0 1.899.849 1.899 1.892 0 1.042-.852 1.89-1.899 1.89zm-6.286 0a1.897 1.897 0 0 1-1.899-1.89c0-1.043.852-1.892 1.899-1.892 1.047 0 1.899.849 1.899 1.892 0 1.042-.852 1.89-1.899 1.89zm-6.286 0a1.897 1.897 0 0 1-1.899-1.89c0-1.043.852-1.892 1.899-1.892 1.047 0 1.899.849 1.899 1.892 0 1.042-.852 1.89-1.899 1.89z"/></svg>