<svg xmlns="http://www.w3.org/2000/svg" width="53" height="49"><path fill-rule="evenodd" fill="#602C74" d="M.966 49v-1.6h.83V32.178l11.419-5.741 1.649-19.082h7.971l1.592 21.616 5.03-2.529L31.1 0h8.002l1.6 28.96 11.445-5.754V47.4h.83V49H.966zm7.297-1.6H21.3v-5.755H8.263V47.4zm-4.876 0h3.285v-1.668H3.387V47.4zm17.97-38.444h-5.033l-.144 1.668h5.3l-.123-1.668zm.24 3.268h-5.556l-.144 1.669h5.823l-.123-1.669zm.241 3.269h-6.079l-.875 10.104 4.756-2.391v8.172l3.248-1.633-1.05-14.252zM37.596 1.6h-5.001l-.103 1.669h5.197L37.596 1.6zm.181 3.269h-5.385l-.104 1.669h5.581l-.092-1.669zm.181 3.269h-5.769l-1.086 17.477 4.791-2.409v8.172l3.257-1.638-1.193-21.602zm12.598 17.656l-16.253 8.173v-8.173l-16.254 8.173v-8.173L3.387 33.167V44.13h3.285v-4.086h16.219v4.086h27.665V25.794zm0 19.938H22.891V47.4h27.665v-1.668zM6.655 37.593h16.253v1.6H6.655v-1.6zm21.112 4.886h-1.591v-4.903h1.591v4.903zm4.877 0h-1.592v-4.903h1.592v4.903zm4.875 0h-1.591v-4.903h1.591v4.903zm4.876 0h-1.591v-4.903h1.591v4.903zm4.876 0H45.68v-4.903h1.591v4.903z"/></svg>