<svg xmlns="http://www.w3.org/2000/svg" width="61" height="38"><path fill-rule="evenodd" fill="#602C74" d="M59.254 31.193a2.619 2.619 0 0 1-1.868.787h-3.331l-.045.27a6.898 6.898 0 0 1-1.638 3.446l-.475.539h3.834c.239 0 .456.098.613.258a.886.886 0 0 1 0 1.242.857.857 0 0 1-.613.259h-8.416a6.7 6.7 0 0 1-4.375-1.626 6.926 6.926 0 0 1-2.32-4.118l-.044-.27H20.644l-.045.27a6.92 6.92 0 0 1-2.32 4.118 6.7 6.7 0 0 1-4.376 1.626h-9.6a.855.855 0 0 1-.613-.259.88.88 0 0 1-.253-.621c0-.243.097-.464.254-.623a.856.856 0 0 1 .612-.256h5.02l-.475-.539a6.924 6.924 0 0 1-1.639-3.446l-.044-.27H2.648a2.62 2.62 0 0 1-1.868-.787 2.7 2.7 0 0 1-.775-1.897v-1.804a.876.876 0 0 1 .645-.851l.238-.064V10.961c0-.243.097-.463.254-.622a.86.86 0 0 1 .612-.258h6.458V.887a.866.866 0 0 1 .866-.879h17.92c.24 0 .457.098.614.258a.885.885 0 0 1 .252.621v9.194h6.457a.86.86 0 0 1 .613.258.887.887 0 0 1 .254.622v15.651h1.693V2.152c0-.123.025-.241.069-.348a.86.86 0 0 1 .84-.532c.778.038 2.149.19 3.73.401 1.573.211 3.368.486 5.006.773.957.167 1.833.334 2.603.493.79.163 1.483.323 2.054.471.863.225 1.523.432 1.985.684.409.223.657.482.75.826l3.257 11.938.093.066c.351.248.6.488.752.805.159.326.232.758.232 1.389v7.494h.911a.86.86 0 0 1 .614.258.883.883 0 0 1 .252.622v1.804a2.7 2.7 0 0 1-.775 1.897zM43.74 34.729a5.008 5.008 0 0 0 3.575 1.506 5.004 5.004 0 0 0 3.575-1.506 5.158 5.158 0 0 0 1.483-3.629 5.162 5.162 0 0 0-1.483-3.63 5.007 5.007 0 0 0-3.575-1.504 5.01 5.01 0 0 0-3.575 1.504 5.16 5.16 0 0 0-1.482 3.63c0 1.416.567 2.701 1.482 3.629zm-33.414-.005a5.013 5.013 0 0 0 3.569 1.511l.012-.001a5.012 5.012 0 0 0 3.573-1.507 5.157 5.157 0 0 0 1.482-3.627 5.158 5.158 0 0 0-1.484-3.63 5.008 5.008 0 0 0-3.575-1.504 5.008 5.008 0 0 0-3.574 1.504 5.16 5.16 0 0 0-1.482 3.63c0 1.413.566 2.696 1.479 3.624zm-8.588-6.353v.925c0 .252.104.485.268.652a.905.905 0 0 0 .642.272h4.517l.044-.27c.034-.2.075-.396.122-.581.047-.185.106-.375.172-.567l.15-.431H1.738zM6.283 11.84v3.389a.875.875 0 0 1-.868.879.85.85 0 0 1-.611-.258.882.882 0 0 1-.254-.621V11.84H2.621v14.772h6.131l.096-.108a6.828 6.828 0 0 1 2.292-1.701 6.673 6.673 0 0 1 4.206-.439c.48.106.942.264 1.375.465l.45.209V11.84H6.283zm19.849-9.75v-.323H9.944v3.277h3.179a.86.86 0 0 1 .613.258.888.888 0 0 1 0 1.243.86.86 0 0 1-.613.258H9.944v3.278h16.188V2.09zm7.324 9.75H18.904v14.772h10.389v-3.388c0-.243.096-.463.254-.623a.854.854 0 0 1 1.224.002.886.886 0 0 1 .254.621v3.388h2.431V11.84zM20.605 28.371h-.45l.15.431a7.001 7.001 0 0 1 .294 1.148l.045.27h19.932l.044-.27a7.072 7.072 0 0 1 .294-1.148l.151-.431h-20.46zM53.267 9.13l-.199-.034a62.393 62.393 0 0 0-4.462-.584 126.953 126.953 0 0 0-5.67-.419l-.334-.018v6.261h12.085l-1.42-5.206zm3.253 14.43h-1.102a.848.848 0 0 1-.612-.258.883.883 0 0 1 0-1.244.856.856 0 0 1 .612-.257h1.102c0-.979.017-1.97-.006-2.947l-.037-.348-.522-.352a.882.882 0 0 1-.364-.502l-.425-1.558h-13.43a.864.864 0 0 1-.614-.258.882.882 0 0 1-.253-.622V7.152a.87.87 0 0 1 .562-.823.866.866 0 0 1 .345-.056c2.104.097 4.044.223 5.81.377 1.754.152 3.32.332 4.687.536l.483.072-.448-1.642-.143-.06c-.366-.154-1.144-.396-2.498-.701a77.705 77.705 0 0 0-4.088-.787 122.324 122.324 0 0 0-3.481-.539 87.228 87.228 0 0 0-3.133-.392l-.351-.037v23.512h3.549l.096-.108a6.828 6.828 0 0 1 2.292-1.701 6.678 6.678 0 0 1 2.764-.596c.986 0 1.922.214 2.764.596.879.399 1.66.983 2.293 1.701l.096.108h4.052V23.56zm1.777 4.811h-4.731l.15.431a6.886 6.886 0 0 1 .294 1.148l.045.27h3.331a.928.928 0 0 0 .911-.924v-.925zm-44.367-.555c.891 0 1.701.369 2.287.963.585.594.949 1.416.949 2.321 0 .905-.364 1.727-.949 2.321a3.204 3.204 0 0 1-2.287.964c-.891 0-1.7-.369-2.285-.964a3.299 3.299 0 0 1-.95-2.321c0-.905.363-1.726.949-2.32a3.2 3.2 0 0 1 2.286-.964zm-1.061 4.363c.272.275.648.447 1.061.447.414 0 .79-.172 1.064-.448.27-.277.44-.659.44-1.078 0-.42-.169-.802-.443-1.079a1.494 1.494 0 0 0-1.061-.447c-.414 0-.79.172-1.063.448a1.54 1.54 0 0 0 .002 2.157zm34.446-4.363c.891 0 1.701.369 2.286.963.586.594.95 1.416.95 2.321 0 .905-.364 1.727-.95 2.321a3.2 3.2 0 0 1-2.286.964c-.891 0-1.7-.369-2.286-.964a3.302 3.302 0 0 1-.949-2.321 3.3 3.3 0 0 1 .949-2.32 3.2 3.2 0 0 1 2.286-.964zm-1.061 4.363c.272.275.648.447 1.061.447.414 0 .79-.172 1.063-.448a1.541 1.541 0 0 0-.001-2.157 1.5 1.5 0 0 0-1.062-.447c-.414 0-.79.172-1.062.448a1.536 1.536 0 0 0 .001 2.157z"/></svg>