<svg xmlns="http://www.w3.org/2000/svg" width="42" height="47"><path fill-rule="evenodd" fill="#612D74" d="M36.573 46.992H5.42c-2.979 0-5.403-2.474-5.403-5.515 0-3.041 2.424-5.515 5.403-5.515h.828v-2.436c0-.411.327-.745.73-.745h3.115c.403 0 .731.334.731.745v2.436h1.654v-2.436c0-.411.327-.745.73-.745h3.116c.403 0 .73.334.73.745v2.436h1.655v-2.436c0-.411.327-.745.73-.745h3.115c.404 0 .731.334.731.745v2.436h1.655v-2.436c0-.411.326-.745.73-.745h3.115c.404 0 .73.334.73.745v2.436h1.655v-2.436c0-.411.327-.745.73-.745h3.116c.403 0 .73.334.73.745v2.436h.827c2.98 0 5.404 2.474 5.404 5.515 0 3.041-2.424 5.515-5.404 5.515zm-27.21-12.72H7.708v1.69h1.655v-1.69zm6.231 0h-1.656v1.69h1.656v-1.69zm6.23 0H20.17v1.69h1.654v-1.69zm6.231 0H26.4v1.69h1.655v-1.69zm6.231 0h-1.655v1.69h1.655v-1.69zm2.287 3.18H5.42c-2.174 0-3.943 1.805-3.943 4.025 0 2.219 1.769 4.025 3.943 4.025h31.153c2.174 0 3.943-1.806 3.943-4.025 0-2.22-1.769-4.025-3.943-4.025zm0 6.361c-1.261 0-2.287-1.048-2.287-2.336 0-1.288 1.026-2.336 2.287-2.336 1.262 0 2.288 1.048 2.288 2.336 0 1.288-1.026 2.336-2.288 2.336zm0-3.181a.837.837 0 0 0-.827.845c0 .466.371.845.827.845a.837.837 0 0 0 .828-.845.838.838 0 0 0-.828-.845zm-6.23 3.181c-1.262 0-2.288-1.048-2.288-2.336 0-1.288 1.026-2.336 2.288-2.336 1.261 0 2.288 1.048 2.288 2.336 0 1.288-1.027 2.336-2.288 2.336zm0-3.181a.837.837 0 0 0-.828.845c0 .466.371.845.828.845a.837.837 0 0 0 .827-.845.838.838 0 0 0-.827-.845zm-6.231 3.181c-1.262 0-2.288-1.048-2.288-2.336 0-1.288 1.026-2.336 2.288-2.336 1.262 0 2.288 1.048 2.288 2.336 0 1.288-1.026 2.336-2.288 2.336zm0-3.181a.836.836 0 0 0-.827.845c0 .466.37.845.827.845a.837.837 0 0 0 .828-.845.838.838 0 0 0-.828-.845zm-6.23 3.181c-1.262 0-2.288-1.048-2.288-2.336 0-1.288 1.026-2.336 2.288-2.336 1.261 0 2.288 1.048 2.288 2.336 0 1.288-1.027 2.336-2.288 2.336zm0-3.181a.837.837 0 0 0-.828.845c0 .466.371.845.828.845a.837.837 0 0 0 .827-.845.838.838 0 0 0-.827-.845zm-6.231 3.181c-1.262 0-2.288-1.048-2.288-2.336 0-1.288 1.026-2.336 2.288-2.336 1.261 0 2.287 1.048 2.287 2.336 0 1.288-1.026 2.336-2.287 2.336zm0-3.181a.837.837 0 0 0-.827.845c0 .466.371.845.827.845a.837.837 0 0 0 .827-.845.838.838 0 0 0-.827-.845zM5.42 43.813c-1.261 0-2.287-1.048-2.287-2.336 0-1.288 1.026-2.336 2.287-2.336 1.262 0 2.288 1.048 2.288 2.336 0 1.288-1.026 2.336-2.288 2.336zm0-3.181a.837.837 0 0 0-.827.845c0 .466.371.845.827.845a.837.837 0 0 0 .828-.845.838.838 0 0 0-.828-.845zm24.095-15.056c0 .849-.677 1.54-1.509 1.54h-.048v3.23a.737.737 0 0 1-.73.745.738.738 0 0 1-.731-.745v-3.23h-.049c-.832 0-1.508-.691-1.508-1.54v-2.435h-7.107v.845a.738.738 0 0 1-.731.745H8.535c-2.12 0-3.845-1.761-3.845-3.925 0-1.347.668-2.537 1.683-3.244l4.213-10.829a3.992 3.992 0 0 1-.374-1.083H8.681a.886.886 0 0 1-.876-.894V2.47H5.42a.738.738 0 0 1-.73-.745c0-.412.327-.746.73-.746h17.134c.404 0 .731.334.731.746a.738.738 0 0 1-.731.745H20.17v2.286a.887.887 0 0 1-.877.894h-1.531a3.939 3.939 0 0 1-.915 1.876l-3.725 9.354h3.98c.404 0 .731.334.731.745v.845h7.355a3.026 3.026 0 0 1 2.04-.795c1.69 0 3.066 1.405 3.066 3.131 0 .798-.295 1.528-.779 2.081v2.689zM6.15 20.806c0 1.342 1.07 2.434 2.385 2.434 1.316 0 2.386-1.092 2.386-2.434s-1.07-2.435-2.386-2.435c-1.315 0-2.385 1.093-2.385 2.435zM18.709 4.16V2.47H9.266v1.69h9.443zm-2.451 1.49h-4.541c.309.979 1.21 1.69 2.27 1.69 1.061 0 1.961-.711 2.271-1.69zm-1.473 3.095a3.775 3.775 0 0 1-3.13-.722l-3.452 8.873c.11-.01.221-.016.332-.016h3.01l3.24-8.135zm1.587 9.626h-4.823c.52.669.832 1.515.832 2.435 0 .919-.312 1.765-.832 2.434h4.823v-4.869zm7.903 1.59h-6.442v1.689h6.442a3.178 3.178 0 0 1 0-1.689zm2.125 5.615c0 .027.022.05.048.05h1.558a.05.05 0 0 0 .049-.05v-1.757a2.983 2.983 0 0 1-1.655 0v1.757zm.828-6.41c-.887 0-1.607.736-1.607 1.64 0 .904.72 1.64 1.607 1.64.885 0 1.606-.736 1.606-1.64 0-.904-.721-1.64-1.606-1.64z"/></svg>