<svg xmlns="http://www.w3.org/2000/svg" width="53" height="38"><path fill-rule="evenodd" fill="#602C74" d="M49.505 34.484H36.256v2.07c0 .585-.35 1.107-.892 1.33a1.438 1.438 0 0 1-1.574-.311l-3.098-3.089h-5.816a3.462 3.462 0 0 1-3.464-3.452v-.108a15.57 15.57 0 0 1-1.869.539v2.717c0 .689-.413 1.306-1.052 1.569a1.704 1.704 0 0 1-1.857-.368l-3.893-3.88a15.757 15.757 0 0 1-9.278-5.929C1.072 22.406-.021 18.467.386 14.484 1.13 7.188 6.975 1.307 14.284.502c4.557-.503 8.931.885 12.317 3.908a15.735 15.735 0 0 1 4.643 7.387h18.261a3.462 3.462 0 0 1 3.464 3.452v15.783a3.462 3.462 0 0 1-3.464 3.452zM25.502 5.634a13.994 13.994 0 0 0-9.403-3.589c-.54 0-1.085.03-1.634.091-3.152.347-6.14 1.799-8.414 4.088-2.274 2.288-3.703 5.28-4.024 8.427-.365 3.57.613 7.098 2.754 9.933a14.109 14.109 0 0 0 8.529 5.356.82.82 0 0 1 .423.225l4.067 4.054c.014.014.026.026.06.012.034-.014.034-.031.034-.051v-3.39c0-.398.287-.739.68-.809 6.742-1.199 11.635-7.024 11.635-13.851 0-4-1.716-7.825-4.707-10.496zm25.818 9.615c0-.997-.814-1.808-1.815-1.808H31.623a15.693 15.693 0 0 1-8.562 16.789v.802c0 .997.815 1.808 1.815 1.808h6.157c.219 0 .429.087.583.241l2.991 2.981v-2.4c0-.454.369-.822.825-.822h14.073a1.813 1.813 0 0 0 1.815-1.808V15.249zM37.774 28.106a.827.827 0 0 1-1.167 0l-4.395-4.382a.818.818 0 0 1 0-1.162.826.826 0 0 1 1.166 0l3.813 3.8 8.213-8.187a.826.826 0 0 1 1.166 0 .82.82 0 0 1 0 1.163l-8.796 8.768zm-20.192-9.619a.929.929 0 0 0-.677.888v.263c0 .453-.37.821-.825.821a.823.823 0 0 1-.825-.821v-.263c0-1.142.745-2.131 1.853-2.463a3.584 3.584 0 0 0 2.545-3.412c0-.927-.378-1.815-1.066-2.5-.687-.685-1.578-1.063-2.508-1.063a3.573 3.573 0 0 0-3.573 3.562.823.823 0 0 1-.824.822.823.823 0 0 1-.825-.822c0-2.87 2.343-5.205 5.222-5.206 1.371 0 2.675.548 3.674 1.544 1 .996 1.55 2.297 1.55 3.663a5.24 5.24 0 0 1-3.721 4.987zm-1.503 3.834h.002c.455 0 .825.369.825.823v.001c0 .454-.37.823-.825.823h-.002a.824.824 0 0 1-.825-.823v-.001c0-.454.37-.823.825-.823z"/></svg>