<svg xmlns="http://www.w3.org/2000/svg" width="323.959" height="56" viewBox="0 0 323.959 56"><g transform="translate(-5.714 -66.001)"><g transform="translate(5.714 66.001)"><path d="M17.644,71.507" transform="translate(-9.871 -67.92)" fill="#5a9f2f" stroke="#737373" stroke-miterlimit="10" stroke-width="0.75"/><g transform="translate(23.051)"><circle cx="5.971" cy="5.971" r="5.971" fill="#44a12f"/></g><g transform="translate(7.764 2.659)"><path d="M17.63,70.083" transform="translate(-17.63 -70.083)" fill="#44a12f"/><path d="M57.108,71.851c-4.34,2.527-8.827,5.139-13.161,7.612a10.792,10.792,0,0,1-4.993,1.68,10.323,10.323,0,0,1-5.193-1.728l-4.069-2.322c-2.167-1.236-4.407-2.514-6.6-3.8l-2.082-1.225c-1.134-.668-2.287-1.347-3.372-1.98v8.018l8.774,5.156s4.529,2.658,6.073,3.439c.734.371,1.252.584,1.647.755a11.873,11.873,0,0,0,9.518,0c.4-.17.913-.383,1.647-.754,1.543-.781,6.074-3.439,6.074-3.439L60.1,78.14V70.122Z" transform="translate(-17.635 -70.086)" fill="#44a12f"/></g><path d="M33.749,104.387a19.269,19.269,0,0,0-.4-3.26,11.664,11.664,0,0,0-4.309-6.279,33.9,33.9,0,0,0-4.084-2.7q-2.185-1.286-4.363-2.585l-.625-.37L15.256,86.4l-2.643-1.566-.106-.063s-6.517,3.772-6.794,3.92l.821.482L8.7,90.447l6.369,3.737,5.748,3.374a13.635,13.635,0,0,1,4.74,3.807,8.762,8.762,0,0,1,1.319,3.7q.045.324.074.65c.026.293.028.237.036.508.007.212.03.763.029,1.031-.01,1.869,0,3.738,0,5.608v15.68h6.788V106.349C33.806,105.733,33.793,105.073,33.749,104.387Z" transform="translate(-5.714 -72.543)" fill="#602c75"/><path d="M51.744,104.387a19.2,19.2,0,0,1,.4-3.26,11.664,11.664,0,0,1,4.309-6.279,33.95,33.95,0,0,1,4.084-2.7q2.185-1.286,4.363-2.585l.625-.37L70.237,86.4l2.642-1.566.106-.063,6.795,3.92c-.3.181-.75.44-.822.482l-2.166,1.271-6.369,3.737-5.749,3.374a13.647,13.647,0,0,0-4.74,3.807,8.774,8.774,0,0,0-1.319,3.7c-.03.216-.054.433-.074.65-.026.293-.028.237-.036.508-.007.212-.03.763-.028,1.031.01,1.869,0,3.738,0,5.608v15.68H51.687V106.349C51.687,105.733,51.7,105.073,51.744,104.387Z" transform="translate(-21.734 -72.543)" fill="#2b5bae"/></g><g transform="translate(86.052 77.652)"><g transform="translate(31.712 24.945)"><path d="M177.694,126.122a3.935,3.935,0,0,1,1.088-2.789,3.512,3.512,0,0,1,2.668-1.163,12.073,12.073,0,0,1,2.714.515q.046,1.306.046,1.42,0,.172-.241.172c-.076,0-.126-.02-.149-.057q-.309-1.57-2.336-1.569a2.346,2.346,0,0,0-1.913.973,3.821,3.821,0,0,0,.075,4.69,2.583,2.583,0,0,0,2.113,1.071,3.347,3.347,0,0,0,1.489-.252q.08-.034.08-.172l-.011-.939v-.08a3.338,3.338,0,0,0-.092-.985q-.046-.114-.372-.183a2.62,2.62,0,0,0-.51-.069c-.031,0-.046-.048-.046-.143a.275.275,0,0,1,.046-.189l1.5.057q.092,0,1.237-.057a.514.514,0,0,1,.023.16c0,.114-.016.171-.046.171a1.5,1.5,0,0,0-.315.075,1.919,1.919,0,0,0-.349.132q-.114.08-.115.767c0,.161.006.334.017.521s.018.289.018.3a1.042,1.042,0,0,0,.08.4,1.141,1.141,0,0,1,.08.229q0,.092-.287.206-.023.012-.223.086t-.258.1c-.038.015-.124.044-.257.085a2.837,2.837,0,0,1-.321.086l-.343.069a3.565,3.565,0,0,1-.424.063c-.134.012-.291.023-.47.035s-.368.017-.567.017a3.419,3.419,0,0,1-2.571-1.111A3.7,3.7,0,0,1,177.694,126.122Z" transform="translate(-177.694 -122.17)"/><path d="M194.973,122.327q.229,0,.446-.012c.145-.008.3-.017.47-.029l.412-.029a.561.561,0,0,1,.023.172c0,.107-.016.16-.046.16a1.909,1.909,0,0,0-.412.08q-.3.08-.321.16a4.444,4.444,0,0,0-.1,1.065v4.318a4.148,4.148,0,0,0,.1,1.008q.035.114.779.115h.55a3.572,3.572,0,0,0,1.442-.195,1.242,1.242,0,0,0,.384-.407,2.662,2.662,0,0,0,.338-.751q.022-.068.16-.068a.42.42,0,0,1,.286.068q-.057.15-.177.476t-.189.526c-.046.134-.1.289-.149.464a2.907,2.907,0,0,0-.1.435q-.6,0-1.861-.034t-2.044-.035l-1.386.035a.3.3,0,0,1-.035-.184c0-.1.012-.149.035-.149a2.034,2.034,0,0,0,.447-.069c.191-.046.3-.1.343-.171a3.642,3.642,0,0,0,.08-1.077v-4.329a4.687,4.687,0,0,0-.08-1.042q-.034-.092-.326-.166a1.966,1.966,0,0,0-.441-.074c-.031,0-.046-.05-.046-.149a.265.265,0,0,1,.046-.183c.1.008.3.021.607.04S194.767,122.327,194.973,122.327Z" transform="translate(-183.216 -122.201)"/><path d="M208.157,128.79a4.041,4.041,0,0,1,0-5.481,3.5,3.5,0,0,1,5.171,0,4.025,4.025,0,0,1,0,5.481,3.515,3.515,0,0,1-5.171,0Zm2.411-6.139a1.961,1.961,0,0,0-1.718.951,3.889,3.889,0,0,0-.63,2.2,5,5,0,0,0,.3,1.729,3.231,3.231,0,0,0,.928,1.357,2.19,2.19,0,0,0,1.478.544,1.9,1.9,0,0,0,1.283-.476,2.805,2.805,0,0,0,.807-1.179,4.345,4.345,0,0,0,.257-1.506,4.936,4.936,0,0,0-.3-1.723,3.225,3.225,0,0,0-.927-1.351A2.189,2.189,0,0,0,210.568,122.651Z" transform="translate(-187.936 -122.17)"/><path d="M224.079,128.227V123.9a4.32,4.32,0,0,0-.08-.985c-.023-.061-.135-.119-.338-.172a1.976,1.976,0,0,0-.452-.08c-.031,0-.046-.046-.046-.137a.285.285,0,0,1,.046-.194q.6.022,1.363.023.583,0,.956-.006t.659-.006a3.744,3.744,0,0,1,.607.051,2.878,2.878,0,0,1,.635.189,2.352,2.352,0,0,1,.579.344,1.541,1.541,0,0,1,.412.544,1.725,1.725,0,0,1,.16.75,1.266,1.266,0,0,1-.263.768,1.917,1.917,0,0,1-.487.493,2.115,2.115,0,0,1-.383.194c-.061.023-.08.046-.057.069a2.355,2.355,0,0,1,1.065.647,1.755,1.755,0,0,1,.619,1.334,1.834,1.834,0,0,1-.8,1.563,3.514,3.514,0,0,1-2.113.579h-1.569l-1.386.035a.3.3,0,0,1-.035-.184c0-.1.012-.149.035-.149a1.83,1.83,0,0,0,.44-.08q.292-.08.35-.183A3.642,3.642,0,0,0,224.079,128.227Zm2.393-2.668a1.344,1.344,0,0,0,.785-.326.956.956,0,0,0,.315-.751,1.781,1.781,0,0,0-.395-1.231A1.494,1.494,0,0,0,226,122.81a3.179,3.179,0,0,0-.813.08c-.046.008-.069.042-.069.1l-.046,1.156v1.363q0,.08.756.08A5.264,5.264,0,0,0,226.472,125.559Zm1.512,2.29a1.762,1.762,0,0,0-.493-1.254,2.04,2.04,0,0,0-1.546-.521q-.252,0-.825.046a1.238,1.238,0,0,0-.046.378v1.672q0,.871.183,1.02a.912.912,0,0,0,.618.16,3.517,3.517,0,0,0,.567-.046,4.334,4.334,0,0,0,.67-.178,1.271,1.271,0,0,0,.63-.458A1.344,1.344,0,0,0,227.984,127.849Z" transform="translate(-193.538 -122.225)"/><path d="M240.66,122.275l2.29,6.047q.206.538.332.824a.566.566,0,0,0,.355.281,1.363,1.363,0,0,0,.423.109c.031,0,.046.072.046.218a.388.388,0,0,1-.023.115q-1.145-.058-1.26-.057l-1.328.057a.264.264,0,0,1-.04-.189c0-.1.021-.143.052-.143a1.322,1.322,0,0,0,.343-.057q.206-.058.24-.149a.771.771,0,0,0,.023-.184,1.813,1.813,0,0,0-.04-.349c-.027-.134-.051-.238-.075-.315l-.046-.126-.47-1.294a.091.091,0,0,0-.068-.046q-.447-.034-.87-.035-.6,0-1.454.057l-.057.035-.493,1.259a3.018,3.018,0,0,0-.195.79.269.269,0,0,0,.092.229.864.864,0,0,0,.332.132,1.715,1.715,0,0,0,.332.051c.023,0,.036.046.04.137a.512.512,0,0,1-.018.195q-1.145-.058-1.179-.057-.23,0-.4.011l-.383.023-.407.023a.244.244,0,0,1-.046-.172c0-.107.016-.16.046-.16a1.454,1.454,0,0,0,.355-.057.549.549,0,0,0,.3-.16,4.586,4.586,0,0,0,.538-1.076l1.992-5.12c.016-.038.036-.1.063-.183s.048-.147.063-.189.038-.1.068-.16a.877.877,0,0,1,.08-.143c.023-.031.051-.065.086-.1a.279.279,0,0,1,.115-.08.409.409,0,0,1,.143-.023Zm-1.328,4.135q.6.023.813.023c.336,0,.683-.011,1.042-.034l.035-.057-.928-2.531-.984,2.554C239.308,126.395,239.315,126.41,239.331,126.41Z" transform="translate(-198.259 -122.195)"/><path d="M253.864,122.327c.153,0,.3,0,.447-.012s.3-.017.469-.029l.412-.029a.542.542,0,0,1,.023.172c0,.107-.015.16-.046.16a1.919,1.919,0,0,0-.412.08q-.3.08-.321.16a4.446,4.446,0,0,0-.1,1.065v4.318a4.15,4.15,0,0,0,.1,1.008q.034.114.779.115h.55a3.576,3.576,0,0,0,1.443-.195,1.242,1.242,0,0,0,.384-.407,2.661,2.661,0,0,0,.337-.751q.023-.068.16-.068a.422.422,0,0,1,.287.068c-.038.1-.1.258-.178.476s-.143.393-.189.526-.1.289-.149.464a2.826,2.826,0,0,0-.1.435q-.6,0-1.861-.034t-2.044-.035l-1.386.035a.3.3,0,0,1-.035-.184c0-.1.011-.149.035-.149a2.03,2.03,0,0,0,.446-.069q.286-.068.344-.171a3.642,3.642,0,0,0,.08-1.077v-4.329a4.687,4.687,0,0,0-.08-1.042q-.035-.092-.326-.166a1.971,1.971,0,0,0-.441-.074c-.031,0-.046-.05-.046-.149a.265.265,0,0,1,.046-.183c.1.008.3.021.607.04S253.659,122.327,253.864,122.327Z" transform="translate(-203.738 -122.201)"/><path d="M267.123,122.315q.516,0,1.786-.046t1.913-.046q.046.332.177.876t.155.682a.292.292,0,0,1-.207.057q-.149,0-.16-.08a1.276,1.276,0,0,0-.481-.808,1.711,1.711,0,0,0-.848-.177h-.768q-.984,0-1.007.149a5.422,5.422,0,0,0-.057.962v1.832q0,.069.493.069h1.07a1.126,1.126,0,0,0,.3-.046c.107-.031.175-.05.206-.057s.071-.057.121-.149a.809.809,0,0,0,.086-.2q.011-.064.08-.326c.008-.053.065-.08.171-.08a.271.271,0,0,1,.195.057v2.165a.264.264,0,0,1-.183.046c-.1,0-.16-.031-.183-.092-.053-.206-.1-.36-.137-.464a.343.343,0,0,0-.183-.257,4,4,0,0,0-1.214-.092q-.824,0-.824.1v1.775a3.591,3.591,0,0,0,.1,1.042q.034.114.779.115h.55a3.576,3.576,0,0,0,1.443-.195,1.242,1.242,0,0,0,.384-.407,2.68,2.68,0,0,0,.337-.751q.023-.068.16-.068a.423.423,0,0,1,.287.068q-.058.15-.178.476c-.08.218-.143.393-.189.526s-.1.289-.149.464a2.826,2.826,0,0,0-.1.435q-.584,0-1.844-.023t-2.061-.023l-1.386.035a.3.3,0,0,1-.034-.184c0-.1.011-.149.034-.149a1.834,1.834,0,0,0,.441-.08q.292-.08.349-.183a3.643,3.643,0,0,0,.08-1.077v-4.329a4.322,4.322,0,0,0-.08-.985q-.034-.092-.338-.172a1.974,1.974,0,0,0-.453-.08c-.03,0-.046-.046-.046-.137a.289.289,0,0,1,.046-.194Q266.356,122.315,267.123,122.315Z" transform="translate(-208.366 -122.188)"/><path d="M285.094,123.839a4.467,4.467,0,0,0-.08-1.008c-.023-.061-.154-.12-.4-.177a2.569,2.569,0,0,0-.509-.086c-.031,0-.046-.044-.046-.132a.255.255,0,0,1,.046-.178c.1.008.3.021.6.04s.55.029.756.029.449-.012.751-.035.479-.035.532-.035a.541.541,0,0,1,.023.172c0,.092-.015.137-.046.137a2.905,2.905,0,0,0-.5.091q-.383.092-.407.172a4.618,4.618,0,0,0-.091,1.065v4.352q0,.71.034,1.6a.338.338,0,0,1-.217.046.5.5,0,0,1-.379-.263l-4.443-6.3v4.89a4.831,4.831,0,0,0,.08,1.065q.023.08.384.166a2.655,2.655,0,0,0,.476.086c.023,0,.036.046.04.137a.529.529,0,0,1-.017.195q-1.145-.058-1.317-.057l-1.317.057a.272.272,0,0,1-.035-.172c0-.107.012-.16.035-.16a2.577,2.577,0,0,0,.521-.086c.24-.057.372-.12.395-.189a3.416,3.416,0,0,0,.115-1.076v-4.5a3.506,3.506,0,0,0-.08-.859c-.023-.061-.153-.117-.39-.166a2.854,2.854,0,0,0-.515-.074c-.031,0-.046-.048-.046-.143a.277.277,0,0,1,.046-.189q.893.023,1.168.023.6,0,.916-.023.424.779,3.882,5.612a2.767,2.767,0,0,0,.035-.47Z" transform="translate(-213.001 -122.201)"/><path d="M296.674,122.315q.515,0,1.786-.046t1.913-.046q.046.332.177.876t.155.682a.293.293,0,0,1-.207.057q-.149,0-.16-.08a1.276,1.276,0,0,0-.481-.808,1.713,1.713,0,0,0-.848-.177h-.768q-.985,0-1.008.149a5.489,5.489,0,0,0-.057.962v1.832q0,.069.493.069h1.071a1.13,1.13,0,0,0,.3-.046c.107-.031.175-.05.206-.057s.071-.057.121-.149a.808.808,0,0,0,.086-.2q.011-.064.08-.326c.007-.053.065-.08.171-.08a.272.272,0,0,1,.195.057v2.165a.265.265,0,0,1-.183.046c-.1,0-.16-.031-.183-.092-.053-.206-.1-.36-.137-.464a.7.7,0,0,0-.086-.183.677.677,0,0,0-.1-.074,4,4,0,0,0-1.214-.092q-.825,0-.825.1v1.775a3.587,3.587,0,0,0,.1,1.042q.034.114.779.115h.55a3.576,3.576,0,0,0,1.443-.195,1.242,1.242,0,0,0,.383-.407,2.662,2.662,0,0,0,.338-.751q.022-.068.16-.068a.423.423,0,0,1,.287.068q-.058.15-.178.476t-.189.526c-.046.134-.1.289-.149.464a2.922,2.922,0,0,0-.1.435q-.583,0-1.844-.023t-2.061-.023l-1.386.035a.3.3,0,0,1-.034-.184c0-.1.011-.149.034-.149a1.834,1.834,0,0,0,.441-.08q.292-.08.349-.183a3.642,3.642,0,0,0,.08-1.077v-4.329a4.32,4.32,0,0,0-.08-.985q-.034-.092-.337-.172a1.974,1.974,0,0,0-.453-.08c-.031,0-.046-.046-.046-.137a.285.285,0,0,1,.046-.194Q295.907,122.315,296.674,122.315Z" transform="translate(-218.664 -122.188)"/><path d="M311.915,122.293a2.87,2.87,0,0,1,.79.115,3.377,3.377,0,0,1,.79.344,1.813,1.813,0,0,1,.642.652,1.9,1.9,0,0,1,.251.985,1.8,1.8,0,0,1-.36,1.008,2.367,2.367,0,0,1-.979.813c-.077.031-.1.069-.069.115a8.153,8.153,0,0,0,1.317,2.016q1.1,1.2,1.786,1.2a.358.358,0,0,1,.035.16.383.383,0,0,1-.035.172,1.2,1.2,0,0,1-.309.035,3.39,3.39,0,0,1-2.783-1.649q-.184-.252-.418-.6c-.156-.233-.271-.4-.343-.5s-.156-.216-.252-.338a1.828,1.828,0,0,0-.252-.275,1.014,1.014,0,0,0-.235-.149,1.373,1.373,0,0,0-.423-.046,1.18,1.18,0,0,0-.137.006.162.162,0,0,0-.092.051.186.186,0,0,0-.046.137v1.684a3.354,3.354,0,0,0,.091,1q.058.15.407.24a2.285,2.285,0,0,0,.5.092c.031,0,.046.053.046.16a.545.545,0,0,1-.023.172q-1.145-.058-1.489-.057l-1.4.057a.361.361,0,0,1-.034-.207c0-.1.011-.149.034-.149a2.028,2.028,0,0,0,.447-.069q.286-.068.343-.171a3.642,3.642,0,0,0,.08-1.077v-4.329a4.32,4.32,0,0,0-.08-.985q-.034-.092-.337-.172a1.974,1.974,0,0,0-.453-.08c-.03,0-.046-.046-.046-.137a.289.289,0,0,1,.046-.194l1.375.023q.343,0,.813-.023C311.426,122.3,311.694,122.293,311.915,122.293Zm-.183.5a3.119,3.119,0,0,0-.8.08c-.031.008-.055.036-.075.086a1.533,1.533,0,0,0-.046.343q-.017.269-.017.83v1.386q0,.332,1,.332h.286a1.25,1.25,0,0,0,.831-.4,1.389,1.389,0,0,0,.429-1.065A1.412,1.412,0,0,0,311.732,122.8Z" transform="translate(-223.408 -122.213)"/><path d="M324.007,126.122a3.937,3.937,0,0,1,1.088-2.789,3.513,3.513,0,0,1,2.669-1.163,12.08,12.08,0,0,1,2.714.515q.046,1.306.046,1.42,0,.172-.24.172a.163.163,0,0,1-.149-.057q-.309-1.57-2.336-1.569a2.345,2.345,0,0,0-1.912.973,3.82,3.82,0,0,0,.074,4.69,2.585,2.585,0,0,0,2.113,1.071,3.35,3.35,0,0,0,1.489-.252q.08-.034.08-.172l-.012-.939v-.08a3.34,3.34,0,0,0-.092-.985q-.046-.114-.372-.183a2.621,2.621,0,0,0-.509-.069c-.031,0-.046-.048-.046-.143a.274.274,0,0,1,.046-.189l1.5.057q.091,0,1.237-.057a.513.513,0,0,1,.023.16c0,.114-.015.171-.046.171a1.5,1.5,0,0,0-.315.075,1.96,1.96,0,0,0-.349.132q-.114.08-.114.767c0,.161.005.334.017.521s.017.289.017.3a1.042,1.042,0,0,0,.08.4,1.138,1.138,0,0,1,.08.229q0,.092-.286.206c-.016.008-.09.036-.223.086s-.22.082-.257.1-.124.044-.258.085a2.868,2.868,0,0,1-.321.086l-.343.069a3.6,3.6,0,0,1-.424.063c-.134.012-.29.023-.469.035s-.369.017-.568.017a3.42,3.42,0,0,1-2.571-1.111A3.7,3.7,0,0,1,324.007,126.122Z" transform="translate(-228.68 -122.17)"/><path d="M341.066,128.79a4.041,4.041,0,0,1,0-5.481,3.5,3.5,0,0,1,5.171,0,4.025,4.025,0,0,1,0,5.481,3.515,3.515,0,0,1-5.171,0Zm2.411-6.139a1.961,1.961,0,0,0-1.718.951,3.889,3.889,0,0,0-.629,2.2,4.985,4.985,0,0,0,.3,1.729,3.224,3.224,0,0,0,.927,1.357,2.189,2.189,0,0,0,1.478.544,1.9,1.9,0,0,0,1.283-.476,2.805,2.805,0,0,0,.807-1.179,4.345,4.345,0,0,0,.258-1.506,4.951,4.951,0,0,0-.3-1.723,3.232,3.232,0,0,0-.928-1.351A2.189,2.189,0,0,0,343.477,122.651Z" transform="translate(-234.251 -122.17)"/><path d="M361.478,128.294v-2.016l-.023-.046q-1.077-.023-1.7-.023a10.2,10.2,0,0,0-1.764.057v1.981a4.442,4.442,0,0,0,.1,1.065c.016.053.122.106.321.155a2.044,2.044,0,0,0,.412.074c.023,0,.036.046.04.137a.512.512,0,0,1-.018.195q-1.144-.058-1.328-.057-.057,0-1.374.057a.244.244,0,0,1-.046-.172c0-.107.015-.16.046-.16a2.094,2.094,0,0,0,.441-.069q.292-.068.326-.16a4.532,4.532,0,0,0,.08-1.019V123.85a4.539,4.539,0,0,0-.08-1.02q-.034-.092-.326-.166a1.971,1.971,0,0,0-.441-.074c-.031,0-.046-.05-.046-.149a.265.265,0,0,1,.046-.183c.1.008.3.021.607.04s.561.029.767.029c.153,0,.3,0,.447-.012s.3-.017.47-.029l.412-.029a.449.449,0,0,1,.018.189c0,.1-.018.143-.04.143a1.908,1.908,0,0,0-.412.08q-.3.08-.321.16a4.444,4.444,0,0,0-.1,1.065V125.6l.023.035q1.123.022,1.741.023.665,0,1.7-.023a.068.068,0,0,0,.023-.046v-1.74a4.541,4.541,0,0,0-.08-1.02q-.034-.092-.326-.166a1.971,1.971,0,0,0-.441-.074c-.031,0-.046-.048-.046-.143a.277.277,0,0,1,.046-.189c.092.008.294.021.607.04s.573.029.779.029c.145,0,.29,0,.435-.012s.3-.017.464-.029l.407-.029a.561.561,0,0,1,.023.172c0,.107-.015.16-.046.16a1.919,1.919,0,0,0-.412.08q-.3.08-.321.16a4.575,4.575,0,0,0-.092,1.065v4.352a4.572,4.572,0,0,0,.092,1.065c.015.053.122.106.321.155a2.056,2.056,0,0,0,.412.074c.031,0,.046.057.046.172a.52.52,0,0,1-.023.16q-1.145-.058-1.306-.057-.068,0-1.386.057a.277.277,0,0,1-.046-.189c0-.1.015-.143.046-.143a2.094,2.094,0,0,0,.441-.069q.292-.068.326-.16A4.534,4.534,0,0,0,361.478,128.294Z" transform="translate(-239.866 -122.201)"/><path d="M373.13,128.79a4.043,4.043,0,0,1,0-5.481,3.5,3.5,0,0,1,5.171,0,4.027,4.027,0,0,1,0,5.481,3.515,3.515,0,0,1-5.171,0Zm2.411-6.139a1.96,1.96,0,0,0-1.718.951,3.884,3.884,0,0,0-.63,2.2,4.985,4.985,0,0,0,.3,1.729,3.225,3.225,0,0,0,.928,1.357,2.187,2.187,0,0,0,1.478.544,1.9,1.9,0,0,0,1.282-.476,2.8,2.8,0,0,0,.808-1.179,4.361,4.361,0,0,0,.257-1.506,4.936,4.936,0,0,0-.3-1.723,3.227,3.227,0,0,0-.928-1.351A2.187,2.187,0,0,0,375.542,122.651Z" transform="translate(-245.425 -122.17)"/><path d="M389.567,122.327c.153,0,.3,0,.447-.012s.3-.017.47-.029l.412-.029a.54.54,0,0,1,.023.172c0,.107-.016.16-.046.16a1.919,1.919,0,0,0-.412.08q-.3.08-.321.16a4.446,4.446,0,0,0-.1,1.065v4.318a4.15,4.15,0,0,0,.1,1.008q.034.114.779.115h.549a3.576,3.576,0,0,0,1.443-.195,1.243,1.243,0,0,0,.384-.407,2.663,2.663,0,0,0,.338-.751q.022-.068.16-.068a.421.421,0,0,1,.286.068c-.038.1-.1.258-.177.476s-.143.393-.189.526-.1.289-.149.464a2.832,2.832,0,0,0-.1.435q-.6,0-1.861-.034t-2.044-.035l-1.386.035a.3.3,0,0,1-.035-.184c0-.1.012-.149.035-.149a2.029,2.029,0,0,0,.446-.069q.286-.068.344-.171a3.642,3.642,0,0,0,.08-1.077v-4.329a4.688,4.688,0,0,0-.08-1.042c-.023-.061-.132-.117-.326-.166a1.972,1.972,0,0,0-.441-.074c-.031,0-.046-.05-.046-.149a.265.265,0,0,1,.046-.183c.1.008.3.021.607.04S389.362,122.327,389.567,122.327Z" transform="translate(-251.027 -122.201)"/><path d="M402.914,122.352q.436,0,1.106-.012t.887-.011a3.816,3.816,0,0,1,2.909,1.1,3.64,3.64,0,0,1,1.042,2.589,3.871,3.871,0,0,1-1.054,2.772,3.818,3.818,0,0,1-2.909,1.111q-.137,0-.819-.023t-1.139-.012l-1.386.035a.273.273,0,0,1-.034-.172c0-.107.011-.16.034-.16a1.834,1.834,0,0,0,.441-.08q.292-.08.349-.183a3.641,3.641,0,0,0,.08-1.077V123.9a4.32,4.32,0,0,0-.08-.985q-.034-.092-.337-.172a1.974,1.974,0,0,0-.453-.08c-.03,0-.046-.046-.046-.137a.289.289,0,0,1,.046-.194Q402.147,122.351,402.914,122.352Zm.5,1.386v4.535a2.144,2.144,0,0,0,.171.87q.046.114.613.171t.876.057q2.634,0,2.634-3.4a3.577,3.577,0,0,0-.693-2.222,2.379,2.379,0,0,0-2.022-.916h-.057q-1.237,0-1.375.183A1.289,1.289,0,0,0,403.418,123.738Z" transform="translate(-255.685 -122.225)"/><path d="M418.581,123.85a4.539,4.539,0,0,0-.08-1.02q-.034-.092-.326-.166a1.971,1.971,0,0,0-.441-.074c-.031,0-.046-.05-.046-.149a.265.265,0,0,1,.046-.183q1.317.058,1.374.057.184,0,1.329-.057a.562.562,0,0,1,.023.172c0,.107-.016.16-.046.16a1.908,1.908,0,0,0-.412.08q-.3.08-.321.16a4.444,4.444,0,0,0-.1,1.065v4.352a4.442,4.442,0,0,0,.1,1.065c.016.053.122.106.321.155a2.045,2.045,0,0,0,.412.074c.031,0,.046.057.046.172a.521.521,0,0,1-.023.16q-1.145-.058-1.329-.057-.057,0-1.374.057a.244.244,0,0,1-.046-.172c0-.107.015-.16.046-.16a2.094,2.094,0,0,0,.441-.069q.292-.068.326-.16a4.532,4.532,0,0,0,.08-1.019Z" transform="translate(-261.325 -122.201)"/><path d="M432.462,123.839a4.467,4.467,0,0,0-.08-1.008c-.023-.061-.154-.12-.395-.177a2.581,2.581,0,0,0-.51-.086c-.03,0-.046-.044-.046-.132a.258.258,0,0,1,.046-.178c.1.008.3.021.6.04s.55.029.756.029.448-.012.75-.035.479-.035.532-.035a.54.54,0,0,1,.023.172c0,.092-.016.137-.046.137a2.891,2.891,0,0,0-.5.091q-.384.092-.407.172a4.575,4.575,0,0,0-.092,1.065v4.352q0,.71.035,1.6a.342.342,0,0,1-.218.046.494.494,0,0,1-.378-.263l-4.444-6.3v4.89a4.829,4.829,0,0,0,.08,1.065q.023.08.384.166a2.664,2.664,0,0,0,.476.086c.023,0,.036.046.04.137a.529.529,0,0,1-.017.195q-1.145-.058-1.317-.057l-1.317.057a.272.272,0,0,1-.035-.172c0-.107.012-.16.035-.16a2.571,2.571,0,0,0,.521-.086c.24-.057.372-.12.395-.189a3.416,3.416,0,0,0,.115-1.076v-4.5a3.506,3.506,0,0,0-.08-.859c-.023-.061-.153-.117-.39-.166a2.854,2.854,0,0,0-.515-.074c-.031,0-.046-.048-.046-.143a.277.277,0,0,1,.046-.189q.893.023,1.168.023.6,0,.916-.023.424.779,3.882,5.612a2.7,2.7,0,0,0,.035-.47Z" transform="translate(-264.354 -122.201)"/><path d="M442.9,126.122a3.935,3.935,0,0,1,1.088-2.789,3.512,3.512,0,0,1,2.668-1.163,12.073,12.073,0,0,1,2.714.515q.046,1.306.046,1.42,0,.172-.24.172c-.077,0-.126-.02-.149-.057q-.309-1.57-2.336-1.569a2.344,2.344,0,0,0-1.912.973,3.82,3.82,0,0,0,.074,4.69,2.583,2.583,0,0,0,2.113,1.071,3.347,3.347,0,0,0,1.489-.252q.08-.034.08-.172l-.011-.939v-.08a3.338,3.338,0,0,0-.092-.985q-.046-.114-.372-.183a2.62,2.62,0,0,0-.51-.069c-.03,0-.046-.048-.046-.143a.278.278,0,0,1,.046-.189l1.5.057q.092,0,1.237-.057a.514.514,0,0,1,.023.16c0,.114-.016.171-.046.171a1.491,1.491,0,0,0-.315.075,1.92,1.92,0,0,0-.349.132q-.114.08-.115.767c0,.161.006.334.018.521s.017.289.017.3a1.043,1.043,0,0,0,.08.4,1.141,1.141,0,0,1,.08.229q0,.092-.286.206c-.016.008-.09.036-.224.086s-.22.082-.258.1-.124.044-.257.085a2.87,2.87,0,0,1-.321.086l-.344.069a3.565,3.565,0,0,1-.423.063c-.134.012-.29.023-.47.035s-.368.017-.567.017a3.419,3.419,0,0,1-2.571-1.111A3.7,3.7,0,0,1,442.9,126.122Z" transform="translate(-270.109 -122.17)"/></g><g transform="translate(0 0)"><path d="M138.427,85.618v2.606h-6.25V100.5h-3.156V85.618Z" transform="translate(-129.021 -84.488)"/><path d="M155.918,102.374h-3.105v-9.05h-2.861a39.392,39.392,0,0,1-.794,5.7,6.236,6.236,0,0,1-1.248,2.718,2.652,2.652,0,0,1-2.041.84,4.173,4.173,0,0,1-1.772-.326V99.768a2.614,2.614,0,0,0,1,.2q.581,0,.972-.835a11.322,11.322,0,0,0,.7-2.785q.311-1.949.535-5.359h8.613Z" transform="translate(-134.275 -86.361)"/><path d="M177.213,96.549a6.117,6.117,0,0,1-1.466,4.347,5.316,5.316,0,0,1-4.082,1.568,5.709,5.709,0,0,1-2.891-.718,4.777,4.777,0,0,1-1.924-2.061,6.931,6.931,0,0,1-.672-3.135,6.086,6.086,0,0,1,1.456-4.337,5.347,5.347,0,0,1,4.093-1.547,5.744,5.744,0,0,1,2.891.713,4.761,4.761,0,0,1,1.924,2.046A6.861,6.861,0,0,1,177.213,96.549Zm-7.87,0A4.783,4.783,0,0,0,169.9,99.1a1.984,1.984,0,0,0,1.807.865,1.953,1.953,0,0,0,1.787-.861,4.845,4.845,0,0,0,.545-2.56,4.706,4.706,0,0,0-.55-2.535,2.338,2.338,0,0,0-3.594-.005A4.7,4.7,0,0,0,169.343,96.549Z" transform="translate(-141.969 -86.246)"/><path d="M185.99,93.076a9.971,9.971,0,0,1,1.491-5.95,6.927,6.927,0,0,1,4.657-2.571q1.537-.264,4.591-.672l.356,2.708q-1.324.153-4.693.652a5.1,5.1,0,0,0-1.914.611,2.451,2.451,0,0,0-.941,1.16,6.311,6.311,0,0,0-.382,2.005h.152a3.606,3.606,0,0,1,1.426-1.282,4.161,4.161,0,0,1,1.9-.448,4.2,4.2,0,0,1,3.278,1.288,5.3,5.3,0,0,1,1.171,3.69,5.931,5.931,0,0,1-1.482,4.3,5.417,5.417,0,0,1-4.087,1.532,4.872,4.872,0,0,1-4.067-1.868A8.172,8.172,0,0,1,185.99,93.076Zm5.711,4.509q2.21,0,2.209-3.043,0-2.963-2-2.963a2.566,2.566,0,0,0-1.094.254,3.985,3.985,0,0,0-1,.667,2.993,2.993,0,0,0-.667.829,6.17,6.17,0,0,0,.662,3.161A2.084,2.084,0,0,0,191.7,97.585Z" transform="translate(-148.873 -83.883)"/><path d="M213.783,102.248l-.6-1.547H213.1a4.59,4.59,0,0,1-1.613,1.37,5.212,5.212,0,0,1-2.164.382,3.5,3.5,0,0,1-2.581-.937,3.594,3.594,0,0,1-.941-2.667,3,3,0,0,1,1.267-2.673,7.349,7.349,0,0,1,3.823-.952l1.975-.061v-.5a1.548,1.548,0,0,0-1.771-1.731,8.074,8.074,0,0,0-3.207.825l-1.028-2.1a9.261,9.261,0,0,1,4.357-1.028,5.43,5.43,0,0,1,3.512,1,3.689,3.689,0,0,1,1.222,3.034v7.584Zm-.916-5.273-1.2.04a3.851,3.851,0,0,0-2.016.489,1.536,1.536,0,0,0-.661,1.364q0,1.313,1.506,1.313a2.385,2.385,0,0,0,1.726-.621,2.181,2.181,0,0,0,.646-1.649Z" transform="translate(-155.777 -86.235)"/><path d="M235.605,102.374H232.5v-9.05h-2.86a39.275,39.275,0,0,1-.794,5.7,6.229,6.229,0,0,1-1.247,2.718,2.654,2.654,0,0,1-2.041.84,4.175,4.175,0,0,1-1.772-.326V99.768a2.617,2.617,0,0,0,1,.2q.58,0,.972-.835a11.353,11.353,0,0,0,.7-2.785q.31-1.949.534-5.359h8.613Z" transform="translate(-162.044 -86.361)"/><path d="M250.449,87.916a7.015,7.015,0,0,0-1.98.285,18.242,18.242,0,0,0-1.919.682l-1-2.545a12.085,12.085,0,0,1,4.957-1.049,6.49,6.49,0,0,1,5.116,2.031,8.2,8.2,0,0,1,1.807,5.645,7.931,7.931,0,0,1-1.858,5.655,7.016,7.016,0,0,1-5.36,1.97,12.167,12.167,0,0,1-4.4-.764V97.179a14.356,14.356,0,0,0,4.215.784A4.219,4.219,0,0,0,253,97.017a3.96,3.96,0,0,0,1.115-2.84h-6.455V91.591h6.434a3.843,3.843,0,0,0-1.038-2.7A3.532,3.532,0,0,0,250.449,87.916Z" transform="translate(-169.629 -84.373)"/><path d="M271.251,90.993V95.37h4.337V90.993h3.1v11.381h-3.1V97.681h-4.337v4.693h-3.1V90.993Z" transform="translate(-177.502 -86.361)"/><path d="M294.115,102.463a5.874,5.874,0,0,1-4.3-1.517,5.744,5.744,0,0,1-1.547-4.3,6.315,6.315,0,0,1,1.43-4.423,5.093,5.093,0,0,1,3.955-1.563,5.014,5.014,0,0,1,3.757,1.375,5.2,5.2,0,0,1,1.344,3.8v1.506h-7.34a2.987,2.987,0,0,0,.784,2.067,2.757,2.757,0,0,0,2.056.743,8.533,8.533,0,0,0,1.945-.214,9.739,9.739,0,0,0,1.914-.682v2.4a7.264,7.264,0,0,1-1.741.606A10.978,10.978,0,0,1,294.115,102.463Zm-.438-9.59a1.968,1.968,0,0,0-1.547.626,2.894,2.894,0,0,0-.642,1.777h4.357a2.589,2.589,0,0,0-.6-1.777A2.033,2.033,0,0,0,293.677,92.873Z" transform="translate(-184.515 -86.246)"/><path d="M314.49,102.463a3.775,3.775,0,0,1-3.146-1.456h-.163q.163,1.426.163,1.65v4.611h-3.1V90.878h2.525l.437,1.476h.143a3.592,3.592,0,0,1,3.227-1.69,3.693,3.693,0,0,1,3.156,1.558,7.2,7.2,0,0,1,1.14,4.327,8.542,8.542,0,0,1-.534,3.166,4.44,4.44,0,0,1-1.522,2.046A3.9,3.9,0,0,1,314.49,102.463Zm-.916-9.315a1.961,1.961,0,0,0-1.68.708,4.061,4.061,0,0,0-.55,2.336v.336a4.793,4.793,0,0,0,.545,2.627,1.946,1.946,0,0,0,1.726.794q2.087,0,2.087-3.441a4.913,4.913,0,0,0-.514-2.519A1.756,1.756,0,0,0,313.574,93.148Z" transform="translate(-191.473 -86.246)"/><path d="M336.349,90.993v2.331h-4.754v9.05h-3.1V90.993Z" transform="translate(-198.53 -86.361)"/><path d="M353.759,96.549a6.117,6.117,0,0,1-1.466,4.347,5.315,5.315,0,0,1-4.082,1.568,5.709,5.709,0,0,1-2.891-.718,4.777,4.777,0,0,1-1.924-2.061,6.931,6.931,0,0,1-.672-3.135,6.086,6.086,0,0,1,1.456-4.337,5.347,5.347,0,0,1,4.093-1.547,5.744,5.744,0,0,1,2.891.713,4.761,4.761,0,0,1,1.924,2.046A6.861,6.861,0,0,1,353.759,96.549Zm-7.869,0a4.777,4.777,0,0,0,.555,2.555,1.984,1.984,0,0,0,1.807.865,1.951,1.951,0,0,0,1.786-.861,4.838,4.838,0,0,0,.545-2.56,4.706,4.706,0,0,0-.549-2.535,2.338,2.338,0,0,0-3.594-.005A4.7,4.7,0,0,0,345.89,96.549Z" transform="translate(-203.49 -86.246)"/><path d="M375.005,100.5h-3.6l-3.461-5.629-3.462,5.629H361.1l4.937-7.676-4.622-7.207H364.9l3.207,5.354,3.146-5.354h3.4L369.976,93Z" transform="translate(-209.893 -84.488)"/><path d="M394.916,96.549a6.117,6.117,0,0,1-1.466,4.347,5.316,5.316,0,0,1-4.082,1.568,5.705,5.705,0,0,1-2.891-.718,4.775,4.775,0,0,1-1.925-2.061,6.93,6.93,0,0,1-.672-3.135,6.084,6.084,0,0,1,1.456-4.337,5.346,5.346,0,0,1,4.092-1.547,5.742,5.742,0,0,1,2.891.713,4.757,4.757,0,0,1,1.924,2.046A6.861,6.861,0,0,1,394.916,96.549Zm-7.869,0A4.783,4.783,0,0,0,387.6,99.1a1.984,1.984,0,0,0,1.807.865,1.953,1.953,0,0,0,1.786-.861,4.851,4.851,0,0,0,.545-2.56,4.706,4.706,0,0,0-.55-2.535,2.338,2.338,0,0,0-3.594-.005A4.7,4.7,0,0,0,387.046,96.549Z" transform="translate(-217.832 -86.246)"/><path d="M414.074,102.374h-3.105v-9.05h-2.86a39.558,39.558,0,0,1-.794,5.7,6.236,6.236,0,0,1-1.247,2.718,2.655,2.655,0,0,1-2.041.84,4.173,4.173,0,0,1-1.772-.326V99.768a2.614,2.614,0,0,0,1,.2q.581,0,.973-.835a11.442,11.442,0,0,0,.7-2.785q.31-1.949.534-5.359h8.613Z" transform="translate(-224.235 -86.361)"/><path d="M436.583,106.456h-2.789v-4.082h-7.656v4.082h-2.789V100.1h.957a14.378,14.378,0,0,0,1.639-3.828,28.445,28.445,0,0,0,.926-5.283h8.042V100.1h1.669Zm-4.774-6.352v-6.78h-2.331a30.31,30.31,0,0,1-.7,3.593,14.8,14.8,0,0,1-1.227,3.187Z" transform="translate(-231.586 -86.361)"/><path d="M449.649,90.993v4.5q0,.712-.234,3.482l5.253-7.981H458.4v11.381h-3v-4.54q0-1.212.2-3.421l-5.232,7.96h-3.726V90.993Z" transform="translate(-239.704 -86.361)"/><path d="M472.8,90.993V95.37h4.337V90.993h3.1v11.381h-3.1V97.681H472.8v4.693h-3.1V90.993Z" transform="translate(-247.735 -86.361)"/><path d="M498.739,90.993v2.331h-4.754v9.05H490.88V90.993Z" transform="translate(-255.118 -86.361)"/></g></g></g></svg>