<svg xmlns="http://www.w3.org/2000/svg" width="323.986" height="56" viewBox="0 0 323.986 56"><g transform="translate(-0.014 -0.001)"><g transform="translate(5.714 66.001)"><path d="M2.1-62.4" fill="#5a9f2f" stroke="#737373" stroke-miterlimit="10" stroke-width="0.75"/><g transform="translate(23.051)"><circle cx="6" cy="6" r="6" transform="translate(-5.7 -66)" fill="#fff"/></g><g transform="translate(7.764 2.659)"><path d="M-5.7-66" fill="#fff"/><path d="M33.8-64.2c-4.3,2.5-8.8,5.1-13.2,7.6a11.046,11.046,0,0,1-5,1.7,10.694,10.694,0,0,1-5.2-1.7L6.3-59c-2.2-1.2-4.4-2.5-6.6-3.8l-2-1.2c-1.1-.7-2.3-1.3-3.4-2v8l8.8,5.2s4.5,2.7,6.1,3.4c.7.4,1.3.6,1.6.8a12.058,12.058,0,0,0,9.5,0c.4-.2.9-.4,1.6-.8,1.5-.8,6.1-3.4,6.1-3.4l8.7-5.1v-8Z" fill="#fff"/></g><path d="M22.3-34.2a18.588,18.588,0,0,0-.4-3.3,11.968,11.968,0,0,0-4.3-6.3,36.223,36.223,0,0,0-4.1-2.7c-1.5-.9-2.9-1.7-4.4-2.6l-.6-.4L3.8-52.3,1.2-53.9,1.1-54s-6.5,3.8-6.8,3.9l.8.5,2.2,1.3,6.4,3.7L9.4-41a13.386,13.386,0,0,1,4.7,3.8,8.226,8.226,0,0,1,1.3,3.7c0,.2.1.4.1.7V-10h6.8V-32.2a6.7,6.7,0,0,0,0-2Z" fill="#fff"/><path d="M24.3-34.2a18.588,18.588,0,0,1,.4-3.3A11.968,11.968,0,0,1,29-43.8a36.223,36.223,0,0,1,4.1-2.7c1.5-.9,2.9-1.7,4.4-2.6l.6-.4,4.7-2.8,2.6-1.6.1-.1,6.8,3.9c-.3.2-.8.4-.8.5l-2.2,1.3L43-44.4,37.2-41a13.386,13.386,0,0,0-4.7,3.8,8.226,8.226,0,0,0-1.3,3.7c0,.2-.1.4-.1.7V-10H24.3V-32.2a13.334,13.334,0,0,1,0-2Z" fill="#fff"/></g><g transform="translate(31.712 24.945)"><path d="M75.2,15.6a4.3,4.3,0,0,1,1.1-2.8A3.571,3.571,0,0,1,79,11.6a12.816,12.816,0,0,1,2.7.5v1.4a.215.215,0,0,1-.2.2c-.1,0-.1,0-.1-.1A2.067,2.067,0,0,0,79.1,12a2.276,2.276,0,0,0-1.9,1,3.762,3.762,0,0,0,.1,4.7,2.609,2.609,0,0,0,2.1,1.1,4.013,4.013,0,0,0,1.5-.3c.1,0,.1-.1.1-.2v-1a3.4,3.4,0,0,0-.1-1c0-.1-.2-.1-.4-.2-.2,0-.3-.1-.5-.1v-.3l1.5.1a8.33,8.33,0,0,0,1.2-.1v.4a.367.367,0,0,0-.3.1c-.1,0-.2.1-.3.1-.1.1-.1.3-.1.8v.8a.6.6,0,0,0,.1.4.349.349,0,0,0,.1.2c0,.1-.1.1-.3.2a.31.31,0,0,0-.2.1c-.1,0-.2.1-.3.1a.774.774,0,0,0-.3.1c-.1,0-.2.1-.3.1l-.3.1c-.1,0-.3.1-.4.1H79a3.631,3.631,0,0,1-2.6-1.1,3.367,3.367,0,0,1-1.2-2.6Z" fill="#fff"/><path d="M87,11.8h1.3v.4a.6.6,0,0,0-.4.1c-.2.1-.3.1-.3.2a3.751,3.751,0,0,0-.1,1.1v4.3a3.4,3.4,0,0,0,.1,1c0,.1.3.1.8.1H89a3.178,3.178,0,0,0,1.4-.2.781.781,0,0,0,.4-.4,1.136,1.136,0,0,0,.3-.8.349.349,0,0,1,.2-.1.367.367,0,0,1,.3.1,1.69,1.69,0,0,1-.2.5c-.1.2-.1.4-.2.5a4.333,4.333,0,0,0-.1.5c0,.1-.1.3-.1.4H85.7v-.3c.2,0,.3,0,.4-.1.2,0,.3-.1.3-.2a4.1,4.1,0,0,0,.1-1.1V13.5a3.4,3.4,0,0,0-.1-1c0-.1-.1-.1-.3-.2-.1,0-.3-.1-.4-.1v-.3h.6C86.6,11.9,86.8,11.8,87,11.8Z" fill="#fff"/><path d="M95.4,18.3a4.126,4.126,0,0,1,0-5.5,3.474,3.474,0,0,1,4.9-.2c.1.1.2.1.2.2a4.126,4.126,0,0,1,0,5.5,3.592,3.592,0,0,1-5,.2C95.6,18.4,95.5,18.3,95.4,18.3Zm2.4-6.2a1.76,1.76,0,0,0-1.7,1,4.282,4.282,0,0,0-.6,2.2,4.671,4.671,0,0,0,.3,1.7,4.194,4.194,0,0,0,.9,1.4,1.651,1.651,0,0,0,1.5.5,2.106,2.106,0,0,0,1.3-.5,2.55,2.55,0,0,0,.8-1.2,4.013,4.013,0,0,0,.3-1.5,4.671,4.671,0,0,0-.3-1.7,4.194,4.194,0,0,0-.9-1.4A3.022,3.022,0,0,0,97.8,12.1Z" fill="#fff"/><path d="M105.7,17.7V13.4a3.4,3.4,0,0,0-.1-1c0-.1-.1-.1-.3-.2a4.331,4.331,0,0,0-.5-.1v-.3h3.1a1.268,1.268,0,0,1,.6.1,1.421,1.421,0,0,1,.6.2l.6.3a1,1,0,0,1,.4.5,1.884,1.884,0,0,1,.2.8,1.33,1.33,0,0,1-.3.8,1.2,1.2,0,0,1-.5.5c-.1.1-.2.1-.4.2-.1,0-.1,0-.1.1a2.384,2.384,0,0,1,1.1.6,1.612,1.612,0,0,1,.6,1.3,2.088,2.088,0,0,1-.8,1.6,3.936,3.936,0,0,1-2.1.6h-3v-.3a.6.6,0,0,0,.4-.1c.2-.1.3-.1.4-.2A2.161,2.161,0,0,0,105.7,17.7Zm2.4-2.7a1.032,1.032,0,0,0,1.1-1.1,1.746,1.746,0,0,0-.4-1.2,1.286,1.286,0,0,0-1.2-.4,2.2,2.2,0,0,0-.8.1.1.1,0,0,0-.1.1v2.6c0,.1.3.1.8.1a.735.735,0,0,1,.6-.2Zm1.6,2.3a2.106,2.106,0,0,0-.5-1.3,1.741,1.741,0,0,0-1.5-.5h-.8c0,.1-.1.3,0,.4v1.7a1.6,1.6,0,0,0,.2,1,1.421,1.421,0,0,0,.6.2h.6a1.854,1.854,0,0,0,.7-.2c.3-.1.5-.2.6-.5,0-.2.1-.5.1-.8Z" fill="#fff"/><path d="M117.6,11.7l2.3,6a3.385,3.385,0,0,0,.3.8,1.38,1.38,0,0,0,.4.3.6.6,0,0,0,.4.1v.3a8.868,8.868,0,0,1-1.3-.1l-1.3.1c0-.1-.1-.1,0-.2,0-.1,0-.1.1-.1a.367.367,0,0,0,.3-.1.349.349,0,0,0,.2-.1v-.5c0-.1-.1-.2-.1-.3v-.1l-.5-1.3h-1a8.636,8.636,0,0,0-1.5.1h-.1l-.5,1.3a2.354,2.354,0,0,0-.2.8c0,.1,0,.2.1.2a.367.367,0,0,0,.3.1.367.367,0,0,1,.3.1v.3a5.5,5.5,0,0,1-1.2-.1h-1.2a.139.139,0,0,1,0-.2v-.2a.756.756,0,0,0,.4-.1c.1,0,.2-.1.3-.2a3.7,3.7,0,0,0,.5-1.1l2-5.1a.31.31,0,0,1,.1-.2c.1-.1,0-.1.1-.2s0-.1.1-.2c0-.1,0-.1.1-.1l.1-.1.1-.1h.1Zm-1.3,4.2h1.8v-.1l-.9-2.5Z" fill="#fff"/><path d="M125.3,11.8h1.3v.4a.6.6,0,0,0-.4.1c-.2.1-.3.1-.3.2a3.75,3.75,0,0,0-.1,1.1v4.3a3.4,3.4,0,0,0,.1,1c0,.1.3.1.8.1h.6a3.178,3.178,0,0,0,1.4-.2.781.781,0,0,0,.4-.4,1.136,1.136,0,0,0,.3-.8.349.349,0,0,1,.2-.1.367.367,0,0,1,.3.1,1.69,1.69,0,0,1-.2.5c-.1.2-.1.4-.2.5a.749.749,0,0,0-.1.5c0,.1-.1.3-.1.4H124v-.3c.2,0,.3,0,.4-.1.2,0,.3-.1.3-.2a4.1,4.1,0,0,0,.1-1.1V13.5a3.4,3.4,0,0,0-.1-1c0-.1-.1-.1-.3-.2-.1,0-.3-.1-.4-.1v-.3h.6C124.9,11.9,125.1,11.8,125.3,11.8Z" fill="#fff"/><path d="M134,11.8h3.7a5.074,5.074,0,0,0,.2.9c.1.4.1.6.2.7-.1,0-.1.1-.2.1s-.2,0-.2-.1a1.374,1.374,0,0,0-.5-.8,3.091,3.091,0,0,0-.8-.2h-.8c-.7,0-1,0-1,.1,0,.3-.1.6-.1,1v1.8a1.213,1.213,0,0,0,.5.1h1.4a.349.349,0,0,0,.2-.1l.1-.1c0-.1.1-.1.1-.2a.494.494,0,0,1,.1-.3c0-.1.1-.1.2-.1s.1,0,.2.1v2.2c-.1,0-.1.1-.2,0-.1,0-.2,0-.2-.1a1.087,1.087,0,0,1-.1-.5c0-.1-.1-.2-.2-.3a4.869,4.869,0,0,0-1.2-.1c-.5,0-.8,0-.8.1v1.8a3.083,3.083,0,0,0,.1,1c0,.1.3.1.8.1h.5a3.178,3.178,0,0,0,1.4-.2.781.781,0,0,0,.4-.4,1.136,1.136,0,0,0,.3-.8.349.349,0,0,1,.2-.1.367.367,0,0,1,.3.1,1.69,1.69,0,0,1-.2.5c-.1.2-.1.4-.2.5a.749.749,0,0,0-.1.5c0,.1-.1.3-.1.4h-5.3v-.3a.6.6,0,0,0,.4-.1c.2-.1.3-.1.3-.2a4.1,4.1,0,0,0,.1-1.1V13.4a3.4,3.4,0,0,0-.1-1c0-.1-.1-.1-.3-.2a4.331,4.331,0,0,0-.5-.1v-.3Z" fill="#fff"/><path d="M147.3,13.3a3.4,3.4,0,0,0-.1-1c0-.1-.2-.1-.4-.2-.2,0-.3-.1-.5-.1v-.3H149V12a.9.9,0,0,0-.5.1c-.3.1-.4.1-.4.2a4.1,4.1,0,0,0-.1,1.1v6c-.1,0-.1.1-.2,0-.2,0-.3-.1-.4-.3L143,12.8v4.9a4.1,4.1,0,0,0,.1,1.1c0,.1.1.1.4.2.2,0,.3.1.5.1v.3a8.868,8.868,0,0,1-1.3-.1l-1.3.1V19a.749.749,0,0,0,.5-.1c.2-.1.4-.1.4-.2a4.1,4.1,0,0,0,.1-1.1V13.1a2.768,2.768,0,0,0-.1-.9c0-.1-.2-.1-.4-.2-.2,0-.3-.1-.5-.1v-.3h2.1c.3.5,1.6,2.4,3.9,5.6v-.5Z" fill="#fff"/><path d="M153.2,11.8h3.7a5.074,5.074,0,0,0,.2.9c.1.4.1.6.2.7-.1,0-.1.1-.2.1s-.2,0-.2-.1a1.374,1.374,0,0,0-.5-.8,3.091,3.091,0,0,0-.8-.2h-.8c-.7,0-1,0-1,.1,0,.3-.1.6-.1,1v1.8a1.213,1.213,0,0,0,.5.1h1.4a.349.349,0,0,0,.2-.1l.1-.1c0-.1.1-.1.1-.2a.494.494,0,0,1,.1-.3c0-.1.1-.1.2-.1s.1,0,.2.1v2.2c-.1,0-.1.1-.2,0-.1,0-.2,0-.2-.1a1.087,1.087,0,0,1-.1-.5c0-.1,0-.1-.1-.2l-.1-.1a4.869,4.869,0,0,0-1.2-.1c-.5,0-.8,0-.8.1v1.8a3.083,3.083,0,0,0,.1,1c0,.1.3.1.8.1h.5a3.178,3.178,0,0,0,1.4-.2.781.781,0,0,0,.4-.4,1.136,1.136,0,0,0,.3-.8.349.349,0,0,1,.2-.1.367.367,0,0,1,.3.1,1.69,1.69,0,0,1-.2.5c-.1.2-.1.4-.2.5a4.331,4.331,0,0,0-.1.5c0,.1-.1.3-.1.4h-5.3v-.3a.6.6,0,0,0,.4-.1c.2-.1.3-.1.3-.2a4.1,4.1,0,0,0,.1-1.1V13.4a3.4,3.4,0,0,0-.1-1c0-.1-.1-.1-.3-.2a4.331,4.331,0,0,0-.5-.1v-.3Z" fill="#fff"/><path d="M163.7,11.7a2.2,2.2,0,0,1,.8.1c.3.1.5.2.8.3a1.344,1.344,0,0,1,.6.7,1.689,1.689,0,0,1,.3,1,1.284,1.284,0,0,1-.4,1,2,2,0,0,1-1,.8.1.1,0,0,0-.1.1,8.578,8.578,0,0,0,1.3,2q1.05,1.2,1.8,1.2v.4h-.3a3.56,3.56,0,0,1-2.8-1.6c-.1-.2-.3-.4-.4-.6a.914.914,0,0,1-.3-.5c0-.1-.2-.2-.3-.3l-.3-.3a.31.31,0,0,0-.2-.1c-.1,0-.3-.1-.4,0h-.1a.1.1,0,0,0-.1.1v1.8a3.4,3.4,0,0,0,.1,1c0,.1.2.2.4.2s.3.1.5.1v.4c-.8,0-1.3-.1-1.5-.1l-1.4.1v-.3c.2,0,.3,0,.4-.1.2,0,.3-.1.3-.2a4.1,4.1,0,0,0,.1-1.1V13.5a3.4,3.4,0,0,0-.1-1c0-.1-.1-.1-.3-.2a4.33,4.33,0,0,0-.5-.1v-.3h2.2A1.826,1.826,0,0,1,163.7,11.7Zm-.2.5a2.2,2.2,0,0,0-.8.1.1.1,0,0,0-.1.1V15c0,.2.3.3,1,.3h.3a1.234,1.234,0,0,0,.8-.4,1.5,1.5,0,0,0,.4-1.1,1.383,1.383,0,0,0-1.2-1.6Z" fill="#fff"/><path d="M170.5,15.6a4.3,4.3,0,0,1,1.1-2.8,3.571,3.571,0,0,1,2.7-1.2,12.816,12.816,0,0,1,2.7.5v1.4a.215.215,0,0,1-.2.2c-.1,0-.1,0-.1-.1a2.067,2.067,0,0,0-2.3-1.6,2.276,2.276,0,0,0-1.9,1,3.761,3.761,0,0,0,.1,4.7,2.609,2.609,0,0,0,2.1,1.1,4.013,4.013,0,0,0,1.5-.3c.1,0,.1-.1.1-.2v-1a3.4,3.4,0,0,0-.1-1c0-.1-.2-.1-.4-.2-.2,0-.3-.1-.5-.1v-.3l1.5.1a8.33,8.33,0,0,0,1.2-.1v.4a.367.367,0,0,0-.3.1c-.1,0-.2.1-.3.1-.1.1-.1.3-.1.8v.8a.6.6,0,0,0,.1.4.349.349,0,0,0,.1.2c0,.1-.1.1-.3.2a.31.31,0,0,0-.2.1.367.367,0,0,1-.3.1c-.1,0-.1,0-.3.1-.1,0-.2.1-.3.1l-.3.1c-.1,0-.3.1-.4.1h-1.1a3.631,3.631,0,0,1-2.6-1.1,3.367,3.367,0,0,1-1.2-2.6Z" fill="#fff"/><path d="M182,18.3a4.126,4.126,0,0,1,0-5.5,3.474,3.474,0,0,1,4.9-.2c.1.1.2.1.2.2a4.126,4.126,0,0,1,0,5.5,3.592,3.592,0,0,1-5,.2C182.2,18.4,182.1,18.3,182,18.3Zm2.4-6.2a1.76,1.76,0,0,0-1.7,1,4.282,4.282,0,0,0-.6,2.2,4.671,4.671,0,0,0,.3,1.7,4.2,4.2,0,0,0,.9,1.4,1.651,1.651,0,0,0,1.5.5,2.106,2.106,0,0,0,1.3-.5,2.55,2.55,0,0,0,.8-1.2,4.013,4.013,0,0,0,.3-1.5,4.67,4.67,0,0,0-.3-1.7,4.2,4.2,0,0,0-.9-1.4,3.022,3.022,0,0,0-1.6-.5Z" fill="#fff"/><path d="M196.8,17.7v-2h-1.7a10.869,10.869,0,0,0-1.8.1v2a4.1,4.1,0,0,0,.1,1.1c0,.1.1.1.3.2.1,0,.3.1.4.1v.3a8.869,8.869,0,0,1-1.3-.1s-.5,0-1.4.1a.139.139,0,0,1,0-.2v-.2a.6.6,0,0,0,.4-.1c.2,0,.3-.1.3-.2a3.4,3.4,0,0,0,.1-1V13.4a3.4,3.4,0,0,0-.1-1c0-.1-.1-.1-.3-.2-.1,0-.3-.1-.4-.1v-.3h2.7v.3a.6.6,0,0,0-.4.1c-.2.1-.3.1-.3.2a3.749,3.749,0,0,0-.1,1.1v1.7h3.4V13.5a3.4,3.4,0,0,0-.1-1c0-.1-.1-.1-.3-.2-.1,0-.3-.1-.4-.1v-.3h2.7v.4a.6.6,0,0,0-.4.1c-.2.1-.3.1-.3.2a4.1,4.1,0,0,0-.1,1.1v4.4a4.1,4.1,0,0,0,.1,1.1c0,.1.1.1.3.2.1,0,.3.1.4.1v.4a8.868,8.868,0,0,1-1.3-.1s-.5,0-1.4.1c0-.1-.1-.1,0-.2v-.1a.6.6,0,0,0,.4-.1c.2,0,.3-.1.3-.2a6.007,6.007,0,0,0,.2-1.6Z" fill="#fff"/><path d="M202.9,18.3a4.126,4.126,0,0,1,0-5.5,3.474,3.474,0,0,1,4.9-.2c.1.1.2.1.2.2a4.126,4.126,0,0,1,0,5.5,3.592,3.592,0,0,1-5,.2C203,18.4,203,18.3,202.9,18.3Zm2.4-6.2a1.76,1.76,0,0,0-1.7,1,4.282,4.282,0,0,0-.6,2.2,4.671,4.671,0,0,0,.3,1.7,4.2,4.2,0,0,0,.9,1.4,1.651,1.651,0,0,0,1.5.5,2.106,2.106,0,0,0,1.3-.5,2.55,2.55,0,0,0,.8-1.2,4.013,4.013,0,0,0,.3-1.5,4.671,4.671,0,0,0-.3-1.7,4.2,4.2,0,0,0-.9-1.4,3.022,3.022,0,0,0-1.6-.5Z" fill="#fff"/><path d="M213.7,11.8H215v.4a.6.6,0,0,0-.4.1c-.2.1-.3.1-.3.2a3.749,3.749,0,0,0-.1,1.1v4.3a3.4,3.4,0,0,0,.1,1c0,.1.3.1.8.1h.5a3.178,3.178,0,0,0,1.4-.2.781.781,0,0,0,.4-.4,1.136,1.136,0,0,0,.3-.8.349.349,0,0,1,.2-.1.367.367,0,0,1,.3.1,1.69,1.69,0,0,1-.2.5c-.1.2-.1.4-.2.5a.749.749,0,0,0-.1.5c0,.1-.1.3-.1.4h-5.3v-.3c.2,0,.3,0,.4-.1.2,0,.3-.1.3-.2a4.1,4.1,0,0,0,.1-1.1V13.5a3.4,3.4,0,0,0-.1-1c0-.1-.1-.1-.3-.2-.1,0-.3-.1-.4-.1v-.3h.6C213.2,11.9,213.5,11.8,213.7,11.8Z" fill="#fff"/><path d="M222.4,11.8h2a3.56,3.56,0,0,1,2.9,1.1,3.188,3.188,0,0,1,1,2.6,3.84,3.84,0,0,1-1.1,2.8,3.56,3.56,0,0,1-2.9,1.1H221V19a.6.6,0,0,0,.4-.1c.2-.1.3-.1.3-.2a4.1,4.1,0,0,0,.1-1.1V13.3a3.4,3.4,0,0,0-.1-1c0-.1-.1-.1-.3-.2a4.331,4.331,0,0,0-.5-.1v-.3a8.084,8.084,0,0,0,1.5.1Zm.5,1.4v4.5a2.92,2.92,0,0,0,.2.9c0,.1.2.1.6.2a3.445,3.445,0,0,0,.9.1c1.8,0,2.6-1.1,2.6-3.4a3.408,3.408,0,0,0-.7-2.2,2.248,2.248,0,0,0-2-.9h-.1a2.979,2.979,0,0,0-1.4.2,3.537,3.537,0,0,0-.1.6Z" fill="#fff"/><path d="M232.5,13.3a3.4,3.4,0,0,0-.1-1c0-.1-.1-.1-.3-.2-.1,0-.3-.1-.4-.1v-.3a9.441,9.441,0,0,1,1.4.1,9.286,9.286,0,0,0,1.3-.1v.4a.6.6,0,0,0-.4.1c-.2.1-.3.1-.3.2a3.749,3.749,0,0,0-.1,1.1v4.4a4.1,4.1,0,0,0,.1,1.1c0,.1.1.1.3.2.1,0,.3.1.4.1v.4a8.868,8.868,0,0,1-1.3-.1s-.5,0-1.4.1a.139.139,0,0,1,0-.2v-.2a.6.6,0,0,0,.4-.1c.2,0,.3-.1.3-.2a3.4,3.4,0,0,0,.1-1Z" fill="#fff"/><path d="M243.3,13.3a3.4,3.4,0,0,0-.1-1c0-.1-.2-.1-.4-.2-.2,0-.3-.1-.5-.1v-.3H245V12a.9.9,0,0,0-.5.1c-.3.1-.4.1-.4.2a4.1,4.1,0,0,0-.1,1.1v6c-.1,0-.1.1-.2,0-.2,0-.3-.1-.4-.3L239,12.8v4.9a4.1,4.1,0,0,0,.1,1.1c0,.1.1.1.4.2.2,0,.3.1.5.1v.3a8.868,8.868,0,0,1-1.3-.1l-1.3.1V19a.749.749,0,0,0,.5-.1c.2-.1.4-.1.4-.2a4.1,4.1,0,0,0,.1-1.1V13.1a2.769,2.769,0,0,0-.1-.9c0-.1-.2-.1-.4-.2-.2,0-.3-.1-.5-.1v-.3h2.1c.3.5,1.6,2.4,3.9,5.6v-.5Z" fill="#fff"/><path d="M248,15.6a4.3,4.3,0,0,1,1.1-2.8,3.571,3.571,0,0,1,2.7-1.2,12.816,12.816,0,0,1,2.7.5v1.4a.215.215,0,0,1-.2.2c-.1,0-.1,0-.1-.1a2.067,2.067,0,0,0-2.3-1.6,2.276,2.276,0,0,0-1.9,1,3.761,3.761,0,0,0,.1,4.7,2.609,2.609,0,0,0,2.1,1.1,4.013,4.013,0,0,0,1.5-.3c.1,0,.1-.1.1-.2v-1a3.4,3.4,0,0,0-.1-1c0-.1-.2-.1-.4-.2-.2,0-.3-.1-.5-.1v-.3l1.5.1a8.33,8.33,0,0,0,1.2-.1v.4a.367.367,0,0,0-.3.1c-.1,0-.2.1-.3.1-.1.1-.1.3-.1.8v.8a.6.6,0,0,0,.1.4.349.349,0,0,0,.1.2c0,.1-.1.1-.3.2a.31.31,0,0,0-.2.1,1.689,1.689,0,0,1-.5.2.774.774,0,0,0-.3.1c-.1,0-.2.1-.3.1l-.3.1c-.1,0-.3.1-.4.1h-1.1a3.631,3.631,0,0,1-2.6-1.1,4.49,4.49,0,0,1-1-2.7Z" fill="#fff"/></g><path d="M73.3,14.8V25H70.1V11.8h8.8v3Z" fill="#fff"/><path d="M85.6,17.7l-2.8,7.4H79.2l5.4-13.3h1.9L92,25.1H88.4Z" fill="#fff"/><path d="M94.9,13.6a6.788,6.788,0,1,1-2,4.8,6.8,6.8,0,0,1,2-4.8Zm7.3,2.1a3.317,3.317,0,0,0-2.5-1,3.174,3.174,0,0,0-2.5,1,3.62,3.62,0,0,0-1,2.7,3.62,3.62,0,0,0,1,2.7,3.317,3.317,0,0,0,2.5,1,3.174,3.174,0,0,0,2.5-1,3.62,3.62,0,0,0,1-2.7,3.62,3.62,0,0,0-1-2.7Z" fill="#fff"/><path d="M112.6,16.5h2.6a4.4,4.4,0,0,1,3.4,1.2,4.143,4.143,0,0,1,1.2,3.1,4.143,4.143,0,0,1-1.2,3.1,4.547,4.547,0,0,1-3.4,1.2h-5.8V11.8h9.1v3h-5.9v1.7Zm0,5.5h2.7q1.5,0,1.5-1.2c0-.8-.5-1.3-1.5-1.3h-2.7Z" fill="#fff"/><path d="M125.4,23.2l-.7,1.8h-3.6l5.4-13.3h1.9L133.7,25h-3.6l-.7-1.8Zm2.1-5.6-1,2.6h1.9Z" fill="#fff"/><path d="M141.7,17.7l-2.8,7.4h-3.6l5.4-13.3h1.9l5.3,13.3h-3.6Z" fill="#fff"/><path d="M154.8,11.6a6.8,6.8,0,1,1,0,13.6,6.463,6.463,0,0,1-5-2.2l2.1-1.9a4.173,4.173,0,0,0,2.9,1.1,3.606,3.606,0,0,0,2-.6A2.76,2.76,0,0,0,158,20h-3.9V17H158a3.978,3.978,0,0,0-1.2-1.6,3.379,3.379,0,0,0-2-.6,4.357,4.357,0,0,0-2.9,1.1L149.8,14A6.341,6.341,0,0,1,154.8,11.6Z" fill="#fff"/><path d="M174.8,25.1h-3.2V20h-4.1v5.1h-3.2V11.8h3.2v5.1h4.1V11.8h3.2Z" fill="#fff"/><path d="M181.7,16.9H187V20h-5.3v2h5.9v3.1h-9.1V11.8h9.1v3h-5.9Z" fill="#fff"/><path d="M190.7,11.8h4.5a6.178,6.178,0,0,1,4.4,1.5,5.061,5.061,0,0,1,1.6,3.7,4.71,4.71,0,0,1-1.6,3.7,6.016,6.016,0,0,1-4.4,1.5h-1.3V25h-3.2Zm3.2,7.4h1.5a3.83,3.83,0,0,0,1.9-.5,2,2,0,0,0,0-3.2,2.883,2.883,0,0,0-1.9-.6h-1.5Z" fill="#fff"/><path d="M207.2,14.8V25H204V11.8h8.8v3Z" fill="#fff"/><path d="M216.5,13.6a6.788,6.788,0,1,1-2,4.8,6.8,6.8,0,0,1,2-4.8Zm7.3,2.1a3.317,3.317,0,0,0-2.5-1,3.174,3.174,0,0,0-2.5,1,3.62,3.62,0,0,0-1,2.7,3.62,3.62,0,0,0,1,2.7,3.317,3.317,0,0,0,2.5,1,3.174,3.174,0,0,0,2.5-1,3.62,3.62,0,0,0,1-2.7,3.62,3.62,0,0,0-1-2.7Z" fill="#fff"/><path d="M235.1,21.1l-2.6,4h-3.7l4.5-7-4.2-6.3h3.7l2.4,3.5,2.3-3.5h3.7L237,18.2l4.5,6.8h-3.7Z" fill="#fff"/><path d="M244.3,13.6a6.788,6.788,0,1,1-2,4.8,6.8,6.8,0,0,1,2-4.8Zm7.3,2.1a3.317,3.317,0,0,0-2.5-1,3.174,3.174,0,0,0-2.5,1,3.62,3.62,0,0,0-1,2.7,3.62,3.62,0,0,0,1,2.7,3.317,3.317,0,0,0,2.5,1,3.174,3.174,0,0,0,2.5-1,3.62,3.62,0,0,0,1-2.7,3.62,3.62,0,0,0-1-2.7Z" fill="#fff"/><path d="M262.8,17.7,260,25.1h-3.6l5.4-13.3h1.9L269,25.1h-3.6Z" fill="#fff"/><path d="M284.4,27.5h-3.2V25.1h-7.3v2.4h-3.2V22h1.8l4.2-10.2h1.9L282.7,22h1.8v5.5Zm-6.8-9.8L276,22h3.3Z" fill="#fff"/><path d="M297.6,25.1h-3.2V17.8l-5.5,7.3H287V11.8h3.2v7.3l5.5-7.3h1.9Z" fill="#fff"/><path d="M311.6,25.1h-3.2V20h-4.1v5.1H301V11.8h3.2v5.1h4.1V11.8h3.2V25.1Z" fill="#fff"/><path d="M318.4,14.8V25h-3.2V11.8H324v3Z" fill="#fff"/></g></svg>