<?xml version="1.0" encoding="utf-8"?>
<!-- Generator: Adobe Illustrator 24.3.0, SVG Export Plug-In . SVG Version: 6.00 Build 0)  -->
<svg version="1.1" id="Layer_1" xmlns="http://www.w3.org/2000/svg" xmlns:xlink="http://www.w3.org/1999/xlink" x="0px" y="0px"
	 width="324px" height="56px" viewBox="0 0 324 56" style="enable-background:new 0 0 324 56;" xml:space="preserve">
<style type="text/css">
	.st0{fill:#5A9F2F;stroke:#737373;stroke-width:0.75;stroke-miterlimit:10;}
	.st1{fill:#44A12F;}
	.st2{fill:#602C75;}
	.st3{fill:#2B5BAE;}
</style>
<g transform="translate(5.714 66.001)">
	<path class="st0" d="M2.1-62.4"/>
	<g transform="translate(23.051)">
		<circle class="st1" cx="0.3" cy="-60" r="6"/>
	</g>
	<g transform="translate(7.764 2.659)">
		<path class="st1" d="M-5.7-66"/>
		<path class="st1" d="M33.8-64.2c-4.3,2.5-8.8,5.1-13.2,7.6c-1.5,1-3.2,1.5-5,1.7c-1.9-0.1-3.6-0.7-5.2-1.7L6.3-59
			c-2.2-1.2-4.4-2.5-6.6-3.8L-2.3-64c-1.1-0.7-2.3-1.3-3.4-2v8l8.8,5.2c0,0,4.5,2.7,6.1,3.4c0.7,0.4,1.3,0.6,1.6,0.8
			c3,1.3,6.5,1.3,9.5,0c0.4-0.2,0.9-0.4,1.6-0.8c1.5-0.8,6.1-3.4,6.1-3.4l8.7-5.1v-8L33.8-64.2z"/>
	</g>
	<path class="st2" d="M22.3-34.2c0-1.1-0.2-2.2-0.4-3.3c-0.7-2.5-2.2-4.7-4.3-6.3c-1.3-1-2.7-1.9-4.1-2.7c-1.5-0.9-2.9-1.7-4.4-2.6
		l-0.6-0.4l-4.7-2.8l-2.6-1.6l-0.1-0.1c0,0-6.5,3.8-6.8,3.9l0.8,0.5l2.2,1.3l6.4,3.7L9.4-41c1.8,0.9,3.5,2.2,4.7,3.8
		c0.7,1.1,1.2,2.4,1.3,3.7c0,0.2,0.1,0.4,0.1,0.7c0,0.3,0,0.2,0,0.5c0,0.2,0,0.8,0,1c0,1.9,0,3.7,0,5.6V-10h6.8v-22.2
		C22.4-32.8,22.4-33.5,22.3-34.2z"/>
	<path class="st3" d="M24.3-34.2c0-1.1,0.2-2.2,0.4-3.3c0.7-2.5,2.2-4.7,4.3-6.3c1.3-1,2.7-1.9,4.1-2.7c1.5-0.9,2.9-1.7,4.4-2.6
		l0.6-0.4l4.7-2.8l2.6-1.6l0.1-0.1l6.8,3.9c-0.3,0.2-0.8,0.4-0.8,0.5l-2.2,1.3L43-44.4L37.2-41c-1.8,0.9-3.5,2.2-4.7,3.8
		c-0.7,1.1-1.2,2.4-1.3,3.7c0,0.2-0.1,0.4-0.1,0.7c0,0.3,0,0.2,0,0.5c0,0.2,0,0.8,0,1c0,1.9,0,3.7,0,5.6V-10h-6.8v-22.2
		C24.2-32.8,24.3-33.5,24.3-34.2z"/>
</g>
<g>
	<g transform="translate(31.712 24.945)">
		<path d="M75.2,15.6c0-1,0.4-2,1.1-2.8c0.7-0.8,1.7-1.2,2.7-1.2c0.9,0.1,1.8,0.2,2.7,0.5c0,0.9,0,1.3,0,1.4c0,0.1-0.1,0.2-0.2,0.2
			c-0.1,0-0.1,0-0.1-0.1c-0.2-1-1-1.6-2.3-1.6c-0.8,0-1.5,0.4-1.9,1c-1.1,1.4-1,3.3,0.1,4.7c0.5,0.7,1.3,1.1,2.1,1.1
			c0.5,0,1-0.1,1.5-0.3c0.1,0,0.1-0.1,0.1-0.2l0-0.9v-0.1c0-0.3,0-0.7-0.1-1c0-0.1-0.2-0.1-0.4-0.2c-0.2,0-0.3-0.1-0.5-0.1
			c0,0,0,0,0-0.1c0-0.1,0-0.1,0-0.2l1.5,0.1c0.1,0,0.5,0,1.2-0.1c0,0.1,0,0.1,0,0.2c0,0.1,0,0.2,0,0.2c-0.1,0-0.2,0-0.3,0.1
			c-0.1,0-0.2,0.1-0.3,0.1c-0.1,0.1-0.1,0.3-0.1,0.8c0,0.2,0,0.3,0,0.5s0,0.3,0,0.3c0,0.1,0,0.3,0.1,0.4c0,0.1,0.1,0.2,0.1,0.2
			c0,0.1-0.1,0.1-0.3,0.2c0,0-0.1,0-0.2,0.1c-0.1,0-0.2,0.1-0.3,0.1c0,0-0.1,0-0.3,0.1c-0.1,0-0.2,0.1-0.3,0.1l-0.3,0.1
			c-0.1,0-0.3,0.1-0.4,0.1c-0.1,0-0.3,0-0.5,0s-0.4,0-0.6,0c-1,0-1.9-0.4-2.6-1.1C75.6,17.5,75.2,16.6,75.2,15.6z"/>
		<path d="M87,11.8c0.2,0,0.3,0,0.4,0c0.1,0,0.3,0,0.5,0l0.4,0c0,0.1,0,0.1,0,0.2c0,0.1,0,0.2,0,0.2c-0.1,0-0.3,0-0.4,0.1
			c-0.2,0.1-0.3,0.1-0.3,0.2c-0.1,0.3-0.1,0.7-0.1,1.1v4.3c0,0.3,0,0.7,0.1,1c0,0.1,0.3,0.1,0.8,0.1h0.6c0.5,0,1,0,1.4-0.2
			c0.2-0.1,0.3-0.2,0.4-0.4c0.2-0.2,0.3-0.5,0.3-0.8c0,0,0.1-0.1,0.2-0.1c0.1,0,0.2,0,0.3,0.1c0,0.1-0.1,0.3-0.2,0.5
			s-0.1,0.4-0.2,0.5c0,0.1-0.1,0.3-0.1,0.5c0,0.1-0.1,0.3-0.1,0.4c-0.4,0-1,0-1.9,0c-0.8,0-1.5,0-2,0l-1.4,0c0-0.1,0-0.1,0-0.2
			c0-0.1,0-0.1,0-0.1c0.2,0,0.3,0,0.4-0.1c0.2,0,0.3-0.1,0.3-0.2c0.1-0.4,0.1-0.7,0.1-1.1v-4.3c0-0.3,0-0.7-0.1-1
			c0-0.1-0.1-0.1-0.3-0.2c-0.1,0-0.3-0.1-0.4-0.1c0,0,0-0.1,0-0.1c0-0.1,0-0.1,0-0.2c0.1,0,0.3,0,0.6,0S86.8,11.8,87,11.8z"/>
		<path d="M95.4,18.3c-1.4-1.5-1.4-3.9,0-5.5c1.3-1.4,3.5-1.5,4.9-0.2c0.1,0.1,0.2,0.1,0.2,0.2c1.4,1.5,1.4,3.9,0,5.5
			c-1.3,1.4-3.5,1.5-5,0.2C95.6,18.4,95.5,18.3,95.4,18.3z M97.8,12.1c-0.7,0-1.4,0.3-1.7,1c-0.4,0.7-0.6,1.4-0.6,2.2
			c0,0.6,0.1,1.2,0.3,1.7c0.2,0.5,0.5,1,0.9,1.4c0.4,0.4,0.9,0.6,1.5,0.5c0.5,0,0.9-0.2,1.3-0.5c0.4-0.3,0.6-0.7,0.8-1.2
			c0.2-0.5,0.3-1,0.3-1.5c0-0.6-0.1-1.2-0.3-1.7c-0.2-0.5-0.5-1-0.9-1.4C98.9,12.3,98.4,12.1,97.8,12.1z"/>
		<path d="M105.7,17.7v-4.3c0-0.3,0-0.7-0.1-1c0-0.1-0.1-0.1-0.3-0.2c-0.1,0-0.3-0.1-0.5-0.1c0,0,0,0,0-0.1c0-0.1,0-0.1,0-0.2
			c0.4,0,0.9,0,1.4,0c0.4,0,0.7,0,1,0c0.2,0,0.5,0,0.7,0c0.2,0,0.4,0,0.6,0.1c0.2,0,0.4,0.1,0.6,0.2c0.2,0.1,0.4,0.2,0.6,0.3
			c0.2,0.1,0.3,0.3,0.4,0.5c0.1,0.2,0.2,0.5,0.2,0.8c0,0.3-0.1,0.5-0.3,0.8c-0.1,0.2-0.3,0.4-0.5,0.5c-0.1,0.1-0.2,0.1-0.4,0.2
			c-0.1,0-0.1,0-0.1,0.1c0.4,0.1,0.8,0.3,1.1,0.6c0.4,0.3,0.6,0.8,0.6,1.3c0,0.6-0.3,1.2-0.8,1.6c-0.6,0.4-1.4,0.6-2.1,0.6h-1.6
			l-1.4,0c0-0.1,0-0.1,0-0.2c0-0.1,0-0.1,0-0.1c0.1,0,0.3,0,0.4-0.1c0.2-0.1,0.3-0.1,0.4-0.2C105.7,18.4,105.8,18,105.7,17.7z
			 M108.1,15c0.3,0,0.6-0.1,0.8-0.3c0.2-0.2,0.3-0.5,0.3-0.8c0-0.4-0.1-0.9-0.4-1.2c-0.3-0.3-0.7-0.5-1.2-0.4c-0.3,0-0.5,0-0.8,0.1
			c0,0-0.1,0-0.1,0.1l0,1.2v1.4c0,0.1,0.3,0.1,0.8,0.1C107.7,15,107.9,15,108.1,15z M109.7,17.3c0-0.5-0.2-0.9-0.5-1.3
			c-0.4-0.4-1-0.6-1.5-0.5c-0.2,0-0.4,0-0.8,0c0,0.1-0.1,0.3,0,0.4v1.7c0,0.6,0.1,0.9,0.2,1c0.2,0.1,0.4,0.2,0.6,0.2
			c0.2,0,0.4,0,0.6,0c0.2,0,0.5-0.1,0.7-0.2c0.3-0.1,0.5-0.2,0.6-0.5C109.6,17.9,109.7,17.6,109.7,17.3z"/>
		<path d="M117.6,11.7l2.3,6c0.1,0.4,0.2,0.6,0.3,0.8c0.1,0.1,0.2,0.2,0.4,0.3c0.1,0.1,0.3,0.1,0.4,0.1c0,0,0,0.1,0,0.2
			c0,0,0,0.1,0,0.1c-0.8,0-1.2-0.1-1.3-0.1l-1.3,0.1c0-0.1-0.1-0.1,0-0.2c0-0.1,0-0.1,0.1-0.1c0.1,0,0.2,0,0.3-0.1
			c0.1,0,0.2-0.1,0.2-0.1c0-0.1,0-0.1,0-0.2c0-0.1,0-0.2,0-0.3c0-0.1-0.1-0.2-0.1-0.3l0-0.1l-0.5-1.3c0,0,0,0-0.1,0
			c-0.3,0-0.6,0-0.9,0c-0.4,0-0.9,0-1.5,0.1l-0.1,0l-0.5,1.3c-0.1,0.3-0.2,0.5-0.2,0.8c0,0.1,0,0.2,0.1,0.2c0.1,0.1,0.2,0.1,0.3,0.1
			c0.1,0,0.2,0,0.3,0.1c0,0,0,0,0,0.1c0,0.1,0,0.1,0,0.2c-0.8,0-1.2-0.1-1.2-0.1c-0.2,0-0.3,0-0.4,0l-0.4,0l-0.4,0
			c0,0-0.1-0.1,0-0.2c0-0.1,0-0.2,0-0.2c0.1,0,0.2,0,0.4-0.1c0.1,0,0.2-0.1,0.3-0.2c0.2-0.3,0.4-0.7,0.5-1.1l2-5.1
			c0,0,0-0.1,0.1-0.2s0-0.1,0.1-0.2s0-0.1,0.1-0.2c0-0.1,0-0.1,0.1-0.1c0,0,0.1-0.1,0.1-0.1c0,0,0.1-0.1,0.1-0.1c0,0,0.1,0,0.1,0
			L117.6,11.7z M116.3,15.9c0.4,0,0.7,0,0.8,0c0.3,0,0.7,0,1,0l0-0.1l-0.9-2.5L116.3,15.9C116.3,15.9,116.3,15.9,116.3,15.9
			L116.3,15.9z"/>
		<path d="M125.3,11.8c0.2,0,0.3,0,0.4,0s0.3,0,0.5,0l0.4,0c0,0.1,0,0.1,0,0.2c0,0.1,0,0.2,0,0.2c-0.1,0-0.3,0-0.4,0.1
			c-0.2,0.1-0.3,0.1-0.3,0.2c-0.1,0.3-0.1,0.7-0.1,1.1v4.3c0,0.3,0,0.7,0.1,1c0,0.1,0.3,0.1,0.8,0.1h0.6c0.5,0,1,0,1.4-0.2
			c0.2-0.1,0.3-0.2,0.4-0.4c0.2-0.2,0.3-0.5,0.3-0.8c0,0,0.1-0.1,0.2-0.1c0.1,0,0.2,0,0.3,0.1c0,0.1-0.1,0.3-0.2,0.5
			s-0.1,0.4-0.2,0.5s-0.1,0.3-0.1,0.5c0,0.1-0.1,0.3-0.1,0.4c-0.4,0-1,0-1.9,0c-0.8,0-1.5,0-2,0l-1.4,0c0-0.1,0-0.1,0-0.2
			c0-0.1,0-0.1,0-0.1c0.2,0,0.3,0,0.4-0.1c0.2,0,0.3-0.1,0.3-0.2c0.1-0.4,0.1-0.7,0.1-1.1v-4.3c0-0.3,0-0.7-0.1-1
			c0-0.1-0.1-0.1-0.3-0.2c-0.1,0-0.3-0.1-0.4-0.1c0,0,0-0.1,0-0.1c0-0.1,0-0.1,0-0.2c0.1,0,0.3,0,0.6,0S125.1,11.8,125.3,11.8z"/>
		<path d="M134,11.8c0.3,0,0.9,0,1.8,0c0.8,0,1.5,0,1.9,0c0,0.2,0.1,0.5,0.2,0.9c0.1,0.4,0.1,0.6,0.2,0.7c-0.1,0-0.1,0.1-0.2,0.1
			c-0.1,0-0.2,0-0.2-0.1c-0.1-0.3-0.2-0.6-0.5-0.8c-0.3-0.1-0.6-0.2-0.8-0.2h-0.8c-0.7,0-1,0-1,0.1c0,0.3-0.1,0.6-0.1,1v1.8
			c0,0,0.2,0.1,0.5,0.1h1.1c0.1,0,0.2,0,0.3,0c0.1,0,0.2-0.1,0.2-0.1s0.1-0.1,0.1-0.1c0-0.1,0.1-0.1,0.1-0.2c0,0,0-0.2,0.1-0.3
			c0-0.1,0.1-0.1,0.2-0.1c0.1,0,0.1,0,0.2,0.1v2.2c-0.1,0-0.1,0.1-0.2,0c-0.1,0-0.2,0-0.2-0.1c-0.1-0.2-0.1-0.4-0.1-0.5
			c0-0.1-0.1-0.2-0.2-0.3c-0.4-0.1-0.8-0.1-1.2-0.1c-0.5,0-0.8,0-0.8,0.1v1.8c0,0.4,0,0.7,0.1,1c0,0.1,0.3,0.1,0.8,0.1h0.5
			c0.5,0,1,0,1.4-0.2c0.2-0.1,0.3-0.2,0.4-0.4c0.2-0.2,0.3-0.5,0.3-0.8c0,0,0.1-0.1,0.2-0.1c0.1,0,0.2,0,0.3,0.1
			c0,0.1-0.1,0.3-0.2,0.5c-0.1,0.2-0.1,0.4-0.2,0.5s-0.1,0.3-0.1,0.5c0,0.1-0.1,0.3-0.1,0.4c-0.4,0-1,0-1.8,0c-0.8,0-1.5,0-2.1,0
			l-1.4,0c0-0.1,0-0.1,0-0.2c0-0.1,0-0.1,0-0.1c0.1,0,0.3,0,0.4-0.1c0.2-0.1,0.3-0.1,0.3-0.2c0.1-0.4,0.1-0.7,0.1-1.1v-4.3
			c0-0.3,0-0.7-0.1-1c0-0.1-0.1-0.1-0.3-0.2c-0.1,0-0.3-0.1-0.5-0.1c0,0,0,0,0-0.1c0-0.1,0-0.1,0-0.2C133,11.8,133.5,11.8,134,11.8z
			"/>
		<path d="M147.3,13.3c0-0.3,0-0.7-0.1-1c0-0.1-0.2-0.1-0.4-0.2c-0.2,0-0.3-0.1-0.5-0.1c0,0,0,0,0-0.1c0-0.1,0-0.1,0-0.2
			c0.1,0,0.3,0,0.6,0s0.5,0,0.8,0s0.4,0,0.8,0s0.5,0,0.5,0c0,0.1,0,0.1,0,0.2c0,0.1,0,0.1,0,0.1c-0.2,0-0.3,0-0.5,0.1
			c-0.3,0.1-0.4,0.1-0.4,0.2c-0.1,0.4-0.1,0.7-0.1,1.1v4.4c0,0.5,0,1,0,1.6c-0.1,0-0.1,0.1-0.2,0c-0.2,0-0.3-0.1-0.4-0.3l-4.4-6.3
			v4.9c0,0.4,0,0.7,0.1,1.1c0,0.1,0.1,0.1,0.4,0.2c0.2,0,0.3,0.1,0.5,0.1c0,0,0,0,0,0.1c0,0.1,0,0.1,0,0.2c-0.8,0-1.2-0.1-1.3-0.1
			l-1.3,0.1c0-0.1,0-0.1,0-0.2c0-0.1,0-0.2,0-0.2c0.2,0,0.4,0,0.5-0.1c0.2-0.1,0.4-0.1,0.4-0.2c0.1-0.4,0.1-0.7,0.1-1.1v-4.5
			c0-0.3,0-0.6-0.1-0.9c0-0.1-0.2-0.1-0.4-0.2c-0.2,0-0.3-0.1-0.5-0.1c0,0,0,0,0-0.1c0-0.1,0-0.1,0-0.2c0.6,0,1,0,1.2,0
			c0.4,0,0.7,0,0.9,0c0.3,0.5,1.6,2.4,3.9,5.6c0-0.2,0-0.3,0-0.5L147.3,13.3z"/>
		<path d="M153.2,11.8c0.3,0,0.9,0,1.8,0c0.8,0,1.5,0,1.9,0c0,0.2,0.1,0.5,0.2,0.9c0.1,0.4,0.1,0.6,0.2,0.7c-0.1,0-0.1,0.1-0.2,0.1
			c-0.1,0-0.2,0-0.2-0.1c-0.1-0.3-0.2-0.6-0.5-0.8c-0.3-0.1-0.6-0.2-0.8-0.2h-0.8c-0.7,0-1,0-1,0.1c0,0.3-0.1,0.6-0.1,1v1.8
			c0,0,0.2,0.1,0.5,0.1h1.1c0.1,0,0.2,0,0.3,0c0.1,0,0.2-0.1,0.2-0.1s0.1-0.1,0.1-0.1c0-0.1,0.1-0.1,0.1-0.2c0,0,0-0.2,0.1-0.3
			c0-0.1,0.1-0.1,0.2-0.1c0.1,0,0.1,0,0.2,0.1v2.2c-0.1,0-0.1,0.1-0.2,0c-0.1,0-0.2,0-0.2-0.1c-0.1-0.2-0.1-0.4-0.1-0.5
			c0-0.1,0-0.1-0.1-0.2c0,0-0.1-0.1-0.1-0.1c-0.4-0.1-0.8-0.1-1.2-0.1c-0.5,0-0.8,0-0.8,0.1v1.8c0,0.4,0,0.7,0.1,1
			c0,0.1,0.3,0.1,0.8,0.1h0.5c0.5,0,1,0,1.4-0.2c0.2-0.1,0.3-0.2,0.4-0.4c0.2-0.2,0.3-0.5,0.3-0.8c0,0,0.1-0.1,0.2-0.1
			c0.1,0,0.2,0,0.3,0.1c0,0.1-0.1,0.3-0.2,0.5c-0.1,0.2-0.1,0.4-0.2,0.5c0,0.1-0.1,0.3-0.1,0.5c0,0.1-0.1,0.3-0.1,0.4
			c-0.4,0-1,0-1.8,0c-0.8,0-1.5,0-2.1,0l-1.4,0c0-0.1,0-0.1,0-0.2c0-0.1,0-0.1,0-0.1c0.1,0,0.3,0,0.4-0.1c0.2-0.1,0.3-0.1,0.3-0.2
			c0.1-0.4,0.1-0.7,0.1-1.1v-4.3c0-0.3,0-0.7-0.1-1c0-0.1-0.1-0.1-0.3-0.2c-0.1,0-0.3-0.1-0.5-0.1c0,0,0,0,0-0.1c0-0.1,0-0.1,0-0.2
			C152.2,11.8,152.7,11.8,153.2,11.8z"/>
		<path d="M163.7,11.7c0.3,0,0.5,0,0.8,0.1c0.3,0.1,0.5,0.2,0.8,0.3c0.3,0.2,0.5,0.4,0.6,0.7c0.2,0.3,0.3,0.6,0.3,1
			c0,0.4-0.1,0.7-0.4,1c-0.2,0.4-0.6,0.6-1,0.8c-0.1,0-0.1,0.1-0.1,0.1c0.3,0.7,0.8,1.4,1.3,2c0.7,0.8,1.3,1.2,1.8,1.2
			c0,0,0,0.1,0,0.2c0,0.1,0,0.1,0,0.2c-0.1,0-0.2,0-0.3,0c-1.1,0-2.2-0.7-2.8-1.6c-0.1-0.2-0.3-0.4-0.4-0.6
			c-0.2-0.2-0.3-0.4-0.3-0.5s-0.2-0.2-0.3-0.3c-0.1-0.1-0.2-0.2-0.3-0.3c-0.1-0.1-0.2-0.1-0.2-0.1c-0.1,0-0.3-0.1-0.4,0
			c0,0-0.1,0-0.1,0c0,0-0.1,0-0.1,0.1c0,0,0,0.1,0,0.1v1.7c0,0.3,0,0.7,0.1,1c0,0.1,0.2,0.2,0.4,0.2c0.2,0,0.3,0.1,0.5,0.1
			c0,0,0,0.1,0,0.2c0,0.1,0,0.1,0,0.2c-0.8,0-1.3-0.1-1.5-0.1l-1.4,0.1c0-0.1,0-0.1,0-0.2c0-0.1,0-0.1,0-0.1c0.2,0,0.3,0,0.4-0.1
			c0.2,0,0.3-0.1,0.3-0.2c0.1-0.4,0.1-0.7,0.1-1.1v-4.3c0-0.3,0-0.7-0.1-1c0-0.1-0.1-0.1-0.3-0.2c-0.1,0-0.3-0.1-0.5-0.1
			c0,0,0,0,0-0.1c0-0.1,0-0.1,0-0.2l1.4,0c0.2,0,0.5,0,0.8,0C163.2,11.7,163.5,11.7,163.7,11.7z M163.5,12.2c-0.3,0-0.5,0-0.8,0.1
			c0,0-0.1,0-0.1,0.1c0,0.1,0,0.2,0,0.3c0,0.2,0,0.5,0,0.8V15c0,0.2,0.3,0.3,1,0.3h0.3c0.3,0,0.6-0.2,0.8-0.4
			c0.3-0.3,0.4-0.7,0.4-1.1c0.1-0.8-0.4-1.5-1.2-1.6C163.8,12.2,163.7,12.2,163.5,12.2L163.5,12.2z"/>
		<path d="M170.5,15.6c0-1,0.4-2,1.1-2.8c0.7-0.8,1.7-1.2,2.7-1.2c0.9,0.1,1.8,0.2,2.7,0.5c0,0.9,0,1.3,0,1.4c0,0.1-0.1,0.2-0.2,0.2
			c-0.1,0-0.1,0-0.1-0.1c-0.2-1-1-1.6-2.3-1.6c-0.8,0-1.5,0.4-1.9,1c-1.1,1.4-1,3.3,0.1,4.7c0.5,0.7,1.3,1.1,2.1,1.1
			c0.5,0,1-0.1,1.5-0.3c0.1,0,0.1-0.1,0.1-0.2l0-0.9v-0.1c0-0.3,0-0.7-0.1-1c0-0.1-0.2-0.1-0.4-0.2c-0.2,0-0.3-0.1-0.5-0.1
			c0,0,0,0,0-0.1c0-0.1,0-0.1,0-0.2l1.5,0.1c0.1,0,0.5,0,1.2-0.1c0,0.1,0,0.1,0,0.2c0,0.1,0,0.2,0,0.2c-0.1,0-0.2,0-0.3,0.1
			c-0.1,0-0.2,0.1-0.3,0.1c-0.1,0.1-0.1,0.3-0.1,0.8c0,0.2,0,0.3,0,0.5s0,0.3,0,0.3c0,0.1,0,0.3,0.1,0.4c0,0.1,0.1,0.2,0.1,0.2
			c0,0.1-0.1,0.1-0.3,0.2c0,0-0.1,0-0.2,0.1s-0.2,0.1-0.3,0.1s-0.1,0-0.3,0.1c-0.1,0-0.2,0.1-0.3,0.1l-0.3,0.1
			c-0.1,0-0.3,0.1-0.4,0.1c-0.1,0-0.3,0-0.5,0s-0.4,0-0.6,0c-1,0-1.9-0.4-2.6-1.1C170.9,17.5,170.5,16.6,170.5,15.6z"/>
		<path d="M182,18.3c-1.4-1.5-1.4-3.9,0-5.5c1.3-1.4,3.5-1.5,4.9-0.2c0.1,0.1,0.2,0.1,0.2,0.2c1.4,1.5,1.4,3.9,0,5.5
			c-1.3,1.4-3.5,1.5-5,0.2C182.2,18.4,182.1,18.3,182,18.3z M184.4,12.1c-0.7,0-1.4,0.3-1.7,1c-0.4,0.7-0.6,1.4-0.6,2.2
			c0,0.6,0.1,1.2,0.3,1.7c0.2,0.5,0.5,1,0.9,1.4c0.4,0.4,0.9,0.6,1.5,0.5c0.5,0,0.9-0.2,1.3-0.5c0.4-0.3,0.6-0.7,0.8-1.2
			c0.2-0.5,0.3-1,0.3-1.5c0-0.6-0.1-1.2-0.3-1.7c-0.2-0.5-0.5-1-0.9-1.4C185.5,12.3,185,12.1,184.4,12.1L184.4,12.1z"/>
		<path d="M196.8,17.7v-2l0,0c-0.7,0-1.3,0-1.7,0c-0.6,0-1.2,0-1.8,0.1v2c0,0.4,0,0.7,0.1,1.1c0,0.1,0.1,0.1,0.3,0.2
			c0.1,0,0.3,0.1,0.4,0.1c0,0,0,0,0,0.1c0,0.1,0,0.1,0,0.2c-0.8,0-1.2-0.1-1.3-0.1c0,0-0.5,0-1.4,0.1c0,0-0.1-0.1,0-0.2
			c0-0.1,0-0.2,0-0.2c0.1,0,0.3,0,0.4-0.1c0.2,0,0.3-0.1,0.3-0.2c0.1-0.3,0.1-0.7,0.1-1v-4.4c0-0.3,0-0.7-0.1-1
			c0-0.1-0.1-0.1-0.3-0.2c-0.1,0-0.3-0.1-0.4-0.1c0,0,0-0.1,0-0.1c0-0.1,0-0.1,0-0.2c0.1,0,0.3,0,0.6,0s0.6,0,0.8,0
			c0.2,0,0.3,0,0.4,0s0.3,0,0.5,0l0.4,0c0,0.1,0,0.1,0,0.2c0,0.1,0,0.1,0,0.1c-0.1,0-0.3,0-0.4,0.1c-0.2,0.1-0.3,0.1-0.3,0.2
			c-0.1,0.3-0.1,0.7-0.1,1.1v1.7l0,0c0.7,0,1.3,0,1.7,0c0.4,0,1,0,1.7,0c0,0,0,0,0,0v-1.7c0-0.3,0-0.7-0.1-1c0-0.1-0.1-0.1-0.3-0.2
			c-0.1,0-0.3-0.1-0.4-0.1c0,0,0,0,0-0.1c0-0.1,0-0.1,0-0.2c0.1,0,0.3,0,0.6,0s0.6,0,0.8,0c0.1,0,0.3,0,0.4,0s0.3,0,0.5,0l0.4,0
			c0,0.1,0,0.1,0,0.2c0,0.1,0,0.2,0,0.2c-0.1,0-0.3,0-0.4,0.1c-0.2,0.1-0.3,0.1-0.3,0.2c-0.1,0.4-0.1,0.7-0.1,1.1v4.4
			c0,0.4,0,0.7,0.1,1.1c0,0.1,0.1,0.1,0.3,0.2c0.1,0,0.3,0.1,0.4,0.1c0,0,0,0.1,0,0.2c0,0.1,0,0.1,0,0.2c-0.8,0-1.2-0.1-1.3-0.1
			c0,0-0.5,0-1.4,0.1c0-0.1-0.1-0.1,0-0.2c0-0.1,0-0.1,0-0.1c0.1,0,0.3,0,0.4-0.1c0.2,0,0.3-0.1,0.3-0.2
			C196.8,18.4,196.8,18.1,196.8,17.7z"/>
		<path d="M202.9,18.3c-1.4-1.5-1.4-3.9,0-5.5c1.3-1.4,3.5-1.5,4.9-0.2c0.1,0.1,0.2,0.1,0.2,0.2c1.4,1.5,1.4,3.9,0,5.5
			c-1.3,1.4-3.5,1.5-5,0.2C203,18.4,203,18.3,202.9,18.3z M205.3,12.1c-0.7,0-1.4,0.3-1.7,1c-0.4,0.7-0.6,1.4-0.6,2.2
			c0,0.6,0.1,1.2,0.3,1.7c0.2,0.5,0.5,1,0.9,1.4c0.4,0.4,0.9,0.6,1.5,0.5c0.5,0,0.9-0.2,1.3-0.5c0.4-0.3,0.6-0.7,0.8-1.2
			c0.2-0.5,0.3-1,0.3-1.5c0-0.6-0.1-1.2-0.3-1.7c-0.2-0.5-0.5-1-0.9-1.4C206.4,12.3,205.9,12.1,205.3,12.1L205.3,12.1z"/>
		<path d="M213.7,11.8c0.2,0,0.3,0,0.4,0s0.3,0,0.5,0l0.4,0c0,0.1,0,0.1,0,0.2c0,0.1,0,0.2,0,0.2c-0.1,0-0.3,0-0.4,0.1
			c-0.2,0.1-0.3,0.1-0.3,0.2c-0.1,0.3-0.1,0.7-0.1,1.1v4.3c0,0.3,0,0.7,0.1,1c0,0.1,0.3,0.1,0.8,0.1h0.5c0.5,0,1,0,1.4-0.2
			c0.2-0.1,0.3-0.2,0.4-0.4c0.2-0.2,0.3-0.5,0.3-0.8c0,0,0.1-0.1,0.2-0.1c0.1,0,0.2,0,0.3,0.1c0,0.1-0.1,0.3-0.2,0.5
			s-0.1,0.4-0.2,0.5s-0.1,0.3-0.1,0.5c0,0.1-0.1,0.3-0.1,0.4c-0.4,0-1,0-1.9,0c-0.8,0-1.5,0-2,0l-1.4,0c0-0.1,0-0.1,0-0.2
			c0-0.1,0-0.1,0-0.1c0.2,0,0.3,0,0.4-0.1c0.2,0,0.3-0.1,0.3-0.2c0.1-0.4,0.1-0.7,0.1-1.1v-4.3c0-0.3,0-0.7-0.1-1
			c0-0.1-0.1-0.1-0.3-0.2c-0.1,0-0.3-0.1-0.4-0.1c0,0,0-0.1,0-0.1c0-0.1,0-0.1,0-0.2c0.1,0,0.3,0,0.6,0S213.5,11.8,213.7,11.8z"/>
		<path d="M222.4,11.8c0.3,0,0.7,0,1.1,0s0.7,0,0.9,0c1.1-0.1,2.1,0.3,2.9,1.1c0.7,0.7,1.1,1.6,1,2.6c0,1-0.3,2-1.1,2.8
			c-0.8,0.8-1.8,1.2-2.9,1.1c-0.1,0-0.4,0-0.8,0c-0.5,0-0.8,0-1.1,0l-1.4,0c0-0.1,0-0.1,0-0.2c0-0.1,0-0.2,0-0.2
			c0.1,0,0.3,0,0.4-0.1c0.2-0.1,0.3-0.1,0.3-0.2c0.1-0.4,0.1-0.7,0.1-1.1v-4.3c0-0.3,0-0.7-0.1-1c0-0.1-0.1-0.1-0.3-0.2
			c-0.1,0-0.3-0.1-0.5-0.1c0,0,0,0,0-0.1c0-0.1,0-0.1,0-0.2C221.5,11.8,221.9,11.8,222.4,11.8z M222.9,13.2v4.5
			c0,0.3,0.1,0.6,0.2,0.9c0,0.1,0.2,0.1,0.6,0.2s0.7,0.1,0.9,0.1c1.8,0,2.6-1.1,2.6-3.4c0-0.8-0.2-1.6-0.7-2.2c-0.5-0.6-1.2-1-2-0.9
			h-0.1c-0.8,0-1.3,0.1-1.4,0.2C223,12.7,222.9,12.9,222.9,13.2L222.9,13.2z"/>
		<path d="M232.5,13.3c0-0.3,0-0.7-0.1-1c0-0.1-0.1-0.1-0.3-0.2c-0.1,0-0.3-0.1-0.4-0.1c0,0,0-0.1,0-0.1c0-0.1,0-0.1,0-0.2
			c0.9,0,1.3,0.1,1.4,0.1c0.1,0,0.6,0,1.3-0.1c0,0.1,0,0.1,0,0.2c0,0.1,0,0.2,0,0.2c-0.1,0-0.3,0-0.4,0.1c-0.2,0.1-0.3,0.1-0.3,0.2
			c-0.1,0.3-0.1,0.7-0.1,1.1v4.4c0,0.4,0,0.7,0.1,1.1c0,0.1,0.1,0.1,0.3,0.2c0.1,0,0.3,0.1,0.4,0.1c0,0,0,0.1,0,0.2
			c0,0.1,0,0.1,0,0.2c-0.8,0-1.2-0.1-1.3-0.1c0,0-0.5,0-1.4,0.1c0,0-0.1-0.1,0-0.2c0-0.1,0-0.2,0-0.2c0.1,0,0.3,0,0.4-0.1
			c0.2,0,0.3-0.1,0.3-0.2c0.1-0.3,0.1-0.7,0.1-1V13.3z"/>
		<path d="M243.3,13.3c0-0.3,0-0.7-0.1-1c0-0.1-0.2-0.1-0.4-0.2c-0.2,0-0.3-0.1-0.5-0.1c0,0,0,0,0-0.1c0-0.1,0-0.1,0-0.2
			c0.1,0,0.3,0,0.6,0s0.5,0,0.8,0s0.4,0,0.8,0s0.5,0,0.5,0c0,0.1,0,0.1,0,0.2c0,0.1,0,0.1,0,0.1c-0.2,0-0.3,0-0.5,0.1
			c-0.3,0.1-0.4,0.1-0.4,0.2c-0.1,0.4-0.1,0.7-0.1,1.1v4.4c0,0.5,0,1,0,1.6c-0.1,0-0.1,0.1-0.2,0c-0.2,0-0.3-0.1-0.4-0.3l-4.4-6.3
			v4.9c0,0.4,0,0.7,0.1,1.1c0,0.1,0.1,0.1,0.4,0.2c0.2,0,0.3,0.1,0.5,0.1c0,0,0,0,0,0.1c0,0.1,0,0.1,0,0.2c-0.8,0-1.2-0.1-1.3-0.1
			l-1.3,0.1c0-0.1,0-0.1,0-0.2c0-0.1,0-0.2,0-0.2c0.2,0,0.4,0,0.5-0.1c0.2-0.1,0.4-0.1,0.4-0.2c0.1-0.4,0.1-0.7,0.1-1.1v-4.5
			c0-0.3,0-0.6-0.1-0.9c0-0.1-0.2-0.1-0.4-0.2c-0.2,0-0.3-0.1-0.5-0.1c0,0,0,0,0-0.1c0-0.1,0-0.1,0-0.2c0.6,0,1,0,1.2,0
			c0.4,0,0.7,0,0.9,0c0.3,0.5,1.6,2.4,3.9,5.6c0-0.2,0-0.3,0-0.5L243.3,13.3z"/>
		<path d="M248,15.6c0-1,0.4-2,1.1-2.8c0.7-0.8,1.7-1.2,2.7-1.2c0.9,0.1,1.8,0.2,2.7,0.5c0,0.9,0,1.3,0,1.4c0,0.1-0.1,0.2-0.2,0.2
			c-0.1,0-0.1,0-0.1-0.1c-0.2-1-1-1.6-2.3-1.6c-0.8,0-1.5,0.4-1.9,1c-1.1,1.4-1,3.3,0.1,4.7c0.5,0.7,1.3,1.1,2.1,1.1
			c0.5,0,1-0.1,1.5-0.3c0.1,0,0.1-0.1,0.1-0.2l0-0.9v-0.1c0-0.3,0-0.7-0.1-1c0-0.1-0.2-0.1-0.4-0.2c-0.2,0-0.3-0.1-0.5-0.1
			c0,0,0,0,0-0.1c0-0.1,0-0.1,0-0.2l1.5,0.1c0.1,0,0.5,0,1.2-0.1c0,0.1,0,0.1,0,0.2c0,0.1,0,0.2,0,0.2c-0.1,0-0.2,0-0.3,0.1
			c-0.1,0-0.2,0.1-0.3,0.1c-0.1,0.1-0.1,0.3-0.1,0.8c0,0.2,0,0.3,0,0.5s0,0.3,0,0.3c0,0.1,0,0.3,0.1,0.4c0,0.1,0.1,0.2,0.1,0.2
			c0,0.1-0.1,0.1-0.3,0.2c0,0-0.1,0-0.2,0.1S254,19,254,19s-0.1,0-0.3,0.1c-0.1,0-0.2,0.1-0.3,0.1l-0.3,0.1c-0.1,0-0.3,0.1-0.4,0.1
			c-0.1,0-0.3,0-0.5,0s-0.4,0-0.6,0c-1,0-1.9-0.4-2.6-1.1C248.4,17.5,248,16.6,248,15.6z"/>
	</g>
	<g>
		<path d="M73.3,14.8v10.2h-3.2V11.8h8.8v3H73.3z"/>
		<path d="M85.6,17.7l-2.8,7.4h-3.6l5.4-13.3h1.9L92,25.1h-3.6L85.6,17.7z"/>
		<path d="M94.9,13.6c1.3-1.3,2.9-2,4.8-2c1.9,0,3.5,0.7,4.8,2s2,2.9,2,4.8c0,1.9-0.7,3.5-2,4.8c-1.3,1.3-2.9,2-4.8,2
			c-1.9,0-3.5-0.7-4.8-2c-1.3-1.3-2-2.9-2-4.8C92.9,16.5,93.6,15,94.9,13.6z M102.2,15.7c-0.7-0.7-1.5-1-2.5-1c-1,0-1.9,0.3-2.5,1
			c-0.7,0.7-1,1.6-1,2.7c0,1.1,0.3,2,1,2.7c0.7,0.7,1.5,1,2.5,1c1,0,1.9-0.3,2.5-1c0.7-0.7,1-1.6,1-2.7
			C103.2,17.3,102.9,16.4,102.2,15.7z"/>
		<path d="M112.6,16.5h2.6c1.5,0,2.7,0.4,3.4,1.2c0.8,0.8,1.2,1.8,1.2,3.1c0,1.3-0.4,2.3-1.2,3.1c-0.8,0.8-1.9,1.2-3.4,1.2h-5.8
			V11.8h9.1v3h-5.9V16.5z M112.6,22h2.7c1,0,1.5-0.4,1.5-1.2c0-0.8-0.5-1.3-1.5-1.3h-2.7V22z"/>
		<path d="M125.4,23.2l-0.7,1.8h-3.6l5.4-13.3h1.9l5.3,13.3h-3.6l-0.7-1.8H125.4z M127.5,17.6l-1,2.6h1.9L127.5,17.6z"/>
		<path d="M141.7,17.7l-2.8,7.4h-3.6l5.4-13.3h1.9l5.3,13.3h-3.6L141.7,17.7z"/>
		<path d="M154.8,11.6c1.9,0,3.5,0.7,4.8,2c1.3,1.3,2,2.9,2,4.8c0,1.9-0.7,3.5-2,4.8c-1.3,1.3-2.9,2-4.8,2c-2,0-3.6-0.7-5-2.2
			l2.1-1.9c0.8,0.7,1.7,1.1,2.9,1.1c0.7,0,1.4-0.2,2-0.6c0.6-0.4,1-0.9,1.2-1.6h-3.9v-3h3.9c-0.3-0.7-0.7-1.2-1.2-1.6
			c-0.6-0.4-1.2-0.6-2-0.6c-1.1,0-2.1,0.4-2.9,1.1l-2.1-1.9C151.2,12.4,152.8,11.6,154.8,11.6z"/>
		<path d="M174.8,25.1h-3.2v-5.1h-4.1v5.1h-3.2V11.8h3.2v5.1h4.1v-5.1h3.2V25.1z"/>
		<path d="M181.7,16.9h5.3v3.1h-5.3V22h5.9v3.1h-9.1V11.8h9.1v3h-5.9V16.9z"/>
		<path d="M190.7,11.8h4.5c1.9,0,3.3,0.5,4.4,1.5c1,1,1.6,2.2,1.6,3.7s-0.5,2.7-1.6,3.7c-1,1-2.5,1.5-4.4,1.5h-1.3v2.8h-3.2V11.8z
			 M193.9,19.2h1.5c0.7,0,1.4-0.2,1.9-0.5c0.5-0.4,0.8-0.9,0.8-1.6c0-0.7-0.3-1.2-0.8-1.6c-0.5-0.4-1.1-0.6-1.9-0.6h-1.5V19.2z"/>
		<path d="M207.2,14.8v10.2H204V11.8h8.8v3H207.2z"/>
		<path d="M216.5,13.6c1.3-1.3,2.9-2,4.8-2s3.5,0.7,4.8,2c1.3,1.3,2,2.9,2,4.8c0,1.9-0.7,3.5-2,4.8c-1.3,1.3-2.9,2-4.8,2
			s-3.5-0.7-4.8-2c-1.3-1.3-2-2.9-2-4.8C214.5,16.5,215.2,15,216.5,13.6z M223.8,15.7c-0.7-0.7-1.5-1-2.5-1c-1,0-1.9,0.3-2.5,1
			c-0.7,0.7-1,1.6-1,2.7c0,1.1,0.3,2,1,2.7c0.7,0.7,1.5,1,2.5,1c1,0,1.9-0.3,2.5-1c0.7-0.7,1-1.6,1-2.7
			C224.8,17.3,224.5,16.4,223.8,15.7z"/>
		<path d="M235.1,21.1l-2.6,4h-3.7l4.5-7l-4.2-6.3h3.7l2.4,3.5l2.3-3.5h3.7l-4.2,6.4l4.5,6.8h-3.7L235.1,21.1z"/>
		<path d="M244.3,13.6c1.3-1.3,2.9-2,4.8-2s3.5,0.7,4.8,2c1.3,1.3,2,2.9,2,4.8c0,1.9-0.7,3.5-2,4.8c-1.3,1.3-2.9,2-4.8,2
			s-3.5-0.7-4.8-2c-1.3-1.3-2-2.9-2-4.8C242.3,16.5,243,15,244.3,13.6z M251.6,15.7c-0.7-0.7-1.5-1-2.5-1c-1,0-1.9,0.3-2.5,1
			c-0.7,0.7-1,1.6-1,2.7c0,1.1,0.3,2,1,2.7c0.7,0.7,1.5,1,2.5,1c1,0,1.9-0.3,2.5-1c0.7-0.7,1-1.6,1-2.7
			C252.6,17.3,252.3,16.4,251.6,15.7z"/>
		<path d="M262.8,17.7l-2.8,7.4h-3.6l5.4-13.3h1.9l5.3,13.3h-3.6L262.8,17.7z"/>
		<path d="M284.4,27.5h-3.2v-2.4h-7.3v2.4h-3.2V22h1.8l4.2-10.2h1.9l4.1,10.2h1.8V27.5z M277.6,17.7l-1.6,4.3h3.3L277.6,17.7z"/>
		<path d="M297.6,25.1h-3.2v-7.3l-5.5,7.3h-1.9V11.8h3.2v7.3l5.5-7.3h1.9V25.1z"/>
		<path d="M311.6,25.1h-3.2v-5.1h-4.1v5.1H301V11.8h3.2v5.1h4.1v-5.1h3.2V25.1z"/>
		<path d="M318.4,14.8v10.2h-3.2V11.8h8.8v3H318.4z"/>
	</g>
</g>
</svg>
