<svg xmlns="http://www.w3.org/2000/svg" width="64" height="64" viewBox="0 0 64 64"><g transform="translate(-402 -1480)"><g transform="translate(402 1480)" fill="none" stroke="#602c75" stroke-width="2" opacity="0.3"><circle cx="32" cy="32" r="32" stroke="none"/><circle cx="32" cy="32" r="31" fill="none"/></g><g transform="translate(351.675 1200.383)"><path d="M97.126,314.982a2.854,2.854,0,0,0-3.873-.988l-3.83,2.014a.155.155,0,0,1-.221-.094h0a3.013,3.013,0,0,0-2.89-2.164h-5.5a5.982,5.982,0,0,1-2.316-.594,12.415,12.415,0,0,0-3.838-1l-.227-.021v-.445H68.48a.155.155,0,0,0-.155.155v12.806a.155.155,0,0,0,.155.155h5.792a.154.154,0,0,0,.155-.155V323.2l.922.6a5.108,5.108,0,0,0,3.359,1l6.148,0a6.6,6.6,0,0,0,2.822-.839c.867-.42,7.705-4.6,8.481-5.079A2.85,2.85,0,0,0,97.126,314.982ZM72.3,322.829h-1.84a.155.155,0,0,1-.155-.155v-8.856a.154.154,0,0,1,.155-.154H72.3a.154.154,0,0,1,.155.154v8.856A.155.155,0,0,1,72.3,322.829Zm23.236-6.17a.861.861,0,0,1-.393.533l-.006,0c-2.9,1.776-7.72,4.7-8.315,4.988a5.047,5.047,0,0,1-1.963.643l-6.148,0a3.214,3.214,0,0,1-2.255-.667c-.785-.508-1.469-.966-1.916-1.268l-.109-.074v-6.707l.277.031a10.782,10.782,0,0,1,3.056.846,7.8,7.8,0,0,0,3.048.736h5.629a.87.87,0,0,1,.869.869.858.858,0,0,1-.107.418l.088.088-.281.178-1.674.88a.154.154,0,0,0-.065.209l.774,1.475a.156.156,0,0,0,.21.065l8-4.207a.868.868,0,0,1,1.285.958Z" fill="#602c75"/><path d="M93.462,299.135l-4.668-.518,1.04,1.629-5.1,3.18-1.977-3.169L74.543,305l1,1.732,6.542-3.78,2.013,3.226,6.811-4.25,1.058,1.657Z" fill="#602c75"/></g></g></svg>