<svg xmlns="http://www.w3.org/2000/svg" width="64" height="64" viewBox="0 0 64 64"><g transform="translate(-402 -1480)"><g transform="translate(402 1480)" fill="none" stroke="#602c75" stroke-width="2" opacity="0.3"><circle cx="32" cy="32" r="32" stroke="none"/><circle cx="32" cy="32" r="31" fill="none"/></g><path d="M395.916,854.519a.926.926,0,1,1,0-1.851h.175v-5.8a.927.927,0,0,1,.927-.926h4.9a.927.927,0,0,1,.928.926v5.8h.841v-9.709a.927.927,0,0,1,.927-.926h4.9a.928.928,0,0,1,.928.926v9.709h1.085v-13.5a.928.928,0,0,1,.928-.926h4.9a.928.928,0,0,1,.928.926v13.5h.84V835.136a.928.928,0,0,1,.928-.926h4.9a.928.928,0,0,1,.928.926v17.532h.175a.926.926,0,1,1,0,1.851Zm25.068-1.851h3.046V836.061h-3.046Zm-7.6,0h3.046V840.1h-3.046Zm-7.842,0h3.046v-8.784h-3.046Zm-7.6,0h3.046V847.8h-3.046ZM398,840.484a.925.925,0,0,1,0-1.309l6.664-6.647a.928.928,0,0,1,1.311,0l3.106,3.1,5.79-5.777h-.16a.925.925,0,1,1,0-1.85h2.4a.928.928,0,0,1,.928.926v2.392a.928.928,0,0,1-1.856,0v-.157l-6.446,6.43a.929.929,0,0,1-1.311,0l-3.106-3.1-6.008,5.993a.93.93,0,0,1-1.312,0Z" transform="translate(23.012 671)" fill="#602c75"/></g></svg>