<svg xmlns="http://www.w3.org/2000/svg" width="64" height="64" viewBox="0 0 64 64"><g transform="translate(-402 -1480)"><g transform="translate(402 1480)" fill="none" stroke="#602c75" stroke-width="2" opacity="0.3"><circle cx="32" cy="32" r="32" stroke="none"/><circle cx="32" cy="32" r="31" fill="none"/></g><path d="M253.606,245.94a4.539,4.539,0,0,0-.246-1.264,3.943,3.943,0,0,0,.879-2.594,4.059,4.059,0,0,0-.82-2.236,3.621,3.621,0,0,0-.885-4.052c-1.058-.964-2.829-1.392-5.285-1.276a20.836,20.836,0,0,0-3.2.409c-.272.049-.558.107-.85.171a12.753,12.753,0,0,1,.8-3.53c.919-2.8.855-4.947-.188-6.388a4.247,4.247,0,0,0-3.4-1.652,1.756,1.756,0,0,0-1.353.617,4.443,4.443,0,0,0-.579,3.153c-.978,2.615-3.306,7.888-5.193,9.341a.783.783,0,0,0-.128.111,7,7,0,0,0-1.228,1.8,2.8,2.8,0,0,0-1.212-.271h-3.937a2.83,2.83,0,0,0-2.826,2.826V251.6a2.83,2.83,0,0,0,2.826,2.826h3.937a2.818,2.818,0,0,0,1.586-.485l1.46.174a65.456,65.456,0,0,0,8.612.472c.809.061,1.519.09,2.172.09a14.61,14.61,0,0,0,3.03-.274,5.742,5.742,0,0,0,4.1-2.561,4.061,4.061,0,0,0,.465-2.485A4.254,4.254,0,0,0,253.606,245.94Zm-3.523,3.354v0a2.134,2.134,0,0,1-.164,1.551,3.9,3.9,0,0,1-2.759,1.569,16.85,16.85,0,0,1-4.674.14h-.093a64.229,64.229,0,0,1-8.377-.458l-.5-.06a2.936,2.936,0,0,0,.033-.444V241.1a2.876,2.876,0,0,0-.116-.8,5.206,5.206,0,0,1,1.14-2.1c2.84-2.251,5.593-9.612,5.9-10.445a.965.965,0,0,0,.046-.5,4.492,4.492,0,0,1,.034-1.7,2.151,2.151,0,0,1,1.614.809c.633.874.6,2.453-.1,4.564-1.1,3.347-1.186,5.119-.276,5.926a1.53,1.53,0,0,0,1.533.285c.437-.1.79-.171,1.126-.227l.08-.018c1.935-.422,5.451-.689,6.637.392a1.716,1.716,0,0,1,.2,2.173,1,1,0,0,0,.177,1.3,1.972,1.972,0,0,1-.1,3.045h0a1.009,1.009,0,0,0-.139,1.216l.006.011a2.544,2.544,0,0,1,.275,1.007,2.46,2.46,0,0,1-1.157,2.114A1.018,1.018,0,0,0,250.083,249.294Zm-24.1-8.193a.8.8,0,0,1,.8-.8h3.937a.8.8,0,0,1,.8.8v10.487a.8.8,0,0,1-.8.8h-4.034a.8.8,0,0,1-.7-.794Z" transform="translate(195.041 1272.472)" fill="#602c75"/></g></svg>