<svg xmlns="http://www.w3.org/2000/svg" width="64" height="64" viewBox="0 0 64 64"><g transform="translate(-402 -1480)"><g transform="translate(402 1480)" fill="none" opacity="0.3"><path d="M32,0A32,32,0,1,1,0,32,32,32,0,0,1,32,0Z" stroke="none"/><path d="M 32 2 C 27.94915008544922 2 24.0205192565918 2.792919158935547 20.32326126098633 4.356731414794922 C 16.75112152099609 5.867618560791016 13.5425910949707 8.030998229980469 10.78680038452148 10.78680038452148 C 8.030998229980469 13.5425910949707 5.867618560791016 16.75112152099609 4.356731414794922 20.32326126098633 C 2.792919158935547 24.0205192565918 2 27.94915008544922 2 32 C 2 36.05084991455078 2.792919158935547 39.9794807434082 4.356731414794922 43.67674255371094 C 5.867618560791016 47.24887847900391 8.030998229980469 50.4574089050293 10.78680038452148 53.21319961547852 C 13.5425910949707 55.96900177001953 16.75112152099609 58.13238143920898 20.32326126098633 59.64326858520508 C 24.0205192565918 61.20708084106445 27.94915008544922 62 32 62 C 36.05084991455078 62 39.9794807434082 61.20708084106445 43.67674255371094 59.64326858520508 C 47.24887847900391 58.13238143920898 50.4574089050293 55.96900177001953 53.21319961547852 53.21319961547852 C 55.96900177001953 50.4574089050293 58.13238143920898 47.24887847900391 59.64326858520508 43.67674255371094 C 61.20708084106445 39.9794807434082 62 36.05084991455078 62 32 C 62 27.94915008544922 61.20708084106445 24.0205192565918 59.64326858520508 20.32326126098633 C 58.13238143920898 16.75112152099609 55.96900177001953 13.5425910949707 53.21319961547852 10.78680038452148 C 50.4574089050293 8.030998229980469 47.24887847900391 5.867618560791016 43.67674255371094 4.356731414794922 C 39.9794807434082 2.792919158935547 36.05084991455078 2 32 2 M 32 0 C 49.67311096191406 0 64 14.32688903808594 64 32 C 64 49.67311096191406 49.67311096191406 64 32 64 C 14.32688903808594 64 0 49.67311096191406 0 32 C 0 14.32688903808594 14.32688903808594 0 32 0 Z" stroke="none" fill="#602c75"/></g><path d="M685,850.438v-7.5c0-3.045,5.314-4.688,10.312-4.688s10.313,1.643,10.313,4.688v7.5c0,3.044-5.314,4.687-10.313,4.687S685,853.482,685,850.438Zm1.875,0c0,1.145,3.287,2.812,8.437,2.812s8.437-1.667,8.437-2.812v-.977c-1.99,1.254-5.274,1.915-8.437,1.915s-6.448-.661-8.437-1.915Zm0-3.75c0,1.146,3.287,2.812,8.437,2.812s8.437-1.666,8.437-2.812v-.977c-1.99,1.255-5.274,1.914-8.437,1.914s-6.448-.66-8.437-1.914Zm0-3.75c0,1.145,3.287,2.812,8.437,2.812s8.437-1.667,8.437-2.812-3.286-2.813-8.437-2.813S686.875,841.792,686.875,842.938Zm18.754,11.253a.937.937,0,0,1,.855-1.013c4.335-.361,6.641-1.824,6.641-2.74v-.979a12.549,12.549,0,0,1-4.524,1.583.834.834,0,0,1-.165.015.937.937,0,0,1-.161-1.86c3.151-.557,4.85-1.708,4.85-2.508v-.979a12.565,12.565,0,0,1-4.524,1.583.833.833,0,0,1-.165.014.937.937,0,0,1-.161-1.86c3.151-.557,4.85-1.708,4.85-2.508v-.979a12.536,12.536,0,0,1-4.524,1.582.834.834,0,0,1-.165.015.937.937,0,0,1-.161-1.86c3.151-.557,4.85-1.708,4.85-2.508v-1a15.013,15.013,0,0,1-6.483,1.862c-.028,0-.052,0-.081,0a.937.937,0,0,1-.077-1.871c4.335-.362,6.641-1.825,6.641-2.741v-.977c-1.989,1.255-5.274,1.914-8.437,1.914s-6.448-.66-8.437-1.914v.977a.937.937,0,0,1-1.875,0v-3.75c0-3.045,5.314-4.687,10.312-4.687S715,828.642,715,831.687v18.75c0,2.7-4.2,4.259-8.359,4.609-.028,0-.052,0-.081,0A.935.935,0,0,1,705.629,854.191Zm-9.379-22.5c0,1.146,3.287,2.813,8.437,2.813s8.437-1.667,8.437-2.813-3.286-2.812-8.437-2.812S696.25,830.542,696.25,831.687Z" transform="translate(-268 671)" fill="#602c75"/></g></svg>