<svg xmlns="http://www.w3.org/2000/svg" width="64" height="64" viewBox="0 0 64 64"><g transform="translate(-402 -1480)"><g transform="translate(402 1480)" fill="none" opacity="0.3"><path d="M32,0A32,32,0,1,1,0,32,32,32,0,0,1,32,0Z" stroke="none"/><path d="M 32 2 C 27.94915008544922 2 24.0205192565918 2.792919158935547 20.32326126098633 4.356731414794922 C 16.75112152099609 5.867618560791016 13.5425910949707 8.030998229980469 10.78680038452148 10.78680038452148 C 8.030998229980469 13.5425910949707 5.867618560791016 16.75112152099609 4.356731414794922 20.32326126098633 C 2.792919158935547 24.0205192565918 2 27.94915008544922 2 32 C 2 36.05084991455078 2.792919158935547 39.9794807434082 4.356731414794922 43.67674255371094 C 5.867618560791016 47.24887847900391 8.030998229980469 50.4574089050293 10.78680038452148 53.21319961547852 C 13.5425910949707 55.96900177001953 16.75112152099609 58.13238143920898 20.32326126098633 59.64326858520508 C 24.0205192565918 61.20708084106445 27.94915008544922 62 32 62 C 36.05084991455078 62 39.9794807434082 61.20708084106445 43.67674255371094 59.64326858520508 C 47.24887847900391 58.13238143920898 50.4574089050293 55.96900177001953 53.21319961547852 53.21319961547852 C 55.96900177001953 50.4574089050293 58.13238143920898 47.24887847900391 59.64326858520508 43.67674255371094 C 61.20708084106445 39.9794807434082 62 36.05084991455078 62 32 C 62 27.94915008544922 61.20708084106445 24.0205192565918 59.64326858520508 20.32326126098633 C 58.13238143920898 16.75112152099609 55.96900177001953 13.5425910949707 53.21319961547852 10.78680038452148 C 50.4574089050293 8.030998229980469 47.24887847900391 5.867618560791016 43.67674255371094 4.356731414794922 C 39.9794807434082 2.792919158935547 36.05084991455078 2 32 2 M 32 0 C 49.67311096191406 0 64 14.32688903808594 64 32 C 64 49.67311096191406 49.67311096191406 64 32 64 C 14.32688903808594 64 0 49.67311096191406 0 32 C 0 14.32688903808594 14.32688903808594 0 32 0 Z" stroke="none" fill="#602c75"/></g><g transform="translate(258.552 1200.753)"><path d="M190.248,314.982a2.853,2.853,0,0,0-3.873-.988l-3.83,2.014a.155.155,0,0,1-.221-.094h0a3.012,3.012,0,0,0-2.89-2.164h-5.5a5.977,5.977,0,0,1-2.315-.594,12.415,12.415,0,0,0-3.838-1l-.228-.021v-.445H161.6a.154.154,0,0,0-.155.155v12.806a.154.154,0,0,0,.155.155h5.791a.154.154,0,0,0,.155-.155V323.2l.922.6a5.109,5.109,0,0,0,3.359,1l6.148,0a6.6,6.6,0,0,0,2.822-.839c.867-.42,7.705-4.6,8.482-5.079A2.85,2.85,0,0,0,190.248,314.982Zm-24.829,7.847h-1.841a.156.156,0,0,1-.155-.155v-8.856a.155.155,0,0,1,.155-.154h1.841a.155.155,0,0,1,.155.154v8.856A.156.156,0,0,1,165.419,322.829Zm23.236-6.17a.866.866,0,0,1-.394.533l-.006,0c-2.9,1.776-7.719,4.7-8.314,4.988a5.051,5.051,0,0,1-1.964.643l-6.148,0a3.212,3.212,0,0,1-2.254-.667c-.786-.508-1.47-.966-1.916-1.268l-.11-.074v-6.707l.278.031a10.784,10.784,0,0,1,3.055.846,7.808,7.808,0,0,0,3.048.736h5.629a.871.871,0,0,1,.763,1.287l.088.088-.282.178-1.674.88a.154.154,0,0,0-.065.209l.775,1.475a.155.155,0,0,0,.209.065l8-4.207a.868.868,0,0,1,1.285.958Z" fill="#602c75"/><path d="M171.573,309.781l3.628-1.908a.5.5,0,0,1,.464,0l3.628,1.908a.5.5,0,0,0,.723-.526l-.692-4.039a.5.5,0,0,1,.143-.441l2.936-2.862a.5.5,0,0,0-.277-.85l-4.057-.59a.5.5,0,0,1-.375-.273l-1.814-3.676a.5.5,0,0,0-.894,0l-1.814,3.676a.5.5,0,0,1-.375.273l-4.057.59a.5.5,0,0,0-.277.85l2.936,2.862a.5.5,0,0,1,.143.441l-.692,4.039A.5.5,0,0,0,171.573,309.781Zm2.911-7.775.5-1.017a.5.5,0,0,1,.894,0l.5,1.017a.494.494,0,0,0,.374.272l1.123.164a.5.5,0,0,1,.276.851l-.813.791a.5.5,0,0,0-.143.441l.192,1.119a.5.5,0,0,1-.723.525l-1-.528a.5.5,0,0,0-.464,0l-1,.528a.5.5,0,0,1-.723-.525l.191-1.119a.5.5,0,0,0-.143-.441l-.813-.791a.5.5,0,0,1,.276-.85l1.124-.165A.494.494,0,0,0,174.484,302.006Z" fill="#602c75"/></g></g></svg>