<svg xmlns="http://www.w3.org/2000/svg">
    <symbol id="ico-search" viewBox="0 0 21 21">
        <path fill-rule="evenodd"  fill="rgb(255, 255, 255)" d="M20.485,18.003 L15.923,13.441 C15.899,13.417 15.870,13.400 15.845,13.378 C16.742,12.016 17.266,10.386 17.266,8.633 C17.266,3.865 13.401,-0.000 8.633,-0.000 C3.865,-0.000 -0.000,3.865 -0.000,8.633 C-0.000,13.401 3.865,17.267 8.633,17.267 C10.386,17.267 12.016,16.743 13.377,15.845 C13.400,15.870 13.417,15.899 13.441,15.923 L18.003,20.485 C18.689,21.170 19.799,21.170 20.485,20.485 C21.170,19.800 21.170,18.689 20.485,18.003 L20.485,18.003 ZM8.633,14.274 C5.518,14.274 2.993,11.748 2.993,8.633 C2.993,5.518 5.518,2.993 8.633,2.993 C11.748,2.993 14.274,5.518 14.274,8.633 C14.274,11.748 11.748,14.274 8.633,14.274 L8.633,14.274 Z" />
    </symbol>
  <symbol id="ico-download"  viewBox="0 0 24.97 24.033">
    <path d="M1191.56,802.03h-5.22a1.456,1.456,0,0,0-1.46,1.3,2.8,2.8,0,0,1-5.55,0,1.459,1.459,0,0,0-1.47-1.3h-5.21a3,3,0,0,0-3.03,2.958v4.048a3,3,0,0,0,3.03,2.957h18.91a3,3,0,0,0,3.03-2.957v-4.048a3,3,0,0,0-3.03-2.958Zm-19.85,2.958a.928.928,0,0,1,.94-.915h4.69a4.9,4.9,0,0,0,9.53,0h4.69a.926.926,0,0,1,.93.915v4.048a.925.925,0,0,1-.93.914h-18.91a.927.927,0,0,1-.94-.914v-4.048Zm9.65-3.748a1.056,1.056,0,0,0,.74.3,1.08,1.08,0,0,0,.75-.3l3.94-3.856a1,1,0,0,0,0-1.444,1.06,1.06,0,0,0-.73-.293h-.01a1.077,1.077,0,0,0-.74.293l-2.16,2.112V789a1.045,1.045,0,0,0-2.09.011v9.043l-2.17-2.112a1.02,1.02,0,0,0-.73-.292h0a1.062,1.062,0,0,0-.74.292,1,1,0,0,0,0,1.443Z" transform="translate(-1169.62 -787.961)" fill-rule="evenodd"/>
  </symbol>

</svg>
